<svg xmlns="http://www.w3.org/2000/svg" width="23" height="23" viewBox="0 0 23 23"><title>icons-social-set copy</title><path d="M16.24,14.78V14.34H15.79a2.29,2.29,0,0,1-2.29-2.28V10.95a2.29,2.29,0,0,1,2.29-2.28h0.44V8.22a2.27,2.27,0,0,1,.62-1.55A9.21,9.21,0,0,0,6.19,2.86,9.21,9.21,0,0,0,0,11.5a9.21,9.21,0,0,0,6.19,8.64,9.21,9.21,0,0,0,10.67-3.81A2.27,2.27,0,0,1,16.24,14.78ZM6.26,11a0.25,0.25,0,0,1,.1,0A3.11,3.11,0,0,1,8.11,7.2a2.66,2.66,0,0,1,1-.12,2.69,2.69,0,0,1,1,.12A3.11,3.11,0,0,1,11.89,11c0.61-.06.15,1.51-0.39,1.6a3,3,0,0,1-.75,1.61v0a2.09,2.09,0,0,1-3.23,0h0a3,3,0,0,1-.77-1.63C6.23,12.51,5.8,11,6.26,11Zm5.86,7.39c-0.58.19-1.16,0.37-1.75,0.51a7.48,7.48,0,0,1-6.24-1.82c0.88-.78,3.41-0.4,3.42-1.87a2.51,2.51,0,0,0,3.16,0c0,1.51,2.53,1.08,3.43,1.88a7.49,7.49,0,0,1-2,1.32h0Z" fill="#375667" fill-rule="evenodd"/><path d="M22.36,10.31H20.27V8.22a0.64,0.64,0,0,0-.64-0.64h-1.1a0.64,0.64,0,0,0-.64.64v2.09H15.79a0.64,0.64,0,0,0-.64.64v1.11a0.64,0.64,0,0,0,.64.64h2.09v2.09a0.64,0.64,0,0,0,.64.64h1.1a0.64,0.64,0,0,0,.64-0.64V12.69h2.09A0.64,0.64,0,0,0,23,12.05V10.95A0.64,0.64,0,0,0,22.36,10.31Z" fill="#22b8af"/></svg>