<svg xmlns="http://www.w3.org/2000/svg" width="23" height="23" viewBox="0 0 23 23"><title>icons</title><path d="M21.23,16.79a16.26,16.26,0,0,1-1.47,2.75c-1,1.46-2.3,3.27-4,3.28-1.48,0-1.86-1-3.88-1s-2.43,1-3.92,1c-1.67,0-2.95-1.65-3.9-3.11-2.67-4.07-3-8.84-1.3-11.38A5.92,5.92,0,0,1,7.55,5.48c1.77,0,2.88,1,4.34,1s2.28-1,4.33-1a5.78,5.78,0,0,1,4.35,2.3,5,5,0,0,0,.66,9h0Z" fill="#999" fill-rule="evenodd"/><path d="M14.67,3.85A5,5,0,0,0,15.77.18,5.36,5.36,0,0,0,12.31,2a4.61,4.61,0,0,0-1.13,3.59,4.53,4.53,0,0,0,3.49-1.77h0Z" fill="#999" fill-rule="evenodd"/></svg>