<svg xmlns="http://www.w3.org/2000/svg" width="23" height="23" viewBox="0 0 23 23"><title>icons-singletons</title><path d="M20.78,18.33H2.92A2.35,2.35,0,0,1,1.34,18a1.4,1.4,0,0,1,.26-2.34c0.84-.41,2-0.19,2-1.53,0-3.89-.83-8.75,3-11.21a6.46,6.46,0,0,1,2.9-1c0.74-.07.49,0,0.79-0.64a1.39,1.39,0,0,1,2.61.29c0.12,0.51.49,0.31,1,.39a6.56,6.56,0,0,1,5.54,6.43v5.07c0,0.85,0,1.8,1.07,2,0.75,0.17,1.46.2,1.68,1.11a1.41,1.41,0,0,1-1.36,1.71" fill="#375667" fill-rule="evenodd"/><path d="M11.5,22.51a2.79,2.79,0,0,1-2.79-2.79h5.57a2.81,2.81,0,0,1-2.79,2.79" fill="#22b8af" fill-rule="evenodd"/></svg>