<svg xmlns="http://www.w3.org/2000/svg" width="23" height="23" viewBox="0 0 23 23"><title>icons-singletons</title><path d="M19.31,2.81H18.19V5.29h-4V2.81H8.79V5.29h-4V2.81H3.7A2.49,2.49,0,0,0,1.21,5.29v14.9A2.49,2.49,0,0,0,3.7,22.68H19.31a2.49,2.49,0,0,0,2.48-2.48V5.29A2.49,2.49,0,0,0,19.31,2.81Zm0,17.39H3.7V10.26H19.31v9.93ZM7.67,0.32H5.93V4.55H7.67V0.32Zm9.4,0H15.33V4.55h1.74V0.32Z" fill="#375667"/><rect x="5.11" y="11.68" width="1.42" height="1.42" fill="#22b8af"/><rect x="5.11" y="14.52" width="1.42" height="1.42" fill="#22b8af"/><rect x="5.11" y="17.35" width="1.42" height="1.42" fill="#22b8af"/><rect x="7.95" y="11.68" width="1.42" height="1.42" fill="#22b8af"/><rect x="7.95" y="14.52" width="1.42" height="1.42" fill="#22b8af"/><rect x="7.95" y="17.35" width="1.42" height="1.42" fill="#22b8af"/><rect x="10.79" y="11.68" width="1.42" height="1.42" fill="#22b8af"/><rect x="10.79" y="14.52" width="1.42" height="1.42" fill="#22b8af"/><rect x="10.79" y="17.35" width="1.42" height="1.42" fill="#22b8af"/><rect x="13.63" y="11.68" width="1.42" height="1.42" fill="#22b8af"/><rect x="13.63" y="14.52" width="1.42" height="1.42" fill="#22b8af"/><rect x="13.63" y="17.35" width="1.42" height="1.42" fill="#22b8af"/><rect x="16.47" y="11.68" width="1.42" height="1.42" fill="#22b8af"/><rect x="16.47" y="14.52" width="1.42" height="1.42" fill="#22b8af"/><rect x="16.47" y="17.35" width="1.42" height="1.42" fill="#22b8af"/></svg>