<svg xmlns="http://www.w3.org/2000/svg" width="23" height="23" viewBox="0 0 23 23"><title>icons-ui-set copy</title><path d="M11.5,9.2C7,9.2,7,16.1,11.5,16.1S15.95,9.2,11.5,9.2Z" fill="#22b8af"/><path d="M20.7,5.75H17.94A1,1,0,0,1,17,5.1L16.32,3a1,1,0,0,0-.91-0.65H7.59A1,1,0,0,0,6.68,3L6,5.1a1,1,0,0,1-.91.65H2.3A2.31,2.31,0,0,0,0,8.05V18.4a2.31,2.31,0,0,0,2.3,2.3H20.7A2.31,2.31,0,0,0,23,18.4V8.05A2.31,2.31,0,0,0,20.7,5.75ZM11.5,18.4a5.75,5.75,0,1,1,5.75-5.75A5.8,5.8,0,0,1,11.5,18.4Zm8.39-8.74a0.8,0.8,0,0,1,0-1.61A0.8,0.8,0,0,1,19.89,9.66Z" fill="#375667"/></svg>