<svg xmlns="http://www.w3.org/2000/svg" width="23" height="23" viewBox="0 0 23 23"><title>icons-singletons</title><path d="M7.12,11a1.42,1.42,0,0,0,0-2.84A1.42,1.42,0,0,0,7.12,11Z" fill="#375667"/><path d="M15.88,11a1.42,1.42,0,0,0,0-2.84A1.42,1.42,0,0,0,15.88,11Z" fill="#375667"/><path d="M4.22,12.92a0.5,0.5,0,0,1,.5.5v1.42H18.28V13.42a0.5,0.5,0,0,1,.5-0.5h3.84V4.6a0.77,0.77,0,0,0-.77-0.77H1.15a0.78,0.78,0,0,0-.77.77v8.32H4.22ZM15.88,7.16C19,7.16,19,12,15.88,12S12.76,7.16,15.88,7.16Zm-8.76,0c3.12,0,3.12,4.84,0,4.84S4,7.16,7.12,7.16Z" fill="#375667"/><path d="M19.28,13.92v1.42a0.5,0.5,0,0,1-.5.5H4.22a0.5,0.5,0,0,1-.5-0.5V13.92H0.38V18.4a0.77,0.77,0,0,0,.77.77h20.7a0.78,0.78,0,0,0,.77-0.77V13.92H19.28Z" fill="#375667"/><path d="M7.12,8.16a1.42,1.42,0,0,0,0,2.84A1.42,1.42,0,0,0,7.12,8.16Z" fill="#22b8af"/><path d="M15.88,8.16a1.42,1.42,0,0,0,0,2.84A1.42,1.42,0,0,0,15.88,8.16Z" fill="#22b8af"/></svg>