<svg xmlns="http://www.w3.org/2000/svg" width="23" height="23" viewBox="0 0 23 23"><title>icons-singletons</title><path d="M7.12,8.16a1.42,1.42,0,0,0,0,2.84A1.42,1.42,0,0,0,7.12,8.16Z" fill="#22b8af"/><path d="M15.88,8.16a1.42,1.42,0,0,0,0,2.84A1.42,1.42,0,0,0,15.88,8.16Z" fill="#22b8af"/><path d="M0.81,14.11a0.5,0.5,0,0,1,.71,0l1.12,1.12,1.12-1.12a0.5,0.5,0,0,1,.71,0l1.12,1.12,1.12-1.12a0.5,0.5,0,0,1,.71,0l1.12,1.12,1.12-1.12a0.5,0.5,0,0,1,.71,0l1.12,1.12,1.12-1.12a0.5,0.5,0,0,1,.71,0l1.12,1.12,1.12-1.12a0.5,0.5,0,0,1,.71,0l1.12,1.12,1.12-1.12a0.5,0.5,0,0,1,.71,0l1.12,1.12,1.12-1.12a0.5,0.5,0,0,1,.71,0l0.45,0.45V4.6a0.77,0.77,0,0,0-.77-0.77H1.15a0.78,0.78,0,0,0-.77.77v9.95ZM15.88,7.16C19,7.16,19,12,15.88,12S12.76,7.16,15.88,7.16Zm-8.76,0c3.12,0,3.12,4.84,0,4.84S4,7.16,7.12,7.16Z" fill="#375667"/><path d="M21.82,15.17l-1.08,1.08a0.49,0.49,0,0,1-.19.15A0.5,0.5,0,0,1,20,16.3l-1.13-1.13-1.08,1.08a0.49,0.49,0,0,1-.19.15A0.5,0.5,0,0,1,17,16.3l-1.13-1.13-1.08,1.08a0.49,0.49,0,0,1-.19.15,0.5,0.5,0,0,1-.55-0.1L13,15.17l-1.08,1.08a0.49,0.49,0,0,1-.19.15,0.5,0.5,0,0,1-.55-0.1L10,15.17,8.94,16.26a0.49,0.49,0,0,1-.19.15,0.5,0.5,0,0,1-.54-0.1L7.07,15.17,6,16.26a0.49,0.49,0,0,1-.19.15,0.5,0.5,0,0,1-.55-0.1L4.12,15.17,3,16.26a0.49,0.49,0,0,1-.19.15,0.5,0.5,0,0,1-.54-0.1L1.17,15.17,0.38,16V18.4a0.77,0.77,0,0,0,.77.77h20.7a0.78,0.78,0,0,0,.77-0.77V16Z" fill="#375667"/></svg>