<svg xmlns="http://www.w3.org/2000/svg" width="23" height="23" viewBox="0 0 23 23"><title>icons-singletons</title><path d="M11.5,23.09a11.71,11.71,0,0,1-11-8A11.71,11.71,0,0,1,4.84,2a11.7,11.7,0,0,1,13.79.34A11.71,11.71,0,0,1,22.35,15.6,11.71,11.71,0,0,1,11.5,23.09Zm0-20.67a9.16,9.16,0,0,0-9.06,9.07,9.16,9.16,0,0,0,9.06,9.06,9.16,9.16,0,0,0,9.07-9.06A9.16,9.16,0,0,0,11.5,2.42Z" fill="#375667"/><path d="M13.1,13.09V4.87A0.86,0.86,0,0,0,12.24,4H10.76a0.86,0.86,0,0,0-.86.86v5H6a0.86,0.86,0,0,0-.86.86v1.48a0.86,0.86,0,0,0,.86.86H13.1Z" fill="#22b8af"/></svg>