<svg xmlns="http://www.w3.org/2000/svg" width="23" height="23" viewBox="0 0 23 23"><title>icons-singletons</title><path d="M13.32,18.29a0.67,0.67,0,0,0,.19.46l0.78,0.82a0.64,0.64,0,0,0,.91,0L22.48,12a0.67,0.67,0,0,0,0-.93L15.2,3.43a0.63,0.63,0,0,0-.91,0l-0.78.81a0.67,0.67,0,0,0,0,.93l6.06,6.32-6.06,6.32A0.7,0.7,0,0,0,13.32,18.29Z" fill="#22b8af"/><path d="M0.51,12l7.28,7.6a0.62,0.62,0,0,0,.91,0l0.78-.81a0.67,0.67,0,0,0,0-.93L3.43,11.5,9.49,5.18a0.67,0.67,0,0,0,0-.93L8.7,3.44a0.62,0.62,0,0,0-.91,0L0.51,11A0.67,0.67,0,0,0,.51,12Z" fill="#375667"/></svg>