<svg xmlns="http://www.w3.org/2000/svg" width="23" height="23" viewBox="0 0 23 23"><title>icons-singletons</title><path d="M11.51,1.25a1,1,0,0,1,1,1V4.39A7.13,7.13,0,0,1,15.8,5.75l1.5-1.5a1,1,0,1,1,1.45,1.44l0,0L17.25,7.19a7.21,7.21,0,0,1,1.35,3.29h2.13a1,1,0,0,1,0,2H18.61a7.11,7.11,0,0,1-1.35,3.27l1.5,1.5a1,1,0,0,1,0,1.45,1,1,0,0,1-1.45,0l-1.5-1.5a7.11,7.11,0,0,1-3.27,1.35v2.13a1,1,0,0,1-1,1,1,1,0,0,1-1-1V18.6A7.17,7.17,0,0,1,7.2,17.25L5.74,18.71l0,0a1,1,0,0,1-.72.3,1,1,0,0,1-.73-1.76l0,0,1.45-1.46a7.11,7.11,0,0,1-1.35-3.27H2.28a1,1,0,1,1,0-2H4.39A7.21,7.21,0,0,1,5.75,7.19l-1.5-1.5A1,1,0,0,1,5,3.95a1,1,0,0,1,.72.3l0,0L7.2,5.75a7.19,7.19,0,0,1,3.27-1.37V2.27a1,1,0,0,1,1-1m0-1.25A2.28,2.28,0,0,0,9.22,2.27V3.38a8.33,8.33,0,0,0-1.86.77L6.62,3.41l0,0A2.22,2.22,0,0,0,5,2.7,2.27,2.27,0,0,0,3.36,6.58L4.15,7.37a8.52,8.52,0,0,0-.77,1.86H2.28a2.27,2.27,0,1,0,0,4.54h1.1a8.41,8.41,0,0,0,.77,1.86l-0.68.69-0.12.11a2.29,2.29,0,0,0,0,3.21A2.27,2.27,0,0,0,5,20.3a2.24,2.24,0,0,0,1.62-.68l0,0,0.75-.75a8.3,8.3,0,0,0,1.85.77v1.12a2.28,2.28,0,0,0,4.55,0V19.61a8.41,8.41,0,0,0,1.85-.77l0.79,0.79a2.27,2.27,0,0,0,3.22,0,2.29,2.29,0,0,0,0-3.21l-0.8-.8a8.41,8.41,0,0,0,.77-1.85h1.12a2.27,2.27,0,0,0,0-4.54H19.62a8.52,8.52,0,0,0-.77-1.86l0.75-.74,0.11-.13a2.27,2.27,0,0,0-3.29-3.13l-0.78.78a8.45,8.45,0,0,0-1.86-.77V2.27A2.27,2.27,0,0,0,11.51,0h0Z" fill="#375667"/><path d="M11.51,9.45A2.05,2.05,0,1,1,9.45,11.5a2,2,0,0,1,2.05-2.05m0-2a4.1,4.1,0,1,0,4.09,4.1,4.11,4.11,0,0,0-4.09-4.1h0Z" fill="#22b8af"/></svg>