<svg xmlns="http://www.w3.org/2000/svg" xmlns:xlink="http://www.w3.org/1999/xlink" width="23" height="23" viewBox="0 0 23 23"><defs><clipPath id="a"><rect x="-29.66" y="14.11" width="9.11" height="5.6" fill="none"/></clipPath></defs><title>icons-singletons-set copy</title><path d="M0.88,6.25l9.7,4.68a2.41,2.41,0,0,0,1.85,0l9.7-4.68c0.51-.25.51-0.65,0-0.89l-9.7-4.68a2.41,2.41,0,0,0-1.85,0L0.88,5.36C0.37,5.61.37,6,.88,6.25Z" fill="#375667"/><path d="M22.13,11.05l-2-1a0.47,0.47,0,0,0-.54,0l-7.15,3.45a2.41,2.41,0,0,1-1.85,0l-7-3.4a0.66,0.66,0,0,0-.75,0L0.87,11c-0.51.25-.51,0.65,0,0.89l9.7,4.68a2.41,2.41,0,0,0,1.85,0l9.7-4.68C22.64,11.7,22.64,11.3,22.13,11.05Z" fill="#149996"/><path d="M22.13,16.75l-2-1a0.47,0.47,0,0,0-.54,0l-7.15,3.46a2.41,2.41,0,0,1-1.85,0l-7-3.4a0.66,0.66,0,0,0-.75,0l-1.91.92c-0.51.25-.51,0.65,0,0.89l9.7,4.68a2.14,2.14,0,0,0,.92.18,2.23,2.23,0,0,0,.92-0.18l9.7-4.68C22.64,17.39,22.64,17,22.13,16.75Z" fill="#375667"/></svg>