<svg xmlns="http://www.w3.org/2000/svg" width="23" height="23" viewBox="0 0 23 23"><title>icons-singletons</title><path d="M6.49,17.32L5.78,17.1a5.91,5.91,0,0,1-4-3.5,10.65,10.65,0,0,1,0-7.12C3.18,3,7.25,2.54,11.45,2.54c3,0,5.87.12,7.94,1.61,2.51,1.8,2.54,5.42,2.33,7.42A6,6,0,0,1,17.84,17a16.78,16.78,0,0,1-5.77.85h0c-1.12,0-2.34-.07-3.73-0.2l-0.48,0L6.49,19V17.32Z" fill="#375667"/><path d="M11.45,3.54c2.83,0,5.53.11,7.36,1.42,2.1,1.5,2.1,4.72,1.92,6.5A5.07,5.07,0,0,1,17.49,16a16.06,16.06,0,0,1-5.43.79c-1.09,0-2.28-.07-3.63-0.2l-1-.1,0,0-1.35-.41a5,5,0,0,1-3.34-2.89,9.58,9.58,0,0,1,0-6.41C3.83,4.1,7,3.54,11.45,3.54m0-2c-3.92,0-8.9.34-10.55,4.58A11.59,11.59,0,0,0,.86,14a6.87,6.87,0,0,0,4.63,4.1v3.4L8.23,18.6c1.22,0.12,2.52.21,3.83,0.21a18,18,0,0,0,6.12-.91,7,7,0,0,0,4.54-6.23C23,8.7,22.58,5.19,20,3.33c-2.4-1.72-5.69-1.79-8.52-1.79h0Z" fill="#22b8af"/></svg>