<svg xmlns="http://www.w3.org/2000/svg" width="23" height="23" viewBox="0 0 23 23"><title>icons-singletons</title><path d="M2.77,2.81A1.85,1.85,0,0,1,5.4,5.42L18,17.94l4.33-5.08a1.41,1.41,0,0,0,.33-1v0s0-.08,0-0.11h0A1.38,1.38,0,0,0,22.21,11L11.56,0.83a1.37,1.37,0,0,0-1-.41H1.77a1.39,1.39,0,0,0-1,.41Z" fill="#149996" fill-rule="evenodd"/><path d="M18,17.94L5.4,5.42C3.71,7.1,1.08,4.5,2.77,2.81l-2-2a1.37,1.37,0,0,0-.41,1V10.6h0a1.38,1.38,0,0,0,.47,1h0L12.44,22.24h0a1.35,1.35,0,0,0,.66.32h0.13a1.38,1.38,0,0,0,1.19-.48h0Z" fill="#22b8af" fill-rule="evenodd"/></svg>