<svg xmlns="http://www.w3.org/2000/svg" width="23" height="23" viewBox="0 0 23 23"><title>icons-singletons</title><path d="M21.66,3.1H14.47V4.68h6.09a0.48,0.48,0,0,1,.48.48v11.1H2V5.16a0.48,0.48,0,0,1,.48-0.48H8.19V3.1H1.35a1,1,0,0,0-1,1v14a1,1,0,0,0,1,1h7l-0.52,3a0.69,0.69,0,0,0,.67.8h5.76c0-.15.87-0.26,0.65-0.91l-0.5-2.93h7.22a1,1,0,0,0,1-1v-14A1,1,0,0,0,21.66,3.1Z" fill="#375667"/><path d="M15.33,8.81h0l-3.2,3.55a1.08,1.08,0,0,1-1.59,0h0L8.87,10.51c-0.21-.23-1.22-1.7-1.53-1.7A1.07,1.07,0,0,1,8.92,7.38l1.34,1.49V1.07A1.07,1.07,0,1,1,12.4,1v7.9a6.4,6.4,0,0,1,1.73-1.76A1.08,1.08,0,0,1,15.33,8.81Z" fill="#22b8af" fill-rule="evenodd"/></svg>