<svg xmlns="http://www.w3.org/2000/svg" width="23" height="23" viewBox="0 0 23 23"><title>icons-singletons</title><path d="M22.62,9a0.78,0.78,0,0,0-.32-0.62L12,0.81a0.78,0.78,0,0,0-.91,0L0.7,8.37A0.78,0.78,0,0,0,.38,9V21.57a0.77,0.77,0,0,0,.77.77h20.7a0.78,0.78,0,0,0,.77-0.77V9ZM11.5,2.39l9.58,7v0.93l-6.57,4.73,5.24,3.34a0.77,0.77,0,0,1-.82,1.31L11.51,15,4.11,19.7a0.77,0.77,0,0,1-.83-1.31l5.23-3.34L1.92,10.32V9.39Z" fill="#375667"/><polygon points="11.51 13.14 13.37 14.33 19.48 9.87 11.5 4.04 3.52 9.87 9.63 14.34 11.51 13.14" fill="#22b8af"/></svg>