<svg xmlns="http://www.w3.org/2000/svg" width="23" height="23" viewBox="0 0 23 23"><title>icons-singletons</title><path d="M6.07,6.8a2.55,2.55,0,0,1-.44-3.46A2.6,2.6,0,0,1,10.3,4.86V6.8h2.4V4.86A2.61,2.61,0,0,1,17,2.94,2.6,2.6,0,0,1,17,6.8h2.71a4.69,4.69,0,0,0,.43-1.94,4.78,4.78,0,0,0-8.6-2.91A4.81,4.81,0,0,0,7.72,0,4.86,4.86,0,0,0,2.9,4.86,4.69,4.69,0,0,0,3.33,6.8H6.07Z" fill="#22b8af"/><path d="M22.54,10.8V7.7a0.94,0.94,0,0,0-.94-0.94H1.4a1,1,0,0,0-.94.94v3.1H22.54Z" fill="#375667"/><path d="M13.82,12.88v7.44L11.5,18,9.18,20.33V12.88H0.46V22A0.94,0.94,0,0,0,1.4,23H21.6A1,1,0,0,0,22.54,22V12.88H13.82Z" fill="#375667"/></svg>