<svg xmlns="http://www.w3.org/2000/svg" width="23" height="23" viewBox="0 0 23 23"><title>icons-singletons</title><path d="M11.5,22.62A11.22,11.22,0,0,1,1.2,15.71a11.13,11.13,0,0,1,15-14.3,11.22,11.22,0,0,1,6.42,10.64A11.23,11.23,0,0,1,11.5,22.62M17.71,5c-0.16,0-.1-0.16-0.22-0.25,0,0.43.09,0.56-.37,0.66,0.2,0.42.66-.37,0.71-0.36S17.76,5,17.71,5M18,5.23h0c0.07,0-.19-0.2,0,0,0.14,0.06.16,0.05,0.07,0m2.44,7.55s0.08-.57.06-0.57-0.16,0-.14-0.13-0.12,0-.11.09c-0.15.34,0,.38,0.19,0.61m-17.66.9A2,2,0,0,1,3,13.38c0-.07-0.18-0.13-0.17.06-0.13,0-.06.06-0.12,0s0,0.29,0,.29m0.37-3.61s0,0,0,0M3,8.5s0,0,0,0M5.49,5c-0.1,0,0,0,0-.06l-0.11,0a0.11,0.11,0,0,0,.08,0c0-.08-0.16.06-0.16,0.06a0.8,0.8,0,0,0,.21,0m-0.41.15s0,0,0,0M7.59,3.36s0.08,0.07,0,0,0,0.06-.16.1c0.1,0,.16-0.07.25,0s-0.2,0-.23,0,0.08,0,0,0H7.61s-0.18.1-.11,0H7.83c0,0.07-.2.07-0.23,0.07a0.47,0.47,0,0,0,.27.14,0.21,0.21,0,0,1-.26.07s0.11,0,.1,0a0.36,0.36,0,0,1-.2.06c0,0.06,0,.08-0.11.11,0.09,0-.06.07,0,0.07s0.14-.07.17-0.06-0.07,0-.1.07a0.29,0.29,0,0,1,.2,0s-0.12.06,0,.09,0.26,0,.37,0a0.48,0.48,0,0,1,.16.13,0.09,0.09,0,0,1-.11,0,2.62,2.62,0,0,1-.63,0c0.08,0,.09,0,0.06,0a0.65,0.65,0,0,1,.24,0c0.06,0.09-.16.14-0.2,0.15,0.11,0.06,0,.07,0,0.12a1,1,0,0,1,.25-0.07,0.77,0.77,0,0,1-.16.11,0.42,0.42,0,0,0,.26-0.16l0.32-.07a0.09,0.09,0,0,1-.06.1c0,0.07-.53.83-0.73,0.51,0.13,0.24-.13.3-0.2,0.47s0.1,0.11,0,.09l-0.14.1a0.19,0.19,0,0,1,0-.14,0.92,0.92,0,0,1-.31.23s0.15,0,.06.08a0.52,0.52,0,0,1-.14,0A0.18,0.18,0,0,1,6.85,6L6.71,6s0.16,0,.14.08a0.19,0.19,0,0,1-.13,0s0.13,0,.11,0,0,0.05-.07.09,0,0-.07,0-0.06.17,0,.17H6.61s0.27,0.11.08,0.13a0.35,0.35,0,0,1-.07.11c0,0.05.09,0.07,0,.09s0.08,0,.11,0a0.23,0.23,0,0,1-.14.06s0.13,0,.1,0a1.68,1.68,0,0,1-.3.05,0.37,0.37,0,0,1,0-.11l-0.06,0c0-.08,0,0-0.05,0s0,0-.05,0,0.07,0,.05-0.1l-0.08,0s0.08-.07,0-0.07a0.41,0.41,0,0,1-.15.08c-0.07,0,0,.06-0.15,0,0.07,0-.06-0.13-0.06-0.12a0.19,0.19,0,0,1-.13,0A0.14,0.14,0,0,0,5.8,6.59c-0.18,0-.06,0,0,0s-0.11,0-.11-0.19a0.42,0.42,0,0,1-.18,0,0.07,0.07,0,0,1,.07-0.06,0.12,0.12,0,0,1-.13,0c0.06,0,0,0,0,0A0.38,0.38,0,0,0,5.6,6.18a0.66,0.66,0,0,1-.2,0c0.1-.15.15,0,0.28,0A0.64,0.64,0,0,1,5.52,6c-0.06,0,0,.05,0,0.09s-0.16,0-.13.08a0.65,0.65,0,0,1,0-.25,0.2,0.2,0,0,1-.16,0,0.08,0.08,0,0,1,.05,0s-0.06,0-.08,0a1.68,1.68,0,0,1,.4-0.21,0.83,0.83,0,0,0-.41.17s0,0,0,0,0.2,0,0-.07a0.23,0.23,0,0,0,.12,0L5.14,5.65a0.59,0.59,0,0,1,.3,0,0.51,0.51,0,0,0-.31,0,0.41,0.41,0,0,1,.32-0.08s0-.07,0-0.05a0.88,0.88,0,0,1-.26.09A0.46,0.46,0,0,1,5.3,5.48a0.07,0.07,0,0,0-.07,0h0l0.13,0H5.5A0.13,0.13,0,0,0,5.41,5.4l-0.2,0a2.08,2.08,0,0,0,.26-0.08s0-.05,0,0,0.12-.16.12-0.1,0,0-.08,0a0.38,0.38,0,0,0,.07-0.16c-0.05,0-.34,0-0.35,0a0.38,0.38,0,0,1,.19.11,0.15,0.15,0,0,1-.13.06,0.07,0.07,0,0,1-.11,0l0.06,0A3.4,3.4,0,0,0,4.37,6a0.11,0.11,0,0,1,.13.09l-0.07,0a0.78,0.78,0,0,1,.34.12c0,0.09-.1,0-0.14,0a0.07,0.07,0,0,0,.06.07c-0.92.15,0.6,0-.14,0a0.19,0.19,0,0,0,0,.15A0.65,0.65,0,0,0,4.16,6.3c-0.1.12,0.05,0.17,0.21,0.26a0.7,0.7,0,0,1,.06.18,0.28,0.28,0,0,1-.08-0.1,1,1,0,0,0,.05.15c0,0.06-.15-0.16,0,0.07A1.47,1.47,0,0,1,4.1,6.66c0,0.08,0,.08-0.11,0C4,6.8,4.25,6.82,4.29,7,4,6.89,3.85,6.67,3.68,7c0.37,0.22,0,.26.23,0.47a3,3,0,0,1,.38,0,0.63,0.63,0,0,1,.13-0.26,1.88,1.88,0,0,1,.29.59c0,0.05.18,0,.12,0.16A1.16,1.16,0,0,1,5.15,8a0.67,0.67,0,0,0-.28.18c0.35-.15.31-0.06,0.46,0.15-0.5.31-1.25,0.09-1.56,0.71,0.09-.07.59-0.52,0.7-0.24a0.26,0.26,0,0,1-.23.07C4.3,9,4.32,9,4.38,8.94a0.32,0.32,0,0,0,.1.23h0a0.75,0.75,0,0,0,.14,0h0a0.26,0.26,0,0,1,.18.06c-0.09.05-.27,0.06-0.32,0.1h0s0,0.14-.09.09-0.18-.08-0.06-0.1h0a0.13,0.13,0,0,1,.16,0c0.15-.11-0.05.07,0-0.1a1.11,1.11,0,0,0-.29.13S4,9.44,4,9.36L3.9,9.46s0,0,0,0a0.22,0.22,0,0,0,0,.25,0,0,0,0,0,0,0s0,0-.07,0-0.33.19-.32,0.07a2.84,2.84,0,0,0-.11.26,0.46,0.46,0,0,1,0-.11,0.72,0.72,0,0,1-.05.32c-0.05,0,.07-0.12,0-0.09h0c0-.07,0,0,0-0.06s0,0,0,0,0,0,0,0,0,0,0,0h0c0-.05,0,0,0,0s0,0.06,0,.12l0,0c0.06-.05-0.06.1-0.06,0,0.25,0.09.08,0,.08,0.08a0.18,0.18,0,1,0,0,0s0,0,0,0,0,0,0,0-0.08,0,0,0,0.11,0,.11.09,0,0,0,0a0.1,0.1,0,0,1-.09,0,0.16,0.16,0,0,1,.07.07c0.06,0,0,0-.06,0s0,0,0,0,0,0.11,0,0a2.2,2.2,0,0,0-.49.37c-0.1.25,0.18,0.46,0.07,0.73a0.36,0.36,0,0,1-.17-0.2,0.75,0.75,0,0,0-.16-0.33c0,0.26,0,.5,0,0.77a0.49,0.49,0,0,1,.34,0h0C3,12,3.27,12,3.43,12.13a1.4,1.4,0,0,1-.35,0,0.56,0.56,0,0,0-.41-0.28c-0.4-.06-0.12.84-0.08,1.07s0,0.46.25,0.3c0.1-.06.4,0.07,0.25,0.17s0.13-.13.15,0-0.18.21-.06,0.3c-0.15,0,.2-0.33.19-0.26s0,0-.06,0a1.23,1.23,0,0,0,.75.15,1.49,1.49,0,0,1,.22.12,0.45,0.45,0,0,1-.1.08,0.26,0.26,0,0,1,.33.21,0.63,0.63,0,0,1,.16.06c0.42,0,1,.4.48,0.76,0.08,0,.28,0,0.28.08s0.32-.34.41-0.06a0.39,0.39,0,0,1,.07.14,0.59,0.59,0,0,1,.63,1c-0.07,0-.11.59-0.21,0.8a1.85,1.85,0,0,1-.84.51,0.81,0.81,0,0,1-.28.7,0.62,0.62,0,0,0,.08-0.17H5.25c-0.11.4,1,1,1.32,1.26a9,9,0,0,0,8.46.75,9.1,9.1,0,0,0,4.05-3.42c0.52-.81,1.66-2.73,1.16-3.62a0.29,0.29,0,0,1-.12-0.36,1.06,1.06,0,0,0-.18-0.75,0.39,0.39,0,0,1-.17.16s0,0,0,0a0.14,0.14,0,0,0-.08,0,1,1,0,0,0,0-.34,0.09,0.09,0,0,0-.09-0.09,1.53,1.53,0,0,0-.24-0.3,0.51,0.51,0,0,1,0,.13c0-.06,0,0-0.06,0s-0.07,0-.07,0c-0.22-.11-0.38.36-0.67,0.46s-0.2.92-.52,0.94a2.25,2.25,0,0,1-.47-1.46c-0.1,0-.25.37-0.39,0,0,0,.16,0,0.15-0.06-0.27.1-.36-0.34-0.71-0.25a0.84,0.84,0,0,1-.47,0c-0.21-.19-0.69,0-0.82-0.39a1.38,1.38,0,0,0-.15-0.15,0.19,0.19,0,0,0-.12.11,3.29,3.29,0,0,0,.29.55,1.63,1.63,0,0,1,0-.17c0.08,0,0,.35.12,0.21a0.37,0.37,0,0,0,.4-0.22c0,0.19.07,0.18,0.23,0.29,0.2,0.27-.11.32-0.21,0.53a2.41,2.41,0,0,1-1.35.56,0.73,0.73,0,0,0-.17-0.51c-0.28-.33-0.38-0.73-0.66-1.07-0.06-.16.14-0.92,0.08-1a1,1,0,0,1-1-.16,0.2,0.2,0,0,0,.06-0.1s0,0,0-.07c-0.19-.06,0-0.06.09-0.09a0.26,0.26,0,0,1,.13,0c0-.06-0.15,0,0.07,0,0,0-.06,0-0.08,0a2.37,2.37,0,0,1,.85,0c0.82,0.13.08-.34,0-0.53a0.58,0.58,0,0,0,.24-0.23,1.47,1.47,0,0,0-.55.13,1.73,1.73,0,0,0,.27.1,0.54,0.54,0,0,1-.31.1c0-.1,0-0.08-0.09-0.1s0-.07.11-0.07a1.49,1.49,0,0,1-.17-0.06,0,0,0,0,1,0,0,0.89,0.89,0,0,0-.47.51L13.07,9l-0.3.13c0-.12-0.13-0.1-0.26-0.07a0.08,0.08,0,0,0,.07.07c-0.08,0,0,0-.1,0a0,0,0,0,0,0,0,0.09,0.09,0,0,1-.09-0.07s0,0.17,0,.17,0,0,0,0,0,0,0,0a0.42,0.42,0,0,1,.15.09c-0.08.06,0,0-.11,0,0,0,.09.09,0,0.06h0c0.1,0.15,0,.07,0,0.13-0.22-.18,0-0.1.07-0.19a0.3,0.3,0,0,1-.24-0.08s0,0,0,0a0.23,0.23,0,0,1-.16-0.22c0.1-.19-0.36-0.29-0.44-0.41s0-.12-0.13-0.07-0.06-.09,0-0.1-0.27.12-.06,0.23A6.09,6.09,0,0,1,12,9.2c-0.2-.14-0.13,0-0.24.22h0s0-.09.06-0.08a2,2,0,0,0-.18-0.25,3.64,3.64,0,0,1-.47-0.42,1.91,1.91,0,0,0-.52.12s-0.61.48-.45,0.54a3.19,3.19,0,0,1-.57.32h0A0.34,0.34,0,0,0,9.2,9.53a0.26,0.26,0,0,0,0-.19c0-.12,0,0.06,0,0a2.69,2.69,0,0,1,.1-0.56c0.4-.12.59,0.1,0.75-0.26a0.52,0.52,0,0,0-.32-0.34s0,0,0-.06a1.68,1.68,0,0,0,.29,0s0-.08,0-0.13,0.15,0.11.23,0a1.15,1.15,0,0,1,.18-0.21c0.1,0,.24-0.24.3-0.25s0,0.13.05,0.08,0,0,0-.12,0.13-.06.17,0A1.09,1.09,0,0,0,11,7.4c-0.24-.1,0-0.4.18-0.37-0.06-.06-0.16.46,0,0.36h0a0.53,0.53,0,0,1,.34,0,1.28,1.28,0,0,1,.68-0.2c0-.12-0.08-0.37.14-0.38,0.27,0.15.18-.14,0.09-0.14,0-.17.4-0.16,0.47-0.12s0.08,0,.2-0.08A0.36,0.36,0,0,1,13,6.4a0.21,0.21,0,0,1-.2,0c0-.07-0.07.08-0.07,0a1.08,1.08,0,0,0-.19,0c-0.31,0-.32-0.41-0.14-0.6a0,0,0,0,0,0,0c0.47-.22.19-0.25,0-0.38a2.49,2.49,0,0,0-.44.51C11.64,6.27,12,6.35,12,6.54c-0.07,0-.24,0-0.27,0,0.22,0.13,0-.06.21,0h0a0.2,0.2,0,0,1-.07.08c-0.11,0-.05.11-0.11,0.15h0a0.37,0.37,0,0,1-.38.37,1.84,1.84,0,0,0-.22-0.62c-0.15.15-.37,0.35-0.53,0.13a0.08,0.08,0,0,1,.08,0c-0.05,0,0,0,0,0s0,0,0,0,0,0,0,0h0a0.42,0.42,0,0,1,0-.22c-0.06-.07-0.06-0.12,0-0.12a0.4,0.4,0,0,1,.17-0.13,2.4,2.4,0,0,1,.4-0.3,0.54,0.54,0,0,1,.21-0.28c-0.07-.06,0-0.08,0-0.08a0.2,0.2,0,0,1,.18-0.16s0-.07,0-0.07,0.08,0,.11-0.07a0.72,0.72,0,0,1,.32-0.24s0,0,0,.08a1,1,0,0,1,.57-0.29,0.17,0.17,0,0,0-.08.14A0.62,0.62,0,0,1,13,4.67c-0.06.09,0.49,0.15,0,.15a2.6,2.6,0,0,0,.87.23c0.11,0.09.59,0.22,0.32,0.42s-0.64-.2-0.82-0.1C13.53,5.49,13.68,6,14,5.89c0.07,0-.13-0.14-0.13-0.16a0.5,0.5,0,0,1,.38.05c0.1-.15-0.23-0.11.07-0.23a0.42,0.42,0,0,1,.31,0c0-.17,0-0.25,0-0.42a0.23,0.23,0,0,1,.28.13,0.16,0.16,0,0,0-.18.07C15,5.53,15.27,5,15.58,5a0.61,0.61,0,0,1-.05.12,3.42,3.42,0,0,1,.61-0.11c-0.05,0,0,.07,0,0.07a0.23,0.23,0,0,1,.34-0.22c0.55,0.16.62,0.37,0.37,0,0-.06.14-0.18,0-0.18a0.71,0.71,0,0,1,.21-0.26,3.72,3.72,0,0,0-.82-0.61,0.65,0.65,0,0,0-.19.16C16,4.06,16,4,15.94,4.06a0.2,0.2,0,0,1-.35.07c0.07,0,.3-0.19.23-0.23,0.09,0,.17-0.13.26-0.18a9.07,9.07,0,0,0-8.49-.36M7.65,3.8h0M15.46,9a0.81,0.81,0,0,0-.1-0.18,0.54,0.54,0,0,0-.14-0.14l0.13,0c-0.12-.12.09-0.1,0.17-0.1,0-.4-0.65-0.14-0.65.09a0.17,0.17,0,0,1,.07.13v0h0a2.45,2.45,0,0,0,.28.44,0.17,0.17,0,0,0-.12.15,0.3,0.3,0,0,0,.38.28c0.2,0,.06-0.34,0-0.31s0,0,.06,0,0,0,0,0-0.15,0,0-.16a0.13,0.13,0,0,0,.18,0,0.15,0.15,0,0,1-.09-0.14c-0.09,0-.13,0-0.11.12a0.09,0.09,0,0,1,0-.06M12.82,9s-0.07,0,0,0m3-4.78a1.55,1.55,0,0,0,.15.5,1.77,1.77,0,0,1-.36,0c0-.18-0.1,0-0.22-0.17a0.45,0.45,0,0,1,.44-0.32m-3-1.31a0.86,0.86,0,0,1-.52.08,0.12,0.12,0,0,1,.1-0.13,1,1,0,0,1-.37,0,1,1,0,0,0,.16-0.17c0.21,0.21.27,0,.33,0.13a0.33,0.33,0,0,1,.41,0,0.17,0.17,0,0,1-.11.09M12.05,3a0.26,0.26,0,0,1,.18.1c-0.38.12-.19,0.6-0.65,0.31,0,0,.53-0.48.22-0.09-0.09-.09-0.23.1-0.28,0a0.78,0.78,0,0,0,.27-0.1,0.47,0.47,0,0,1-.57-0.25c0.19-.13.19,0,0.33,0l0.21,0c0.07-.07-0.14-0.24.09-0.17a1,1,0,0,1,.22.15M10.14,7.72h0.11a1.5,1.5,0,0,1-.73.16A0.34,0.34,0,0,1,9.8,7.76c0.05-.07,0-0.08,0,0h0a0.51,0.51,0,0,1-.18-0.05s0.16,0,.12-0.13h0l0.17-.06s0-.08,0-0.13-0.14,0,0-.09a0.21,0.21,0,0,0-.15,0,0.27,0.27,0,0,1,0-.21,0.1,0.1,0,0,0-.09.05C9.61,7,9.59,7,9.55,7a1.89,1.89,0,0,0,0-.21c0.06,0,.06-0.13.22-0.06a1.15,1.15,0,0,0-.1.14,0.6,0.6,0,0,1,.22,0,0.22,0.22,0,0,1-.19.22c0.26,0,.64.56,0.42,0.63M9.55,7.14c0,0.1,0,0,0,0m0,0.19a0.46,0.46,0,0,1-.44.31s0.07-.08,0-0.08A0.22,0.22,0,0,0,9.2,7.47c-0.12.06-.11,0-0.07-0.08H9.08a0.29,0.29,0,0,0,.2-0.1s0.22-.22.26,0M9.11,10.17c0.24-.9,1.61-0.33,2.12-0.66a0.4,0.4,0,0,1-.1.34,0.66,0.66,0,0,0,.25.16h0.1a3.18,3.18,0,0,0,.42.21c0.28,0.1.28-.19,0.67-0.11a0.06,0.06,0,0,1,.09.05c0.32,0.07,1.19-.13.93,0.41a0.2,0.2,0,0,1-.16-0.23s0.58,1.46.73,1.58a0.07,0.07,0,0,0,0,0c0.11,0.06.45,0.32,0.28,0.4,0.1,0,.09,0,0.17.13a0.83,0.83,0,0,0,.32-0.08,1.44,1.44,0,0,1,.39-0.06,0.35,0.35,0,0,1,0,.15c-0.21.67-1,1-1.21,1.6-0.06.24,0.22,0.49,0.16,0.73a0.93,0.93,0,0,1-.59.75c0.19,0.64-.46,1.08-0.94,1.56a1.43,1.43,0,0,1-.69,0,5.89,5.89,0,0,0-.34-0.74,2.55,2.55,0,0,0-.18-0.69c-0.28-.55.06-0.68,0-1.12a3.77,3.77,0,0,1-.39-1.08c-0.1-.39,0-0.45-0.48-0.56-0.34-.34-1.61.6-1.86-0.28,0.05,0,0,0,0,0a1,1,0,0,0-.27-0.32,1.31,1.31,0,0,1,0-.88c-0.07-.46.48-0.78,0.66-1.2M8.66,5.77a0.74,0.74,0,0,1-.83.13c0.21-.24,0,0-0.12-0.13s0.19,0,.19-0.11a0.76,0.76,0,0,1-.24,0c0-.06.15-0.07,0.17-0.09s0,0,.14.13a0.71,0.71,0,0,0,.11-0.15s0.06,0.11.08,0.06a1.39,1.39,0,0,0,.29-0.07s0.44,0.17.21,0.24M11,13.1s0,0.06-.06,0,0-.09.06,0m3.52,2.56c0.24,0-.09-0.54.14-0.54A2.8,2.8,0,0,1,14.92,15a0.5,0.5,0,0,0,.15-0.24c0.08-.07.21,0.31,0.13,0.36a3.12,3.12,0,0,0-.28.88c-0.13.44-.58-0.14-0.39-0.3m-1-5.91c-0.07,0-.14.1-0.18,0,0.18,0,.11-0.08.18,0m-0.94,0s-0.13,0-.12-0.07,0,0,0,0l0,0a0.43,0.43,0,0,0,.21,0c0,0.07-.06.09-0.16,0m-1-.24a0.29,0.29,0,0,1-.29-0.09,0.32,0.32,0,0,1,.31,0c-0.14.17,0,.06,0,0.14m-0.57-.32c0,0.06,0,.08-0.07.06-0.12-.19.07-0.32,0.07-0.06M11,9a0,0,0,0,1,0-.06s0-.07.06-0.14,0,0.22,0,.2M8,4.1a0.55,0.55,0,0,1-.29,0,0.26,0.26,0,0,1,.25,0c-0.12,0,0,0,0,0M7.79,4a0.31,0.31,0,0,1-.14,0c0-.06.31-0.1,0.14,0M7.6,4c0.23,0-.08.06,0,0m0.15-.42c-0.1,0,0-.07,0-0.09s0.23,0.09,0,.09m0,0.08c-0.22,0,.11-0.09,0,0m0,0h0M7.75,3.76q-0.14,0,0-.06c0.14,0,.06,0,0,0.06M7.85,4.48c-0.07,0,0-.06-0.05,0a0.33,0.33,0,0,1-.13.05c0-.19.29-0.13,0.19-0.08M6.14,6.78s0.13-.07,0,0M5.54,9.07A0.27,0.27,0,0,1,5.48,9a0.13,0.13,0,0,1-.16.1Q5.31,9,5.42,9a0.74,0.74,0,0,0-.1,0S5.07,9,5,9a0.87,0.87,0,0,1,.38-0.51,1.39,1.39,0,0,0-.13.25s0.2-.12.08,0h0L5.55,8.76c-0.12.06,0,.09,0,0.09s0,0.05-.08.05,0.23,0.21,0,.17m0,5.71a0.22,0.22,0,0,1-.18,0c-0.11-.26.3-0.17,0.18,0M5.45,5.11s-0.09.11,0,0M4.75,9.18A0.26,0.26,0,0,1,4.83,9c0.1,0.07,0,.08,0,0.15s0.07-.09.13,0a0.09,0.09,0,0,1-.16,0M4.21,12.36c-0.06,0-.1,0-0.07-0.05s0.17,0,.07.05m0,1.24c0-.06,0,0,0-0.06h0c0,0.1,0,.08-0.09.08s0,0,0,0M3.9,12.31a0.77,0.77,0,0,1-.5,0,1.65,1.65,0,0,1,.21,0,0.17,0.17,0,0,0-.12-0.11A0.52,0.52,0,0,1,4,12.3c0,0.06-.06.06-0.12,0m-0.61-2c0,0.17,0,0,0,0m0,0h0s0,0,0,0m0,0h0S3.28,10.34,3.28,10.33Zm-0.12,2a0.16,0.16,0,0,1-.15,0c0.06,0,.28.06,0.15,0m15.07,0.17c0-.18.34,0.38,0,0.31l-0.05-.11a0.22,0.22,0,0,1,0-.2M11.06,6.92a0.2,0.2,0,0,1,.13-0.08C11.13,6.91,11,7,10.94,7a0.09,0.09,0,0,1,.12-0.05m0.23,0.19c0,0.1,0,0,.09,0a0.15,0.15,0,0,1,0,.14,0.26,0.26,0,0,1,0-.13M3.86,9.66a0,0,0,0,1,0,0s0,0,0,0m0,0s0,0,0,0h0Zm-0.6.63h0m0,0h0Zm0,0h0Zm0,0s0,0,0,0h0Z" fill="#375667" fill-rule="evenodd"/><path d="M11.52,1.38H12A10.23,10.23,0,0,1,21.62,11.5a10.22,10.22,0,0,1-6.29,9.37,9.93,9.93,0,0,1-3.78.74A10.11,10.11,0,0,1,2.32,7.23a10.18,10.18,0,0,1,9.2-5.85m0-1A11.23,11.23,0,0,0,1.41,6.81a11.11,11.11,0,0,0,10.14,15.8,11,11,0,0,0,4.16-.81,11.22,11.22,0,0,0,6.91-10.3A11.23,11.23,0,0,0,12.06.39H11.52Z" fill="#22b8af"/></svg>