<svg xmlns="http://www.w3.org/2000/svg" width="23" height="23" viewBox="0 0 23 23"><title>icons-singletons</title><path d="M11.57,1.84c-2.69,0-5.78.07-8.1,1.62-2.58,1.72-3.09,5-2.86,7.89s1.51,5.2,4.21,6.27c3,1.19,6.73,1.08,9.87.77l2.66,2.77v-3.3A6.67,6.67,0,0,0,21.78,14a11.21,11.21,0,0,0,.06-7.67C20.27,2.18,15.41,1.84,11.57,1.84ZM13.84,6a0.25,0.25,0,0,1,.24-0.24h1a0.25,0.25,0,0,1,.24.24V8L15,11.6a0.26,0.26,0,0,1-.24.2H14.45a0.26,0.26,0,0,1-.24-0.2L13.84,8.07V6ZM9.18,14.74a0.88,0.88,0,0,1,0-1.76A0.88,0.88,0,0,1,9.18,14.74Zm0.62-4.3v1.1a0.24,0.24,0,0,1-.27.25H8.85a0.24,0.24,0,0,1-.24-0.24V10.4c0-1.26,1.62-1.42,1.82-2.53A1.1,1.1,0,0,0,9,6.73c-0.33.05-1.34,0.92-1.55,0.74L7,7.06a0.24,0.24,0,0,1,0-.33c1-1.27,3.36-1.63,4.38-.2A1.87,1.87,0,0,1,11.17,9C10.77,9.38,9.8,9.8,9.8,10.45Zm4.77,4.3a0.88,0.88,0,0,1,0-1.76A0.88,0.88,0,0,1,14.58,14.74Z" fill="#149996"/><path d="M0.57,10.18H8.65c0.18-1.12,2.06-1.48,1.78-2.71a1.26,1.26,0,0,0-1.7-.67c-0.27.09-1,.88-1.27,0.67L7,7.06a0.24,0.24,0,0,1,0-.33,3,3,0,0,1,4.07-.55,1.89,1.89,0,0,1,.42,2.37c-0.4.66-1.32,0.93-1.64,1.63h4.19L13.84,8.07V6a0.25,0.25,0,0,1,.24-0.24h1a0.25,0.25,0,0,1,.24.24V8l-0.22,2.14h7.31c0-2.68-.72-5.47-3.16-6.93C17,1.91,14.13,1.84,11.57,1.84S6.09,1.91,3.8,3.26C1.33,4.7.57,7.48,0.57,10.18Z" fill="#22b8af"/></svg>