<svg xmlns="http://www.w3.org/2000/svg" width="23" height="23" viewBox="0 0 23 23"><title>icons-singletons</title><path d="M11.58,3C8.24,3,3.93,3.18,1.8,6.21s-2,8.48.49,11.18S9.2,20,12.57,19.94s7.38-.53,9.08-3.84c1.53-3,1.44-7.92-.89-10.49S14.66,3,11.58,3Zm1.48,12.82a0.25,0.25,0,0,1-.24.24H11.62a0.24,0.24,0,0,1-.25-0.24V12.3H7.17v3.56a0.24,0.24,0,0,1-.25.24H5.73a0.25,0.25,0,0,1-.25-0.24V7.33a0.25,0.25,0,0,1,.25-0.24h1.2a0.24,0.24,0,0,1,.25.24v3.42h4.2V7.33a0.24,0.24,0,0,1,.25-0.24h1.19a0.25,0.25,0,0,1,.24.24v8.54Zm4.47,0a0.25,0.25,0,0,1-.25.24h-1.2a0.25,0.25,0,0,1-.24-0.24V7.33a0.25,0.25,0,0,1,.24-0.24h1.2a0.25,0.25,0,0,1,.25.24v8.54Z" fill="#22b8af"/><path d="M11.58,19.95c6.14,0,11-1,11-8.45H17.53v4.37a0.25,0.25,0,0,1-.25.24h-1.2a0.25,0.25,0,0,1-.24-0.24V11.49H13.05v4.37a0.25,0.25,0,0,1-.24.24H11.62a0.24,0.24,0,0,1-.25-0.24V12.3H7.17v3.56a0.24,0.24,0,0,1-.25.24H5.73a0.25,0.25,0,0,1-.25-0.24V11.49H0.43C0.43,18.93,5.43,19.95,11.58,19.95Z" fill="#149996"/></svg>