<svg xmlns="http://www.w3.org/2000/svg" width="23" height="23" viewBox="0 0 23 23"><title>icons-singletons</title><path d="M22.67,12a1.05,1.05,0,0,1-1.76.76h0L11.53,3.41h0l0,0L2.12,12.77a1,1,0,0,1-1.46-1.5L5.91,6,9.35,2.57c0.5-.5,1.36-1.72,2.15-1.72a1.06,1.06,0,0,1,.76.33h0l4.12,4.12a2.59,2.59,0,0,1,.23-1.62,1.06,1.06,0,0,1,1.86.65V7.4l3.91,3.91a1.07,1.07,0,0,1,.28.71" fill="#22b8af" fill-rule="evenodd"/><path d="M11.5,4.7L2.43,13.77V21.1a1,1,0,0,0,1,1h9.77V13.77h4.19v8.37h2.09a1,1,0,0,0,1-1V13.77ZM9.76,18H5.57V13.77H9.76V18Z" fill="#375667" fill-rule="evenodd"/></svg>