<svg xmlns="http://www.w3.org/2000/svg" width="23" height="23" viewBox="0 0 23 23"><title>icons</title><circle cx="3.63" cy="7.62" r="0.63" fill="#385768"/><rect x="3.17" y="9.23" width="0.92" height="6.61" fill="#385768"/><path d="M5.93,10.9C5.93,8.48,7.3,7,9.32,7s3.39,1.44,3.39,3.85v1.32c0,2.41-1.32,3.79-3.39,3.79s-3.39-1.38-3.39-3.79V10.9h0Zm0.92,1.38c0,2,1,2.93,2.47,2.93s2.47-1,2.47-2.93V11c0-2-1-3-2.47-3S6.84,9,6.84,11v1.32h0Z" fill="#385768"/><path d="M14.78,13.54c0.06,0.86.8,1.61,2.24,1.61,1.26,0,2.07-.63,2.07-1.61,0-.8-0.46-1.21-1.49-1.44l-1.49-.4a2.34,2.34,0,0,1-2-2.24C14.09,7.91,15.47,7,17,7s2.87,0.75,2.93,2.41H19a1.73,1.73,0,0,0-2-1.55c-1.15,0-2,.57-2,1.49a1.4,1.4,0,0,0,1.26,1.38l1.44,0.4c1.38,0.34,2.24,1,2.24,2.3C20,15.09,18.57,16,16.85,16c-2.24,0-3-1.38-3-2.47h1v0.06h0Z" fill="#385768"/></svg>