<svg xmlns="http://www.w3.org/2000/svg" width="23" height="23" viewBox="0 0 23 23"><title>icons-ui-set copy</title><path d="M21.6,7.76c-2,2-4.25,5.24-7.54,4.34,0.92-.92,1.87-1.82,2.77-2.75l3-3C22,4.2,19,.82,16.83,3L15.24,4.58c-0.24.24-1.59,1.26-1.59,1.59h0L10.9,8.92a4.55,4.55,0,0,1,1.16-4.34c1.44-1.45,3.08-3.75,5.11-4.33C21.55-1,24.79,4.56,21.6,7.76" fill="#22b8af" fill-rule="evenodd"/><path d="M8.53,16.13a1.14,1.14,0,0,1-1.59-1.64l4.65-4.65,2.57-2.57a3.64,3.64,0,0,1,.57-0.53,1.14,1.14,0,0,1,1.41,1.77C13.71,11.13,11.06,13.6,8.53,16.13Z" fill="#375667" fill-rule="evenodd"/><path d="M6.17,13.64l-3,3C1,18.81,4,22.18,6.17,20c1.07-1.08,2.24-2.11,3.24-3.26l2.69-2.69a4.55,4.55,0,0,1-1.16,4.35c-1.44,1.45-3.08,3.75-5.12,4.33C1.45,24-1.79,18.44,1.4,15.24c2-2,4.25-5.23,7.53-4.35-0.92.92-1.85,1.83-2.76,2.75" fill="#22b8af" fill-rule="evenodd"/></svg>