<svg xmlns="http://www.w3.org/2000/svg" width="23" height="23" viewBox="0 0 23 23"><title>icons-payment-set copy</title><path d="M11.73,11.81a0.64,0.64,0,0,0-.62-0.92,0.87,0.87,0,0,0-.84.83,0.72,0.72,0,0,0,.75.84,1.55,1.55,0,0,0,.58-0.07l0.07-.34a3.28,3.28,0,0,1-.51,0c-0.18,0-.47,0-0.42-0.36h1Zm-0.6-.6a0.22,0.22,0,0,1,.2.3H10.78A0.34,0.34,0,0,1,11.14,11.21Z" fill="#375667"/><path d="M9.94,11.94l0.13-.67H10.3l0.08-.36H10.14l0.09-.44H9.78L9.47,12a0.37,0.37,0,0,0,.36.51,0.63,0.63,0,0,0,.33-0.08l0-.34C9.93,12.18,9.92,12.06,9.94,11.94Z" fill="#375667"/><path d="M12.48,11.07l0-.16H12.05l-0.31,1.64H12.2l0.14-.75c0.13-.49.35-0.46,0.46-0.46l0.11-.43A0.54,0.54,0,0,0,12.48,11.07Z" fill="#375667"/><path d="M9.23,11.68A2.51,2.51,0,0,0,8.9,11.5c-0.09,0-.16-0.2,0-0.24a1.5,1.5,0,0,1,.44,0l0.1-.34A1.07,1.07,0,0,0,9,10.88a0.66,0.66,0,0,0-.69.39,0.37,0.37,0,0,0,.16.48c0.17,0.07.27,0.14,0.36,0.19a0.13,0.13,0,0,1-.06.25,1.78,1.78,0,0,1-.59,0l-0.06.34a1.85,1.85,0,0,0,.53.06,0.63,0.63,0,0,0,.72-0.47A0.36,0.36,0,0,0,9.23,11.68Z" fill="#375667"/><path d="M13.88,10.93a0.57,0.57,0,0,1,.35.08l0.29-.3a0.74,0.74,0,0,0-.62-0.26,1.08,1.08,0,0,0-1,.84,0.87,0.87,0,0,0,.74,1.26,1.2,1.2,0,0,0,.55-0.1L14,12a0.49,0.49,0,0,1-.72-0.56A0.62,0.62,0,0,1,13.88,10.93Z" fill="#375667"/><path d="M7.52,10.88a3.09,3.09,0,0,0-.59.06l-0.07.36a4.58,4.58,0,0,1,.56-0.05c0.16,0,.33,0,0.28.23a0.89,0.89,0,0,0-1.05.58,0.44,0.44,0,0,0,.47.5,0.58,0.58,0,0,0,.38-0.1l0.06,0.09H8l0.18-.9A0.56,0.56,0,0,0,7.52,10.88ZM7.59,12a0.31,0.31,0,0,1-.39.19c-0.15-.06-0.11-0.23,0-0.33a0.5,0.5,0,0,1,.39,0Z" fill="#375667"/><path d="M16.51,11.06l0-.16H16.08l-0.31,1.66h0.45l0.14-.76c0.13-.49.34-0.47,0.45-0.47l0.12-.43A0.54,0.54,0,0,0,16.51,11.06Z" fill="#375667"/><path d="M22.21,4.63H0.79a0.64,0.64,0,0,0-.64.64V17.73a0.64,0.64,0,0,0,.64.64H22.21a0.64,0.64,0,0,0,.64-0.64V5.27A0.64,0.64,0,0,0,22.21,4.63ZM14.58,16a4.43,4.43,0,0,1-2.82-1A4.82,4.82,0,0,0,13,12.89H12.67a4.46,4.46,0,0,1-1.17,1.85,4.47,4.47,0,0,1-1.17-1.85H10A4.83,4.83,0,0,0,11.22,15a4.48,4.48,0,1,1,0-6.93A4.83,4.83,0,0,0,10,10.11h0.37A4.47,4.47,0,0,1,11.5,8.26a4.45,4.45,0,0,1,1.17,1.85H13A4.82,4.82,0,0,0,11.77,8a4.43,4.43,0,0,1,2.82-1A4.48,4.48,0,0,1,14.58,16Z" fill="#375667"/><path d="M16.86,11.59a0.7,0.7,0,0,0,.47,1,0.79,0.79,0,0,0,.39-0.13l0.06,0.13h0.49l0.39-2.1H18.19l-0.12.64a0.47,0.47,0,0,0-.35-0.2A0.75,0.75,0,0,0,16.86,11.59Zm1-.24a0.55,0.55,0,0,1,0,.4,0.42,0.42,0,0,1-.35.34,0.3,0.3,0,0,1-.23-0.42C17.42,11.32,17.74,11.17,17.88,11.36Z" fill="#375667"/><polygon points="6.07 10.55 5.52 11.77 5.43 10.55 4.71 10.55 4.33 12.55 4.78 12.55 5.05 11.11 5.17 12.55 5.6 12.55 6.23 11.14 5.97 12.55 6.43 12.55 6.81 10.55 6.07 10.55" fill="#375667"/><path d="M15.14,10.88a3.08,3.08,0,0,0-.59.06l-0.07.36A4.6,4.6,0,0,1,15,11.25c0.16,0,.33,0,0.28.23a0.9,0.9,0,0,0-1.05.58,0.44,0.44,0,0,0,.47.5,0.59,0.59,0,0,0,.38-0.1l0.06,0.09H15.6l0.18-.9A0.56,0.56,0,0,0,15.14,10.88ZM15.21,12a0.31,0.31,0,0,1-.39.19c-0.15-.06-0.11-0.23,0-0.33a0.5,0.5,0,0,1,.39,0Z" fill="#375667"/></svg>