<svg xmlns="http://www.w3.org/2000/svg" width="23" height="23" viewBox="0 0 23 23"><title>icons-singletons</title><path d="M11.52,0.5a11.1,11.1,0,0,0-10.26,7A11,11,0,0,0,16.69,21.21a11.11,11.11,0,0,0,5.74-11.09A11.1,11.1,0,0,0,11.52.5ZM8.06,10.85a0.31,0.31,0,0,1,.12,0C7.49,7.3,10.29,6.32,10.29,6.32a3.45,3.45,0,0,1,1.22-.15,3.45,3.45,0,0,1,1.22.15s2.8,1,2.11,4.56c0.67-.16.23,1.86-0.47,1.93a3.61,3.61,0,0,1-.91,1.94v0a2.52,2.52,0,0,1-3.89,0v0a3.61,3.61,0,0,1-.93-2C8,12.74,7.53,10.85,8.06,10.85Zm7.06,8.91c-0.71.15-1.4,0.44-2.11,0.61A9,9,0,0,1,5.5,18.19c1.06-1,4.09-.47,4.12-2.26a3,3,0,0,0,3.81,0c0,1.81,3.06,1.31,4.13,2.26a9.16,9.16,0,0,1-2.44,1.59C15.07,19.78,16,19.37,15.12,19.77Z" fill="#375667" fill-rule="evenodd"/><path d="M11.52,2.48a9,9,0,1,1-9,9,9,9,0,0,1,9-9m0-2a11,11,0,1,0,11,11,11,11,0,0,0-11-11h0Z" fill="#22b8af"/></svg>