<svg xmlns="http://www.w3.org/2000/svg" width="23" height="23" viewBox="0 0 23 23"><title>icons-singletons</title><path d="M11.5,0.41A11.2,11.2,0,0,0,1.15,7.5,11.1,11.1,0,0,0,16.71,21.3,11.2,11.2,0,0,0,22.5,10.12,11.2,11.2,0,0,0,11.5.41ZM11.24,16.94a1.44,1.44,0,0,1,0-2.87A1.44,1.44,0,0,1,11.24,16.94Zm1.1-4.38a0.47,0.47,0,0,1-.29.45H10.44A0.91,0.91,0,0,1,10,12.4V11.77c0-1.33,1.88-1.5,2.15-2.64,0.2-.87-1-1.17-1.58-1-0.28.1-.91,0.79-1.2,0.54L8.46,7.8a0.27,0.27,0,0,1,0-.39c1.43-1.58,4.29-1.9,5.65-.06a2.33,2.33,0,0,1-.14,3C13.35,11,12.35,11.52,12.35,12.56Z" fill="#375667" fill-rule="evenodd"/><path d="M11.5,2.41a9.22,9.22,0,0,1,9,8,9.17,9.17,0,0,1-4.75,9.17,9,9,0,0,1-4.24,1,9.12,9.12,0,0,1-6.08-2.28A9.26,9.26,0,0,1,3,8.22,9.16,9.16,0,0,1,11.5,2.41m0-2A11.2,11.2,0,0,0,1.15,7.5,11.07,11.07,0,0,0,11.53,22.59a11,11,0,0,0,5.18-1.28A11.2,11.2,0,0,0,22.5,10.12a11.2,11.2,0,0,0-11-9.7h0Z" fill="#22b8af"/></svg>