<svg xmlns="http://www.w3.org/2000/svg" width="23" height="23" viewBox="0 0 23 23"><title>icons-ui-set copy</title><path d="M21.11,20.34a6.64,6.64,0,0,1-.46,1,0.4,0.4,0,0,1-.35.21,0.4,0.4,0,0,1-.4-0.44c0-.2.05-0.43,0.06-0.63,0-.51.06-1,0.06-1.54,0-6-3.54-7-8.92-7H8.3v3.2a0.81,0.81,0,0,1-.8.8,0.79,0.79,0,0,1-.56-0.24l-6.4-6.4a0.78,0.78,0,0,1,0-1.12l6.4-6.4A0.79,0.79,0,0,1,7.5,1.5a0.81,0.81,0,0,1,.8.8V5.5h2.8c4.1,0,9.2.73,10.94,5a11.27,11.27,0,0,1,.66,4.16A15.87,15.87,0,0,1,21.11,20.34Z" fill="#375667"/></svg>