<svg xmlns="http://www.w3.org/2000/svg" width="23" height="23" viewBox="0 0 23 23"><title>icons-ui-set copy</title><path d="M16.94,17.48a8,8,0,0,1-10.78-.37L3.9,19.37a11.19,11.19,0,0,0,15.3.37Z" fill="#22b8af"/><path d="M15.66,4.64A7.91,7.91,0,0,1,17.72,16.7L20,19A11.12,11.12,0,0,0,22.5,8.74h0A11.09,11.09,0,0,0,2.8,5L2.94,3.62a1.15,1.15,0,0,0-.17-0.73h0l0,0h0l0,0,0,0,0,0,0,0a1.15,1.15,0,0,0-2,.65h0L0.15,8.45h0A1.14,1.14,0,0,0,1.28,9.71h5.1a1.15,1.15,0,0,0,.84-1.9l0,0h0l0,0,0,0h0l0,0h0a1.15,1.15,0,0,0-.71-0.25H5A8,8,0,0,1,15.6,4.6l0.06,0h0Z" fill="#375667"/></svg>