<svg xmlns="http://www.w3.org/2000/svg" width="23" height="23" viewBox="0 0 23 23"><title>icons-singletons</title><path d="M20.19,11.85c-0.91,0-3.13.4-3.13-1V8.14c0-.85-0.28-2.55,1-2.55,0.91,0,3.13-.4,3.13,1V9.3c0,0.85.28,2.55-1,2.55" fill="#22b8af" fill-rule="evenodd"/><path d="M18.1,1.42a1,1,0,0,1,2.08,0V4.55c-0.46,0-2.08.26-2.08-.23V1.42Z" fill="#375667" fill-rule="evenodd"/><path d="M12.54,17.41c-0.91,0-3.13.4-3.13-1V13.7c0-.85-0.28-2.55,1-2.55,0.91,0,3.13-.4,3.13,1v2.66c0,0.85.28,2.55-1,2.55" fill="#22b8af" fill-rule="evenodd"/><path d="M10.46,1.42a1,1,0,0,1,2.09,0v8.69c-0.3,0-2.09.11-2.09-.09V1.42Z" fill="#375667" fill-rule="evenodd"/><path d="M4.9,14.63c-0.91,0-3.13.4-3.13-1V10.92c0-.85-0.28-2.55,1-2.55,0.91,0,3.13-.4,3.13,1v2.66c0,0.85.28,2.55-1,2.55" fill="#22b8af" fill-rule="evenodd"/><path d="M2.81,1.42a1,1,0,0,1,2.08,0V7.33H2.84A11.81,11.81,0,0,1,2.81,6V1.42Z" fill="#375667" fill-rule="evenodd"/><path d="M4.9,21.58a1,1,0,0,1-2.08,0V15.67H4.87A11.81,11.81,0,0,1,4.9,17v4.55Z" fill="#375667" fill-rule="evenodd"/><path d="M12.54,21.58a1,1,0,0,1-2.09,0V18.45c0.46,0,2.09-.26,2.09.23v2.9Z" fill="#375667" fill-rule="evenodd"/><path d="M20.19,21.58a1,1,0,0,1-2.08,0V12.89c0.3,0,2.08-.11,2.08.09v8.6Z" fill="#375667" fill-rule="evenodd"/></svg>