<svg xmlns="http://www.w3.org/2000/svg" width="23" height="23" viewBox="0 0 23 23"><title>icons-singletons</title><path d="M16.84,22.36a2.53,2.53,0,0,1-1.46-.44L11.47,19,7.61,21.89a2.77,2.77,0,0,1-1.5.47,2.52,2.52,0,0,1-1.46-.44,2.42,2.42,0,0,1-.91-3l1.52-4.48L1.4,11.71a2.41,2.41,0,0,1-.93-2.8A2.31,2.31,0,0,1,2.8,7H7.6L9.07,2.43A2.54,2.54,0,0,1,11.47.64a2.49,2.49,0,0,1,2.42,1.82L15.35,7h4.79a2.57,2.57,0,0,1,1.46,4.65l-3.82,2.75,1.54,4.55a2.55,2.55,0,0,1-.94,2.88A2.44,2.44,0,0,1,16.84,22.36Zm-5.36-5.88,5.08,3.76a0.48,0.48,0,0,0,.28.07,0.5,0.5,0,0,0,.37-0.15,0.54,0.54,0,0,0,.16-0.6l-2-5.94L20.44,10a0.53,0.53,0,0,0,.15-0.58A0.51,0.51,0,0,0,20.14,9H13.86l-1.93-6a0.44,0.44,0,0,0-.45-0.36A0.51,0.51,0,0,0,11,3L9.09,9H2.8a0.27,0.27,0,0,0-.32.26l-0.08.28a0.39,0.39,0,0,0,.16.44L7.68,13.7l-2,6a0.41,0.41,0,0,0,.13.52,0.5,0.5,0,0,0,.32.1,0.72,0.72,0,0,0,.33-0.1Z" fill="#22b8af"/></svg>