<svg xmlns="http://www.w3.org/2000/svg" width="23" height="23" viewBox="0 0 23 23"><title>icons-singletons</title><path d="M21.52,11h0l-0.09.11L11.51,1.62H2.45A1.25,1.25,0,0,1,3.69.38H11.5a1.28,1.28,0,0,1,.88.37l3.47,3.32a43,43,0,0,1,3.48,3.3c0.8,0.76,3.27,2.38,2.19,3.68" fill="#22b8af" fill-rule="evenodd"/><path d="M21,13.15v0a1.3,1.3,0,0,0,0-.23h0a1.23,1.23,0,0,0-.35-0.63L11.15,3.22a1.24,1.24,0,0,0-.88-0.36H2.45A1.24,1.24,0,0,0,1.21,4.09h0v7.84h0a1.24,1.24,0,0,0,.42.91h0l10.3,9.47h0a1.24,1.24,0,0,0,1.76-.13h0l7-8.24h0A1.23,1.23,0,0,0,21,13.15ZM4.51,7.8a1.65,1.65,0,0,1,0-3.29A1.65,1.65,0,0,1,4.51,7.8Z" fill="#375667" fill-rule="evenodd"/></svg>