<svg xmlns="http://www.w3.org/2000/svg" width="23" height="23" viewBox="0 0 23 23"><title>icons-singletons</title><path d="M21.53,3.63H1.47A1.07,1.07,0,0,0,.4,4.7V18.57a1.07,1.07,0,0,0,1.06,1.06H9.88v1.58a15.27,15.27,0,0,0-3.29.88,0.2,0.2,0,0,0-.13.18v0.36a0.2,0.2,0,0,0,.2.2h9.68a0.2,0.2,0,0,0,.2-0.2V22.28a0.2,0.2,0,0,0-.13-0.18,15.27,15.27,0,0,0-3.3-.88V19.63h8.42a1.07,1.07,0,0,0,1.06-1.06V4.7A1.07,1.07,0,0,0,21.53,3.63ZM21,18H2V5.22H21V18Z" fill="#385767"/><rect x="3.76" y="6.8" width="15.66" height="9.65" fill="#22b6ae"/><path d="M14.56,4.67L12.31,1.41a0.79,0.79,0,0,1,.2-1.1h0a0.79,0.79,0,0,1,1.1.2l2.25,3.26a0.79,0.79,0,0,1-.2,1.1h0A0.79,0.79,0,0,1,14.56,4.67Z" fill="#385767"/><path d="M16.39,4.67l2.25-3.26a0.79,0.79,0,0,0-.2-1.1h0a0.79,0.79,0,0,0-1.1.2L15.09,3.77a0.79,0.79,0,0,0,.2,1.1h0A0.79,0.79,0,0,0,16.39,4.67Z" fill="#385767"/></svg>