<svg xmlns="http://www.w3.org/2000/svg" width="23" height="23" viewBox="0 0 23 23"><title>icons-social-set copy</title><path d="M23,4.38a9.47,9.47,0,0,1-2.7.74,4.71,4.71,0,0,0,2.07-2.6,9.49,9.49,0,0,1-3,1.14,4.73,4.73,0,0,0-8,4.29A13.34,13.34,0,0,1,1.64,3,4.75,4.75,0,0,0,3.09,9.31,4.67,4.67,0,0,1,1,8.73,4.76,4.76,0,0,0,4.74,13.4a4.68,4.68,0,0,1-2.12.08A4.7,4.7,0,0,0,7,16.74a9.51,9.51,0,0,1-7,1.95,13.57,13.57,0,0,0,15.29-.52A13.78,13.78,0,0,0,20.61,6.82,9.55,9.55,0,0,0,23,4.38C22.11,4.76,22.33,5.33,23,4.38Z" fill="#22b8af"/><path d="M22.32,2.52a9.49,9.49,0,0,1-3,1.14,6.58,6.58,0,0,1,.92,1.46,4.71,4.71,0,0,0,2.06-2.6C21.41,3.06,22,3.62,22.32,2.52Z" fill="#375667"/><path d="M20.26,5.12a4.67,4.67,0,0,1,.35,1.76V6.82A9.55,9.55,0,0,0,23,4.38a9.51,9.51,0,0,1-2.69.74C20.48,5.67,21.21,5,20.26,5.12Z" fill="#375667"/></svg>