<svg xmlns="http://www.w3.org/2000/svg" width="23" height="23" viewBox="0 0 23 23"><title>icons-singletons</title><path d="M7.55,4.11h0L10.72,0.6a1.07,1.07,0,0,1,1.57,0h0l1.65,1.83a7.46,7.46,0,0,0,1.51,1.68,1.06,1.06,0,0,1-1.57,1.42L12.56,4v7.7a1.06,1.06,0,1,1-2.11.11V4A6.33,6.33,0,0,1,8.74,5.79,1.06,1.06,0,0,1,7.55,4.11Z" fill="#22b8af" fill-rule="evenodd"/><path d="M20.68,2.26H16.53l0.41,0.46a3,3,0,0,1,.78,1.66h1.9V20.62H3.38V4.38h1.9A3.08,3.08,0,0,1,6,2.78l0,0,0.43-.48H2.31a1.05,1.05,0,0,0-1,1s0,0.06,0,.09V21.68a1.06,1.06,0,0,0,1.06,1.06H20.68a1.05,1.05,0,0,0,1-1s0,0,0-.07h0V3.32A1.06,1.06,0,0,0,20.68,2.26Z" fill="#375667" fill-rule="evenodd"/></svg>