<svg xmlns="http://www.w3.org/2000/svg" width="23" height="23" viewBox="0 0 23 23"><title>icons-singletons</title><path d="M22.62,15.84V4.6a0.77,0.77,0,0,0-.77-0.77H1.15a0.78,0.78,0,0,0-.77.77V15.84H22.62ZM16.7,7.42h1.42c3.12,0,3.12,4.84,0,4.84H16.7V7.42Zm-11.82,0H6.3v4.84H4.88C1.76,12.25,1.76,7.42,4.88,7.42Z" fill="#375667"/><path d="M0.38,16.84V18.4a0.77,0.77,0,0,0,.77.77h20.7a0.78,0.78,0,0,0,.77-0.77V16.84H0.38Z" fill="#375667"/><rect x="8.3" y="7.41" width="6.4" height="4.84" fill="#22b8af"/></svg>