<svg xmlns="http://www.w3.org/2000/svg" width="23" height="23" viewBox="0 0 23 23"><title>icons-singletons</title><path d="M11.78,12.54a0.53,0.53,0,0,0,.41-0.23l0.73-1.2v4.6a0.27,0.27,0,0,0,.27.27h4a0.55,0.55,0,0,0,.42-0.23l1.52-2.35,1.56,2.35a0.57,0.57,0,0,0,.42.22h1.88a0.13,0.13,0,0,0,.12-0.23L20.31,11.5l2.75-4.25A0.13,0.13,0,0,0,22.94,7H21.06a0.57,0.57,0,0,0-.42.22L19.08,9.6,17.56,7.25A0.55,0.55,0,0,0,17.15,7H13.2a0.27,0.27,0,0,0-.27.27v3.17H10.29A0.27,0.27,0,0,1,10,10.19V7.29A0.27,0.27,0,0,0,9.75,7H6.06a0.4,0.4,0,0,0-.35.26L3.93,12.62,2.15,7.28A0.4,0.4,0,0,0,1.8,7H0.1a0.18,0.18,0,0,0-.18.26l2.82,8.44a0.4,0.4,0,0,0,.35.26h1.7a0.4,0.4,0,0,0,.35-0.26l2.8-8.43h0v8.41a0.27,0.27,0,0,0,.27.27H9.72A0.27,0.27,0,0,0,10,15.71v-2.9a0.27,0.27,0,0,1,.27-0.27h1.52ZM15,15.71V7.29l2.8,4.21Z" fill="#375667"/></svg>