<svg xmlns="http://www.w3.org/2000/svg" width="23" height="23" viewBox="0 0 23 23"><title>icons-payment-set copy</title><path d="M16.75,10.35l-0.16.44-0.48,1.29h1l-0.27-1.33Z" fill="#375667"/><path d="M22.21,4.63H0.79a0.64,0.64,0,0,0-.64.64V17.73a0.64,0.64,0,0,0,.64.64H22.21a0.64,0.64,0,0,0,.64-0.64V5.27A0.64,0.64,0,0,0,22.21,4.63ZM3.84,9.1H5.76a0.49,0.49,0,0,1,.54.39l0.42,2.12A4,4,0,0,0,3.82,9.2Zm2.3,4.61L5.17,10a3.69,3.69,0,0,1,1.61,1.88l0.07,0.33L8,9.1H9.28L7.4,13.71H6.14Zm2.87,0L9.76,9.1H11l-0.75,4.61H9Zm3.27,0.07A3.64,3.64,0,0,1,11,13.54l0.17-1,0.16,0.07a2.38,2.38,0,0,0,1.12.25,0.62,0.62,0,0,0,.72-0.45,0.79,0.79,0,0,0-.62-0.57,1.51,1.51,0,0,1-1-1.25c0-.9.83-1.53,2-1.53a3,3,0,0,1,1.07.2l-0.16,1-0.11,0A2,2,0,0,0,13.37,10c-0.47,0-.68.2-0.69,0.4a0.94,0.94,0,0,0,.67.57,1.4,1.4,0,0,1,1,1.26C14.35,13.17,13.54,13.79,12.28,13.79Zm5.16-.07L17.31,13H15.77l-0.25.69H14.27L16,9.49a0.59,0.59,0,0,1,.62-0.38h0.92l1,4.61H17.45Z" fill="#375667"/></svg>