<svg xmlns="http://www.w3.org/2000/svg" width="23" height="23" viewBox="0 0 23 23"><title>icons-singletons</title><rect x="3.26" y="7.77" width="2.58" height="10.57" fill="#22b8af"/><rect x="7.4" y="7.77" width="12.34" height="10.57" fill="#22b8af"/><path d="M21.58,1.77H1.42a1,1,0,0,0-1,1V20.19a1,1,0,0,0,1,1H21.58a1,1,0,0,0,1-1V2.81A1,1,0,0,0,21.58,1.77Zm-12.86,1a1,1,0,0,1,0,2.09A1,1,0,0,1,8.72,2.81Zm-3.13,0a1,1,0,0,1,0,2.09A1,1,0,0,1,5.59,2.81Zm-3.13,0a1,1,0,0,1,0,2.09A1,1,0,0,1,2.46,2.81Zm19.11,7.3V20.19H1.42V5.94H21.58v4.17Z" fill="#375667" fill-rule="evenodd"/></svg>