<?xml version="1.0" encoding="utf-8"?>
<!-- Generator: Adobe Illustrator 18.1.1, SVG Export Plug-In . SVG Version: 6.00 Build 0)  -->
<!DOCTYPE svg PUBLIC "-//W3C//DTD SVG 1.1//EN" "http://www.w3.org/Graphics/SVG/1.1/DTD/svg11.dtd">
<svg version="1.1" id="Layer_1" xmlns="http://www.w3.org/2000/svg" xmlns:xlink="http://www.w3.org/1999/xlink" x="0px" y="0px"
	 width="23px" height="23px" viewBox="0 0 23 23" style="enable-background:new 0 0 23 23;" xml:space="preserve">
<g>
	<path style="fill:#375667;" d="M11.7,10.3L9.6,0.7c-0.2-0.9-1.6-1-1.8,0L4.9,11.9H1.7c-1.2,0-1.2,1.9,0,1.9h3.9
		c0.4,0,0.8-0.3,0.9-0.7L8.6,5l1.5,6.9L11.7,10.3z"/>
	<path style="fill:#22B8AF;" d="M22.1,11.3h-3.6L16.4,7c-0.4-0.8-1.6-0.6-1.8,0.2l-1.7,8.6l-1-4.4L10.4,13l1.7,7.6
		c0.1,0.4,0.5,0.7,0.9,0.7c0.4,0,0.8-0.3,0.9-0.8l2-10.2l1.1,2.3c0.2,0.3,0.5,0.5,0.8,0.5h4.2C23.3,13.2,23.3,11.3,22.1,11.3z"/>
</g>
</svg>
