<svg xmlns="http://www.w3.org/2000/svg" width="71" height="43" viewBox="0 0 71 43"><path d="M35.5 23.5h-5l-2 2.2-1.9-2.2h-6.3v6.6h6.2l2-2.2 1.9 2.2h3.1v-2.2h2c1.5 0 2.7-.6 2.7-2.2 0-1.7-1.3-2.2-2.7-2.2zm-9.9 5.2h-3.9v-1.3h3.5v-1.4h-3.5v-1.2h4l1.7 1.9-1.8 2zm6.3.8l-2.4-2.7 2.4-2.6v5.3zm3.6-3h-2v-1.7h2.1c1.2 0 1.2 1.7-.1 1.7zm9.4-7.8h1.8l.6-1.5h3.3l.6 1.5h3.2v-5l3 5h2.2v-6.6h-1.6v4.6l-2.8-4.6h-2.4v6.2l-2.7-6.2h-2.4l-2.2 5.2h-.5c-1.6 0-2.1-2.3-1.1-3.4.3-.3.6-.4 1.2-.4h1.5v-1.4h-1.5c-2.1 0-3.2 1.3-3.2 3.3-.1 2 1 3.3 3 3.3zm4.1-5.5l1.1 2.6h-2.2l1.1-2.6zm-15.2 3.1h1.7c.6 0 .9.1 1.1.3.3.3.2.9.2 1.3v.8h1.6v-1.3c0-.6 0-.9-.3-1.2-.1-.2-.4-.4-.8-.6.9-.4 1.3-1.4 1-2.3-.3-1.2-1.7-1.2-2.6-1.2h-3.6v6.6h1.6v-2.4zm0-2.8h1.9c.3 0 .6 0 .7.1.5.2.4 1 0 1.2-.2.1-.5.1-.8.1h-1.9v-1.4zm-2.7 3.8h-3.7v-1.3h3.6v-1.3h-3.6v-1.2h3.7v-1.4h-5.3v6.6h5.3zm-8.1 1.4h1.6v-6.6h-2.6l-1.9 4.5-2.1-4.5h-2.6v6.2l-2.7-6.2h-2.3l-2.8 6.6h1.7l.6-1.5h3.3l.6 1.5h3.2v-5.2l2.3 5.2h1.4l2.3-5.2v5.2zm-12.5-2.9l1.1-2.6 1.1 2.6h-2.2zm35.6 14.3h5.3v-1.4h-3.7v-1.3h3.6v-1.4h-3.6v-1.2h3.7v-1.3h-5.3zm15.7-4.1h-.8c-.3 0-.6 0-.8-.2-.2-.2-.1-.6 0-.7l.1-.1c.2-.1.3-.1.6-.1h2.9v-1.4h-3.2c-1 0-1.6.4-1.9.8l-.1.1-.1.2c-.1.1-.1.3-.1.4v.7l.1.6c0 .1 0 .1.1.2 0 .1.1.2.1.2l.1.1.1.1s.1 0 .1.1c.1.1.2.1.3.1 0 0 .1 0 .1.1.7.2 1.4.2 2.2.2 1 0 .9 1.2-.1 1.2h-3v1.4h3c1.1 0 2.2-.4 2.4-1.6.4-1.6-.6-2.3-2.1-2.4zm-16.5-.8c0-.8-.3-1.2-.8-1.5-.5-.3-1.1-.3-1.9-.3h-3.6v6.6h1.6v-2.4h1.7c1.1 0 1.4.5 1.4 1.6v.8h1.6v-1.3c0-.8-.2-1.5-1-1.8.3-.1 1-.6 1-1.7zm-2.1 1c-.2.1-.5.1-.8.1h-1.9v-1.5h1.9c.3 0 .6 0 .8.1.5.3.4 1 0 1.3-.2.1.2-.2 0 0zm25.8-26.2h-67c-1.1 0-2 .9-2 2v39c0 1.1.9 2 2 2h67c1.1 0 2-.9 2-2v-39c0-1.1-.9-2-2-2zm-50.8 18.9v1.1h-5.3l-.6-1.5h-1.4l-.6 1.5h-4.8l4-9.2h4.1l.5 1.1v-1.1h4.9l1.1 2.4 1-2.4h15.3c.7 0 1.3.1 1.8.5v-.5h4.2v.5c.7-.4 1.6-.5 2.6-.5h6.1l.6 1.1v-1.1h4.5l.6 1.1v-1.1h4.4v9.2h-4.4l-.8-1.4v1.4h-5.5l-.6-1.5h-1.4l-.8 1.5h-2.9c-1.1 0-2-.3-2.5-.6v.6h-6.8v-2.1c0-.3-.1-.3-.2-.3h-.3v2.4h-13.1v-1.1l-.5 1.1h-2.8l-.4-1.1zm46.9 11c-.7 1.3-2 1.5-3.3 1.5h-4.4v-.6c-.5.4-1.3.6-2.1.6h-13v-2.1c0-.3 0-.3-.3-.3h-.2v2.4h-4.2v-2.5c-.7.3-1.5.3-2.2.3h-.5v2.2h-5.1l-1.3-1.4-1.3 1.4h-8.3v-9.2h8.5l1.2 1.4 1.3-1.4h5.7c.7 0 1.7.1 2.2.5v-.5h5.1c.5 0 1.5.1 2.1.5v-.5h7.7v.5c.4-.4 1.2-.5 1.9-.5h4.3v.5c.4-.3 1-.5 1.8-.5h4.5v3.3h-.9c1.3.9 1.6 3 .8 4.4-.4.7.3-.5 0 0zm-25.7-17.8h1.6v6.6h-1.6zm16.2 13.9h-.8c-.5 0-1.5-.5-.7-1 .2-.1.3-.1.6-.1h2.9v-1.4h-3.2c-1.5 0-2.6 1.2-2.1 2.7.4 1.3 2.1 1.2 3.2 1.3 1 0 .9 1.2-.1 1.2h-3.1v1.4h3.1c1.1 0 2.2-.4 2.4-1.6.4-1.7-.7-2.4-2.2-2.5z" fill="#fff"/></svg>