<?xml version="1.0" encoding="utf-8"?>
<!-- Generator: Adobe Illustrator 18.1.1, SVG Export Plug-In . SVG Version: 6.00 Build 0)  -->
<!DOCTYPE svg PUBLIC "-//W3C//DTD SVG 1.1//EN" "http://www.w3.org/Graphics/SVG/1.1/DTD/svg11.dtd">
<svg version="1.1" id="Layer_1" xmlns="http://www.w3.org/2000/svg" xmlns:xlink="http://www.w3.org/1999/xlink" x="0px" y="0px"
	 width="23px" height="23px" viewBox="0 0 23 23" style="enable-background:new 0 0 23 23;" xml:space="preserve">
<g>
	<g>
		<path style="fill-rule:evenodd;clip-rule:evenodd;fill:#999999;" d="M20.6,16.5c-0.5,1.1-0.7,1.6-1.4,2.6
			c-0.9,1.4-2.2,3.1-3.7,3.1c-1.4,0-1.7-0.9-3.6-0.9c-1.9,0-2.3,0.9-3.7,0.9c-1.6,0-2.8-1.5-3.7-2.9C2,15.4,1.8,10.9,3.3,8.6
			c1.1-1.7,2.8-2.7,4.5-2.7c1.7,0,2.7,0.9,4.1,0.9c1.3,0,2.1-0.9,4.1-0.9c1.4,0,3,0.8,4.1,2.2C16.4,10,17,15.1,20.6,16.5L20.6,16.5z
			"/>
		<path style="fill-rule:evenodd;clip-rule:evenodd;fill:#999999;" d="M14.4,4.4c0.7-0.9,1.2-2.2,1-3.4C14.3,1,13,1.7,12.2,2.7
			c-0.7,0.9-1.3,2.1-1.1,3.4C12.4,6.1,13.7,5.3,14.4,4.4L14.4,4.4z"/>
	</g>
</g>
</svg>
