<?xml version="1.0" encoding="utf-8"?>
<!-- Generator: Adobe Illustrator 18.1.1, SVG Export Plug-In . SVG Version: 6.00 Build 0)  -->
<!DOCTYPE svg PUBLIC "-//W3C//DTD SVG 1.1//EN" "http://www.w3.org/Graphics/SVG/1.1/DTD/svg11.dtd">
<svg version="1.1" id="Layer_1" xmlns="http://www.w3.org/2000/svg" xmlns:xlink="http://www.w3.org/1999/xlink" x="0px" y="0px"
	 width="23px" height="23px" viewBox="0 0 23 23" style="enable-background:new 0 0 23 23;" xml:space="preserve">
<g>
	<path style="fill:#375667;" d="M19.8,17.4l-8.3-8.3l-8.3,8.3c-0.7,0.7-1.6-0.6-2-1c-0.7-0.7,0.8-1.8,1.2-2.2
		c1.1-1.1,2.3-2.3,3.4-3.4C7.6,9,9.3,7.3,11,5.6c0.7-0.7,1.8,0.8,2.2,1.2c1.1,1.1,2.3,2.3,3.4,3.4c1.7,1.7,3.5,3.4,5.2,5.2
		c0.7,0.7-0.6,1.6-1,2C20.4,17.7,20,17.7,19.8,17.4z"/>
</g>
</svg>
