<?xml version="1.0" encoding="utf-8"?>
<!-- Generator: Adobe Illustrator 18.1.1, SVG Export Plug-In . SVG Version: 6.00 Build 0)  -->
<!DOCTYPE svg PUBLIC "-//W3C//DTD SVG 1.1//EN" "http://www.w3.org/Graphics/SVG/1.1/DTD/svg11.dtd">
<svg version="1.1" id="Layer_1" xmlns="http://www.w3.org/2000/svg" xmlns:xlink="http://www.w3.org/1999/xlink" x="0px" y="0px"
	 width="23px" height="23px" viewBox="0 0 23 23" style="enable-background:new 0 0 23 23;" xml:space="preserve">
<g>
	<path style="fill:#375667;" d="M3.2,5.6l8.3,8.3l8.3-8.3c0.7-0.7,1.6,0.6,2,1c0.7,0.7-0.8,1.8-1.2,2.2c-1.1,1.1-2.3,2.3-3.4,3.4
		c-1.7,1.7-3.5,3.4-5.2,5.2c-0.7,0.7-1.8-0.8-2.2-1.2c-1.1-1.1-2.3-2.3-3.4-3.4C4.7,11.1,3,9.3,1.2,7.6c-0.7-0.7,0.6-1.6,1-2
		C2.6,5.3,3,5.3,3.2,5.6z"/>
</g>
</svg>
