<?xml version="1.0" encoding="utf-8"?>
<!-- Generator: Adobe Illustrator 18.1.1, SVG Export Plug-In . SVG Version: 6.00 Build 0)  -->
<!DOCTYPE svg PUBLIC "-//W3C//DTD SVG 1.1//EN" "http://www.w3.org/Graphics/SVG/1.1/DTD/svg11.dtd">
<svg version="1.1" id="Layer_1" xmlns="http://www.w3.org/2000/svg" xmlns:xlink="http://www.w3.org/1999/xlink" x="0px" y="0px"
	 width="23px" height="23px" viewBox="0 0 23 23" style="enable-background:new 0 0 23 23;" xml:space="preserve">
<g>
	<path style="fill:#375667;" d="M11.5,22c-4.5,0-8.6-3-10-7.3c-1.4-4.3,0.2-9.2,4-11.8c3.7-2.6,8.9-2.5,12.5,0.3
		c3.6,2.8,5,7.7,3.4,12C19.8,19.3,15.8,22,11.5,22z M11.5,3.3C7,3.3,3.3,7,3.3,11.5c0,4.5,3.7,8.2,8.2,8.2c4.5,0,8.2-3.7,8.2-8.2
		C19.7,7,16,3.3,11.5,3.3z"/>
	<path style="fill:#22B8AF;" d="M12.9,12.9v-2.9V5.5c0-0.4-0.4-0.8-0.8-0.8h-1.3c-0.4,0-0.8,0.4-0.8,0.8v4.5H6.5
		c-0.4,0-0.8,0.4-0.8,0.8v1.3c0,0.4,0.4,0.8,0.8,0.8h3.5H12.9z"/>
</g>
</svg>
