<?xml version="1.0" encoding="utf-8"?>
<!-- Generator: Adobe Illustrator 18.1.1, SVG Export Plug-In . SVG Version: 6.00 Build 0)  -->
<!DOCTYPE svg PUBLIC "-//W3C//DTD SVG 1.1//EN" "http://www.w3.org/Graphics/SVG/1.1/DTD/svg11.dtd">
<svg version="1.1" id="Layer_1" xmlns="http://www.w3.org/2000/svg" xmlns:xlink="http://www.w3.org/1999/xlink" x="0px" y="0px"
	 width="23px" height="23px" viewBox="0 0 23 23" style="enable-background:new 0 0 23 23;" xml:space="preserve">
<g>
	<path style="fill:#375667;" d="M7.9,6.8c-2.8,0-6.3,0.2-7.4,3.3c-1.2,3.2-0.3,7.3,3.2,8.4v2.4l1.9-2c4,0.4,9.6,0.3,10.2-4.8
		c0.2-2.1-0.1-4.7-2-6C12.2,6.9,9.9,6.8,7.9,6.8z"/>
	<path style="fill:#22B8AF;" d="M16.3,2.1c-3.1,0-5.8,0.4-6.5,3.3c1.7,0.1,3.7,0.3,5.1,1.4c1.6,1.3,1.9,3.6,1.7,5.5
		c0.6,0,1.1,0,1.7-0.1l1.6,1.7v-2c3-0.9,3.8-4.3,2.8-7C21.7,2.3,18.7,2.1,16.3,2.1z"/>
</g>
</svg>
