<svg xmlns="http://www.w3.org/2000/svg" width="71" height="43" viewBox="0 0 71 43"><path d="M32 8.7c-4.5 0-8.7 2.4-11 6.2-2.3 3.9-2.4 8.8-.3 12.8 2.1 3.9 6.2 6.4 10.7 6.6 4.5.2 8.8-2 11.3-5.7 2.6-3.9 2.8-9.1.5-13.2-2.2-4.2-6.6-6.7-11.2-6.7zm-2.9 20.4c-3.1-1.2-5.2-4.3-5.2-7.6s2.1-6.4 5.2-7.6v15.2zm5.8 0v-15.2c3.1 1.2 5.2 4.3 5.2 7.6s-2.1 6.4-5.2 7.6zm34.1-29.1h-67c-1.1 0-2 .9-2 2v39c0 1.1.9 2 2 2h67c1.1 0 2-.9 2-2v-39c0-1.1-.9-2-2-2zm-30.5 35.5h-6.6c-7.8 0-14.4-6.6-14.1-14.5.3-7.6 6.5-13.5 14.1-13.5h6.6c7.6 0 14.3 5.8 14.6 13.5.4 8-6.8 14.5-14.6 14.5z" fill="#fff"/></svg>