<?xml version="1.0" encoding="utf-8"?>
<!-- Generator: Adobe Illustrator 18.1.1, SVG Export Plug-In . SVG Version: 6.00 Build 0)  -->
<!DOCTYPE svg PUBLIC "-//W3C//DTD SVG 1.1//EN" "http://www.w3.org/Graphics/SVG/1.1/DTD/svg11.dtd">
<svg version="1.1" id="Layer_1" xmlns="http://www.w3.org/2000/svg" xmlns:xlink="http://www.w3.org/1999/xlink" x="0px" y="0px"
	 width="23px" height="23px" viewBox="0 0 23 23" style="enable-background:new 0 0 23 23;" xml:space="preserve">
<g>
	<g>
		<g>
			<polygon style="fill:#375667;" points="7.4,2 1.5,5.7 5.6,9.1 11.5,5.3 			"/>
		</g>
		<g>
			<path style="fill:#375667;" d="M15.1,17.7c-0.1,0-0.2,0-0.3-0.1l-3.3-2.7l-3.3,2.7c-0.2,0.1-0.4,0.1-0.6,0l-2.4-1.6V17l6.3,4
				l6.3-4v-0.9l-2.4,1.6C15.3,17.7,15.2,17.7,15.1,17.7z"/>
		</g>
		<g>
			<polygon style="fill:#375667;" points="21.5,5.7 15.6,2 11.5,5.3 17.4,9.1 			"/>
		</g>
		<g>
			<polygon style="fill:#375667;" points="11.5,12.8 15.2,15.9 21.1,12.1 17.4,9.1 			"/>
		</g>
		<g>
			<polygon style="fill:#375667;" points="7.8,15.9 11.5,12.8 5.6,9.1 1.9,12.1 			"/>
		</g>
	</g>
</g>
</svg>
