<?xml version="1.0" encoding="utf-8"?>
<!-- Generator: Adobe Illustrator 18.1.1, SVG Export Plug-In . SVG Version: 6.00 Build 0)  -->
<!DOCTYPE svg PUBLIC "-//W3C//DTD SVG 1.1//EN" "http://www.w3.org/Graphics/SVG/1.1/DTD/svg11.dtd">
<svg version="1.1" id="Layer_1" xmlns="http://www.w3.org/2000/svg" xmlns:xlink="http://www.w3.org/1999/xlink" x="0px" y="0px"
	 width="23px" height="23px" viewBox="0 0 23 23" style="enable-background:new 0 0 23 23;" xml:space="preserve">
<g>
	<g>
		<path style="fill:#375667;" d="M11.5,9.3c-2.8,0-2.8,4.4,0,4.4C14.3,13.7,14.3,9.3,11.5,9.3z"/>
		<g>
			<path style="fill:#22B8AF;" d="M11.5,7C9,7,7,9,7,11.5C7,14,9,16,11.5,16C14,16,16,14,16,11.5C16,9,14,7,11.5,7z"/>
		</g>
		<path style="fill:#375667;" d="M11.5,9.3c-2.8,0-2.8,4.4,0,4.4C14.3,13.7,14.3,9.3,11.5,9.3z"/>
		<path style="fill:#375667;" d="M22.4,11.1C20.3,7,16.2,3.9,11.5,3.9C6.8,3.9,2.7,7,0.6,11.1l-0.2,0.4l0.2,0.4
			c2.1,4.1,6.2,7.1,10.9,7.1c4.7,0,8.8-3.1,10.9-7.1l0.2-0.4L22.4,11.1z M11.5,17.2c-3.6,0-7.1-2.2-9-5.7c1.8-3.3,5.2-5.7,9-5.7
			c3.8,0,7.2,2.4,9,5.7C18.6,15,15.1,17.2,11.5,17.2z"/>
	</g>
</g>
</svg>
