<?xml version="1.0" encoding="utf-8"?>
<!-- Generator: Adobe Illustrator 18.1.1, SVG Export Plug-In . SVG Version: 6.00 Build 0)  -->
<!DOCTYPE svg PUBLIC "-//W3C//DTD SVG 1.1//EN" "http://www.w3.org/Graphics/SVG/1.1/DTD/svg11.dtd">
<svg version="1.1" id="Layer_1" xmlns="http://www.w3.org/2000/svg" xmlns:xlink="http://www.w3.org/1999/xlink" x="0px" y="0px"
	 width="23px" height="23px" viewBox="0 0 23 23" style="enable-background:new 0 0 23 23;" xml:space="preserve">
<g>
	<g>
		<path style="fill-rule:evenodd;clip-rule:evenodd;fill:#375667;" d="M11.5,22.6c-4.5,0-8.6-2.8-10.3-6.9
			c-1.7-4.2-0.7-9.1,2.6-12.3c3.3-3.1,8.3-4,12.4-2c4.1,1.9,6.6,6.2,6.4,10.6C22.3,17.9,17.3,22.6,11.5,22.6 M17.7,5
			c-0.2,0-0.1-0.2-0.2-0.2c0,0.4,0.1,0.6-0.4,0.7c0.2,0.4,0.7-0.4,0.7-0.4C17.8,5,17.8,5,17.7,5 M18,5.2C18,5.2,18,5.2,18,5.2
			C18,5.2,17.8,5,18,5.2C18.1,5.3,18.1,5.3,18,5.2 M20.4,12.8c0,0,0.1-0.6,0.1-0.6c-0.1-0.1-0.2,0-0.1-0.1c-0.1,0-0.1,0-0.1,0.1
			C20.1,12.5,20.3,12.6,20.4,12.8 M2.8,13.7C2.8,13.5,3,13.5,3,13.4c0-0.1-0.2-0.1-0.2,0.1c-0.1,0-0.1,0.1-0.1,0
			C2.6,13.3,2.7,13.7,2.8,13.7 M3.1,10.1C3.1,10.1,3.2,10.1,3.1,10.1 M3,8.5C3,8.5,3,8.5,3,8.5 M5.5,5C5.4,5,5.4,5,5.5,5
			C5.4,4.9,5.4,4.9,5.4,4.9c0,0,0.1,0,0.1,0c0-0.1-0.2,0.1-0.2,0.1C5.4,5,5.4,5,5.5,5 M5.1,5.1C5.1,5.2,5.1,5.2,5.1,5.1 M7.6,3.4
			C7.6,3.4,7.7,3.4,7.6,3.4c-0.1,0,0,0.1-0.2,0.1c0.1,0,0.2-0.1,0.2,0c0,0.1-0.2,0-0.2,0c0,0,0.1,0,0,0c0,0,0.1,0,0.1,0
			c0,0-0.2,0.1-0.1,0c0,0,0.3,0,0.3,0c0,0.1-0.2,0.1-0.2,0.1c0,0,0.2,0.2,0.3,0.1C7.8,3.9,7.7,4,7.6,3.9c0,0,0.1,0,0.1,0
			C7.6,3.9,7.6,4,7.5,3.9c0,0.1,0,0.1-0.1,0.1c0.1,0-0.1,0.1,0,0.1c0-0.1,0.1-0.1,0.2-0.1c0,0.1-0.1,0-0.1,0.1c0,0,0.2-0.1,0.2,0
			c0,0-0.1,0.1,0,0.1c0.2-0.1,0.3,0,0.4,0c-0.1,0,0.2,0.1,0.2,0.1c0,0-0.1,0-0.1,0c0,0.1-0.6,0-0.6,0c0.1,0,0.1,0,0.1,0
			c0,0,0.2-0.1,0.2,0c0.1,0.1-0.2,0.1-0.2,0.2c0.1,0.1,0,0.1,0,0.1c0,0,0.3-0.1,0.3-0.1c0,0-0.1,0.1-0.2,0.1c0.1,0,0.2-0.1,0.3-0.2
			c0.1,0,0.2-0.1,0.3-0.1c0,0,0,0.1-0.1,0.1c0,0.1-0.5,0.8-0.7,0.5c0.1,0.2-0.1,0.3-0.2,0.5c0,0,0.1,0.1,0,0.1c0,0-0.1,0.1-0.1,0.1
			c0,0,0-0.1,0-0.1C6.9,5.6,7,5.8,6.8,5.8c0,0,0.1,0,0.1,0.1c0,0-0.1,0-0.1,0c0.1,0,0.1,0.1,0.1,0.1c0,0-0.1,0-0.1,0
			c0,0,0.2,0,0.1,0.1c0,0-0.1,0-0.1,0c0,0,0.1,0,0.1,0c-0.1,0,0,0.1-0.1,0.1c0,0,0,0-0.1,0c0,0-0.1,0.2,0,0.2c0,0-0.1,0-0.1,0
			c0,0,0.3,0.1,0.1,0.1c0,0-0.1,0.1-0.1,0.1c0,0.1,0.1,0.1,0,0.1c0,0,0.1,0,0.1,0c0,0-0.1,0.1-0.1,0.1c0,0,0.1,0,0.1,0
			c0,0-0.3,0.1-0.3,0.1c0,0,0-0.1,0-0.1c0,0,0,0-0.1,0c0-0.1,0,0-0.1,0c0,0,0,0-0.1,0c0-0.1,0.1,0,0.1-0.1c0,0,0,0-0.1,0
			c0,0,0.1-0.1,0-0.1c-0.1,0-0.1,0.1-0.2,0.1c-0.1,0,0,0.1-0.1,0c0.1,0-0.1-0.1-0.1-0.1c0,0-0.1,0.1-0.1,0c0,0,0.1-0.1,0.1-0.1
			c-0.2,0-0.1,0,0,0c-0.1-0.1-0.1,0-0.1-0.2c-0.2,0,0,0-0.2,0c0,0,0-0.1,0.1-0.1c-0.1,0-0.1,0-0.1,0c0.1,0,0,0,0,0
			c0,0,0.1,0,0.2-0.1c0,0-0.2,0.1-0.2,0c0.1-0.2,0.1,0,0.3,0C5.6,6.1,5.5,6.1,5.5,6c-0.1,0,0,0.1,0,0.1c0,0-0.2,0-0.1,0.1
			c0,0,0-0.3,0-0.3c-0.1,0-0.1,0-0.2,0c0,0,0,0,0.1,0c0,0-0.1,0-0.1,0c0.1-0.1,0.3-0.1,0.4-0.2c-0.1,0-0.4,0.1-0.4,0.2c0,0,0,0,0,0
			c-0.1,0,0.2,0,0-0.1c0,0,0.1,0,0.1,0c0,0-0.1,0-0.2-0.1c0.1,0,0.2-0.1,0.3,0c-0.1-0.1-0.2,0-0.3,0c0.1-0.1,0.2-0.1,0.3-0.1
			c0,0,0-0.1,0-0.1c0,0-0.2,0.1-0.3,0.1c0,0,0.2-0.1,0.1-0.1c0,0,0,0-0.1,0c0,0,0,0,0,0c0,0,0.1,0,0.1,0c0,0,0.1,0,0.1,0
			c0,0-0.1-0.1-0.1-0.1c0,0-0.1,0-0.2,0c0,0,0.2-0.1,0.3-0.1c0,0,0-0.1,0,0c0,0,0.1-0.2,0.1-0.1c0,0,0,0-0.1,0c0,0,0.1-0.1,0.1-0.2
			c-0.1,0-0.3,0-0.3,0c0,0,0.2,0.1,0.2,0.1c0,0-0.1,0.1-0.1,0.1c0,0-0.1,0-0.1,0c0,0,0,0,0.1,0C5.2,5,4.4,5.9,4.4,6
			c0.1,0,0.1,0,0.1,0.1c0,0,0,0-0.1,0c0.1,0,0.2,0,0.3,0.1c0,0.1-0.1,0-0.1,0c0,0,0,0.1,0.1,0.1c-0.9,0.1,0.6,0-0.1,0
			c0,0,0,0.1,0,0.1c-0.1,0-0.5-0.3-0.4-0.2C4.1,6.4,4.2,6.5,4.4,6.6c0,0,0.1,0.2,0.1,0.2c0,0-0.1-0.1-0.1-0.1c0,0.1,0,0.1,0.1,0.2
			c0,0.1-0.1-0.2,0,0.1c-0.1,0-0.2-0.1-0.3-0.2c0,0.1,0,0.1-0.1,0C4,6.8,4.2,6.8,4.3,7C4,6.9,3.9,6.7,3.7,7c0.4,0.2,0,0.3,0.2,0.5
			c0.1,0,0.3,0,0.4,0c0-0.1,0.1-0.2,0.1-0.3c0,0.1,0.4,0.6,0.3,0.6c0,0.1,0.2,0,0.1,0.2C5,8,5,8,5.2,8c-0.1,0.1-0.3,0-0.3,0.2
			c0.3-0.2,0.3-0.1,0.5,0.1C4.8,8.7,4.1,8.5,3.8,9.1C3.9,9,4.4,8.6,4.5,8.8c0,0.1-0.2,0.1-0.2,0.1C4.3,9,4.3,9,4.4,8.9
			c0,0,0,0.2,0.1,0.2v0l0,0c0.1,0,0.1,0,0.1,0v0c0.1,0,0.1,0,0.2,0.1C4.7,9.3,4.5,9.3,4.5,9.4c0,0,0,0,0,0c0,0,0,0.1-0.1,0.1
			c-0.1,0-0.2-0.1-0.1-0.1v0l0,0c0.1-0.1,0.1-0.1,0.2,0c0.2-0.1-0.1,0.1,0-0.1c0,0-0.3,0.1-0.3,0.1c0,0-0.2,0.1-0.2,0
			C3.9,9.4,3.9,9.4,3.9,9.5c0,0,0,0,0,0c-0.1,0.1,0,0.1,0,0.2c0,0,0,0,0,0c0,0,0,0-0.1,0c0,0-0.3,0.2-0.3,0.1c0,0.1-0.1,0.2-0.1,0.3
			c0,0-0.1-0.1,0-0.1c0,0,0,0.3-0.1,0.3c-0.1,0,0.1-0.1,0-0.1h0c0-0.1,0,0,0-0.1c0,0,0,0,0,0c0,0,0,0,0,0c0,0,0,0,0,0h0
			c0-0.1,0,0,0,0c0,0,0,0.1,0,0.1c0,0,0,0,0,0c0.1-0.1-0.1,0.1-0.1,0c0.2,0.1,0.1,0,0.1,0.1c-0.1-0.1,0,0,0,0c0,0,0,0,0,0
			c0,0,0,0,0,0c0.1,0-0.1,0,0,0c0,0.1,0.1,0,0.1,0.1c0,0,0,0,0,0c0,0-0.1,0-0.1,0c0,0,0.1,0,0.1,0.1c0.1,0,0,0-0.1,0c-0.1,0,0,0,0,0
			c0-0.1,0,0.1,0,0c-0.1,0.1-0.4,0.2-0.5,0.4c-0.1,0.3,0.2,0.5,0.1,0.7c-0.1,0-0.1-0.1-0.2-0.2c0-0.1-0.1-0.2-0.2-0.3
			c0,0.3,0,0.5,0,0.8c0.1-0.1,0.2,0,0.3,0h0C3,12,3.3,12,3.4,12.1c0,0-0.3,0-0.4,0c0-0.1-0.4-0.3-0.4-0.3c-0.4-0.1-0.1,0.8-0.1,1.1
			c0,0.2,0,0.5,0.3,0.3c0.1-0.1,0.4,0.1,0.3,0.2c-0.1,0.1,0.1-0.1,0.1,0c0,0-0.2,0.2-0.1,0.3c-0.1,0,0.2-0.3,0.2-0.3c0,0,0,0-0.1,0
			c-0.1,0.2,1,0.2,0.8,0.2c0.1,0,0.1,0.1,0.2,0.1c0,0-0.1,0.1-0.1,0.1c0.2,0,0.3,0,0.3,0.2c0,0,0.2,0.1,0.2,0.1c0.4,0,1,0.4,0.5,0.8
			c0.1,0,0.3,0,0.3,0.1c0.1,0,0.3-0.3,0.4-0.1c0,0,0.1,0.1,0.1,0.1c0.6-0.4,1.3,0.5,0.6,1c-0.1,0-0.1,0.6-0.2,0.8
			c-0.1,0.1-0.6,0.5-0.8,0.5c0.1,0.2-0.1,0.5-0.3,0.7c0-0.1,0.1-0.1,0.1-0.2c0,0,0,0-0.1,0c-0.1,0.4,1,1,1.3,1.3
			c0.8,0.6,1.8,1,2.8,1.2c1.9,0.5,3.9,0.3,5.7-0.5c1.7-0.7,3.1-1.9,4.1-3.4c0.5-0.8,1.7-2.7,1.2-3.6c-0.1-0.1-0.2-0.2-0.1-0.4
			c0-0.2,0-0.6-0.2-0.7c0,0-0.1,0.2-0.2,0.2c0,0,0,0,0,0c0,0,0,0-0.1,0c0-0.1,0-0.3,0-0.3c0-0.1,0-0.1-0.1-0.1
			c-0.1-0.1-0.2-0.2-0.2-0.3c0,0,0,0.1,0,0.1c0-0.1,0,0-0.1,0c0,0-0.1,0-0.1,0c-0.2-0.1-0.4,0.4-0.7,0.5c-0.2,0.2-0.2,0.9-0.5,0.9
			c-0.3-0.3-0.6-1.2-0.5-1.5c-0.1,0-0.3,0.4-0.4,0c0,0,0.2,0,0.1-0.1c-0.3,0.1-0.4-0.3-0.7-0.2c-0.1,0-0.4,0-0.5,0
			c-0.2-0.2-0.7,0-0.8-0.4c0-0.1-0.2-0.1-0.2-0.2c-0.1,0-0.1,0.1-0.1,0.1c0,0.1,0.2,0.4,0.3,0.5c0,0,0-0.1,0-0.2
			c0.1,0,0,0.4,0.1,0.2c0.2,0.1,0.3-0.1,0.4-0.2c0,0.2,0.1,0.2,0.2,0.3c0.2,0.3-0.1,0.3-0.2,0.5c-0.1,0.1-1.3,0.7-1.3,0.6
			c0-0.2,0-0.4-0.2-0.5c-0.3-0.3-0.4-0.7-0.7-1.1c-0.1-0.2,0.1-0.9,0.1-1c-0.5,0.3-0.7-0.1-1-0.2c0,0,0.1-0.1,0.1-0.1c0,0,0,0,0-0.1
			c-0.2-0.1,0-0.1,0.1-0.1c-0.1,0,0.1,0,0.1,0c0-0.1-0.2,0,0.1,0c0,0-0.1,0-0.1,0c0.3,0,0.5-0.1,0.8,0c0.8,0.1,0.1-0.3,0-0.5
			c0.1,0,0.1-0.1,0.2-0.2c0-0.1-0.5,0.1-0.6,0.1c0,0,0.2,0.1,0.3,0.1c0,0-0.3,0.1-0.3,0.1c0-0.1,0-0.1-0.1-0.1c0,0,0-0.1,0.1-0.1
			c0-0.1-0.1,0-0.2-0.1c0,0,0,0,0,0c-0.3,0-0.3,0.3-0.5,0.5c0,0,0.2,0.1,0.2,0.2c0,0-0.3,0.1-0.3,0.1c0-0.1-0.1-0.1-0.3-0.1
			c0,0,0,0.1,0.1,0.1c-0.1,0,0,0-0.1,0c0,0,0,0,0,0c0,0-0.1,0-0.1-0.1c0,0,0,0.2,0,0.2c0,0,0,0,0,0c0,0,0,0,0,0c0,0,0.1,0.1,0.1,0.1
			c-0.1,0.1,0,0-0.1,0c0,0,0.1,0.1,0,0.1l0,0c0,0,0,0,0,0c0.1,0.2,0,0.1,0,0.1c-0.2-0.2,0-0.1,0.1-0.2c-0.1,0-0.2,0-0.2-0.1
			c0,0,0,0,0,0c-0.1-0.1-0.2-0.1-0.2-0.2c0.1-0.2-0.4-0.3-0.4-0.4c0-0.1,0-0.1-0.1-0.1c-0.1-0.1-0.1-0.1,0-0.1
			c-0.1-0.1-0.3,0.1-0.1,0.2c0.1,0,0.5,0.5,0.5,0.5c-0.2-0.1-0.1,0-0.2,0.2c0,0,0,0,0,0c0,0,0-0.1,0.1-0.1c-0.1-0.1-0.2-0.2-0.2-0.3
			c-0.2-0.1-0.3-0.3-0.5-0.4c-0.1-0.1-0.4,0.1-0.5,0.1c0,0-0.6,0.5-0.4,0.5C10,9.5,9.6,9.6,9.6,9.6c0,0,0,0,0,0
			C9.5,9.6,9.3,9.5,9.2,9.5c0-0.1,0-0.2,0-0.2c0-0.1,0,0.1,0,0c0-0.1,0-0.6,0.1-0.6C9.6,8.6,9.8,8.9,10,8.5c0,0-0.2-0.4-0.3-0.3
			c0,0,0,0,0-0.1c0.1,0,0.3,0,0.3,0c0,0,0-0.1,0-0.1c0.1,0,0.2,0.1,0.2,0c0,0,0.1-0.2,0.2-0.2c0.1,0,0.2-0.2,0.3-0.2
			c0,0,0,0.1,0.1,0.1c0.1-0.1,0,0,0-0.1c0.1-0.1,0.1-0.1,0.2,0c0,0,0.1-0.1,0.2-0.1C10.8,7.3,11,7,11.2,7c-0.1-0.1-0.2,0.5,0,0.4
			c0,0,0,0,0,0c0.2,0,0.2,0,0.3,0c0-0.2,0.6-0.2,0.7-0.2c0-0.1-0.1-0.4,0.1-0.4c0.3,0.2,0.2-0.1,0.1-0.1c0-0.2,0.4-0.2,0.5-0.1
			c0-0.1,0.1,0,0.2-0.1c0,0-0.2-0.1-0.2-0.1c0,0.1-0.1,0.1-0.2,0c0-0.1-0.1,0.1-0.1,0c-0.1,0-0.1,0-0.2,0c-0.3,0-0.3-0.4-0.1-0.6
			c0,0,0,0,0,0c0.5-0.2,0.2-0.3,0-0.4C12.3,5.6,12,6,12,6.1C11.6,6.3,12,6.4,12,6.5c-0.1,0-0.2,0-0.3,0c0.2,0.1,0-0.1,0.2,0v0
			c0,0-0.1,0.1-0.1,0.1c-0.1,0-0.1,0.1-0.1,0.2h0c0,0.2-0.2,0.4-0.4,0.4c0.1-0.2-0.2-0.4-0.2-0.6c-0.2,0.1-0.4,0.4-0.5,0.1
			c0,0,0,0,0.1,0c-0.1,0,0,0,0,0c0,0,0,0,0,0c-0.1,0,0,0,0,0h0c0,0-0.1-0.2,0-0.2c-0.1-0.1-0.1-0.1,0-0.1c0-0.1,0.1,0,0.2-0.1
			c0,0,0.3-0.2,0.4-0.3c0-0.1,0.1-0.3,0.2-0.3c-0.1-0.1,0-0.1,0-0.1c0-0.1,0.1-0.1,0.2-0.2c0,0,0-0.1,0-0.1c0.1,0,0.1,0,0.1-0.1
			C11.9,5,12,5,12.2,4.9c0,0,0,0,0,0.1c0.1-0.1,0.4-0.3,0.6-0.3c0,0-0.1,0.1-0.1,0.1c0.1,0,0.3-0.2,0.3-0.2c-0.1,0.1,0.5,0.2,0,0.2
			C13.2,5,13.7,5,13.9,5.1c0.1,0.1,0.6,0.2,0.3,0.4c-0.3,0.2-0.6-0.2-0.8-0.1C13.5,5.5,13.7,6,14,5.9c0.1,0-0.1-0.1-0.1-0.2
			c0.1-0.1,0.3,0,0.4,0.1c0.1-0.2-0.2-0.1,0.1-0.2c0.2-0.1,0.1,0,0.3,0c0-0.2,0-0.3,0-0.4c0.1,0,0.2,0,0.3,0.1c-0.1,0-0.1,0-0.2,0.1
			C15,5.5,15.3,5,15.6,5c0,0.1-0.1,0.1-0.1,0.1c0.2,0.1,0.4-0.2,0.6-0.1c-0.1,0,0,0.1,0,0.1c0-0.2,0.1-0.3,0.3-0.2
			c0.5,0.2,0.6,0.4,0.4,0c0-0.1,0.1-0.2,0-0.2c0-0.1,0.2-0.2,0.2-0.3c0-0.1-0.7-0.6-0.8-0.6c0,0-0.2,0.1-0.2,0.2
			C16,4.1,16,4,15.9,4.1c0,0.1-0.2,0.2-0.3,0.1c0.1,0,0.3-0.2,0.2-0.2c0.1,0,0.2-0.1,0.3-0.2C13.5,2.2,10.3,2.1,7.6,3.4 M7.7,3.8
			C7.7,3.8,7.7,3.8,7.7,3.8 M15.5,9c0,0,0-0.1-0.1-0.2c0,0-0.1-0.1-0.1-0.1c0,0,0.1,0,0.1,0c-0.1-0.1,0.1-0.1,0.2-0.1
			c0-0.4-0.7-0.1-0.7,0.1c0,0,0.1,0.1,0.1,0.1c0,0,0,0,0,0h0c0,0.2,0.3,0.3,0.3,0.4c-0.1,0.1-0.1,0.1-0.1,0.2c0,0,0,0.4,0.4,0.3
			c0.2,0,0.1-0.3,0-0.3c0,0,0,0,0.1,0c0,0,0,0,0,0C15.5,9.2,15.4,9.2,15.5,9c0.1,0.1,0.2,0.1,0.2,0.1c-0.1,0-0.1-0.1-0.1-0.1
			C15.5,8.9,15.5,8.9,15.5,9C15.5,9,15.5,9,15.5,9 M12.8,9C12.8,9,12.8,8.9,12.8,9 M15.8,4.2c-0.1,0,0.1,0.5,0.1,0.5
			c-0.2,0-0.2,0-0.4,0c0-0.2-0.1,0-0.2-0.2C15.3,4.4,15.6,4.2,15.8,4.2 M12.8,2.9C12.6,3,12.5,3,12.2,3c0-0.1,0-0.1,0.1-0.1
			c0,0-0.3,0-0.4,0c0,0,0.2-0.2,0.2-0.2c0.2,0.2,0.3,0,0.3,0.1c0.1-0.1,0.3-0.1,0.4,0C12.9,2.9,12.8,2.9,12.8,2.9 M12.1,3
			c0.1,0,0.1,0,0.2,0.1c-0.4,0.1-0.2,0.6-0.7,0.3c0,0,0.5-0.5,0.2-0.1c-0.1-0.1-0.2,0.1-0.3,0c0,0,0.2-0.1,0.3-0.1
			c-0.3,0.1-0.5-0.1-0.6-0.2c0.2-0.1,0.2,0,0.3,0c0,0,0.1,0,0.2,0c0.1-0.1-0.1-0.2,0.1-0.2C11.9,2.9,12,2.9,12.1,3 M10.1,7.7
			c0,0,0.1,0,0.1,0h0c-0.1,0.1-0.6,0.2-0.7,0.2c0-0.1,0.2-0.1,0.3-0.1c0.1-0.1,0-0.1,0,0l0,0c0,0-0.2,0-0.2-0.1c0,0,0.2,0,0.1-0.1v0
			h0c0.1,0,0.1,0,0.2-0.1c0,0,0-0.1,0-0.1c0,0-0.1,0,0-0.1c0,0-0.1,0-0.1,0c-0.1-0.1,0-0.1,0-0.2c0,0-0.1,0-0.1,0.1
			C9.6,7,9.6,7,9.5,7c0,0,0-0.2,0-0.2c0.1,0,0.1-0.1,0.2-0.1c0,0.1-0.1,0.1-0.1,0.1c0.1,0,0.1,0,0.2,0c0,0.1-0.1,0.2-0.2,0.2
			C10,7.1,10.4,7.7,10.1,7.7 M9.5,7.1C9.5,7.2,9.5,7.2,9.5,7.1 M9.5,7.3C9.3,7.7,9.3,7.6,9.1,7.6c0,0,0.1-0.1,0-0.1
			c0,0,0.1-0.1,0.1-0.1c-0.1,0.1-0.1,0-0.1-0.1c0,0,0,0-0.1,0c0,0,0.2,0,0.2-0.1C9.3,7.3,9.5,7.1,9.5,7.3 M9.1,10.2
			c0.2-0.9,1.6-0.3,2.1-0.7c0,0.2,0,0.2-0.1,0.3c0,0.1,0.2,0.1,0.3,0.2l0.1,0c0.1,0.1,0.3,0.1,0.4,0.2c0.3,0.1,0.3-0.2,0.7-0.1
			c0,0,0.1,0,0.1,0.1c0.3,0.1,1.2-0.1,0.9,0.4c-0.1,0-0.2-0.1-0.2-0.2c0,0,0.6,1.5,0.7,1.6c0,0,0,0,0,0c0.1,0.1,0.5,0.3,0.3,0.4
			c0.1,0,0.1,0,0.2,0.1c0.1,0,0.2,0,0.3-0.1c0.1,0,0.4-0.1,0.4-0.1c0,0.1,0,0.1,0,0.2c-0.2,0.7-1,1-1.2,1.6
			c-0.1,0.2,0.2,0.5,0.2,0.7c0,0.4-0.2,0.4-0.6,0.8c0.2,0.6-0.5,1.1-0.9,1.6c-0.1,0-0.7,0.1-0.7,0c0,0-0.2-0.6-0.3-0.7
			c-0.1-0.2-0.1-0.5-0.2-0.7c-0.3-0.5,0.1-0.7,0-1.1c-0.1-0.2-0.5-1.1-0.4-1.1c-0.1-0.4,0-0.4-0.5-0.6c-0.3-0.3-1.6,0.6-1.9-0.3
			c0.1,0,0,0,0,0c-0.1-0.1-0.2-0.3-0.3-0.3c-0.2-0.2,0-0.5,0-0.9C8.4,10.9,8.9,10.6,9.1,10.2 M8.7,5.8C8.6,5.9,8,6.1,7.8,5.9
			c0.2-0.2,0,0-0.1-0.1c0.1,0,0.2,0,0.2-0.1c-0.1,0-0.2,0-0.2,0c0-0.1,0.2-0.1,0.2-0.1c0,0,0,0,0.1,0.1c0,0,0.1-0.2,0.1-0.1
			c0,0,0.1,0.1,0.1,0.1c0.1-0.1,0.1,0,0.3-0.1C8.5,5.5,8.9,5.7,8.7,5.8 M11,13.1C11,13.1,11,13.2,11,13.1C11,13.1,11,13.1,11,13.1
			 M14.5,15.7c0.2,0-0.1-0.5,0.1-0.5c0.1-0.1,0.2-0.1,0.3-0.1c0-0.1,0.2-0.1,0.2-0.2c0.1-0.1,0.2,0.3,0.1,0.4
			c-0.1,0-0.2,0.7-0.3,0.9C14.8,16.4,14.3,15.8,14.5,15.7 M13.6,9.8c-0.1,0-0.1,0.1-0.2,0C13.6,9.7,13.5,9.7,13.6,9.8 M12.6,9.8
			c0,0-0.1,0-0.1-0.1c0,0,0,0,0,0C12.5,9.7,12.6,9.7,12.6,9.8c0-0.1,0.1,0,0.2,0C12.8,9.8,12.7,9.8,12.6,9.8 M11.7,9.5
			c-0.1,0-0.2,0-0.3-0.1c0-0.1,0.2-0.1,0.3,0C11.5,9.6,11.7,9.4,11.7,9.5 M11.1,9.2C11.1,9.3,11.1,9.3,11.1,9.2
			C10.9,9.1,11.1,8.9,11.1,9.2 M11,9C11,9,11,9,11,9c0-0.1-0.1-0.1,0-0.2C11.1,8.8,11.1,9,11,9 M8,4.1c-0.1,0-0.3,0-0.3,0
			C7.7,4,7.9,4,8,4.1C7.8,4.1,7.9,4.1,8,4.1 M7.8,4c0,0-0.1,0-0.1,0C7.7,4,8,3.9,7.8,4 M7.6,4C7.8,3.9,7.5,4,7.6,4 M7.8,3.6
			C7.7,3.6,7.7,3.5,7.8,3.6C7.8,3.5,8,3.6,7.8,3.6 M7.7,3.6C7.5,3.7,7.8,3.5,7.7,3.6 M7.7,3.6C7.7,3.6,7.7,3.6,7.7,3.6 M7.8,3.8
			C7.7,3.8,7.6,3.7,7.8,3.8C7.9,3.7,7.8,3.7,7.8,3.8 M7.8,4.5C7.8,4.5,7.9,4.4,7.8,4.5c-0.1,0-0.1,0.1-0.2,0.1
			C7.7,4.4,7.9,4.4,7.8,4.5 M6.1,6.8C6.1,6.8,6.3,6.7,6.1,6.8 M5.5,9.1c0,0-0.1-0.1-0.1-0.1c0,0.1-0.1,0.1-0.2,0.1
			C5.3,9,5.3,9,5.4,9c0,0-0.1,0-0.1,0c0,0-0.3,0-0.3,0c0,0,0.2-0.5,0.4-0.5c0,0-0.1,0.2-0.1,0.2c0,0,0.2-0.1,0.1,0v0
			c0,0,0.2,0,0.2,0.1c-0.1,0.1,0,0.1,0,0.1c0,0,0,0.1-0.1,0.1C5.5,8.9,5.7,9.1,5.5,9.1 M5.5,14.8c-0.1,0-0.1,0.1-0.2,0
			C5.2,14.6,5.6,14.6,5.5,14.8 M5.4,5.1C5.5,5.1,5.4,5.2,5.4,5.1 M4.7,9.2c0-0.1,0-0.1,0.1-0.1C4.9,9.1,4.8,9.1,4.7,9.2
			c0.1,0,0.1-0.1,0.2,0C4.9,9.2,4.8,9.2,4.7,9.2 M4.2,12.4C4.2,12.4,4.1,12.4,4.2,12.4C4.3,12.3,4.3,12.4,4.2,12.4 M4.2,13.6
			C4.2,13.5,4.2,13.6,4.2,13.6L4.2,13.6C4.3,13.6,4.2,13.6,4.2,13.6C4.2,13.6,4.2,13.6,4.2,13.6 M3.9,12.3c0,0-0.5,0.1-0.5,0
			c0-0.1,0.1,0,0.2,0c0-0.1-0.1-0.1-0.1-0.1c0.1,0,0.4,0,0.5,0.1C4,12.4,4,12.4,3.9,12.3 M3.3,10.4C3.3,10.5,3.3,10.3,3.3,10.4
			 M3.3,10.3C3.3,10.3,3.3,10.3,3.3,10.3C3.3,10.4,3.3,10.3,3.3,10.3 M3.3,10.3C3.3,10.3,3.3,10.3,3.3,10.3
			C3.3,10.3,3.3,10.3,3.3,10.3z M3.2,12.4c0,0-0.1,0-0.2,0C3.1,12.3,3.3,12.4,3.2,12.4 M18.2,12.5c0-0.2,0.3,0.4,0,0.3
			c0,0,0-0.1-0.1-0.1C18.2,12.7,18.2,12.6,18.2,12.5 M11.1,6.9c0,0,0.1-0.1,0.1-0.1C11.1,6.9,11,7,10.9,7C11,6.9,11,6.9,11.1,6.9
			 M11.3,7.1C11.3,7.2,11.3,7.1,11.3,7.1c0.1,0,0.1,0.1,0,0.1C11.3,7.2,11.3,7.1,11.3,7.1 M3.9,9.7C3.9,9.7,3.9,9.7,3.9,9.7
			C3.9,9.7,3.9,9.7,3.9,9.7 M3.9,9.7C3.9,9.7,3.9,9.7,3.9,9.7L3.9,9.7z M3.3,10.3C3.3,10.3,3.3,10.3,3.3,10.3
			C3.3,10.3,3.3,10.3,3.3,10.3 M3.3,10.3C3.3,10.3,3.3,10.3,3.3,10.3L3.3,10.3z M3.3,10.3C3.3,10.3,3.3,10.3,3.3,10.3L3.3,10.3z
			 M3.3,10.3C3.3,10.3,3.3,10.3,3.3,10.3C3.3,10.3,3.3,10.3,3.3,10.3z"/>
	</g>
	<g>
		<path style="fill:#22B8AF;" d="M11.5,1.4L11.5,1.4c0.2,0,0.3,0,0.5,0c5.3,0.3,9.6,4.8,9.6,10.1c0,4.1-2.5,7.8-6.3,9.4
			c-1.2,0.5-2.5,0.7-3.8,0.7c-2.8,0-5.5-1.1-7.4-3.1c-2.9-3-3.6-7.5-1.9-11.3C4,3.7,7.6,1.4,11.5,1.4 M11.5,0.4
			c-4.3,0-8.3,2.5-10.1,6.4c-1.9,4.1-1.1,9.1,2,12.4c2.1,2.2,5.1,3.4,8.1,3.4c1.4,0,2.8-0.3,4.2-0.8c4.1-1.7,6.9-5.8,6.9-10.3
			c0-5.8-4.7-10.8-10.6-11.1C11.9,0.4,11.7,0.4,11.5,0.4L11.5,0.4z"/>
	</g>
</g>
</svg>
