<?xml version="1.0" encoding="utf-8"?>
<!-- Generator: Adobe Illustrator 18.1.1, SVG Export Plug-In . SVG Version: 6.00 Build 0)  -->
<!DOCTYPE svg PUBLIC "-//W3C//DTD SVG 1.1//EN" "http://www.w3.org/Graphics/SVG/1.1/DTD/svg11.dtd">
<svg version="1.1" id="Layer_1" xmlns="http://www.w3.org/2000/svg" xmlns:xlink="http://www.w3.org/1999/xlink" x="0px" y="0px"
	 width="23px" height="23px" viewBox="0 0 23 23" style="enable-background:new 0 0 23 23;" xml:space="preserve">
<g>
	<path style="fill:#375667;" d="M18.7,12.9c0.4,0,0.8-0.4,0.8-0.8v-1.3c0-0.4-0.4-0.8-0.8-0.8H4.3c-0.4,0-0.8,0.3-0.8,0.8v1.3
		c0,0.4,0.4,0.8,0.8,0.8H18.7z"/>
	<path style="fill:#22B8AF;" d="M18.7,18c0.4,0,0.8-0.3,0.8-0.8v-1.3c0-0.4-0.4-0.8-0.8-0.8H4.3c-0.4,0-0.8,0.3-0.8,0.8v1.3
		c0,0.4,0.4,0.8,0.8,0.8H18.7z"/>
	<path style="fill:#22B8AF;" d="M18.7,7.9c0.4,0,0.8-0.3,0.8-0.8V5.7c0-0.4-0.4-0.8-0.8-0.8H4.3C3.9,5,3.5,5.3,3.5,5.7v1.3
		c0,0.4,0.4,0.8,0.8,0.8H18.7z"/>
</g>
</svg>
