<?xml version="1.0" encoding="utf-8"?>
<!-- Generator: Adobe Illustrator 18.1.1, SVG Export Plug-In . SVG Version: 6.00 Build 0)  -->
<!DOCTYPE svg PUBLIC "-//W3C//DTD SVG 1.1//EN" "http://www.w3.org/Graphics/SVG/1.1/DTD/svg11.dtd">
<svg version="1.1" id="Layer_1" xmlns="http://www.w3.org/2000/svg" xmlns:xlink="http://www.w3.org/1999/xlink" x="0px" y="0px"
	 width="23px" height="23px" viewBox="0 0 23 23" style="enable-background:new 0 0 23 23;" xml:space="preserve">
<g>
	<path style="fill:#22B8AF;" d="M11.6,3C8.2,3,3.9,3.2,1.8,6.2c-2.1,3-2,8.5,0.5,11.2c2.5,2.7,6.9,2.6,10.3,2.6
		c3.3-0.1,7.4-0.5,9.1-3.8c1.5-3,1.4-7.9-0.9-10.5C18.5,3.1,14.7,3,11.6,3z M13,15.9c0,0.1-0.1,0.2-0.2,0.2h-1.2
		c-0.1,0-0.2-0.1-0.2-0.2v-3.6H7.2v3.6c0,0.1-0.1,0.2-0.2,0.2H5.7c-0.1,0-0.2-0.1-0.2-0.2V7.3c0-0.1,0.1-0.2,0.2-0.2h1.2
		c0.1,0,0.2,0.1,0.2,0.2v3.4h4.2V7.3c0-0.1,0.1-0.2,0.2-0.2h1.2c0.1,0,0.2,0.1,0.2,0.2V15.9z M17.5,15.9c0,0.1-0.1,0.2-0.2,0.2h-1.2
		c-0.1,0-0.2-0.1-0.2-0.2V7.3c0-0.1,0.1-0.2,0.2-0.2h1.2c0.1,0,0.2,0.1,0.2,0.2V15.9z"/>
	<path style="fill:#149996;" d="M11.6,20c6.1,0,11-1,11-8.5h-5.1v4.4c0,0.1-0.1,0.2-0.2,0.2h-1.2c-0.1,0-0.2-0.1-0.2-0.2v-4.4H13
		v4.4c0,0.1-0.1,0.2-0.2,0.2h-1.2c-0.1,0-0.2-0.1-0.2-0.2v-3.6H7.2v3.6c0,0.1-0.1,0.2-0.2,0.2H5.7c-0.1,0-0.2-0.1-0.2-0.2v-4.4H0.4
		C0.4,18.9,5.4,20,11.6,20z"/>
</g>
</svg>
