<?xml version="1.0" encoding="utf-8"?>
<!-- Generator: Adobe Illustrator 18.1.1, SVG Export Plug-In . SVG Version: 6.00 Build 0)  -->
<!DOCTYPE svg PUBLIC "-//W3C//DTD SVG 1.1//EN" "http://www.w3.org/Graphics/SVG/1.1/DTD/svg11.dtd">
<svg version="1.1" id="Layer_1" xmlns="http://www.w3.org/2000/svg" xmlns:xlink="http://www.w3.org/1999/xlink" x="0px" y="0px"
	 width="23px" height="23px" viewBox="0 0 23 23" style="enable-background:new 0 0 23 23;" xml:space="preserve">
<g>
	<path style="fill-rule:evenodd;clip-rule:evenodd;fill:#22B8AF;" d="M22.6,12c0,0.9-1.1,1.4-1.7,0.8l0,0l-9.3-9.3v0l0,0l-9.3,9.3
		c-1,0.9-2.4-0.5-1.5-1.5C2.5,9.5,4.2,7.8,5.9,6c1.1-1.1,2.3-2.3,3.4-3.4c0.5-0.5,1.3-1.7,2.1-1.7c0.3,0,0.6,0.1,0.8,0.3v0l4.1,4.1
		c0-0.5-0.1-1.2,0.2-1.6c0.6-0.7,1.9-0.3,1.9,0.7v3l3.9,3.9C22.5,11.5,22.6,11.8,22.6,12"/>
	<path style="fill-rule:evenodd;clip-rule:evenodd;fill:#375667;" d="M11.5,4.7l-9,9v3.1v1.4V21c0,0.6,0.5,1,1,1h9.7v-8.3h4.2v8.3
		h2.1c0.6,0,1-0.5,1-1v-2.8v-1.4v-3.1L11.5,4.7z M9.8,17.9H5.6v-4.2h4.2V17.9z"/>
</g>
</svg>
