<?xml version="1.0" encoding="utf-8"?>
<!-- Generator: Adobe Illustrator 18.1.1, SVG Export Plug-In . SVG Version: 6.00 Build 0)  -->
<!DOCTYPE svg PUBLIC "-//W3C//DTD SVG 1.1//EN" "http://www.w3.org/Graphics/SVG/1.1/DTD/svg11.dtd">
<svg version="1.1" id="Layer_1" xmlns="http://www.w3.org/2000/svg" xmlns:xlink="http://www.w3.org/1999/xlink" x="0px" y="0px"
	 width="23px" height="23px" viewBox="0 0 23 23" style="enable-background:new 0 0 23 23;" xml:space="preserve">
<g>
	<polygon style="fill:#22B8AF;" points="15.1,0.7 15.1,5.8 20.3,5.8 	"/>
	<path style="fill:#375667;" d="M14.1,6.9V0.7H2.7v21.6h17.5V6.9H14.1z M13.8,15c-0.4,0.5-0.9,0.8-1.5,1v1.2h-1V16
		c-1.5-0.2-2.2-1.2-2.6-2.6l1.2-0.3c0.2,0.6,0.4,1,0.6,1.2c1.1,1,3-0.2,2.4-1.6c-0.5-1.2-2.3-1.2-3.1-2.1C8.6,9.3,9.6,7.4,11.2,7
		V5.9h1V7c0.9,0.1,1.5,0.7,1.9,1.5L13,9.1c-0.4-0.7-1.4-1.3-2.1-0.6c-0.8,0.8,0,1.5,0.7,1.9c0.9,0.4,2,0.8,2.5,1.8
		C14.5,13,14.4,14.2,13.8,15C13.4,15.5,14.1,14.5,13.8,15z"/>
</g>
</svg>
