<svg xmlns="http://www.w3.org/2000/svg" width="71" height="43" viewBox="0 0 71 43"><path d="M36.2 22.5c.2-.9.3-2.2-.8-2.7-1.4-.7-3 .1-3.6 1.5-.3.7-.3 1.5-.1 2.2.6 1.4 2.7 1.8 4 1.1l.2-1.1c-.9.2-3.1.5-2.9-1h3.2zm-1.8-1.9c.6 0 .7.4.6.9h-1.8c.2-.6.6-.9 1.2-.9zm-3.8 2.3l.4-2.1h.7l.3-1.1h-.8l.3-1.4h-1.4l-1 4.9c-.3 1.3 1 2.1 2.2 1.4l.1-1c-.8 0-.8-.3-.8-.7zm8-2.7l-.1-.5h-1.2l-1 5.1h1.4l.4-2.3c.4-1.5 1.1-1.4 1.4-1.4l.4-1.4c-.7 0-1.1.2-1.3.5zm-10.2 1.9c-.2-.1-2.1-1-1-1.3.3 0 1 0 1.4.1l.3-1c-1.3-.5-3.7-.2-3.6 1.6.1 1.1 1.3.9 1.8 1.6.7.9-1.9.6-2.2.5l-.1 1c.8.2 2 .3 2.8 0 1-.3 1.7-1.9.6-2.5-.3-.2.3.1 0 0zm14.5-2.4c.5 0 .7 0 1.1.3l.9-.9c-1.7-1.9-4.5-.3-5.1 1.8-.7 2.7 1.4 4.8 4 3.6l-.4-1.3c-2.8 1-2.8-3.5-.5-3.5zm-19.9-.1c-.4 0-.9 0-1.8.2l-.2 1.1c.6-.1 2.9-.7 2.6.6-1.1.1-2.2-.1-2.9 1-1.1 1.6.8 3.2 2.3 2.1l.2.3h1.3l.5-2.9c.2-.7.4-2.4-2-2.4zm.3 3.4c-.1.5-1.3 1-1.5.3-.3-.9 1.1-1 1.6-.9l-.1.6zm27.9-2.9l-.2-.5h-1.2l-1 5.2h1.4l.4-2.4c.4-1.5 1.1-1.5 1.4-1.5l.4-1.4c-.6.1-1 .4-1.2.6zm17.8-20.1h-67c-1.1 0-2 .9-2 2v39c0 1.1.9 2 2 2h67c1.1 0 2-.9 2-2v-39c0-1.1-.9-2-2-2zm-23.9 35.5c-3.4 0-6.4-1.2-8.8-3.1 1.8-1.8 3.2-4 4-6.5h-1.2c-.7 2.2-2 4.2-3.7 5.8-1.7-1.6-2.9-3.6-3.6-5.8h-1.2c.8 2.5 2.1 4.7 4 6.5-4 3.2-9.5 4.1-14.3 2-4-1.7-7.1-5.4-8.1-9.6-2.2-9.4 5.8-18.4 15.3-17.2 2.6.3 5.1 1.4 7.1 3-1.8 1.8-3.2 4-4 6.5h1.2c.7-2.2 2-4.2 3.6-5.8 1.7 1.6 2.9 3.6 3.7 5.8h1.2c-.8-2.5-2.2-4.7-4-6.5 7.6-6.2 19.4-2.5 22.2 6.8 2.7 8.9-4.1 18.1-13.4 18.1zm7.2-13.7c-.5 1.6.5 3 1.5 3 .5 0 .9-.2 1.2-.4l.2.4h1.5l1.2-6.6h-1.5l-.4 2c-.7-.5-1.2-.8-2-.6-1 .3-1.5 1.3-1.7 2.2-.5 1.6.7-2.4 0 0zm3.1-.8c.2.2.2.8.1 1.3-.2.4-.4.9-.9 1-.6.1-1-.4-1-1 .1-.6 1.1-2.2 1.8-1.3.2.3-.4-.5 0 0zm-36.9-2.5l-1.7 3.8-.3-3.8h-2.2l-1.2 6.3h1.4l.8-4.5.4 4.5h1.4l1.9-4.4-.8 4.4h1.5l1.1-6.3zm28.4 1.1c-.4 0-.9 0-1.8.2l-.2 1.1c.6-.1 2.9-.7 2.6.6-1.1.1-2.2-.1-3 1-1.1 1.6.8 3.2 2.3 2.1l.2.3h1.3l.6-2.8c.1-.8.4-2.5-2-2.5zm.2 3.4c-.1.5-1.3 1-1.5.3-.3-.9 1.1-1 1.6-.9l-.1.6z" fill="#fff"/></svg>