<?xml version="1.0" encoding="utf-8"?>
<!-- Generator: Adobe Illustrator 18.1.1, SVG Export Plug-In . SVG Version: 6.00 Build 0)  -->
<!DOCTYPE svg PUBLIC "-//W3C//DTD SVG 1.1//EN" "http://www.w3.org/Graphics/SVG/1.1/DTD/svg11.dtd">
<svg version="1.1" id="Layer_1" xmlns="http://www.w3.org/2000/svg" xmlns:xlink="http://www.w3.org/1999/xlink" x="0px" y="0px"
	 width="23px" height="23px" viewBox="0 0 23 23" style="enable-background:new 0 0 23 23;" xml:space="preserve">
<g>
	<path style="fill:#375667;" d="M13.5,10c-0.9-0.4-4.2-0.9-4.2-2.3c0-1.1,1.2-1.4,2-1.4c0.7,0,1.5,0.2,1.9,0.6
		c0.3,0.3,0.4,0.5,0.5,0.7c0.1,0.3,0.2,0.6,0.6,0.6h2.2c0.5,0,0.7-0.1,0.7-0.7c0-2.4-1.9-3.8-4.1-4.3V1.5c0-0.4-0.1-0.7-0.7-0.7
		h-1.8C10.1,0.8,10,1,10,1.5v1.8C7.6,3.7,5.7,5.2,5.7,7.9c0,3,2.1,4,4.4,4.7c1.9,0.6,3.9,0.7,3.9,2c0,1.3-1,1.6-2.2,1.6
		c-0.8,0-1.8-0.2-2.2-0.8c-0.3-0.4-0.4-0.7-0.4-1c0-0.6-0.3-0.7-0.8-0.7H6.1c-0.5,0-0.7,0.1-0.7,0.7c0,2.7,2.2,4.3,4.5,4.9v1.8
		c0,0.4,0.1,0.7,0.7,0.7h1.8c0.5,0,0.7-0.3,0.7-0.7v-1.8c2.7-0.4,4.5-2,4.5-4.9C17.5,11.2,15.1,10.6,13.5,10z"/>
</g>
</svg>
