<?xml version="1.0" encoding="utf-8"?>
<!-- Generator: Adobe Illustrator 17.1.0, SVG Export Plug-In . SVG Version: 6.00 Build 0)  -->
<!DOCTYPE svg PUBLIC "-//W3C//DTD SVG 1.1//EN" "http://www.w3.org/Graphics/SVG/1.1/DTD/svg11.dtd">
<svg version="1.1" id="Layer_1" xmlns="http://www.w3.org/2000/svg" xmlns:xlink="http://www.w3.org/1999/xlink" x="0px" y="0px"
	 width="22.6px" height="22.6px" viewBox="0 0 22.6 22.6" style="enable-background:new 0 0 22.6 22.6;" xml:space="preserve">
<g>
	<path d="M15.7,2.2l1.1,0.6c0,0,0,0.1,0,0.1c0,0,0,0.1,0,0.1c0,0.1-0.1,0.1-0.1,0.2l-0.7-0.4l-0.2,0.3l0.5,0.3
		c0,0.1-0.1,0.2-0.1,0.2c0,0.1-0.1,0.1-0.1,0.2l-0.5-0.3L15.3,4L16,4.3c0,0.1-0.1,0.2-0.1,0.2c0,0.1-0.1,0.1-0.1,0.2l-1.1-0.6
		L15.7,2.2z"/>
	<path d="M6.2,2.6c0,0,0.1,0,0.1-0.1c0,0,0.1,0,0.1-0.1c0,0,0.1,0,0.1,0l0.9,0.8L7.4,2c0,0,0.1,0,0.1-0.1c0,0,0.1,0,0.1-0.1
		c0,0,0.1,0,0.1,0c0,0,0.1,0,0.1,0l1,1.9c0,0-0.1,0-0.1,0.1c0,0-0.1,0-0.1,0.1C8.6,3.9,8.5,3.9,8.4,4L7.8,2.8l0.1,0.9
		c0,0-0.1,0-0.1,0.1c0,0-0.1,0-0.1,0c0,0-0.1,0-0.1,0c0,0-0.1,0-0.1,0L6.9,3.3l0.5,1.2C7.3,4.5,7.3,4.5,7.2,4.6
		C7.1,4.6,7.1,4.6,7,4.7l-0.9-2C6.1,2.6,6.2,2.6,6.2,2.6z"/>
	<g>
		<path d="M11.3,4.5c3.8,0,6.8,3.1,6.8,6.8c0,3.8-3.1,6.8-6.8,6.8s-6.8-3.1-6.8-6.8C4.5,7.6,7.6,4.5,11.3,4.5 M11.3,4
			C7.3,4,4,7.3,4,11.3c0,4,3.3,7.3,7.3,7.3c4,0,7.3-3.3,7.3-7.3C18.6,7.3,15.3,4,11.3,4L11.3,4z"/>
	</g>
	<g>
		<path d="M11.3,0.5c6,0,10.8,4.9,10.8,10.8c0,6-4.9,10.8-10.8,10.8c-6,0-10.8-4.9-10.8-10.8C0.5,5.3,5.3,0.5,11.3,0.5 M11.3,0
			C5.1,0,0,5.1,0,11.3c0,6.2,5.1,11.3,11.3,11.3c6.2,0,11.3-5.1,11.3-11.3C22.6,5.1,17.6,0,11.3,0L11.3,0z"/>
	</g>
	<g>
		<g>
			<path d="M15.1,7c-0.4-0.3-0.8-0.1-0.8-0.1c-0.2,0.1-0.5,0.3-0.7,0.5l-2.1,2.4c-0.2,0.2-0.4,0.2-0.6,0L8.9,7.4
				C8.8,7.2,8.5,7,8.3,6.9c0,0-0.5-0.2-0.8,0.1C7.1,7.3,7.3,7.7,7.3,7.7C7.3,8,7.5,8.3,7.7,8.5l2.5,2.9c0.2,0.2,0.3,0.5,0.3,0.7v3.8
				c0,0.2,0.1,0.6,0.2,0.8c0,0,0.2,0.5,0.7,0.5c0.5,0,0.7-0.5,0.7-0.5c0.1-0.2,0.2-0.6,0.2-0.8v-3.8c0-0.2,0.1-0.6,0.3-0.7l2.5-2.9
				c0.2-0.2,0.3-0.5,0.4-0.7C15.3,7.7,15.5,7.3,15.1,7z"/>
			<g>
				<path d="M7.2,14.8c0,0.1-0.2,0.1-0.4,0c0,0-0.2-0.1-0.4-0.4c-0.6-0.9-0.9-2-0.9-3.1c0-0.8,0.1-1.5,0.4-2.2
					C6,8.9,6.3,8.4,6.5,8.4c0.2,0,0.4,0.5,0.5,0.7l1.4,3.7c0.1,0.2,0.1,0.2,0.1,0l0-0.4c0-0.5-0.1-1,0.2-1l0,0c0.3,0,0.9,0.7,0.9,1
					l0,3.7c0,0.3-0.2,0.5-0.4,0.5c0,0-0.1,0-0.1,0c-0.2,0-0.4-0.1-0.5-0.4l-2-5.1c0,0-0.1-0.2-0.2-0.1c-0.2,0.1-0.1,0.5-0.1,0.6
					c0,0.2,0.1,0.5,0.1,0.7c0.1,0.5,0.3,1,0.5,1.5C7,14.2,7,14.3,7,14.3C7.1,14.5,7.2,14.7,7.2,14.8z"/>
			</g>
			<path d="M17.1,10.9c0-0.5-0.2-1.1-0.2-1.1c-0.1-0.2-0.1-0.4-0.1-0.4c0,0,0,0,0,0c0-0.1,0-0.1-0.1-0.2c0,0,0,0,0-0.1c0,0,0,0,0,0
				c0,0,0,0,0,0s-0.1-0.2-0.2-0.4c0,0-0.1-0.2-0.3-0.2C16,8.5,16,8.6,16,8.6c-0.1,0.2-0.4,0.5-0.5,0.7l-2.1,2.5
				c-0.2,0.2-0.3,0.4-0.3,0.4c0,0.1-0.1,0.4-0.1,0.7v2.9c0,0.2,0,0.6,0.1,0.8c0,0,0,0,0.2,0.1c0.1,0.1,0.2,0.1,0.3,0.1
				c0.1,0,0.2,0,0.2,0c0.7-0.3,1.4-0.8,1.9-1.4c0.2-0.2,0.2-0.5,0-0.7c-0.2-0.2-0.4-0.1-0.6,0.1c-0.2,0.3-0.6,0.5-0.6,0.5
				C14.2,15.3,14,15,14,14.7V13c0-0.2,0.1-0.6,0.3-0.7l1.3-1.6c0.2-0.2,0.4-0.3,0.4,0.1c0,0,0,0,0.1,0.2c0.1,0.3,0.2,0.7,0.5,0.5
				C16.8,11.3,17.1,11.1,17.1,10.9z"/>
		</g>
		<g>
			<path d="M10.4,7.5c-0.1,0-0.1,0-0.2,0V5.9c0,0,0.1,0,0.1,0c0,0,0.1,0,0.1,0c0,0,0.1,0,0.1,0c0,0,0.1,0,0.1,0v1.6
				C10.6,7.5,10.5,7.5,10.4,7.5z"/>
			<path d="M11.1,5.9C11.2,5.9,11.2,5.8,11.1,5.9c0.1,0,0.1,0,0.2,0c0,0,0.1,0,0.1,0c0,0,0.1,0,0.1,0L12,6.7V5.9c0,0,0.1,0,0.1,0
				c0,0,0.1,0,0.1,0c0,0,0.1,0,0.1,0c0,0,0.1,0,0.1,0l0,1.6c0,0,0,0-0.1,0c0,0-0.1,0-0.1,0c0,0-0.1,0-0.1,0c0,0-0.1,0-0.1,0
				l-0.5-0.9v0.9c-0.1,0-0.1,0-0.2,0c-0.1,0-0.1,0-0.2,0V5.9z"/>
		</g>
	</g>
	<path d="M10.5,1.2c-0.1,0-0.1,0-0.2,0c0,0-0.1,0-0.1,0c0,0-0.1,0-0.1,0c0,0-0.1,0-0.1,0L9.5,3.6c0.1,0,0.1,0,0.2,0c0,0,0.1,0,0.1,0
		c0,0,0.1,0,0.1,0c0,0,0.1,0,0.1,0l0.1-0.4c0.1,0,0.1,0,0.2,0c0,0,0.1,0,0.1,0c0,0,0.1,0,0.2,0c0.1,0,0.1,0,0.2-0.1l0.2,0.4
		c0,0,0.1,0,0.1,0c0,0,0.1,0,0.1,0c0.1,0,0.2,0,0.3-0.1L10.5,1.2z M10.5,2.7c0,0-0.1,0-0.1,0c0,0-0.1,0-0.1,0c0,0-0.1,0-0.1,0
		l0.1-0.8l0.3,0.8C10.5,2.6,10.5,2.6,10.5,2.7z"/>
	<path d="M14,1.8c-0.2-0.2-0.4-0.4-0.8-0.5c-0.1,0-0.1,0-0.2,0c-0.1,0-0.1,0-0.2,0c-0.1,0-0.1,0-0.2,0c0,0-0.1,0-0.1,0l-0.5,2.2
		c0.1,0,0.2,0.1,0.3,0.1c0.1,0,0.2,0.1,0.3,0.1c0.4,0.1,0.7,0.1,0.9-0.1c0.2-0.1,0.4-0.4,0.5-0.8C14.2,2.4,14.1,2,14,1.8z M13.5,2.6
		c0,0.1-0.1,0.2-0.1,0.3c0,0.1-0.1,0.1-0.2,0.2c-0.1,0-0.1,0.1-0.2,0.1c-0.1,0-0.1,0-0.2,0c0,0,0,0-0.1,0c0,0,0,0,0,0L13,1.8
		c0,0,0,0,0,0c0,0,0,0,0.1,0c0.1,0,0.1,0,0.2,0.1c0.1,0,0.1,0.1,0.2,0.1c0,0.1,0.1,0.1,0.1,0.2C13.6,2.4,13.6,2.5,13.5,2.6z"/>
</g>
</svg>
