<?xml version="1.0" encoding="utf-8"?>
<!-- Generator: Adobe Illustrator 18.1.1, SVG Export Plug-In . SVG Version: 6.00 Build 0)  -->
<!DOCTYPE svg PUBLIC "-//W3C//DTD SVG 1.1//EN" "http://www.w3.org/Graphics/SVG/1.1/DTD/svg11.dtd">
<svg version="1.1" id="Layer_1" xmlns="http://www.w3.org/2000/svg" xmlns:xlink="http://www.w3.org/1999/xlink" x="0px" y="0px"
	 width="23px" height="23px" viewBox="0 0 23 23" style="enable-background:new 0 0 23 23;" xml:space="preserve">
<path style="fill:#D3104A;" d="M19.6,17.5l-6-6l6-6c0.3-0.3,0.3-0.8,0-1.1l-0.9-0.9c-0.3-0.3-0.8-0.3-1.1,0l-6,6l-6-6
	c-0.3-0.3-0.8-0.3-1.1,0L3.4,4.4c-0.3,0.3-0.3,0.8,0,1.1l6,6l-6,6c-0.3,0.3-0.3,0.8,0,1.1l0.9,0.9c0.3,0.3,0.8,0.3,1.1,0l6-6l6,6
	c0.3,0.3,0.8,0.3,1.1,0l0.9-0.9C19.9,18.3,19.9,17.8,19.6,17.5z"/>
</svg>
