<?xml version="1.0" encoding="utf-8"?>
<!-- Generator: Adobe Illustrator 18.1.1, SVG Export Plug-In . SVG Version: 6.00 Build 0)  -->
<!DOCTYPE svg PUBLIC "-//W3C//DTD SVG 1.1//EN" "http://www.w3.org/Graphics/SVG/1.1/DTD/svg11.dtd">
<svg version="1.1" id="Layer_1" xmlns="http://www.w3.org/2000/svg" xmlns:xlink="http://www.w3.org/1999/xlink" x="0px" y="0px"
	 width="23px" height="23px" viewBox="0 0 23 23" style="enable-background:new 0 0 23 23;" xml:space="preserve">
<g>
	<path style="fill:#430098;" d="M9.1,11.4c-0.4,0-0.7,0.5-0.7,1.2s0.3,1.2,0.7,1.2c0.4,0,0.7-0.5,0.7-1.2S9.5,11.4,9.1,11.4z"/>
	<path style="fill:#430098;" d="M0.4,4.3v12.3h22.2V4.3H0.4z M5.8,14.7l-1.3-1.8c-0.2,0-0.4,0-0.4,0v1.8H2.6V9.3h2.1
		c1.2,0,2.2,0.8,2.2,1.8c0,0.6-0.4,1.2-0.9,1.5l1.5,2.1H5.8z M9.1,14.8c-1.2,0-2.2-1-2.2-2.2c0-1.2,1-2.2,2.2-2.2
		c1.2,0,2.2,1,2.2,2.2C11.3,13.8,10.3,14.8,9.1,14.8z M20.4,14.7h-0.3l-0.7-0.6c-0.3,0.3-0.8,0.7-1.4,0.7c-1.3,0-1.8-0.8-1.8-1.6
		v-2.5l-1.8,1.8l2.2,2.2h-1.8L13,13v1.7h-1.4v-4.3H13v1.7l1.7-1.7h3v2.1v0.2c0,0.7,0.2,0.9,0.5,0.9c0.4,0,0.6-0.2,0.7-0.5v-0.5v-2.2
		h1.4V14.7z"/>
	<path style="fill:#430098;" d="M4.5,10.2c-0.1,0-0.4,0-0.4,0V12h0.4c0.5,0,0.9-0.4,0.9-0.9C5.4,10.6,5,10.2,4.5,10.2z"/>
</g>
</svg>
