<?xml version="1.0" encoding="utf-8"?>
<!-- Generator: Adobe Illustrator 18.1.1, SVG Export Plug-In . SVG Version: 6.00 Build 0)  -->
<!DOCTYPE svg PUBLIC "-//W3C//DTD SVG 1.1//EN" "http://www.w3.org/Graphics/SVG/1.1/DTD/svg11.dtd">
<svg version="1.1" id="Layer_1" xmlns="http://www.w3.org/2000/svg" xmlns:xlink="http://www.w3.org/1999/xlink" x="0px" y="0px"
	 width="23px" height="23px" viewBox="0 0 23 23" style="enable-background:new 0 0 23 23;" xml:space="preserve">
<g>
	<path style="fill-rule:evenodd;clip-rule:evenodd;fill:#22B8AF;" d="M21.5,11L21.5,11l-0.1,0.1l-9.9-9.5H4.1c-0.5,0-1.1,0-1.6,0
		c0-0.7,0.6-1.2,1.2-1.2v0h7.8c0.3,0,0.6,0.1,0.9,0.4c1.2,1.1,2.3,2.2,3.5,3.3c0.3,0.3,3.6,3.1,3.5,3.3C20.1,8.1,22.6,9.7,21.5,11"
		/>
	<path style="fill-rule:evenodd;clip-rule:evenodd;fill:#375667;" d="M21,13.1C21,13.1,21,13.1,21,13.1c0-0.1,0-0.2,0-0.2
		c0,0,0,0,0,0c-0.1-0.2-0.2-0.5-0.3-0.6l-9.5-9.1c-0.2-0.2-0.5-0.4-0.9-0.4v0H2.4v0c-0.7,0-1.2,0.6-1.2,1.2l0,0v0v1.2v6.6h0
		c0,0.4,0.2,0.7,0.4,0.9l0,0l10.3,9.5v0c0.5,0.5,1.3,0.4,1.8-0.1v0l7-8.2l0,0C20.9,13.7,21,13.5,21,13.1z M4.5,7.8
		c-2.1,0-2.1-3.3,0-3.3C6.6,4.5,6.6,7.8,4.5,7.8z"/>
</g>
</svg>
