<?xml version="1.0" encoding="utf-8"?>
<!-- Generator: Adobe Illustrator 18.1.1, SVG Export Plug-In . SVG Version: 6.00 Build 0)  -->
<!DOCTYPE svg PUBLIC "-//W3C//DTD SVG 1.1//EN" "http://www.w3.org/Graphics/SVG/1.1/DTD/svg11.dtd">
<svg version="1.1" id="Layer_1" xmlns="http://www.w3.org/2000/svg" xmlns:xlink="http://www.w3.org/1999/xlink" x="0px" y="0px"
	 width="23px" height="23px" viewBox="0 0 23 23" style="enable-background:new 0 0 23 23;" xml:space="preserve">
<path style="fill:#385767;" d="M21.2,3.9H1.8c-0.6,0-1,0.5-1,1v13.5c0,0.6,0.5,1,1,1h8.2v1.5C9.1,21,8,21.3,6.7,21.8
	c-0.1,0-0.1,0.1-0.1,0.2v0.3c0,0.1,0.1,0.2,0.2,0.2h3.1h1.4h0.4h1.4h3.1c0.1,0,0.2-0.1,0.2-0.2V22c0-0.1,0-0.2-0.1-0.2
	c-1.3-0.5-2.4-0.7-3.2-0.9v-1.5h8.2c0.6,0,1-0.5,1-1V4.9C22.3,4.3,21.8,3.9,21.2,3.9z M20.7,17.9H2.3V5.4h18.5V17.9z"/>
<rect x="4" y="6.9" style="fill:#22B6AE;" width="15.2" height="9.4"/>
<g>
	<path style="fill:#385767;" d="M14.5,4.9l-2.2-3.2c-0.2-0.3-0.2-0.8,0.2-1.1l0,0c0.3-0.2,0.8-0.2,1.1,0.2L15.7,4
		c0.2,0.3,0.2,0.8-0.2,1.1l0,0C15.2,5.3,14.7,5.2,14.5,4.9z"/>
	<path style="fill:#385767;" d="M16.2,4.9l2.2-3.2c0.2-0.3,0.2-0.8-0.2-1.1l0,0c-0.3-0.2-0.8-0.2-1.1,0.2L15,4
		c-0.2,0.3-0.2,0.8,0.2,1.1l0,0C15.5,5.3,16,5.2,16.2,4.9z"/>
</g>
</svg>
