<?xml version="1.0" encoding="utf-8"?>
<!-- Generator: Adobe Illustrator 18.1.1, SVG Export Plug-In . SVG Version: 6.00 Build 0)  -->
<!DOCTYPE svg PUBLIC "-//W3C//DTD SVG 1.1//EN" "http://www.w3.org/Graphics/SVG/1.1/DTD/svg11.dtd">
<svg version="1.1" id="Layer_1" xmlns="http://www.w3.org/2000/svg" xmlns:xlink="http://www.w3.org/1999/xlink" x="0px" y="0px"
	 width="23px" height="23px" viewBox="0 0 23 23" style="enable-background:new 0 0 23 23;" xml:space="preserve">
<g>
	<g>
		<path style="fill:#375667;" d="M22.6,15.8V4.6c0-0.4-0.3-0.8-0.8-0.8H1.2c-0.4,0-0.8,0.4-0.8,0.8v11.2H22.6z M16.7,7.4h1.4
			c3.1,0,3.1,4.8,0,4.8h-1.4V7.4z M4.9,7.4h1.4v4.8H4.9C1.8,12.3,1.8,7.4,4.9,7.4z"/>
		<path style="fill:#375667;" d="M0.4,16.8v1.6c0,0.4,0.3,0.8,0.8,0.8h20.7c0.4,0,0.8-0.4,0.8-0.8v-1.6H0.4z"/>
	</g>
	<rect x="8.3" y="7.4" style="fill:#22B8AF;" width="6.4" height="4.8"/>
</g>
</svg>
