<?xml version="1.0" encoding="utf-8"?>
<!-- Generator: Adobe Illustrator 18.1.1, SVG Export Plug-In . SVG Version: 6.00 Build 0)  -->
<!DOCTYPE svg PUBLIC "-//W3C//DTD SVG 1.1//EN" "http://www.w3.org/Graphics/SVG/1.1/DTD/svg11.dtd">
<svg version="1.1" id="Layer_1" xmlns="http://www.w3.org/2000/svg" xmlns:xlink="http://www.w3.org/1999/xlink" x="0px" y="0px"
	 width="49.7px" height="20.1px" viewBox="0 0 49.7 20.1" style="enable-background:new 0 0 49.7 20.1;" xml:space="preserve">
<path style="fill:#FFFFFF;" d="M25.4,12.2c0.3,0,0.7-0.2,0.8-0.5l1.5-2.4v9.3c0,0.3,0.2,0.5,0.5,0.5h8c0.3,0,0.7-0.2,0.8-0.5
	l3.1-4.8l3.2,4.8c0.2,0.2,0.5,0.5,0.8,0.5H48c0.3,0,0.4-0.2,0.2-0.5l-5.6-8.6l5.6-8.6C48.4,1.2,48.3,1,48,1h-3.8
	c-0.3,0-0.7,0.2-0.8,0.5l-3.2,4.8l-3.1-4.8C37,1.2,36.6,1,36.3,1h-8c-0.3,0-0.5,0.2-0.5,0.5V8h-5.3c-0.3,0-0.5-0.2-0.5-0.5V1.6
	c0-0.3-0.2-0.5-0.5-0.5h-7.5c-0.3,0-0.6,0.2-0.7,0.5L9.5,12.3L5.9,1.5C5.8,1.2,5.5,1,5.2,1H1.8C1.5,1,1.3,1.2,1.4,1.5l5.7,17.1
	c0.1,0.3,0.4,0.5,0.7,0.5h3.4c0.3,0,0.6-0.2,0.7-0.5l5.7-17.1l0,0v17c0,0.3,0.2,0.5,0.5,0.5h3.1c0.3,0,0.5-0.2,0.5-0.5v-5.9
	c0-0.3,0.2-0.5,0.5-0.5H25.4z M32,18.6v-17l5.7,8.5L32,18.6z"/>
</svg>
