<?xml version="1.0" encoding="utf-8"?>
<!-- Generator: Adobe Illustrator 18.1.1, SVG Export Plug-In . SVG Version: 6.00 Build 0)  -->
<!DOCTYPE svg PUBLIC "-//W3C//DTD SVG 1.1//EN" "http://www.w3.org/Graphics/SVG/1.1/DTD/svg11.dtd">
<svg version="1.1" id="Layer_1" xmlns="http://www.w3.org/2000/svg" xmlns:xlink="http://www.w3.org/1999/xlink" x="0px" y="0px"
	 width="23px" height="23px" viewBox="0 0 23 23" style="enable-background:new 0 0 23 23;" xml:space="preserve">
<g>
	<path style="fill:#375667;" d="M18,16.8l-2.8-4.7c0-0.1-0.1-0.2,0.1-0.2l0.7-0.1c0.1,0,0.2-0.1,0.2-0.2c0,0,0-0.1,0-0.1l-2.2-3.9
		c0-0.1,0-0.2,0.1-0.2l0.4-0.1c0.1,0,0.2-0.1,0.1-0.2c0,0,0,0,0-0.1l-1.6-2.8c0-0.1,0-0.1,0.1-0.1l0.2-0.1c0.1,0,0.1-0.2,0.1-0.3
		c0,0,0,0,0,0l-1.5-2.7C11.6,1,11.6,1,11.5,1c-0.1,0-0.1,0-0.2,0.1L9.8,3.8c0,0,0,0,0,0c0,0.1,0,0.2,0.1,0.3l0.2,0.1
		c0.1,0,0.1,0.1,0.1,0.1L8.5,7.1c0,0,0,0,0,0.1c0,0.1,0,0.2,0.1,0.2l0.4,0.1c0.1,0,0.1,0.1,0.1,0.2l-2.2,3.9c0,0,0,0.1,0,0.1
		c0,0.1,0.1,0.2,0.2,0.2l0.7,0.1c0.2,0,0.1,0.2,0.1,0.2L5,16.8c0,0,0,0.1,0,0.1c0,0.1,0.1,0.2,0.2,0.2h3.1h2.2l0,0v0h1.9v0l0,0h5.2
		h0.1c0.1,0,0.2-0.1,0.2-0.2C18,16.9,18,16.9,18,16.8z"/>
	<polygon style="fill:#375667;" points="10.5,17.9 10.5,22 11.5,22 12.5,22 12.5,17.9 	"/>
</g>
<circle style="fill:#22B8AF;" cx="11.5" cy="4" r="0.7"/>
<circle style="fill:#22B8AF;" cx="10.8" cy="8.4" r="0.7"/>
<circle style="fill:#22B8AF;" cx="13.7" cy="11.3" r="0.7"/>
<circle style="fill:#22B8AF;" cx="8.6" cy="14.2" r="0.7"/>
<circle style="fill:#22B8AF;" cx="14.4" cy="15.7" r="0.7"/>
</svg>
