<svg xmlns="http://www.w3.org/2000/svg" width="23" height="23" viewBox="0 0 23 23"><title>icons</title><path d="M3.39,12.62V9.55H1.67A1.62,1.62,0,0,0,0,11.1a1.6,1.6,0,0,0,1.67,1.55H2.21V12H1.65a0.86,0.86,0,1,1,0-1.72H2.73v2.41H3.39v0h0Z" fill="#a4c639"/><path d="M5.57,9.43A1.52,1.52,0,0,0,4,11v1.67H4.62V10.93a1,1,0,0,1,1-.93,0.93,0.93,0,0,1,.93.93v1.69H7.17V11a1.5,1.5,0,0,0-1.6-1.52h0Z" fill="#a4c639"/><path d="M10.76,11.08A1.43,1.43,0,0,0,9.28,9.55H7.81v0.66h1.5a0.77,0.77,0,0,1,.81.84,0.82,0.82,0,0,1-.81.91H7.81v0.66H9.28a1.44,1.44,0,0,0,1.47-1.55h0Z" fill="#a4c639"/><path d="M22.86,11.08a1.43,1.43,0,0,0-1.47-1.52H19.92v0.66h1.5a0.77,0.77,0,0,1,.81.84,0.82,0.82,0,0,1-.81.91h-1.5v0.66h1.47a1.45,1.45,0,0,0,1.47-1.55h0Z" fill="#a4c639"/><path d="M13.8,11.59a0.91,0.91,0,0,0,.42-0.93c0-.86-0.44-1.11-1.33-1.11H11.42v0.66h1.5c0.56,0,.66.17,0.66,0.44s-0.07.47-.64,0.47h-1.5v0.61H13a0.57,0.57,0,0,1,.52.59,0.49,0.49,0,0,1,0,.27l0,0h0.61a1.52,1.52,0,0,0-.32-1h0Z" fill="#a4c639"/><path d="M14.86,11.05a1.54,1.54,0,0,0,1.52,1.57,1.56,1.56,0,0,0,1.52-1.57,1.52,1.52,0,1,0-3,0h0Zm0.56,0a1,1,0,0,1,.91-1,0.93,0.93,0,0,1,.91,1,1,1,0,0,1-.91,1,1,1,0,0,1-.91-1h0Z" fill="#a4c639"/><rect x="18.59" y="9.55" width="0.66" height="3.07" fill="#a4c639"/></svg>
