<svg xmlns="http://www.w3.org/2000/svg" xmlns:xlink="http://www.w3.org/1999/xlink" width="23" height="23" viewBox="0 0 23 23"><defs><clipPath id="a"><rect x="1.84" y="14.11" width="9.11" height="5.6" fill="none"/></clipPath><clipPath id="b"><rect x="-57.53" y="-386.27" width="565.25" height="983.04" fill="none"/></clipPath></defs><title>icons-singletons-set copy</title><polygon points="12.29 14.09 19.09 14.09 19.09 6.72 5.56 6.72 5.56 12.92 12.29 12.92 12.29 14.09" fill="#22b6ae"/><g clip-path="url(#a)"><g clip-path="url(#b)"><rect x="-0.62" y="11.66" width="14.03" height="10.52" fill="#22b6ae"/></g></g><rect x="19.09" y="14.87" width="2.43" height="4.56" fill="#22b6ae"/><path d="M17.57,15.31V13.22a0.59,0.59,0,0,1,.59-0.59h2.15V5.52H4.21" fill="none"/><path d="M4.21,12.34h7.94a0.61,0.61,0,0,1,.61.61v2.36" fill="none"/><rect x="0.94" y="13.25" width="10.91" height="7.34" fill="none"/><rect x="18.28" y="14.16" width="4.03" height="6.05" fill="none"/><path d="M16,19a0.15,0.15,0,0,0,.15-0.15V18.54A0.15,0.15,0,0,0,16,18.4l-0.62-.22-0.17,0-0.11,0L14.73,18a11.3,11.3,0,0,0-1.23-.26v-1.2h4.08v4.37a0.59,0.59,0,0,0,.59.59h4.28A0.59,0.59,0,0,0,23,20.89V13.22a0.59,0.59,0,0,0-.59-0.59H21.52V5.12a0.81,0.81,0,0,0-.81-0.81h-7.2l1.17-1.7a0.6,0.6,0,1,0-1-.69L12.26,4,10.84,1.92a0.6,0.6,0,1,0-1,.69L11,4.31H3.81A0.81,0.81,0,0,0,3,5.12v7.22H0.64A0.61,0.61,0,0,0,0,13v7.94a0.61,0.61,0,0,0,.61.61H12.16a0.61,0.61,0,0,0,.61-0.61V19H16Zm-4.1,1.63H0.94V13.25H11.86v7.34Zm0.91-5.28V13a0.61,0.61,0,0,0-.61-0.61H4.21V5.52H20.31v7.11H18.16a0.59,0.59,0,0,0-.59.59v2.09h-4.8Zm9.55,4.9h-4V14.16h4v6.05Z" fill="#375667"/></svg>