<svg xmlns="http://www.w3.org/2000/svg" width="23" height="23" viewBox="0 0 23 23"><title>icons-payment-set copy</title><path d="M10.37,7.39a4.1,4.1,0,1,0,4.1,4.1A4.1,4.1,0,0,0,10.37,7.39ZM9.44,13.92a2.6,2.6,0,0,1,0-4.85v4.85Zm1.86,0V9.07A2.6,2.6,0,0,1,11.3,13.92Z" fill="#375667"/><path d="M22.21,4.63H0.79a0.64,0.64,0,0,0-.64.64V17.73a0.64,0.64,0,0,0,.64.64H22.21a0.64,0.64,0,0,0,.64-0.64V5.27A0.64,0.64,0,0,0,22.21,4.63ZM12.47,16H10.36a4.48,4.48,0,0,1-4.51-4.44A4.42,4.42,0,0,1,10.36,7h2.11a4.57,4.57,0,0,1,4.68,4.51A4.65,4.65,0,0,1,12.47,16Z" fill="#375667"/></svg>