<svg xmlns="http://www.w3.org/2000/svg" width="23" height="23" viewBox="0 0 23 23"><title>icons-singletons</title><polygon points="6.85 0.62 0.02 4.87 4.7 8.79 11.5 4.38 6.85 0.62" fill="#375667"/><path d="M15.63,18.66a0.53,0.53,0,0,1-.34-0.12L11.5,15.4,7.71,18.54a0.54,0.54,0,0,1-.63,0l-2.8-1.83v1.08l7.22,4.55,7.22-4.55V16.75l-2.8,1.83A0.53,0.53,0,0,1,15.63,18.66Z" fill="#375667"/><polygon points="22.98 4.87 16.15 0.62 11.5 4.38 18.3 8.79 22.98 4.87" fill="#375667"/><polygon points="11.5 13.04 15.72 16.54 22.46 12.13 18.3 8.79 11.5 13.04" fill="#375667"/><polygon points="7.28 16.54 11.5 13.04 4.7 8.79 0.54 12.13 7.28 16.54" fill="#375667"/></svg>