<svg xmlns="http://www.w3.org/2000/svg" width="23" height="23" viewBox="0 0 23 23"><title>icons-ui-set copy</title><path d="M15.38,0.65h0l5.89-.31a1.33,1.33,0,0,1,1.38,1.38h0c-0.1,2-.22,3.93-0.31,5.89a1.32,1.32,0,0,1-2.63-.13L19.85,5,15.8,9.06,14,10.89c-1.25,1.25-3.25-.48-2-1.75l6-6c-0.88,0-2.2.38-3,0A1.33,1.33,0,0,1,15.38.65Z" fill="#22b8af" fill-rule="evenodd"/><path d="M21,11.42a3.86,3.86,0,0,1-1.55-.33v6.78a1.92,1.92,0,0,1-1.91,1.92H5.13a1.92,1.92,0,0,1-1.91-1.92V6.7h0V5.43A1.92,1.92,0,0,1,5.13,3.51h6.78A3.81,3.81,0,0,1,11.84.64H5.13A4.79,4.79,0,0,0,.34,5.43V17.87a4.79,4.79,0,0,0,4.79,4.79H17.57a4.79,4.79,0,0,0,4.79-4.79v-6.7A3.86,3.86,0,0,1,21,11.42Z" fill="#375667"/></svg>