<svg xmlns="http://www.w3.org/2000/svg" width="23" height="23" viewBox="0 0 23 23"><title>icons-singletons</title><path d="M11.5,9.25c-2.9,0-2.9,4.5,0,4.5S14.4,9.25,11.5,9.25Z" fill="#375667"/><path d="M11.5,6.82a4.68,4.68,0,1,0,4.68,4.68A4.72,4.72,0,0,0,11.5,6.82Z" fill="#22b8af"/><path d="M11.5,9.25c-2.9,0-2.9,4.5,0,4.5S14.4,9.25,11.5,9.25Z" fill="#375667"/><path d="M22.77,11.06C20.62,6.83,16.36,3.67,11.5,3.67S2.38,6.83.22,11.06L0,11.5l0.22,0.44c2.16,4.23,6.42,7.39,11.28,7.39s9.12-3.16,11.27-7.39L23,11.5ZM11.5,17.41A10.89,10.89,0,0,1,2.16,11.5,11,11,0,0,1,11.5,5.59a11,11,0,0,1,9.33,5.91A10.89,10.89,0,0,1,11.5,17.41Z" fill="#375667"/></svg>