<svg xmlns="http://www.w3.org/2000/svg" width="23" height="23" viewBox="0 0 23 23"><title>icons-social-set copy</title><path d="M20.13,0H2.88A2.88,2.88,0,0,0,0,2.88V20.12A2.88,2.88,0,0,0,2.88,23H11.6V14.75H8.84V11.16H11.6V9.36a4.76,4.76,0,0,1,4.66-4.94H18.8V8.47H16.53a0.69,0.69,0,0,0-.77.81v1.88h3v3.59h-3V23h4.36A2.88,2.88,0,0,0,23,20.12V2.88A2.88,2.88,0,0,0,20.13,0Z" fill="#22b8af"/><path d="M2.88,23H11.6V14.75H8.84V11.5H0v8.62A2.88,2.88,0,0,0,2.88,23Z" fill="#149996"/><path d="M18.8,11.5v3.25h-3V23h4.36A2.88,2.88,0,0,0,23,20.12V11.5H18.8Z" fill="#149996"/></svg>