<svg xmlns="http://www.w3.org/2000/svg" width="23" height="23" viewBox="0 0 23 23"><title>icons-social-set copy</title><path d="M17.72,12.83a5.25,5.25,0,0,1-3.87-8.7A9,9,0,0,0,2.57,5.4a8.94,8.94,0,0,0,7.93,15,9,9,0,0,0,7.34-7.62H17.72ZM6.18,11.1a0.24,0.24,0,0,1,.09,0A3,3,0,0,1,8,7.42,2.64,2.64,0,0,1,9,7.3a2.63,2.63,0,0,1,1,.12,3,3,0,0,1,1.72,3.71c0.62-.07.12,1.44-0.38,1.56a2.93,2.93,0,0,1-.74,1.58v0a2,2,0,0,1-3.16,0h0a2.93,2.93,0,0,1-.75-1.6C6.19,12.58,5.7,11.1,6.18,11.1Zm5.74,7.24c-0.56.19-1.13,0.36-1.71,0.51a7.36,7.36,0,0,1-6.12-1.78c0.87-.77,3.33-0.39,3.35-1.83a2.46,2.46,0,0,0,3.1,0c0,1.48,2.48,1.06,3.36,1.84a7.34,7.34,0,0,1-2,1.29h0Z" fill="#375667" fill-rule="evenodd"/><path d="M17.72,2.44a5.27,5.27,0,0,0-5.22,5.21,5.22,5.22,0,0,0,10.43,0A5.27,5.27,0,0,0,17.72,2.44ZM16.08,7.35h0.06a1.78,1.78,0,0,1,1-2.16,1.61,1.61,0,0,1,.58-0.07,1.57,1.57,0,0,1,.58.07,1.78,1.78,0,0,1,1,2.16c0.39,0,0,.81-0.22.91a1.69,1.69,0,0,1-.43.92h0a1.19,1.19,0,0,1-1.84,0h0a1.72,1.72,0,0,1-.44-0.93C16.14,8.18,15.78,7.35,16.08,7.35Zm3.35,4.22c-0.33.09-.66,0.21-1,0.29a4.28,4.28,0,0,1-3.57-1c0.51-.45,1.95-0.23,2-1.07a1.43,1.43,0,0,0,1.81,0c0,0.87,1.45.61,2,1.07a4.4,4.4,0,0,1-1.16.75h0Z" fill="#22b8af" fill-rule="evenodd"/></svg>