<svg xmlns="http://www.w3.org/2000/svg" width="23" height="23" viewBox="0 0 23 23"><title>icons-social-set copy</title><path d="M18.45,11.5a7,7,0,0,1-7.59,6.93,7,7,0,0,1-6.19-8.26H0v9.24A3.59,3.59,0,0,0,3.59,23H19.41A3.59,3.59,0,0,0,23,19.41V10.16H18.32A6.92,6.92,0,0,1,18.45,11.5Z" fill="#22b8af"/><path d="M19.41,0H3.59A3.6,3.6,0,0,0,0,3.59V7.49H5.82a7,7,0,0,1,11.36,0H23V3.59A3.6,3.6,0,0,0,19.41,0Zm1.76,4.44a0.64,0.64,0,0,1-.64.64H18.6A0.64,0.64,0,0,1,18,4.44V2.51a0.64,0.64,0,0,1,.64-0.64h1.93a0.64,0.64,0,0,1,.64.64V4.44Z" fill="#375667"/><path d="M15.78,11.5a4.28,4.28,0,1,0-4.28,4.28A4.32,4.32,0,0,0,15.78,11.5Z" fill="#375667"/></svg>