<svg xmlns="http://www.w3.org/2000/svg" width="23" height="23" viewBox="0 0 23 23"><title>icons-singletons</title><polygon points="15.28 0.17 15.28 5.57 20.67 5.57 15.28 0.17" fill="#22b8af"/><path d="M14.2,6.65V0.18H2.33V22.82H20.67V6.65H14.2Zm-0.34,8.5a2.93,2.93,0,0,1-1.61,1v1.23h-1v-1.2a3.13,3.13,0,0,1-2.68-2.7l1.31-.27a3.09,3.09,0,0,0,.65,1.29A1.57,1.57,0,0,0,13,12.87c-0.48-1.25-2.44-1.25-3.25-2.23C8.44,9.16,9.5,7.2,11.21,6.76V5.59h1V6.76a2.73,2.73,0,0,1,2,1.54l-1.16.65a1.47,1.47,0,0,0-2.24-.64c-0.88.79,0,1.62,0.73,2a5.19,5.19,0,0,1,2.58,1.84,2.84,2.84,0,0,1-.31,3h0Z" fill="#375667"/></svg>