<svg xmlns="http://www.w3.org/2000/svg" width="23" height="23" viewBox="0 0 23 23"><title>icons-payment-set copy</title><path d="M22.21,4.63H0.79a0.64,0.64,0,0,0-.64.64V17.73a0.64,0.64,0,0,0,.64.64H22.21a0.64,0.64,0,0,0,.64-0.64V5.27A0.64,0.64,0,0,0,22.21,4.63Zm-13,9.86h0v0.1s0,0.06,0,.09V15.5H5.53V12.83H8.64V11.95s0-.1,0-0.15V10.07H7.62V11.8s0,0.05,0,.08a0.91,0.91,0,0,1,0,.1v0.34H5.65l-0.06,0H5.53V8.52a1.5,1.5,0,0,1,0-.3V7.49H9.21v7.46Zm4.13,0a1.4,1.4,0,0,1,0,.16V15.5H9.66V12.53l0,0H9.91l0,0h0.17l0,0h2.56l0.09,0h0.13V12.2h0l-0.06,0H12.78l-0.06,0h-0.2l-0.06,0H10.75V11.73s0-.07,0-0.11,0-.08,0-0.13,0-.09,0-0.13,0-.07,0-0.11V10.79h1.6l0.06,0h0.13l0,0h0.1l0,0,0,0h0l0,0h0.09V10.17H9.69l0,0v-2a1.49,1.49,0,0,1,0-.3V7.51h3.29v7.49Zm4.13,0s0,0.07,0,.11,0,0.08,0,.11v0.78H13.79v-3h3.08V12.28a0.7,0.7,0,0,0,0-.1,0.65,0.65,0,0,0,0-.09V11.76H16.2v0h0.5V10.92a0.65,0.65,0,0,0,0-.08s0,0,0-.07,0,0,0-.07a0.63,0.63,0,0,0,0-.09V10.34H13.79V8.5a1.51,1.51,0,0,1,0-.29V7.49h3.27v7.48Zm-2.08-2.82h0.29V12a0.43,0.43,0,0,1,0,.18v0.19H14.52V11.68h0.87Zm-0.87-.44V10.51h1.07v0.16a0.4,0.4,0,0,1,0,.17v0.16H14.52Z" fill="#375667"/></svg>