<svg xmlns="http://www.w3.org/2000/svg" width="23" height="23" viewBox="0 0 23 23"><title>icons-ui-set copy</title><path d="M14.59,11.06L9.88,7.74a0.47,0.47,0,0,0-.73.38v6.65a0.47,0.47,0,0,0,.73.38l4.72-3.32A0.47,0.47,0,0,0,14.59,11.06Z" fill="#22b8af"/><path d="M18.82,3.31H4.75C2.45,3.31,0,4.87,0,7.2v8.74c0,2.32,2.46,3.76,4.75,3.76H18.82c2.42,0,4.18-1.58,4.18-3.76V7.2A4,4,0,0,0,18.82,3.31Zm0,14H4.75c-1.21,0-2.35-.66-2.35-1.37V7.2c0-.74,1.19-1.49,2.35-1.49H18.82A1.6,1.6,0,0,1,20.6,7.2v8.74A1.54,1.54,0,0,1,18.82,17.3Z" fill="#375667"/></svg>