<svg xmlns="http://www.w3.org/2000/svg" width="23" height="23" viewBox="0 0 23 23"><title>icons-ui-set copy</title><path d="M21.08,2.3H1.92A1.92,1.92,0,0,0,0,4.22V18.78A1.92,1.92,0,0,0,1.92,20.7H21.08A1.92,1.92,0,0,0,23,18.78V4.22A1.92,1.92,0,0,0,21.08,2.3ZM20.38,4.92V18.08H2.62V4.92H20.38Z" fill="#375667"/><polygon points="18.75 16.45 18.75 12.17 14.95 8.37 8.82 14.51 6.9 12.59 4.25 15.24 4.25 16.45 18.75 16.45" fill="#22b8af"/><path d="M6.46,11.06c-3,0-3-4.6,0-4.6S9.42,11.06,6.46,11.06Z" fill="#22b8af"/></svg>