<svg xmlns="http://www.w3.org/2000/svg" width="23" height="23" viewBox="0 0 23 23"><title>icons-singletons</title><path d="M11.5,22.49a11,11,0,1,1,11-11A11,11,0,0,1,11.5,22.49ZM11.5,2A9.47,9.47,0,1,0,21,11.49,9.48,9.48,0,0,0,11.5,2Z" fill="#385767"/><path d="M11.5,22.74A11.25,11.25,0,1,1,22.75,11.49,11.26,11.26,0,0,1,11.5,22.74Zm0-22A10.74,10.74,0,1,0,22.24,11.49,10.75,10.75,0,0,0,11.5.75Zm0,20.47a9.73,9.73,0,1,1,9.73-9.72A9.74,9.74,0,0,1,11.5,21.22Zm0-18.94a9.22,9.22,0,1,0,9.22,9.22A9.23,9.23,0,0,0,11.5,2.28Z" fill="#385767"/><path d="M14.57,8.65A2.37,2.37,0,0,0,11.5,9.72,2.37,2.37,0,0,0,8.43,8.65c-1.18.55-1.75,1.95-.81,3.6,0.66,1.17,1.84,2.06,3.88,3.65,2-1.59,3.22-2.47,3.88-3.65C16.32,10.6,15.75,9.2,14.57,8.65Z" fill="#22b6ae"/></svg>