<svg xmlns="http://www.w3.org/2000/svg" width="23" height="23" viewBox="0 0 23 23"><title>icons-singletons</title><path d="M21.7,5.58H1.3A1.05,1.05,0,0,0,.25,6.64v9.84A1.05,1.05,0,0,0,1.3,17.53H4.82V12.26H18.18v5.27H21.7a1.05,1.05,0,0,0,1.05-1.05V6.64A1.05,1.05,0,0,0,21.7,5.58ZM3.41,9.8a1.06,1.06,0,0,1,0-2.11A1.06,1.06,0,0,1,3.41,9.8Z" fill="#375667" fill-rule="evenodd"/><path d="M17.13,4.53H5.88V3.47c0-.92-0.41-3.16,1.05-3.16h4.68l4.67,0a1,1,0,0,1,.84,1C17.13,2.41,17.13,3.47,17.13,4.53Z" fill="#375667" fill-rule="evenodd"/><path d="M5.88,13.32v8.44a1.05,1.05,0,0,0,1.05,1.05h9.14a1.05,1.05,0,0,0,1.05-1.05V13.32H5.88ZM15,20.7H8V19.64h7V20.7Zm0-2.11H8V17.53h7v1.05Zm0-2.11H8V15.43h7v1.05Z" fill="#22b8af" fill-rule="evenodd"/></svg>