<svg xmlns="http://www.w3.org/2000/svg" width="23" height="23" viewBox="0 0 23 23"><title>vimeovhx-light</title><path d="M4.014,10.33279a.65863.65863,0,0,0,.472-.19027.519.519,0,0,0,.183-.35127.34761.34761,0,0,0-.09514-.24516A.32566.32566,0,0,0,4.314,9.42534a.75011.75011,0,0,0-.483.17564.49671.49671,0,0,0-.2232.36591q-.01464.36591.40616.36591" fill="#fff" opacity="0.6"/><path d="M13.91544,10.76456a1.29529,1.29529,0,0,0-.23418-.022l.00366.00366a1.72086,1.72086,0,0,0-1.33556.58911A1.53545,1.53545,0,0,0,11.892,12.499a.77054.77054,0,0,0,.00732.09148l-.05489.02561a2.95824,2.95824,0,0,1-1.15993.27077.459.459,0,0,1-.39884-.183,2.23984,2.23984,0,0,0,1.1892-.55252q.472-.43543.41347-.77206-.04391-.58911-.7684-.58911a1.83388,1.83388,0,0,0-1.35752.58911,1.49982,1.49982,0,0,0-.53056,1.138,1.33219,1.33219,0,0,0,.011.19393.40577.40577,0,0,1-.18661.0805c-.09514,0-.15368-.0183-.17563-.05854a.43985.43985,0,0,1-.02927-.21223,3.978,3.978,0,0,1,.09148-.45373,3.40317,3.40317,0,0,0,.0988-.60009.67192.67192,0,0,0-.11709-.4647.63662.63662,0,0,0-.50861-.16832,1.09772,1.09772,0,0,0-.56716.2232,1.96122,1.96122,0,0,0-.333.31834l-.10977.09513a.71836.71836,0,0,0-.11709-.4647.65063.65063,0,0,0-.51593-.16832,1.31361,1.31361,0,0,0-.76109.333,1.3576,1.3576,0,0,0-.2598.29639.65129.65129,0,0,0,.01464-.139.69888.69888,0,0,0-.11709-.4025.32693.32693,0,0,0-.311-.15734q-.10977.00732-.42079.29639l-.472.41713.17563.19759a.77978.77978,0,0,1,.25248-.15q.04757,0,.06586.13173a4.14587,4.14587,0,0,1-.06952.53422q-.03659.21223-.05489.36591H4.81168a.82147.82147,0,0,1-.36957.21954q-.23784,0-.23052-.31468.10977-.69156.20857-1.138a.62789.62789,0,0,0-.08416-.43177.35281.35281,0,0,0-.35859-.1427,1.06841,1.06841,0,0,0-.472.29638l-.21954.20125q-.022-.52325-.47568-.53788-.68425-.022-.92574.77206a.61468.61468,0,0,1,.2415-.05489q.25248,0,.21954.28175a1.28253,1.28253,0,0,1-.21954.49763q-.20491.32566-.311.32566-.13172,0-.24516-.50129-.03659-.14636-.13173-.75377t-.472-.52325a1.09082,1.09082,0,0,0-.48666.29638L0,11.48174l.15368.19759a.95347.95347,0,0,1,.25979-.15368q.16832,0,.31834.53056l.26711.97331q.19759.53056.48666.53056.4647,0,1.13431-.87086A3.72508,3.72508,0,0,0,3.231,11.66469a.77761.77761,0,0,1,.22686-.139q.13173,0,.13173.19027,0,.03659-.1427.5452a3.51644,3.51644,0,0,0-.15.75377.556.556,0,0,0,.11343.3842.42921.42921,0,0,0,.35127.14636,1.51615,1.51615,0,0,0,.98795-.42811l.08416-.07684a.59276.59276,0,0,0,.13539.27077.91768.91768,0,0,0,.72083.21223,1.56226,1.56226,0,0,1-.05123-.57447,2.1442,2.1442,0,0,1,.23784-.87818q.21588-.42079.39884-.42079t.20125.27443a1.89552,1.89552,0,0,1-.07318.42079,1.99415,1.99415,0,0,0-.07318.472.64965.64965,0,0,0,.16832.53788,1.16829,1.16829,0,0,0,.72084.16832,1.08934,1.08934,0,0,1-.0622-.48666,2.03345,2.03345,0,0,1,.3037-.9294q.28175-.47934.45738-.45738.17929,0,.172.28175a2.68562,2.68562,0,0,1-.09148.51593,2.68589,2.68589,0,0,0-.09148.56716q-.01464.53057.4647.53056a1.55641,1.55641,0,0,0,.98795-.42811l.01464-.01463.03659.05854a.9446.9446,0,0,0,.85622.39884,3.155,3.155,0,0,0,1.588-.45007l.16832-.09879a1.05025,1.05025,0,0,0,.11709.18661,1.07029,1.07029,0,0,0,.8855.37688,1.55833,1.55833,0,0,0,1.17456-.494,1.8222,1.8222,0,0,0,.33663-.483Zm-3.66868,1.58438a.41.41,0,0,1,0-.09514,1.03059,1.03059,0,0,1,.23418-.58179.60807.60807,0,0,1,.45006-.3037q.16832,0,.161.19759a.54035.54035,0,0,1-.21954.38054A1.66121,1.66121,0,0,1,10.24676,12.34894Zm3.68834-.53422a1.39777,1.39777,0,0,1-.21223.68059v-.00366a.67521.67521,0,0,1-.56716.39152.25574.25574,0,0,1-.23052-.161.633.633,0,0,1-.06586-.32566,1.427,1.427,0,0,1,.2232-.70986.71.71,0,0,1,.61838-.40616q.11709,0,.1793.16832A.92942.92942,0,0,1,13.9351,11.81471Z" fill="#fff" opacity="0.6"/><path d="M21.94709,11.84033l1.03918-1.60267c.02927-.04757.011-.08416-.04757-.08416h-.71352a.21223.21223,0,0,0-.15734.08416l-.58911.8855-.57082-.8855a.20857.20857,0,0,0-.15734-.08416h-1.4929a.10245.10245,0,0,0-.10245.10245v1.19652H18.16A.10245.10245,0,0,1,18.0575,11.35V10.25229a.10245.10245,0,0,0-.10245-.10245H16.5646a.15.15,0,0,0-.13539.09513l-.666,2.01981L15.09,10.24863a.15.15,0,0,0-.13539-.09514h-.64034a.06952.06952,0,0,0-.06952.09514l1.06479,3.187a.15.15,0,0,0,.13539.09513h.63668a.15.15,0,0,0,.13539-.09513l1.05747-3.18339v3.17607a.10245.10245,0,0,0,.10245.10245h.57081a.10245.10245,0,0,0,.10245-.10245V12.3343a.10245.10245,0,0,1,.10245-.10245h.57447a.20125.20125,0,0,0,.15368-.08782l.27809-.45373v1.7344a.10245.10245,0,0,0,.10245.10245h1.4929a.20856.20856,0,0,0,.15734-.08416l.56716-.8855.58911.8855a.21223.21223,0,0,0,.15734.08416H22.935c.05855.00366.0805-.03659.05123-.08416Zm-1.90584,1.588V10.25229l1.05747,1.588Z" fill="#fff"/></svg>