<svg xmlns="http://www.w3.org/2000/svg" width="23" height="23" viewBox="0 0 23 23"><title>icons</title><path d="M11.5,17.3a5.61,5.61,0,0,1-3.14-.93A5.9,5.9,0,0,1,6.24,14L1.59,5.84A11.53,11.53,0,0,0,.18,11.5a10.9,10.9,0,0,0,2.76,7.41,11.07,11.07,0,0,0,6.88,3.78L13.1,17A5.26,5.26,0,0,1,11.5,17.3Z" fill="#5db54f"/><path d="M7.94,6.92A5.55,5.55,0,0,1,11.5,5.84h9.73a11.42,11.42,0,0,0-4.09-4.16A11,11,0,0,0,11.5.18a11.1,11.1,0,0,0-5,1.13,11,11,0,0,0-4,3.25l3.28,5.53A5.78,5.78,0,0,1,7.94,6.92Z" fill="#e0423a"/><path d="M22,7.25H15.39a6,6,0,0,1,1.9,4.25,5.79,5.79,0,0,1-1,3.32l-4.64,8a10.87,10.87,0,0,0,7.92-3.36,10.94,10.94,0,0,0,3.27-8A10.07,10.07,0,0,0,22,7.25Z" fill="#f8cc42"/><circle cx="11.5" cy="11.5" r="4.25" fill="#5d95cc"/></svg>