<svg xmlns="http://www.w3.org/2000/svg" width="23" height="23" viewBox="0 0 23 23"><title>icons</title><path d="M9.08,12.46a1,1,0,0,0-.71,1.16,1,1,0,0,0,.71,1.16,1,1,0,0,0,.72-1.16A1,1,0,0,0,9.08,12.46Z" fill="#430098"/><path d="M0.41,5.33V17.67H22.59V5.33H0.41Zm5.4,10.43L4.5,13.95H4.07v1.81H2.62V10.33H4.69a2,2,0,0,1,2.17,1.81,1.76,1.76,0,0,1-.94,1.49l1.53,2.13H5.81Zm3.28,0.08a2.21,2.21,0,1,1,2.23-2.21A2.21,2.21,0,0,1,9.08,15.84Zm11.3-.09H20.07l-0.65-.56a2,2,0,0,1-1.42.65,1.56,1.56,0,0,1-1.77-1.61V11.71l-1.83,1.83,2.21,2.21H14.78L13,14v1.72H11.59V11.5H13v1.67l1.67-1.67h3v2.33c0,0.68.16,0.89,0.52,0.89a0.81,0.81,0,0,0,.74-0.46V11.5h1.45v4.25Z" fill="#430098"/><path d="M4.51,11.23H4.07V13H4.51A0.91,0.91,0,0,0,4.51,11.23Z" fill="#430098"/></svg>