<svg xmlns="http://www.w3.org/2000/svg" width="23" height="23" viewBox="0 0 23 23"><title>icons</title><path d="M3.67,10.29A1.17,1.17,0,0,0,2.53,9.1H2v2.32H2.53a1.15,1.15,0,0,0,1.14-1.14m2.61,4.65H4.19L2.53,12.62H2v2.32H0.11V8H2.77a2.62,2.62,0,0,1,2.8,2.32,2.18,2.18,0,0,1-1.23,1.9l1.95,2.75" fill="#430098"/><path d="M8.37,10.72a1.32,1.32,0,0,0-.9,1.47,1.32,1.32,0,0,0,.9,1.47,1.28,1.28,0,0,0,.9-1.47,1.32,1.32,0,0,0-.9-1.47m2.85,1.47A2.85,2.85,0,1,1,8.37,9.34a2.86,2.86,0,0,1,2.85,2.85" fill="#430098"/><path d="M15.58,9.48l-2.14,2.14V9.44H11.59v5.46h1.85V12.66l2.23,2.23H18L15.15,12l2.37-2.37V12.9A2,2,0,0,0,19.8,15a2.63,2.63,0,0,0,1.85-.85l0.85,0.71h0.38V9.39H21v3.56a1,1,0,0,1-.95.62c-0.47,0-.66-0.28-0.66-1.14v-3H15.58v0Z" fill="#430098"/></svg>