<svg xmlns="http://www.w3.org/2000/svg" width="23" height="23" viewBox="0 0 23 23"><title>icons</title><path d="M0.83,6.79H1.66V8.41H2.91V9.19H1.66v4a0.82,0.82,0,0,0,1,1H2.91v0.73c-0.1,0-.26.06-0.47,0.06-1.35,0-1.61-.56-1.61-1.84V9.19H0V8.41H0.83V6.79h0Z" fill="#741dab"/><path d="M3.85,8.41H4.73l1.66,5.31H6.45L8.21,8.41H9L6.86,14.83H6L3.85,8.41h0Z" fill="#741dab"/><path d="M9.72,10c0-2.35,1.25-3.74,3.07-3.74s3.07,1.4,3.07,3.74v1.28c0,2.35-1.2,3.69-3.07,3.69s-3.07-1.34-3.07-3.69V10h0Zm0.83,1.4c0,1.9.94,2.85,2.24,2.85S15,13.32,15,11.42V10.08c0-1.9-.94-2.9-2.24-2.9s-2.24,1-2.24,2.9v1.34h0Z" fill="#741dab"/><path d="M17.78,12.6a1.78,1.78,0,0,0,2,1.56,1.62,1.62,0,0,0,1.87-1.56,1.38,1.38,0,0,0-1.35-1.4L19,10.81a2.22,2.22,0,0,1-1.82-2.18,2.46,2.46,0,0,1,2.65-2.4,2.43,2.43,0,0,1,2.65,2.35H21.57a1.6,1.6,0,0,0-1.82-1.51A1.54,1.54,0,0,0,18,8.52a1.33,1.33,0,0,0,1.14,1.34l1.3,0.39c1.25,0.34,2,.95,2,2.23,0,1.62-1.3,2.46-2.86,2.46a2.45,2.45,0,0,1-2.75-2.4h0.94V12.6h0Z" fill="#741dab"/></svg>