<svg xmlns="http://www.w3.org/2000/svg" width="23" height="23" viewBox="0 0 23 23"><path d="M15.8 14.5v-.4h-.4c-1.2 0-2.1-.9-2.1-2.1v-1c0-1.1.9-2.1 2.1-2.1h.4v-.4c0-.5.2-1 .6-1.4-2-3.2-6.1-4.7-9.7-3.5C3.3 4.7 1 8 1 11.5s2.3 6.8 5.6 7.9c3.6 1.2 7.7-.2 9.7-3.5-.3-.4-.5-.9-.5-1.4zM6.7 11c.1 0 .1 0 0 0-.4-2.7 1.7-3.4 1.7-3.4.3-.1.6-.2.9-.1.3 0 .6 0 .9.1 0 0 2.1.7 1.6 3.5.6-.1.1 1.4-.4 1.5 0 0 0 .7-.7 1.5-.9.9-2 1-2.9 0-.7-.8-.7-1.5-.7-1.5-.4-.2-.8-1.6-.4-1.6zm5.4 6.8c-.5.2-1.1.3-1.6.5-2 .3-4.2-.3-5.7-1.7.8-.7 3.1-.4 3.1-1.7.9.7 2 .7 2.9 0 0 1.4 2.3 1 3.1 1.7-.5.5-1.2.9-1.8 1.2-.1 0 .6-.3 0 0z" fill-rule="evenodd" clip-rule="evenodd" fill="#375667"/><path d="M21.4 10.4h-1.9V8.5c0-.3-.3-.6-.6-.6h-1c-.3 0-.6.3-.6.6v1.9h-1.9c-.3 0-.6.3-.6.6v1c0 .3.3.6.6.6h1.9v1.9c0 .3.3.6.6.6h1c.3 0 .6-.3.6-.6v-1.9h1.9c.3 0 .6-.3.6-.6v-1c0-.3-.3-.6-.6-.6z" fill="#22B8AF"/></svg>