<svg xmlns="http://www.w3.org/2000/svg" width="23" height="23" viewBox="0 0 23 23"><g fill-rule="evenodd" clip-rule="evenodd"><path d="M7.5 4.3L10.6.9c.4-.4 1.1-.5 1.5 0 .5.6 1.1 1.2 1.6 1.8.2.2 1.2 1.6 1.5 1.6.9 1-.7 2.4-1.5 1.4l-1.3-1.4v7.6c0 1.4-2.1 1.5-2.1.1V4.4c-.5.5-1 1.4-1.7 1.7-.9.2-1.8-1-1.1-1.8z" fill="#22B8AF"/><path d="M20.4 2.5h-4.1l.4.4c.4.4.7 1 .8 1.6h1.9V20.4h-16V4.5h1.9c.1-.5.3-1.1.7-1.5l.4-.5h-4c-.5 0-1 .4-1 .9v18c0 .6.5 1 1 1h18c.5 0 1-.4 1-1V3.5c0-.6-.5-1-1-1z" fill="#375667"/></g></svg>