<svg xmlns="http://www.w3.org/2000/svg" width="23" height="23" viewBox="0 0 23 23"><g fill-rule="evenodd" clip-rule="evenodd" fill="#999"><path d="M20.6 16.5c-.5 1.1-.7 1.6-1.4 2.6-.9 1.4-2.2 3.1-3.7 3.1-1.4 0-1.7-.9-3.6-.9-1.9 0-2.3.9-3.7.9-1.6 0-2.8-1.5-3.7-2.9C2 15.4 1.8 10.9 3.3 8.6c1.1-1.7 2.8-2.7 4.5-2.7 1.7 0 2.7.9 4.1.9 1.3 0 2.1-.9 4.1-.9 1.4 0 3 .8 4.1 2.2-3.7 1.9-3.1 7 .5 8.4z"/><path d="M14.4 4.4c.7-.9 1.2-2.2 1-3.4-1.1 0-2.4.7-3.2 1.7-.7.9-1.3 2.1-1.1 3.4 1.3 0 2.6-.8 3.3-1.7z"/></g></svg>