<svg xmlns="http://www.w3.org/2000/svg" width="23" height="23" viewBox="0 0 23 23"><g fill-rule="evenodd" clip-rule="evenodd"><path d="M19.4 17.3H4.2c-.5 0-1 .1-1.3-.3-.7-.5-.5-1.6.2-2 .7-.4 1.7-.2 1.7-1.3 0-3.3-.7-7.4 2.5-9.6.5-.2 1.1-.5 1.7-.6.3-.1.5-.1.8-.1.6-.1.4 0 .7-.5.3-.6 1-.8 1.6-.5.3.2.6.5.6.8.1.4.4.3.8.3 2.7.4 4.7 2.8 4.7 5.5v4.3c0 .7 0 1.5.9 1.7.6.1 1.2.2 1.4.9.2.7-.3 1.4-1.1 1.4" fill="#375667"/><path d="M11.5 20.9c-1.3 0-2.4-1.1-2.4-2.4h4.7c.1 1.3-1 2.4-2.3 2.4" fill="#22B8AF"/></g></svg>