<svg xmlns="http://www.w3.org/2000/svg" width="23" height="23" viewBox="0 0 23 23"><path d="M19.3 2.8h-1.1v2.5h-4V2.8H8.8v2.5h-4V2.8H3.7c-1.4 0-2.5 1.1-2.5 2.5v14.9c0 1.4 1.1 2.5 2.5 2.5h15.6c1.4 0 2.5-1.1 2.5-2.5V5.3c0-1.4-1.1-2.5-2.5-2.5zm0 17.4H3.7v-9.9h15.6v9.9zM7.7.3H5.9v4.2h1.7V.3zm9.4 0h-1.7v4.2h1.7V.3z" fill="#375667"/><g fill="#22B8AF"><path d="M5.1 11.7h1.4v1.4H5.1zM5.1 14.5h1.4v1.4H5.1zM5.1 17.4h1.4v1.4H5.1zM8 11.7h1.4v1.4H8zM8 14.5h1.4v1.4H8zM8 17.4h1.4v1.4H8zM10.8 11.7h1.4v1.4h-1.4zM10.8 14.5h1.4v1.4h-1.4zM10.8 17.4h1.4v1.4h-1.4zM13.6 11.7H15v1.4h-1.4zM13.6 14.5H15v1.4h-1.4zM13.6 17.4H15v1.4h-1.4zM16.5 11.7h1.4v1.4h-1.4zM16.5 14.5h1.4v1.4h-1.4zM16.5 17.4h1.4v1.4h-1.4z"/></g></svg>