<svg xmlns="http://www.w3.org/2000/svg" width="23" height="23" viewBox="0 0 23 23"><path d="M11.5 8c-4.2 0-4.2 6.5 0 6.5 4.2.1 4.2-6.5 0-6.5z" fill="#22B8AF"/><path d="M20.2 4.8h-2.6c-.4 0-.7-.3-.9-.6l-.7-2c-.1-.3-.5-.6-.9-.6H7.8c-.4 0-.7.3-.9.6l-.7 2c0 .3-.4.6-.8.6H2.8C1.6 4.8.6 5.8.6 7v9.8c0 1.2 1 2.2 2.2 2.2h17.4c1.2 0 2.2-1 2.2-2.2V6.9c0-1.2-1-2.1-2.2-2.1zm-8.7 11.9c-3 0-5.4-2.5-5.4-5.4s2.5-5.4 5.4-5.4 5.4 2.5 5.4 5.4-2.4 5.4-5.4 5.4zm7.9-8.2c-1 0-1-1.5 0-1.5 1-.1 1 1.5 0 1.5z" fill="#375667"/></svg>