<svg xmlns="http://www.w3.org/2000/svg" width="23" height="23" viewBox="0 0 23 23"><g fill="#375667"><path d="M7.1 11c1.8 0 1.8-2.8 0-2.8S5.3 11 7.1 11zM15.9 11c1.8 0 1.8-2.8 0-2.8s-1.8 2.8 0 2.8z"/><path d="M4.2 12.9c.3 0 .5.2.5.5v1.4h13.6v-1.4c0-.3.2-.5.5-.5h3.8V4.6c0-.4-.3-.8-.8-.8H1.2c-.4 0-.8.4-.8.8v8.3h3.8zm11.7-5.7c3.1 0 3.1 4.8 0 4.8s-3.1-4.8 0-4.8zm-8.8 0c3.1 0 3.1 4.8 0 4.8S4 7.2 7.1 7.2z"/><path d="M19.3 13.9v1.4c0 .3-.2.5-.5.5H4.2c-.3 0-.5-.2-.5-.5v-1.4H.4v4.5c0 .4.3.8.8.8h20.7c.4 0 .8-.4.8-.8v-4.5h-3.4z"/></g><path d="M7.1 8.2c-1.8 0-1.8 2.8 0 2.8s1.8-2.8 0-2.8zM15.9 8.2c-1.8 0-1.8 2.8 0 2.8s1.8-2.8 0-2.8z" fill="#22B8AF"/></svg>