<svg xmlns="http://www.w3.org/2000/svg" width="23" height="23" viewBox="0 0 23 23"><path d="M7.1 8.2c-1.8 0-1.8 2.8 0 2.8s1.8-2.8 0-2.8zM15.9 8.2c-1.8 0-1.8 2.8 0 2.8s1.8-2.8 0-2.8z" fill="#22B8AF"/><g fill="#375667"><path d="M.8 14.1c.2-.2.5-.2.7 0l1.1 1.1 1.1-1.1c.2-.2.5-.2.7 0l1.1 1.1 1.1-1.1c.2-.2.5-.2.7 0l1.1 1.1 1.1-1.1c.2-.2.5-.2.7 0l1.1 1.1 1.1-1.1c.2-.2.5-.2.7 0l1.1 1.1 1.1-1.1c.2-.2.5-.2.7 0l1.1 1.1 1.1-1.1c.2-.2.5-.2.7 0l1.1 1.1 1.1-1.1c.2-.2.5-.2.7 0l.4.4V4.6c0-.4-.3-.8-.8-.8H1.2c-.4 0-.8.4-.8.8v9.9l.4-.4zm15.1-6.9c3.1 0 3.1 4.8 0 4.8s-3.1-4.8 0-4.8zm-8.8 0c3.1 0 3.1 4.8 0 4.8S4 7.2 7.1 7.2zM21.8 15.2l-1.1 1.1c-.1.1-.1.1-.2.1-.2.1-.4 0-.5-.1l-1.1-1.1-1.1 1.1c-.1.1-.1.1-.2.1-.2.1-.4 0-.5-.1L16 15.2l-1.1 1.1c-.1.1-.1.1-.2.1-.2.1-.4 0-.5-.1L13 15.2l-1.1 1.1c-.1.1-.1.1-.2.1-.2.1-.4 0-.5-.1L10 15.2l-1.1 1.1c-.1.1-.1.1-.2.1-.2.1-.4 0-.5-.1l-1.1-1.1L6 16.3c-.1.1-.1.1-.2.1-.2.1-.4 0-.5-.1l-1.1-1.1L3 16.3c-.1.1-.1.1-.2.1-.2.1-.4 0-.5-.1l-1.1-1.1-.8.8v2.4c0 .4.3.8.8.8h20.7c.4 0 .8-.4.8-.8V16l-.9-.8z"/></g></svg>