<svg xmlns="http://www.w3.org/2000/svg" width="23" height="23" viewBox="0 0 23 23"><path d="M11.5 16.4c-1 0-1.9-.3-2.7-.8-.8-.5-1.4-1.2-1.8-2L3.1 6.7c-.8 1.5-1.2 3.1-1.2 4.8 0 2.4.8 4.5 2.3 6.3S7.7 20.6 10 21l2.8-4.8c-.2 0-.7.2-1.3.2z" fill="#5DB54F"/><path d="M8.5 7.6c.9-.7 1.9-.9 3-.9h8.2c-.8-1.4-2-2.7-3.5-3.5-1.5-.8-3-1.3-4.8-1.3-1.5 0-2.9.3-4.2 1-1.2.6-2.4 1.5-3.3 2.7l2.8 4.7c.3-1.1.9-2 1.8-2.7z" fill="#E0423A"/><path d="M20.3 7.9h-5.6c1 1 1.6 2.2 1.6 3.6 0 1-.3 2-.9 2.8l-3.9 6.8c2.6 0 4.8-1 6.7-2.8 1.8-1.9 2.8-4.1 2.8-6.7.1-1.3-.1-2.6-.7-3.7z" fill="#F8CC42"/><circle cx="11.5" cy="11.5" r="3.6" fill="#5D95CC"/></svg>