<svg xmlns="http://www.w3.org/2000/svg" width="23" height="23" viewBox="0 0 23 23"><path d="M11.5 3.2c.5 0 .8.4.8.8v1.7c1 .2 1.9.5 2.7 1.1l1.2-1.2c.2-.2.4-.2.6-.2s.4.1.6.2c.3.3.3.8 0 1.2L16.2 8c.6.8 1 1.7 1.1 2.7H19c.5 0 .8.4.8.8s-.4.8-.8.8h-1.7c-.1 1-.5 1.9-1.1 2.7l1.2 1.2c.3.3.3.9 0 1.2-.2.2-.4.2-.6.2s-.4-.1-.6-.2L15 16.2c-.8.6-1.7 1-2.7 1.1V19c0 .5-.4.8-.8.8s-.8-.4-.8-.8v-1.7c-1-.1-1.9-.5-2.7-1.1l-1.2 1.2c-.2.2-.4.2-.6.2-.2 0-.4-.1-.6-.2-.3-.3-.3-.8 0-1.2L6.8 15c-.6-.8-1-1.7-1.1-2.7H4c-.5 0-.8-.4-.8-.8s.4-.8.8-.8h1.7c.1-1 .5-1.9 1.1-2.7L5.6 6.8c-.3-.3-.3-.9 0-1.2.2-.2.4-.2.6-.2.2 0 .4.1.6.2L8 6.8c.8-.6 1.7-1 2.7-1.1V4c0-.5.3-.8.8-.8m0-1.3c-1.2 0-2.1.9-2.1 2.1v.7c-.4.2-.8.3-1.2.5l-.5-.4c-.4-.5-.9-.7-1.5-.7s-1.1.2-1.5.6c-.4.4-.6.9-.6 1.5s.2 1.1.6 1.5l.5.5c-.2.4-.3.8-.5 1.2H4c-1.2 0-2.1.9-2.1 2.1 0 1.1.9 2.1 2.1 2.1h.7c.2.4.3.8.5 1.2l-.4.4-.1.1c-.8.8-.8 2.1 0 2.9.4.4.9.6 1.5.6s1.1-.2 1.5-.6l.5-.5c.4.3.8.4 1.2.6v.7c0 1.1.9 2.1 2.1 2.1 1.1 0 2.1-.9 2.1-2.1v-.7c.4-.1.8-.3 1.2-.5l.5.5c.4.4.9.6 1.5.6s1.1-.2 1.5-.6c.8-.8.8-2.1 0-2.9l-.5-.5c.2-.4.4-.8.5-1.2h.7c1.1 0 2.1-.9 2.1-2.1 0-1.1-.9-2.1-2.1-2.1h-.7c-.2-.5-.3-.9-.5-1.3l.5-.5.1-.1c.3-.4.5-.9.5-1.4 0-.6-.2-1.1-.6-1.5-.4-.4-.9-.6-1.5-.6s-1.1.2-1.5.6l-.5.5c-.4-.2-.8-.3-1.2-.5V4c0-1.1-.9-2.1-2.1-2.1z" fill="#375667"/><path d="M11.5 9.8c.9 0 1.7.8 1.7 1.7s-.7 1.7-1.7 1.7-1.7-.8-1.7-1.7.8-1.7 1.7-1.7m0-2c-2.1 0-3.7 1.7-3.7 3.7s1.7 3.7 3.7 3.7 3.7-1.7 3.7-3.7-1.6-3.7-3.7-3.7z" fill="#22B8AF"/></svg>