<svg xmlns="http://www.w3.org/2000/svg" width="23" height="23" viewBox="0 0 23 23"><path d="M6.9 16.3l-.7-.2c-1.3-.4-3-1.3-3.7-3.2-.8-2-.7-4.7 0-6.6 1.3-3.2 5.1-3.7 9-3.7 2.8 0 5.5.1 7.4 1.5 2.3 1.7 2.4 5 2.2 6.9-.2 1.8-1 4-3.6 5-1.5.5-3.2.8-5.4.8-1.1 0-2.2-.1-3.5-.2h-.5l-1.2 1.2v-1.5z" fill="#375667"/><path d="M11.5 3.6c2.6 0 5.1.1 6.8 1.3 1.9 1.4 1.9 4.3 1.7 6-.2 2.1-1.2 3.5-3 4.2-1.3.5-3 .7-5.1.7-1 0-2.1-.1-3.4-.2l-1-.1-1.2-.4c-1.1-.3-2.5-1-3.1-2.6-.7-1.8-.7-4.2 0-5.9 1.2-2.5 4.2-3 8.3-3m0-2c-3.7 0-8.4.3-9.9 4.3-.9 2.2-.9 5.1 0 7.4.7 2 2.4 3.2 4.3 3.8v3.2l2.6-2.7c1.1.1 2.4.2 3.6.2 2 0 4-.2 5.7-.9 2.6-1 4-3.1 4.3-5.8.3-2.8-.1-6.1-2.6-7.9-2.2-1.6-5.3-1.6-8-1.6z" fill="#22B8AF"/></svg>