<svg xmlns="http://www.w3.org/2000/svg" width="23" height="23" viewBox="0 0 23 23"><path d="M19.4 7.2l-3.6-3.6c-.7.5-1.7.5-2.4 0l-9.9 9.9c.5.7.5 1.7 0 2.4L7 19.5c.7-.5 1.7-.5 2.4 0l9.9-9.9c-.4-.8-.4-1.7.1-2.4zm-5.6 6.6c-3 3-7.6-1.6-4.6-4.6 3-3 7.6 1.6 4.6 4.6-1.3 1.3 1.3-1.3 0 0z" fill="#22B8AF"/><path d="M6.9 22c.8.8 2.1.8 2.9 0L22 9.8c.8-.8.8-2.1 0-2.9L16.1 1c-.8-.8-2.1-.8-2.9 0L1 13.2c-.8.8-.8 2.1 0 2.9L6.9 22zm-4.5-6.2c1-.5 1-1.9 0-2.3L13.5 2.4c.5 1 1.9 1 2.3 0l4.8 4.8c-1 .5-1 1.9 0 2.3L9.5 20.6c-.5-1-1.9-1-2.3 0l-4.8-4.8z" fill="#375667"/></svg>