<svg xmlns="http://www.w3.org/2000/svg" width="71" height="43" viewBox="0 0 71 43"><path d="M6.5 12.1v6.5s4.2.5 4.2-3.2v-.1c-.1-3.6-4.2-3.2-4.2-3.2zM69 0H2C.9 0 0 .9 0 2v39c0 1.1.9 2 2 2h67c1.1 0 2-.9 2-2V2c0-1.1-.9-2-2-2zm-9.8 10.4h3.2c1.7 0 3.1 1.2 3.1 2.9 0 1.3-.8 2.5-2.1 2.9l3 4.2H64l-2.7-4h-.2v4h-1.9v-10zm-6.8 0H58v1.8h-3.5v2.2h3.4v1.8h-3.4v2.5H58v1.8h-5.5V10.4zm-8.2 0l2.7 6.5 2.6-6.5h2.1l-4.2 10.2h-1.2L42 10.4h2.2zm-31.5 5c0 3.2-2.9 4.9-4.8 4.9H4.6v-9.9h3.3c1.9 0 4.8 1.8 4.8 5zm2.8 4.9h-2v-10h2v10zm4.2.3c-2.5 0-3.6-1.9-3.6-1.9l1.2-1.2c.7 1 3.1 2.2 3.5.4.5-1.8-1.8-1.9-2.9-2.4-1.7-.9-1.8-3.4-.2-4.6 1.5-1.1 3.5-.6 4.8.6l-1.1 1.3c-.7-.8-3-1.2-2.9.4 0 1 2 1.3 2.7 1.7 3.2 1.3 1.6 5.7-1.5 5.7zm11.6-.6c-3.4 1.8-7.7-.8-7.7-4.6 0-3.9 4.2-6.4 7.7-4.6v2.4c-2.1-2.1-5.8-.8-5.8 2.3 0 3 3.7 4.4 5.8 2.3V20zm6-9.8c2.8 0 5.2 2.3 5.2 5.2 0 2.8-2.3 5.2-5.2 5.2-2.8 0-5.2-2.3-5.2-5.2 0-2.8 2.4-5.2 5.2-5.2zM68 40H32.8C45 36.8 57.2 32.4 68 25.7V40zm-4.4-26.5v-.1c0-.6-.5-1.4-1.3-1.4h-1.1v2.9h1.1c.8 0 1.3-.7 1.3-1.4z" fill="#fff"/></svg>