<svg xmlns="http://www.w3.org/2000/svg" width="23" height="23" viewBox="0 0 23 23"><path d="M21.3 3.4h-6.9v1.5h5.9c.3 0 .5.2.5.5v10.7H2.3V5.4c0-.3.2-.5.5-.5h5.6V3.4H1.7c-.5 0-1 .4-1 1v13.5c0 .6.4 1 1 1h6.8L8 21.8c-.1.4.2.8.6.8h5.6c0-.1.8-.2.6-.9l-.5-2.8h7c.5 0 1-.4 1-1V4.4c0-.6-.5-1-1-1z" fill="#375667"/><path d="M15.2 8.9l-3.1 3.4c-.4.4-1.1.5-1.5 0-.6-.6-1.1-1.2-1.6-1.8-.2-.2-1.2-1.6-1.5-1.6-.9-1 .6-2.4 1.5-1.4L10.3 9V3.8 1.4c0-1.4 2.1-1.5 2.1-.1v7.6c.5-.5 1-1.4 1.7-1.7.9-.3 1.8.9 1.1 1.7z" fill-rule="evenodd" clip-rule="evenodd" fill="#22B8AF"/></svg>