<svg xmlns="http://www.w3.org/2000/svg" width="23" height="23" viewBox="0 0 23 23"><g fill-rule="evenodd" clip-rule="evenodd"><path d="M22.3 3.8L20 6.1 16.9 3c.7-.7 2.7-3.5 3.8-2.3.7.7 2.7 2 1.6 3.1M6.1 13.7l3.1 3.1c-1.4.3-2.7.7-4.1 1 .4-1.3.7-2.7 1-4.1zM19.2 6.8L10 16l-3.1-3 6.8-6.8 1.7-1.7c.1-.1.6-.7.7-.7.3 0 1.2 1.2 1.5 1.5.5.5 1.1 1 1.6 1.5z" fill="#375667"/><path d="M2.6 3.7v16.7h16.7V10.2L21.5 8V20.1c0 .9.3 2.6-1.1 2.6H3.7c-.9 0-3.4.4-3.4-1.1V11.5 4.9C.4 4 0 1.5 1.5 1.5h13.6L14 2.6c-.2.2-.9 1.1-1.1 1.1H2.6z" fill="#22B8AF"/></g></svg>