<svg xmlns="http://www.w3.org/2000/svg" width="23" height="23" viewBox="0 0 23 23"><path d="M14.5 3l4.6-.2c.6 0 1.1.5 1.1 1.1-.1 1.5-.2 3.1-.2 4.6-.1 1.3-2.1 1.2-2.1-.1l.1-2-3.2 3.2-1.4 1.4c-1 1-2.5-.4-1.5-1.4L16.6 5c-.7 0-1.7.3-2.4 0-.9-.4-.8-1.9.3-2z" fill-rule="evenodd" clip-rule="evenodd" fill="#22B8AF"/><path d="M19 11.4c-.4 0-.8-.1-1.2-.3v5.3c0 .8-.7 1.5-1.5 1.5H6.5c-.8.1-1.5-.6-1.5-1.4V6.7c0-.8.7-1.5 1.5-1.5h5.3c-.3-.7-.3-1.5-.1-2.2H6.5C4.4 3 2.8 4.7 2.8 6.7v9.8c0 2.1 1.7 3.8 3.8 3.8h9.8c2.1 0 3.8-1.7 3.8-3.8v-5.2c-.5.1-.9.1-1.2.1z" fill="#375667"/></svg>