<svg xmlns="http://www.w3.org/2000/svg" width="23" height="23" viewBox="0 0 23 23"><path d="M11.5 9.3c-2.8 0-2.8 4.4 0 4.4s2.8-4.4 0-4.4z" fill="#375667"/><path d="M11.5 7C9 7 7 9 7 11.5S9 16 11.5 16s4.5-2 4.5-4.5S14 7 11.5 7z" fill="#22B8AF"/><path d="M11.5 9.3c-2.8 0-2.8 4.4 0 4.4s2.8-4.4 0-4.4z" fill="#375667"/><path d="M22.4 11.1C20.3 7 16.2 3.9 11.5 3.9S2.7 7 .6 11.1l-.2.4.2.4C2.7 16 6.8 19 11.5 19s8.8-3.1 10.9-7.1l.2-.4-.2-.4zm-10.9 6.1c-3.6 0-7.1-2.2-9-5.7 1.8-3.3 5.2-5.7 9-5.7s7.2 2.4 9 5.7c-1.9 3.5-5.4 5.7-9 5.7z" fill="#375667"/></svg>