<svg xmlns="http://www.w3.org/2000/svg" width="23" height="23" viewBox="0 0 23 23"><path d="M17.2 12.6c-4.1 0-6.3-5-3.6-8C10.4 2.5 6 3 3.3 5.8c-2.4 2.5-3 6.4-1.4 9.5 1.6 3.1 5.2 4.8 8.6 4.2 3.5-.6 6.3-3.5 6.7-7 .1.1.1.1 0 .1zM6.6 11c.1 0 .1 0 0 0-.4-2.6 1.7-3.4 1.7-3.4.3-.1.6-.1.9-.1.3 0 .6 0 .9.1 0 0 2.1.7 1.6 3.4.6-.1.1 1.3-.4 1.4 0 0 0 .7-.7 1.4-.9.9-2 .9-2.9 0C7 13 7 12.3 7 12.3c-.4.1-.8-1.3-.4-1.3zm5.3 6.7c-.5.2-1 .3-1.6.5-2 .3-4.1-.3-5.6-1.6.8-.7 3.1-.4 3.1-1.7.9.7 2 .7 2.8 0 0 1.4 2.3 1 3.1 1.7-.5.4-1.1.8-1.8 1.1 0 0 .7-.3 0 0z" fill-rule="evenodd" clip-rule="evenodd" fill="#375667"/><path d="M17.2 3.8c-2.6 0-4.8 2.2-4.8 4.8 0 2.6 2.2 4.8 4.8 4.8S22 11.2 22 8.6c0-2.6-2.2-4.8-4.8-4.8zm-1.5 4.5s.1 0 0 0c-.2-1.5 1-2 1-2 .2-.1.3-.1.5-.1s.4 0 .5.1c0 0 1.2.4.9 2 .4 0 0 .7-.2.8 0 0 0 .4-.4.8-.5.5-1.2.6-1.7 0-.3-.4-.3-.8-.3-.8-.2 0-.6-.8-.3-.8zm3.1 3.9l-.9.3c-1.2.2-2.4-.2-3.3-1 .5-.4 1.8-.2 1.8-1 .5.4 1.1.4 1.7 0 0 .8 1.3.6 1.8 1-.4.2-.7.5-1.1.7 0 0 .4-.2 0 0z" fill-rule="evenodd" clip-rule="evenodd" fill="#22B8AF"/></svg>