<svg xmlns="http://www.w3.org/2000/svg" width="23" height="23" viewBox="0 0 23 23"><path d="M6.2 6.9c-.9-.8-1.3-2.2-.4-3.4 1.4-1.9 4.6-.9 4.6 1.5v1.9h2.4V5c0-2.1 2.6-3.3 4.2-1.9 1.2 1.1 1 2.8-.1 3.8h2.7c.3-.6.4-1.2.4-1.9C20 2.4 17.9.3 15.3.3c-1.5 0-2.8.7-3.7 1.9C10.6 1 9.3.3 7.8.3 5.2.3 3.1 2.4 3.1 5c0 .7.2 1.3.4 1.9h2.7z" fill="#22B8AF"/><path d="M22.3 10.8v-3c0-.5-.4-.9-.9-.9H1.6c-.5 0-.9.4-.9.9v3h21.6zM13.8 12.9v7.3l-2.3-2.3-2.3 2.3v-7.3H.7v8.9c0 .5.4.9.9.9h19.8c.5 0 .9-.4.9-.9v-8.9h-8.5z" fill="#375667"/></svg>