<svg xmlns="http://www.w3.org/2000/svg" width="23" height="23" viewBox="0 0 23 23"><path d="M11.5 22.6c-4.5 0-8.6-2.8-10.3-6.9C-.5 11.5.5 6.6 3.8 3.4c3.3-3.1 8.3-4 12.4-2 4.1 1.9 6.6 6.2 6.4 10.6-.3 5.9-5.3 10.6-11.1 10.6M17.7 5c-.2 0-.1-.2-.2-.2 0 .4.1.6-.4.7.2.4.7-.4.7-.4 0-.1 0-.1-.1-.1m.3.2s-.2-.2 0 0c.1.1.1.1 0 0m2.4 7.6l.1-.6c-.1-.1-.2 0-.1-.1-.1 0-.1 0-.1.1-.2.3 0 .4.1.6m-17.6.9c0-.2.2-.2.2-.3 0-.1-.2-.1-.2.1-.1 0-.1.1-.1 0-.1-.2 0 .2.1.2m.3-3.6s.1 0 0 0M5.5 5c-.1 0-.1 0 0 0l-.1-.1h.1c0-.1-.2.1-.2.1h.2m-.4.1c0 .1 0 .1 0 0m2.5-1.7s.1 0 0 0 0 .1-.2.1c.1 0 .2-.1.2 0s-.2 0-.2 0 .1 0 0 0h.1s-.2.1-.1 0h.3c0 .1-.2.1-.2.1s.2.2.3.1c0 .2-.1.3-.2.2h.1c-.1 0-.1.1-.2 0 0 .1 0 .1-.1.1.1 0-.1.1 0 .1 0-.1.1-.1.2-.1 0 .1-.1 0-.1.1 0 0 .2-.1.2 0 0 0-.1.1 0 .1.2-.1.3 0 .4 0-.1 0 .2.1.2.1h-.1c0 .1-.6 0-.6 0h.1s.2-.1.2 0c.1.1-.2.1-.2.2.1.1 0 .1 0 .1l.3-.1s-.1.1-.2.1c.1 0 .2-.1.3-.2.1 0 .2-.1.3-.1 0 0 0 .1-.1.1 0 .1-.5.8-.7.5.1.2-.1.3-.2.5 0 0 .1.1 0 .1l-.1.1v-.1c-.4.1-.3.3-.5.3 0 0 .1 0 .1.1h-.1c.1 0 .1.1.1.1h-.1s.2 0 .1.1h-.1.1c-.1 0 0 .1-.1.1h-.1s-.1.2 0 .2h-.1s.3.1.1.1l-.1.1c0 .1.1.1 0 .1h.1l-.1.1h.1l-.3.1v-.1h-.1c0-.1 0 0-.1 0h-.1c0-.1.1 0 .1-.1h-.1s.1-.1 0-.1-.1.1-.2.1 0 .1-.1 0c.1 0-.1-.1-.1-.1s-.1.1-.1 0l.1-.1c-.2 0-.1 0 0 0-.1-.1-.1 0-.1-.2h-.2s0-.1.1-.1h-.1c.1 0 0 0 0 0s.1 0 .2-.1c0 0-.2.1-.2 0 .1-.2.1 0 .3 0-.1 0-.2 0-.2-.1-.1 0 0 .1 0 .1s-.2 0-.1.1v-.3h-.2 0c.1-.1.3-.1.4-.2-.1 0-.4.1-.4.2-.1 0 .2 0 0-.1h.1s-.1 0-.2-.1c.1 0 .2-.1.3 0-.1-.1-.2 0-.3 0 .1-.1.2-.1.3-.1v-.1s-.2.1-.3.1c0 0 .2-.1.1-.1h-.1.2l-.1-.1H5s.2-.1.3-.1c0 0 0-.1 0 0 0 0 .1-.2.1-.1h-.1s.1-.1.1-.2h-.3l.2.1-.1.1h-.1.1c0-.2-.8.7-.8.8.1 0 .1 0 .1.1h-.1c.1 0 .2 0 .3.1 0 .1-.1 0-.1 0s0 .1.1.1c-.9.1.6 0-.1 0v.1c-.1 0-.5-.3-.4-.2-.1.2 0 .3.2.4l.1.2-.1-.1c0 .1 0 .1.1.2 0 .1-.1-.2 0 .1-.1 0-.2-.1-.3-.2 0 .1 0 .1-.1 0-.1 0 .1 0 .2.2-.3-.1-.4-.3-.6 0 .4.2 0 .3.2.5h.4c0-.1.1-.2.1-.3 0 .1.4.6.3.6 0 .1.2 0 .1.2h.4c-.1.1-.3 0-.3.2.3-.2.3-.1.5.1-.6.4-1.3.2-1.6.8.1-.1.6-.5.7-.3 0 .1-.2.1-.2.1 0 .1 0 .1.1 0 0 0 0 .2.1.2h.1c.1 0 .1 0 .2.1-.1.1-.3.1-.3.2 0 0 0 .1-.1.1s-.2-.1-.1-.1c.1-.1.1-.1.2 0 .2-.1-.1.1 0-.1l-.3.1s-.2.1-.2 0c-.1 0-.1 0-.1.1-.1.1 0 .1 0 .2h-.1s-.3.2-.3.1c0 .1-.1.2-.1.3 0 0-.1-.1 0-.1 0 0 0 .3-.1.3s.1-.1 0-.1v-.1c0-.1 0 0 0 0v.1c.1-.1-.1.1-.1 0 .2.1.1 0 .1.1-.1-.1 0 0 0 0 .1 0-.1 0 0 0 0 .1.1 0 .1.1h-.1s.1 0 .1.1h-.1c-.1 0 0 0 0 0 0-.1 0 .1 0 0-.1.1-.4.2-.5.4-.1.3.2.5.1.7-.1 0-.1-.1-.2-.2 0-.1-.1-.2-.2-.3v.8c.1-.1.2 0 .3 0 .2.1.5.1.6.2H3c0-.1-.4-.3-.4-.3-.4-.1-.1.8-.1 1.1 0 .2 0 .5.3.3.1-.1.4.1.3.2-.1.1.1-.1.1 0 0 0-.2.2-.1.3-.1 0 .2-.3.2-.3h-.1c-.1.2 1 .2.8.2.1 0 .1.1.2.1l-.1.1c.2 0 .3 0 .3.2l.2.1c.4 0 1 .4.5.8.1 0 .3 0 .3.1.1 0 .3-.3.4-.1l.1.1c.6-.4 1.3.5.6 1-.1 0-.1.6-.2.8-.1.1-.6.5-.8.5.1.2-.1.5-.3.7 0-.1.1-.1.1-.2h-.1c-.1.4 1 1 1.3 1.3.8.6 1.8 1 2.8 1.2 1.9.5 3.9.3 5.7-.5 1.7-.7 3.1-1.9 4.1-3.4.5-.8 1.7-2.7 1.2-3.6-.1-.1-.2-.2-.1-.4 0-.2 0-.6-.2-.7 0 0-.1.2-.2.2h-.1v-.3c0-.1 0-.1-.1-.1-.1-.1-.2-.2-.2-.3v.1c0-.1 0 0-.1 0h-.1c-.2-.1-.4.4-.7.5-.2.2-.2.9-.5.9-.3-.3-.6-1.2-.5-1.5-.1 0-.3.4-.4 0 0 0 .2 0 .1-.1-.3.1-.4-.3-.7-.2H16c-.2-.2-.7 0-.8-.4 0-.1-.2-.1-.2-.2-.1 0-.1.1-.1.1 0 .1.2.4.3.5v-.2c.1 0 0 .4.1.2.2.1.3-.1.4-.2 0 .2.1.2.2.3.2.3-.1.3-.2.5-.1.1-1.3.7-1.3.6 0-.2 0-.4-.2-.5-.3-.3-.4-.7-.7-1.1-.1-.2.1-.9.1-1-.5.3-.7-.1-1-.2l.1-.1v-.1c-.2-.1 0-.1.1-.1h.1c0-.1-.2 0 .1 0h-.1c.3 0 .5-.1.8 0 .8.1.1-.3 0-.5.1 0 .1-.1.2-.2 0-.1-.5.1-.6.1 0 0 .2.1.3.1l-.3.1c0-.1 0-.1-.1-.1 0 0 0-.1.1-.1 0-.1-.1 0-.2-.1-.3 0-.3.3-.5.5 0 0 .2.1.2.2l-.3.1c0-.1-.1-.1-.3-.1 0 0 0 .1.1.1h-.1s-.1 0-.1-.1v.2l.1.1c-.1.1 0 0-.1 0 0 0 .1.1 0 .1.1.2 0 .1 0 .1-.2-.2 0-.1.1-.2-.1 0-.2 0-.2-.1-.1-.1-.2-.1-.2-.2.1-.2-.4-.3-.4-.4 0-.1 0-.1-.1-.1-.1-.1-.1-.1 0-.1-.1-.1-.3.1-.1.2.1 0 .5.5.5.5-.2-.1-.1 0-.2.2 0 0 0-.1.1-.1-.1-.1-.2-.2-.2-.3-.2-.1-.3-.3-.5-.4-.1-.1-.4.1-.5.1 0 0-.6.5-.4.5 0 .4-.4.5-.4.5-.1 0-.3-.1-.4-.1v-.2c0-.1 0 .1 0 0s0-.6.1-.6c.3-.1.5.2.7-.2 0 0-.2-.4-.3-.3v-.1h.3V8c.1 0 .2.1.2 0 0 0 .1-.2.2-.2s.2-.2.3-.2c0 0 0 .1.1.1.1-.1 0 0 0-.1.1-.1.1-.1.2 0 0 0 .1-.1.2-.1-.4-.2-.2-.5 0-.5-.1-.1-.2.5 0 .4h.3c0-.2.6-.2.7-.2 0-.1-.1-.4.1-.4.3.2.2-.1.1-.1 0-.2.4-.2.5-.1 0-.1.1 0 .2-.1l-.2-.1c0 .1-.1.1-.2 0 0-.1-.1.1-.1 0h-.2c-.3 0-.3-.4-.1-.6.5-.2.2-.3 0-.4 0 .2-.3.6-.3.7-.4.2 0 .3 0 .4h-.3c.2.1 0-.1.2 0l-.1.1c-.1 0-.1.1-.1.2 0 .2-.2.4-.4.4.1-.2-.2-.4-.2-.6-.2.1-.4.4-.5.1h.1c-.1 0 0 0 0 0-.1 0 0 0 0 0s-.1-.2 0-.2c-.1-.1-.1-.1 0-.1 0-.1.1 0 .2-.1 0 0 .3-.2.4-.3 0-.1.1-.3.2-.3-.1-.1 0-.1 0-.1 0-.1.1-.1.2-.2v-.1c.1 0 .1 0 .1-.1.1-.2.2-.2.4-.3V5c.1-.1.4-.3.6-.3l-.1.1c.1 0 .3-.2.3-.2-.1.1.5.2 0 .2.2.2.7.2.9.3.1.1.6.2.3.4s-.6-.2-.8-.1c.1.1.3.6.6.5.1 0-.1-.1-.1-.2.1-.1.3 0 .4.1.1-.2-.2-.1.1-.2.2-.1.1 0 .3 0v-.4c.1 0 .2 0 .3.1-.1 0-.1 0-.2.1.2.1.5-.4.8-.4 0 .1-.1.1-.1.1.2.1.4-.2.6-.1-.1 0 0 .1 0 .1 0-.2.1-.3.3-.2.5.2.6.4.4 0 0-.1.1-.2 0-.2 0-.1.2-.2.2-.3 0-.1-.7-.6-.8-.6 0 0-.2.1-.2.2s0 0-.1.1c0 .1-.2.2-.3.1.1 0 .3-.2.2-.2.1 0 .2-.1.3-.2-2.6-1.6-5.8-1.7-8.5-.4M15.5 9s0-.1-.1-.2l-.1-.1h.1c-.1-.1.1-.1.2-.1 0-.4-.7-.1-.7.1l.1.1c0 .2.3.3.3.4-.1.1-.1.1-.1.2 0 0 0 .4.4.3.2 0 .1-.3 0-.3h.1c-.2-.2-.3-.2-.2-.4.1.1.2.1.2.1-.1 0-.1-.1-.1-.1-.1-.1-.1-.1-.1 0m-2.7 0s0-.1 0 0m3-4.8c-.1 0 .1.5.1.5h-.4c0-.2-.1 0-.2-.2 0-.1.3-.3.5-.3m-3-1.3c-.2.1-.3.1-.6.1 0-.1 0-.1.1-.1h-.4l.2-.2c.2.2.3 0 .3.1.1-.1.3-.1.4 0 .1.1 0 .1 0 .1m-.7.1c.1 0 .1 0 .2.1-.4.1-.2.6-.7.3 0 0 .5-.5.2-.1-.1-.1-.2.1-.3 0 0 0 .2-.1.3-.1-.3.1-.5-.1-.6-.2.2-.1.2 0 .3 0h.2c.1-.1-.1-.2.1-.2.1.1.2.1.3.2m-2 4.7h.1c-.1.1-.6.2-.7.2 0-.1.2-.1.3-.1.1-.1 0-.1 0 0 0 0-.2 0-.2-.1 0 0 .2 0 .1-.1.1 0 .1 0 .2-.1v-.1s-.1 0 0-.1h-.1c-.1-.1 0-.1 0-.2 0 0-.1 0-.1.1-.1-.2-.1-.2-.2-.2v-.2c.1 0 .1-.1.2-.1 0 .1-.1.1-.1.1h.2c0 .1-.1.2-.2.2.4.1.8.7.5.7m-.6-.6c0 .1 0 .1 0 0m0 .2c-.2.4-.2.3-.4.3 0 0 .1-.1 0-.1l.1-.1c-.1.1-.1 0-.1-.1H9s.2 0 .2-.1c.1.1.3-.1.3.1m-.4 2.9c.2-.9 1.6-.3 2.1-.7 0 .2 0 .2-.1.3 0 .1.2.1.3.2h.1c.1.1.3.1.4.2.3.1.3-.2.7-.1 0 0 .1 0 .1.1.3.1 1.2-.1.9.4-.1 0-.2-.1-.2-.2 0 0 .6 1.5.7 1.6.1.1.5.3.3.4.1 0 .1 0 .2.1.1 0 .2 0 .3-.1.1 0 .4-.1.4-.1v.2c-.2.7-1 1-1.2 1.6-.1.2.2.5.2.7 0 .4-.2.4-.6.8.2.6-.5 1.1-.9 1.6-.1 0-.7.1-.7 0 0 0-.2-.6-.3-.7-.1-.2-.1-.5-.2-.7-.3-.5.1-.7 0-1.1-.1-.2-.5-1.1-.4-1.1-.1-.4 0-.4-.5-.6-.3-.3-1.6.6-1.9-.3.1 0 0 0 0 0-.1-.1-.2-.3-.3-.3-.2-.2 0-.5 0-.9-.1-.6.4-.9.6-1.3m-.4-4.4c-.1.1-.7.3-.9.1.2-.2 0 0-.1-.1.1 0 .2 0 .2-.1h-.2c0-.1.2-.1.2-.1l.1.1s.1-.2.1-.1l.1.1c.1-.1.1 0 .3-.1 0-.1.4.1.2.2m2.3 7.3s0 .1 0 0m3.5 2.6c.2 0-.1-.5.1-.5.1-.1.2-.1.3-.1 0-.1.2-.1.2-.2.1-.1.2.3.1.4-.1 0-.2.7-.3.9-.1.2-.6-.4-.4-.5m-.9-5.9c-.1 0-.1.1-.2 0 .2-.1.1-.1.2 0m-1 0s-.1 0-.1-.1c0 0 .1 0 .1.1 0-.1.1 0 .2 0h-.2m-.9-.3c-.1 0-.2 0-.3-.1 0-.1.2-.1.3 0-.2.2 0 0 0 .1m-.6-.3c0 .1 0 .1 0 0-.2-.1 0-.3 0 0M11 9c0-.1-.1-.1 0-.2.1 0 .1.2 0 .2M8 4.1h-.3c0-.1.2-.1.3 0-.2 0-.1 0 0 0M7.8 4h-.1s.3-.1.1 0m-.2 0c.2-.1-.1 0 0 0m.2-.4c-.1 0-.1-.1 0 0 0-.1.2 0 0 0m-.1 0c-.2.1.1-.1 0 0m.1.2c-.1 0-.2-.1 0 0 .1-.1 0-.1 0 0m0 .7s.1-.1 0 0c-.1 0-.1.1-.2.1.1-.2.3-.2.2-.1M6.1 6.8s.2-.1 0 0m-.6 2.3L5.4 9c0 .1-.1.1-.2.1.1-.1.1-.1.2-.1h-.1H5s.2-.5.4-.5l-.1.2s.2-.1.1 0c0 0 .2 0 .2.1-.1.1 0 .1 0 .1s0 .1-.1.1c0-.1.2.1 0 .1m0 5.7c-.1 0-.1.1-.2 0-.1-.2.3-.2.2 0m-.1-9.7c.1 0 0 .1 0 0m-.7 4.1c0-.1 0-.1.1-.1s0 0-.1.1c.1 0 .1-.1.2 0h-.2m-.5 3.2s-.1 0 0 0c.1-.1.1 0 0 0m0 1.2c0-.1 0 0 0 0 .1 0 0 0 0 0m-.3-1.3s-.5.1-.5 0 .1 0 .2 0c0-.1-.1-.1-.1-.1.1 0 .4 0 .5.1 0 .1 0 .1-.1 0m-.6-1.9c0 .1 0-.1 0 0m0-.1c0 .1 0 0 0 0m0 0zm-.1 2.1H3c.1-.1.3 0 .2 0m15 .1c0-.2.3.4 0 .3 0 0 0-.1-.1-.1.1 0 .1-.1.1-.2m-7.1-5.6l.1-.1c-.1.1-.2.2-.3.2.1-.1.1-.1.2-.1m.2.2c0 .1 0 0 0 0 .1 0 .1.1 0 .1v-.1M3.9 9.7zm-.6.6zm0 0zm0 0z" fill-rule="evenodd" clip-rule="evenodd" fill="#375667"/><path d="M11.5 1.4h.5c5.3.3 9.6 4.8 9.6 10.1 0 4.1-2.5 7.8-6.3 9.4-1.2.5-2.5.7-3.8.7-2.8 0-5.5-1.1-7.4-3.1C1.2 15.5.5 11 2.2 7.2 4 3.7 7.6 1.4 11.5 1.4m0-1C7.2.4 3.2 2.9 1.4 6.8c-1.9 4.1-1.1 9.1 2 12.4 2.1 2.2 5.1 3.4 8.1 3.4 1.4 0 2.8-.3 4.2-.8 4.1-1.7 6.9-5.8 6.9-10.3C22.6 5.7 17.9.7 12 .4h-.5z" fill="#22B8AF"/></svg>