<svg xmlns="http://www.w3.org/2000/svg" width="23" height="23" viewBox="0 0 23 23"><path d="M11.6 1.8c-2.7 0-5.8.1-8.1 1.6C.9 5.1.4 8.4.6 11.3c.2 2.8 1.5 5.2 4.2 6.3 3 1.2 6.7 1.1 9.9.8l2.7 2.8v-3.3c2-.6 3.6-1.9 4.4-3.8.9-2.3.9-5.3.1-7.7-1.6-4.2-6.5-4.6-10.3-4.6zM13.8 6c0-.1.1-.2.2-.2h1c.1 0 .2.1.2.2v2l-.2 3.6c0 .1-.1.2-.2.2h-.3c-.1 0-.2-.1-.2-.2l-.4-3.5V6zm-4.6 8.7c-1.1 0-1.1-1.8 0-1.8 1.1.1 1.1 1.8 0 1.8zm.6-4.3v1.1c0 .2-.1.3-.3.3h-.6c-.1 0-.2-.1-.2-.2v-1.2c0-1.3 1.6-1.4 1.8-2.5.1-.9-.8-1.3-1.5-1.2-.3.1-1.3.9-1.6.8L7 7.1c-.1-.1 0-.3 0-.4 1-1.3 3.4-1.6 4.4-.2.6.8.4 1.8-.2 2.5-.4.4-1.4.8-1.4 1.4zm4.8 4.3c-1.1 0-1.1-1.8 0-1.8 1.1.1 1.1 1.8 0 1.8z" fill="#149996"/><path d="M.6 10.2h8.1c.2-1.1 2.1-1.5 1.8-2.7-.2-.7-1.1-.9-1.7-.7-.3.1-1 .9-1.3.7L7 7.1c-.1-.1 0-.3 0-.4.9-1.2 2.9-1.5 4.1-.5.7.6.9 1.6.4 2.4-.4.7-1.3.9-1.6 1.6h4.2l-.2-2.1V6c0-.1.1-.2.2-.2h1c.1 0 .2.1.2.2v2l-.2 2.1h7.3c0-2.7-.7-5.5-3.2-6.9-2.3-1.4-5.1-1.4-7.7-1.4-2.5 0-5.4.1-7.7 1.5C1.3 4.7.6 7.5.6 10.2z" fill="#22B8AF"/></svg>