<svg xmlns="http://www.w3.org/2000/svg" width="23" height="23" viewBox="0 0 23 23"><path d="M11.6 3c-3.4 0-7.7.2-9.8 3.2-2.1 3-2 8.5.5 11.2C4.8 20.1 9.2 20 12.6 20c3.3-.1 7.4-.5 9.1-3.8 1.5-3 1.4-7.9-.9-10.5C18.5 3.1 14.7 3 11.6 3zM13 15.9c0 .1-.1.2-.2.2h-1.2c-.1 0-.2-.1-.2-.2v-3.6H7.2v3.6c0 .1-.1.2-.2.2H5.7c-.1 0-.2-.1-.2-.2V7.3c0-.1.1-.2.2-.2h1.2c.1 0 .2.1.2.2v3.4h4.2V7.3c0-.1.1-.2.2-.2h1.2c.1 0 .2.1.2.2v8.6zm4.5 0c0 .1-.1.2-.2.2h-1.2c-.1 0-.2-.1-.2-.2V7.3c0-.1.1-.2.2-.2h1.2c.1 0 .2.1.2.2v8.6z" fill="#22B8AF"/><path d="M11.6 20c6.1 0 11-1 11-8.5h-5.1v4.4c0 .1-.1.2-.2.2h-1.2c-.1 0-.2-.1-.2-.2v-4.4H13v4.4c0 .1-.1.2-.2.2h-1.2c-.1 0-.2-.1-.2-.2v-3.6H7.2v3.6c0 .1-.1.2-.2.2H5.7c-.1 0-.2-.1-.2-.2v-4.4H.4c0 7.4 5 8.5 11.2 8.5z" fill="#149996"/></svg>