<svg xmlns="http://www.w3.org/2000/svg" width="23" height="23" viewBox="0 0 23 23"><path d="M17.5 11.5c0 3.5-3.1 6.3-6.6 6-3.5-.3-6.1-3.7-5.4-7.2h-4v8c0 1.7 1.4 3.1 3.1 3.1h13.7c1.7 0 3.1-1.4 3.1-3.1v-8h-4.1c.2.4.2.8.2 1.2z" fill="#22B8AF"/><path d="M18.4 1.5H4.6c-1.7 0-3.1 1.4-3.1 3.1V8h5.1c2.4-3.4 7.5-3.4 9.9 0h5.1V4.6c-.1-1.7-1.5-3.1-3.2-3.1zm1.5 3.9c0 .3-.3.6-.6.6h-1.7c-.3 0-.6-.3-.6-.6V3.7c0-.3.3-.6.6-.6h1.7c.3 0 .6.2.6.6v1.7z" fill="#375667"/><path d="M15.2 11.5c0-2-1.7-3.7-3.7-3.7s-3.7 1.7-3.7 3.7 1.7 3.7 3.7 3.7 3.7-1.7 3.7-3.7z" fill="#375667"/></svg>