<svg xmlns="http://www.w3.org/2000/svg" width="23" height="23" viewBox="0 0 23 23"><path d="M19.3 8.2c-1.8 1.8-3.7 4.6-6.6 3.8l2.4-2.4c.9-.9 1.8-1.8 2.6-2.7 1.9-1.9-.8-4.8-2.6-2.9l-1.4 1.4c-.2.2-1.4 1.1-1.4 1.4L9.9 9.2c-.4-1.3 0-2.8 1-3.8 1.3-1.3 2.7-3.3 4.5-3.8 3.9-1.1 6.7 3.8 3.9 6.6" fill-rule="evenodd" clip-rule="evenodd" fill="#22B8AF"/><path d="M7.9 15.6c-.9.9-2.4-.6-1.4-1.5l4.1-4.1 2.3-2.3.5-.5c1-.6 2 .7 1.2 1.6-2.2 2.4-4.5 4.5-6.7 6.8z" fill-rule="evenodd" clip-rule="evenodd" fill="#375667"/><path d="M5.8 13.4c-.9.9-1.8 1.8-2.6 2.7C1.3 18 4 20.9 5.8 19c.9-.9 2-1.8 2.8-2.9l2.4-2.4c.4 1.3 0 2.8-1 3.8-1.3 1.3-2.7 3.3-4.5 3.8-3.8 1.1-6.7-3.8-3.9-6.6C3.4 13 5.4 10.2 8.2 11l-2.4 2.4" fill-rule="evenodd" clip-rule="evenodd" fill="#22B8AF"/></svg>