<svg xmlns="http://www.w3.org/2000/svg" width="23" height="23" viewBox="0 0 23 23"><path d="M21.8 15.5c.4 0 .8-.4.8-.8v-1.3c0-.4-.4-.8-.8-.8H7.4c-.4 0-.8.3-.8.8v1.3c0 .4.4.8.8.8h14.4z" fill="#375667"/><path d="M21.8 20.6c.4 0 .8-.4.8-.8v-1.3c0-.4-.4-.8-.8-.8H7.4c-.4 0-.8.3-.8.8v1.3c0 .4.4.8.8.8h14.4z" fill="#22B8AF"/><path d="M21.8 5.3c.4 0 .8-.3.8-.8V3.2c0-.4-.4-.8-.8-.8H7.4c-.4 0-.8.4-.8.8v1.3c0 .5.4.8.8.8h14.4z" fill="#375667"/><path d="M21.8 10.4c.4 0 .8-.3.8-.8V8.3c0-.4-.4-.8-.8-.8H7.4c-.4 0-.8.4-.8.8v1.3c0 .4.4.8.8.8h14.4z" fill="#22B8AF"/><path d="M3.8 15.5c.4 0 .8-.4.8-.8v-1.3c0-.4-.4-.8-.8-.8h-3c-.4 0-.8.3-.8.8v1.3c0 .4.4.8.8.8h3z" fill="#375667"/><path d="M3.8 20.6c.4 0 .8-.4.8-.8v-1.3c0-.4-.4-.8-.8-.8h-3c-.4 0-.8.3-.8.8v1.3c0 .4.4.8.8.8h3z" fill="#22B8AF"/><path d="M3.8 5.3c.4 0 .8-.3.8-.8V3.2c0-.4-.4-.8-.8-.8h-3c-.4 0-.8.4-.8.8v1.3c0 .5.4.8.8.8h3z" fill="#375667"/><path d="M3.8 10.4c.4 0 .8-.3.8-.8V8.3c0-.4-.4-.8-.8-.8h-3c-.4 0-.8.4-.8.8v1.3c0 .4.4.8.8.8h3z" fill="#22B8AF"/></svg>