<svg xmlns="http://www.w3.org/2000/svg" width="23" height="23" viewBox="0 0 23 23"><path d="M11.5.5C7 .5 2.9 3.3 1.2 7.5c-1.6 4.2-.4 9.2 3 12.2s8.5 3.6 12.5 1.5 6.3-6.6 5.7-11.1C21.8 4.7 17 .5 11.5.5zM8.1 10.9h.1c-.7-3.6 2.1-4.6 2.1-4.6.4-.1.8-.2 1.2-.1.4 0 .8 0 1.2.1 0 0 2.8 1 2.1 4.6.7-.2.2 1.9-.5 1.9 0 0-.1.9-.9 1.9-1.2 1.2-2.7 1.3-3.9 0-.9-1-.9-2-.9-2-.6 0-1.1-1.8-.5-1.8zm7 8.9l-2.1.6c-2.7.5-5.5-.4-7.5-2.2 1.1-1 4.1-.5 4.1-2.3 1.2.9 2.6.9 3.8 0 0 1.8 3.1 1.3 4.1 2.3-.7.6-1.5 1.2-2.4 1.6 0 0 .9-.4 0 0z" fill-rule="evenodd" clip-rule="evenodd" fill="#375667"/><path d="M11.5 2.5c5 0 9 4 9 9s-4 9-9 9-9-4-9-9 4-9 9-9m0-2C5.4.5.5 5.4.5 11.5s4.9 11 11 11 11-4.9 11-11-4.9-11-11-11z" fill="#22B8AF"/></svg>