<svg xmlns="http://www.w3.org/2000/svg" width="23" height="23" viewBox="0 0 23 23"><path d="M13.5 10c-.9-.4-4.2-.9-4.2-2.3 0-1.1 1.2-1.4 2-1.4.7 0 1.5.2 1.9.6.3.3.4.5.5.7.1.3.2.6.6.6h2.2c.5 0 .7-.1.7-.7 0-2.4-1.9-3.8-4.1-4.3V1.5c0-.4-.1-.7-.7-.7h-1.8c-.5 0-.6.2-.6.7v1.8c-2.4.4-4.3 1.9-4.3 4.6 0 3 2.1 4 4.4 4.7 1.9.6 3.9.7 3.9 2s-1 1.6-2.2 1.6c-.8 0-1.8-.2-2.2-.8-.3-.4-.4-.7-.4-1 0-.6-.3-.7-.8-.7H6.1c-.5 0-.7.1-.7.7 0 2.7 2.2 4.3 4.5 4.9v1.8c0 .4.1.7.7.7h1.8c.5 0 .7-.3.7-.7v-1.8c2.7-.4 4.5-2 4.5-4.9-.1-3.2-2.5-3.8-4.1-4.4z" fill="#375667"/></svg>