<svg xmlns="http://www.w3.org/2000/svg" width="23" height="23" viewBox="0 0 23 23"><path d="M11.5 2.5c5 0 9 4 9 9s-4 9-9 9-9-4-9-9 4-9 9-9m0-1.5C5.7 1 1 5.7 1 11.5S5.7 22 11.5 22 22 17.3 22 11.5 17.3 1 11.5 1z" fill="#22B8AF"/><path d="M12.4 11c-.4-.2-1.8-.4-1.8-1 0-.5.5-.6.9-.6.3 0 .6.1.8.3.1.1.2.2.2.3 0 .1.1.3.3.3h1c.2 0 .3 0 .3-.3 0-1.1-.8-1.7-1.8-1.9v-.9c0-.2-.1-.3-.3-.3h-.8c-.2 0-.3.1-.3.3V8c-1.1.2-1.9.8-1.9 2 0 1.3.9 1.7 1.9 2.1.8.3 1.7.3 1.7.9 0 .6-.4.7-1 .7-.4 0-.8-.1-1-.3-.1-.2-.2-.3-.2-.4 0-.3-.1-.3-.4-.3H9c-.2 0-.3.1-.3.3 0 1.2.9 1.9 2 2.1v.8c0 .2.1.3.3.3h.8c.2 0 .3-.1.3-.3V15c1.2-.2 2-.9 2-2.1 0-1.4-1-1.7-1.7-1.9z" fill="#375667"/></svg>