<svg xmlns="http://www.w3.org/2000/svg" width="22.6" height="22.6" viewBox="0 0 22.6 22.6"><path d="M15.7 2.2l1.1.6V3c0 .1-.1.1-.1.2l-.7-.4-.2.3.5.3c0 .1-.1.2-.1.2 0 .1-.1.1-.1.2l-.5-.3-.3.5.7.3c0 .1-.1.2-.1.2 0 .1-.1.1-.1.2l-1.1-.6 1-1.9zM6.2 2.6s.1 0 .1-.1c0 0 .1 0 .1-.1h.1l.9.8V2s.1 0 .1-.1c0 0 .1 0 .1-.1h.2l1 1.9s-.1 0-.1.1c0 0-.1 0-.1.1 0 0-.1 0-.2.1l-.6-1.2.1.9s-.1 0-.1.1h-.1-.1-.1l-.6-.5.5 1.2c-.1 0-.1 0-.2.1-.1 0-.1 0-.2.1l-.9-2c0-.1.1-.1.1-.1zM11.3 4.5c3.8 0 6.8 3.1 6.8 6.8 0 3.8-3.1 6.8-6.8 6.8S4.5 15 4.5 11.3c0-3.7 3.1-6.8 6.8-6.8m0-.5C7.3 4 4 7.3 4 11.3s3.3 7.3 7.3 7.3 7.3-3.3 7.3-7.3S15.3 4 11.3 4z"/><path d="M11.3.5c6 0 10.8 4.9 10.8 10.8 0 6-4.9 10.8-10.8 10.8-6 0-10.8-4.9-10.8-10.8C.5 5.3 5.3.5 11.3.5m0-.5C5.1 0 0 5.1 0 11.3c0 6.2 5.1 11.3 11.3 11.3 6.2 0 11.3-5.1 11.3-11.3 0-6.2-5-11.3-11.3-11.3z"/><path d="M15.1 7c-.4-.3-.8-.1-.8-.1-.2.1-.5.3-.7.5l-2.1 2.4c-.2.2-.4.2-.6 0l-2-2.4c-.1-.2-.4-.4-.6-.5 0 0-.5-.2-.8.1-.4.3-.2.7-.2.7 0 .3.2.6.4.8l2.5 2.9c.2.2.3.5.3.7v3.8c0 .2.1.6.2.8 0 0 .2.5.7.5.5 0 .7-.5.7-.5.1-.2.2-.6.2-.8v-3.8c0-.2.1-.6.3-.7l2.5-2.9c.2-.2.3-.5.4-.7-.2-.1 0-.5-.4-.8z"/><path d="M7.2 14.8c0 .1-.2.1-.4 0 0 0-.2-.1-.4-.4-.6-.9-.9-2-.9-3.1 0-.8.1-1.5.4-2.2.1-.2.4-.7.6-.7.2 0 .4.5.5.7l1.4 3.7c.1.2.1.2.1 0v-.4c0-.5-.1-1 .2-1 .3 0 .9.7.9 1v3.7c0 .3-.2.5-.4.5h-.1c-.2 0-.4-.1-.5-.4l-2-5.1s-.1-.2-.2-.1c-.2.1-.1.5-.1.6 0 .2.1.5.1.7.1.5.3 1 .5 1.5.1.4.1.5.1.5.1.2.2.4.2.5zM17.1 10.9c0-.5-.2-1.1-.2-1.1-.1-.2-.1-.4-.1-.4 0-.1 0-.1-.1-.2v-.1l-.2-.4s-.1-.2-.3-.2c-.2 0-.2.1-.2.1-.1.2-.4.5-.5.7l-2.1 2.5c-.2.2-.3.4-.3.4 0 .1-.1.4-.1.7v2.9c0 .2 0 .6.1.8l.2.1c.1.1.2.1.3.1h.2c.7-.3 1.4-.8 1.9-1.4.2-.2.2-.5 0-.7-.2-.2-.4-.1-.6.1-.2.3-.6.5-.6.5-.3 0-.5-.3-.5-.6V13c0-.2.1-.6.3-.7l1.3-1.6c.2-.2.4-.3.4.1l.1.2c.1.3.2.7.5.5.2-.2.5-.4.5-.6z"/><g><path d="M10.4 7.5h-.2V5.9h.4v1.6h-.2zM11.1 5.9c.1 0 .1-.1 0 0h.4l.5.8v-.8h.4v1.6h-.1-.1-.1-.1l-.5-.9v.9h-.4V5.9z"/></g><path d="M10.5 1.2h-.2-.1-.1-.1l-.5 2.4h.5l.1-.4h.5c.1 0 .1 0 .2-.1l.2.4h.2c.1 0 .2 0 .3-.1l-1-2.2zm0 1.5h-.1-.1-.1l.1-.8.3.8c-.1-.1-.1-.1-.1 0zM14 1.8c-.2-.2-.4-.4-.8-.5H12.6h-.1L12 3.5c.1 0 .2.1.3.1.1 0 .2.1.3.1.4.1.7.1.9-.1.2-.1.4-.4.5-.8.2-.4.1-.8 0-1zm-.5.8c0 .1-.1.2-.1.3 0 .1-.1.1-.2.2-.1 0-.1.1-.2.1h-.2-.1l.3-1.4h.1c.1 0 .1 0 .2.1.1 0 .1.1.2.1 0 .1.1.1.1.2 0 .2 0 .3-.1.4z"/></svg>