<svg xmlns="http://www.w3.org/2000/svg" width="23" height="23" viewBox="195.5 385.5 23 23"><path d="M199.6 392.7l6.8 3.3c.2.1.4.1.6.1.2 0 .5 0 .6-.1l6.8-3.3c.4-.2.4-.5 0-.6l-6.8-3.3c-.2-.1-.4-.1-.6-.1-.2 0-.5 0-.6.1l-6.8 3.3c-.4.1-.4.4 0 .6z"/><path d="M214.4 396l-1.4-.7c-.2-.1-.2-.1-.4 0s-5 2.4-5 2.4c-.2.1-.4.1-.6.1s-.5 0-.6-.1c0 0-4.7-2.3-4.9-2.4-.2-.1-.3-.1-.5 0s-1.3.6-1.3.6c-.4.2-.4.5 0 .6l6.8 3.3c.2.1.4.1.6.1.2 0 .5 0 .6-.1l6.8-3.3c.3-.1.3-.3-.1-.5z"/><path d="M214.4 400l-1.4-.7c-.2-.1-.2-.1-.4 0s-5 2.4-5 2.4c-.2.1-.4.1-.6.1-.2 0-.5 0-.6-.1 0 0-4.7-2.3-4.9-2.4-.2-.1-.3-.1-.5 0s-1.3.6-1.3.6c-.4.2-.4.5 0 .6l6.8 3.3c.2.1.4.1.6.1s.5 0 .6-.1l6.8-3.3c.3-.1.3-.4-.1-.5z"/></svg>