<svg xmlns="http://www.w3.org/2000/svg" width="23" height="23" viewBox="0 0 23 23"><g fill="#385767"><path d="M11.5 22.5c-6.1 0-11-4.9-11-11s4.9-11 11-11 11 4.9 11 11-4.9 11-11 11zm0-20.5C6.3 2 2 6.3 2 11.5S6.2 21 11.5 21s9.5-4.2 9.5-9.5C21 6.3 16.7 2 11.5 2z"/><path d="M11.5 22.7C5.3 22.7.3 17.7.3 11.5.3 5.3 5.3.2 11.5.2s11.2 5 11.2 11.3c.1 6.2-5 11.2-11.2 11.2zm0-21.9C5.6.8.8 5.6.8 11.5s4.8 10.7 10.7 10.7 10.7-4.8 10.7-10.7S17.4.8 11.5.8zm0 20.4c-5.4 0-9.7-4.4-9.7-9.7 0-5.4 4.4-9.7 9.7-9.7s9.7 4.4 9.7 9.7c0 5.4-4.3 9.7-9.7 9.7zm0-18.9c-5.1 0-9.2 4.1-9.2 9.2s4.1 9.2 9.2 9.2 9.2-4.1 9.2-9.2-4.1-9.2-9.2-9.2z"/></g><path d="M14.6 8.6c-1.1-.5-2.6 0-3.1 1.1-.5-1.1-2-1.6-3.1-1.1-1.2.5-1.7 1.9-.8 3.6.7 1.2 1.8 2.1 3.9 3.6 2-1.6 3.2-2.5 3.9-3.6.9-1.6.4-3-.8-3.6z" fill="#22B6AE"/></svg>