<svg xmlns="http://www.w3.org/2000/svg" width="23" height="23" viewBox="0 0 23 23"><g fill="#375667"><path d="M11.5 1.5v10M11.5 13c-.8 0-1.5-.7-1.5-1.5v-10c0-.9.7-1.5 1.5-1.5S13 .6 13 1.5v10c0 .8-.7 1.5-1.5 1.5z"/></g><path d="M11.5 22.7c-5.6 0-10.2-4.6-10.2-10.2 0-3 1.3-5.8 3.6-7.8.6-.5 1.6-.4 2.1.2.5.6.5 1.6-.2 2.1-1.6 1.4-2.5 3.4-2.5 5.5 0 4 3.2 7.2 7.2 7.2s7.2-3.2 7.2-7.2c0-2.1-.9-4.1-2.5-5.5-.6-.5-.7-1.5-.2-2.1.5-.6 1.5-.7 2.1-.2 2.3 1.9 3.6 4.8 3.6 7.8 0 5.6-4.6 10.2-10.2 10.2z" fill="#22B8AF"/></svg>