<svg xmlns="http://www.w3.org/2000/svg" width="23" height="23" viewBox="0 0 23 23"><g fill-rule="evenodd" clip-rule="evenodd"><path d="M20.6 6.2H2.4c-.5 0-.9.4-.9.9v8.8c0 .5.4.9.9.9h3.1v-4.6h11.9V16.8h3.1c.5 0 .9-.4.9-.9V7.1c.1-.5-.3-.9-.8-.9zM4.3 9.9C3.1 9.9 3.1 8 4.3 8s1.2 1.9 0 1.9zM16.5 5.2h-10v-.9c0-.8-.4-2.8.9-2.8h4.2c1.3 0 2.9-.2 4.2 0 .4.1.7.5.7.9v2.8z" fill="#375667"/><path d="M6.5 13.1V20.6c0 .5.4.9.9.9h8.1c.5 0 .9-.4.9-.9v-7.5H6.5zm8.1 6.5H8.4v-.9h6.2v.9zm0-1.8H8.4v-.9h6.2v.9zm0-1.9H8.4V15h6.2v.9z" fill="#22B8AF"/></g></svg>