<svg xmlns="http://www.w3.org/2000/svg" width="23" height="23" viewBox="0 0 23 23"><path d="M11.5.4C7 .4 2.8 3.3 1.2 7.5c-1.7 4.3-.4 9.3 3 12.3s8.5 3.7 12.6 1.5c4-2.1 6.4-6.7 5.8-11.2C21.8 4.6 17 .4 11.5.4zm-.3 16.5c-1.8 0-1.8-2.9 0-2.9 1.9.1 1.9 2.9 0 2.9zm1.2-4.3c0 .2-.1.4-.3.4h-1.6c-.2 0-.4-.4-.4-.6v-.6c0-1.3 1.9-1.5 2.1-2.6.2-.9-1-1.2-1.6-1-.3.1-.9.8-1.2.5l-.9-.9c-.1-.1-.1-.3 0-.4 1.4-1.6 4.3-1.9 5.7-.1.7.9.6 2.2-.1 3-.7.7-1.7 1.2-1.7 2.3z" fill-rule="evenodd" clip-rule="evenodd" fill="#375667"/><path d="M11.5 2.4c4.5 0 8.5 3.5 9 8 .5 3.7-1.4 7.4-4.7 9.2-1.3.7-2.7 1-4.2 1-2.3 0-4.4-.8-6.1-2.3C2.7 15.8 1.7 11.7 3 8.2c1.4-3.5 4.8-5.8 8.5-5.8m0-2C7 .4 2.8 3.3 1.2 7.5c-1.7 4.3-.4 9.3 3 12.3 2.1 1.8 4.7 2.8 7.4 2.8 1.8 0 3.6-.4 5.2-1.3 4-2.1 6.4-6.7 5.8-11.2C21.8 4.6 17 .4 11.5.4z" fill="#22B8AF"/></svg>