<svg xmlns="http://www.w3.org/2000/svg" width="23" height="23" viewBox="0 0 23 23"><g fill-rule="evenodd" clip-rule="evenodd"><path d="M13.2.2c-.6-.5-1.6 0-1.5.8 0 .2.2.4.3.5l.9.7c-3.7-.4-7.5 1.4-9.3 4.6-1.8 3.1-1.6 7.1.5 10L6 14.9C3 10 7.5 3.7 13.1 5.1l-.8.8c-.2.2-.3.4-.3.6 0 .8 1 1.2 1.6.6L15 5.9l1.6-1.6c.4-.4.4-1-.1-1.4L13.2.2z" fill="#22B8AF"/><path d="M17.1 8.1c3 4.9-1.6 11.1-7.1 9.8l.8-.8c.1-.1.2-.3.3-.6 0-.8-1-1.2-1.6-.6l-1.3 1.3-1.6 1.6c-.4.4-.4 1 .1 1.4l3.3 2.7c.6.5 1.6 0 1.5-.8 0-.2-.2-.4-.3-.5l-.9-.8c3.7.6 7.5-1.2 9.4-4.4 1.8-3.1 1.6-7.1-.5-10l-2.1 1.7z" fill="#375667"/></g></svg>