<svg xmlns="http://www.w3.org/2000/svg" width="23" height="23" viewBox="0 0 23 23"><g fill="#430098"><path d="M9.1 11.4c-.4 0-.7.5-.7 1.2s.3 1.2.7 1.2c.4 0 .7-.5.7-1.2s-.3-1.2-.7-1.2z"/><path d="M.4 4.3v12.3h22.2V4.3H.4zm5.4 10.4l-1.3-1.8h-.4v1.8H2.6V9.3h2.1c1.2 0 2.2.8 2.2 1.8 0 .6-.4 1.2-.9 1.5l1.5 2.1H5.8zm3.3.1c-1.2 0-2.2-1-2.2-2.2 0-1.2 1-2.2 2.2-2.2 1.2 0 2.2 1 2.2 2.2 0 1.2-1 2.2-2.2 2.2zm11.3-.1h-.3l-.7-.6c-.3.3-.8.7-1.4.7-1.3 0-1.8-.8-1.8-1.6v-2.5l-1.8 1.8 2.2 2.2h-1.8L13 13v1.7h-1.4v-4.3H13v1.7l1.7-1.7h3V12.7c0 .7.2.9.5.9.4 0 .6-.2.7-.5v-2.7h1.4v4.3z"/><path d="M4.5 10.2h-.4V12h.4c.5 0 .9-.4.9-.9s-.4-.9-.9-.9z"/></g></svg>