<svg xmlns="http://www.w3.org/2000/svg" width="23" height="23" viewBox="0 0 23 23"><path d="M21.8 19.5L17.4 15c-.6.9-1.5 1.7-2.4 2.4l4.5 4.4c1.4 1.6 3.8-.8 2.3-2.3z" fill="#375667"/><path d="M15 17.4c4.4-3 5.2-9.4 1.8-13.4C13.8.5 8.6-.3 4.7 2.3.9 4.7-.4 9.9 1.7 14c2.2 4.4 7.7 6.2 12.1 4.1.4-.2.8-.5 1.2-.7zm-5.2-1.7C6.7 15.7 4 13 4 9.8 4 6.7 6.7 4 9.8 4c3.2 0 5.8 2.7 5.8 5.8.1 3.2-2.6 5.9-5.8 5.9z" fill="#22B8AF"/><path d="M9.8 2.2c4.2 0 7.7 3.4 7.7 7.7 0 1.5-.5 3.1-1.4 4.3-.5.7-1 1.3-1.7 1.8l-.3.2c-1.2.9-2.8 1.3-4.3 1.3-4.2 0-7.7-3.4-7.7-7.7.1-4.2 3.5-7.6 7.7-7.6m0-1.5C4.7.7.6 4.8.6 9.9s4.1 9.2 9.2 9.2c1.8 0 3.7-.6 5.2-1.6.9-.6 1.7-1.4 2.3-2.4 1.1-1.5 1.6-3.3 1.6-5.2.1-5.1-4-9.2-9.1-9.2z" fill="#375667"/></svg>