<svg xmlns="http://www.w3.org/2000/svg" width="23" height="23" viewBox="0 0 23 23"><g fill-rule="evenodd" clip-rule="evenodd"><path d="M20.2 11.8c-.9 0-3.1.4-3.1-1V8.1c0-.9-.3-2.5 1-2.5.9 0 3.1-.4 3.1 1v2.7c0 .8.3 2.5-1 2.5" fill="#22B8AF"/><path d="M18.1 1.4c0-1.3 2.1-1.3 2.1 0v3.1c-.5 0-2.1.3-2.1-.2V1.4z" fill="#375667"/><path d="M12.5 17.4c-.9 0-3.1.4-3.1-1v-2.7c0-.9-.3-2.5 1-2.5.9 0 3.1-.4 3.1 1v2.7c.1.8.4 2.5-1 2.5" fill="#22B8AF"/><path d="M10.5 1.4c0-1.3 2.1-1.3 2.1 0v8.7c-.3 0-2.1.1-2.1-.1V7.3 1.4z" fill="#375667"/><path d="M4.9 14.6c-.9 0-3.1.4-3.1-1v-2.7c0-.9-.3-2.5 1-2.5.9 0 3.1-.4 3.1 1v2.7c0 .8.3 2.5-1 2.5" fill="#22B8AF"/><path d="M2.8 1.4c0-1.3 2.1-1.3 2.1 0v5.9H2.8c-.1 0 0-1.3 0-1.4V1.4zM4.9 21.6c0 1.3-2.1 1.3-2.1 0v-5.9h2.1c.1 0 0 1.3 0 1.4v4.5zM12.5 21.6c0 1.3-2.1 1.3-2.1 0v-3.1c.5 0 2.1-.3 2.1.2v2.9zM20.2 21.6c0 1.3-2.1 1.3-2.1 0v-8.7c.3 0 2.1-.1 2.1.1V21.6z" fill="#375667"/></g></svg>