<svg xmlns="http://www.w3.org/2000/svg" width="23" height="23" viewBox="0 0 23 23"><path d="M16.7 22.1c-.5 0-1-.1-1.4-.4l-3.8-2.8-3.8 2.8c-.4.3-1 .5-1.5.5s-1-.1-1.4-.4c-1-.6-1.3-1.9-.9-2.9l1.5-4.4-3.8-2.7C.8 11.1.4 10 .7 9 .9 7.9 1.9 7.1 3 7.1h4.7l1.4-4.5c.3-1 1.3-1.7 2.3-1.7 1.1 0 2.1.7 2.4 1.8l1.4 4.4h4.7c1.1 0 2.1.7 2.4 1.8.3 1.1-.1 2.2-.9 2.8l-3.7 2.7 1.5 4.4c.3 1.1-.1 2.2-.9 2.8-.5.3-1 .5-1.6.5zm-5.2-5.7l5 3.7c.1 0 .1.1.3.1.1 0 .2 0 .4-.1s.2-.4.2-.6l-2-5.8 5-3.6c.2-.1.2-.3.1-.6 0-.2-.3-.3-.4-.3H14l-1.9-5.8c-.1-.2-.2-.4-.4-.4s-.4.2-.4.3L9.2 9.1H3c-.3 0-.3.1-.3.3l-.1.2c-.1.2 0 .3.2.4l5 3.6-2 5.8c-.1.2 0 .4.1.5.1.1.2.1.3.1.1 0 .2 0 .3-.1l5-3.5z" fill="#22B8AF"/></svg>