<svg xmlns="http://www.w3.org/2000/svg" width="23" height="23" viewBox="0 0 23 23"><path d="M22.2 11.8v-.1c-.1-.3-.2-.5-.4-.7L11.6 1.1c-.2-.2-.6-.4-1-.4H2.1C1.4.7.8 1.3.8 2v8.5c0 .4.2.7.5 1l11.2 10.3c.2.2.4.3.6.3h.1c.4.1.9-.1 1.2-.5l3.4-4 4.2-4.9c.2-.2.3-.5.2-.9 0 0 0 .1 0 0zM3.1 5.6C1.3 3.9 4.3 1.3 5.8 3.3 7.1 5 4.6 7.1 3.1 5.6c-.7-.7.7.7 0 0z" fill-rule="evenodd" clip-rule="evenodd" fill="#22B8AF"/><g fill-rule="evenodd" clip-rule="evenodd"><path d="M3.1 3.1c1.6-1.7 4.1.9 2.5 2.5l12.1 12.1 4.2-4.9c.2-.3.3-.6.3-1v-.1c-.1-.3-.2-.5-.4-.7L11.6 1.1c-.2-.2-.6-.4-1-.4H2.1c-.4 0-.7.2-1 .4l2 2z" fill="#149996"/><path d="M17.7 17.7L5.6 5.6C4 7.2 1.4 4.7 3.1 3.1l-2-2c-.2.3-.3.6-.3 1v8.5c0 .4.2.7.5 1l11.2 10.3c.2.2.4.3.6.3h.1c.4.1.9-.1 1.2-.5l3.3-4z" fill="#22B8AF"/></g></svg>