<svg xmlns="http://www.w3.org/2000/svg" width="23" height="23" viewBox="0 0 23 23"><g fill-rule="evenodd" clip-rule="evenodd"><path d="M21.5 11l-.1.1-9.9-9.5h-9C2.5.9 3.1.4 3.7.4h7.8c.3 0 .6.1.9.4 1.2 1.1 2.3 2.2 3.5 3.3.3.3 3.6 3.1 3.5 3.3.7.7 3.2 2.3 2.1 3.6" fill="#22B8AF"/><path d="M21 13.1v-.2c-.1-.2-.2-.5-.3-.6l-9.5-9.1c-.2-.2-.5-.4-.9-.4H2.4c-.7 0-1.2.6-1.2 1.2v7.8c0 .4.2.7.4.9l10.3 9.5c.5.5 1.3.4 1.8-.1l7-8.2c.2-.2.3-.4.3-.8zM4.5 7.8c-2.1 0-2.1-3.3 0-3.3s2.1 3.3 0 3.3z" fill="#375667"/></g></svg>