<svg xmlns="http://www.w3.org/2000/svg" width="23" height="23" viewBox="0 0 23 23"><path d="M21.2 3.9H1.8c-.6 0-1 .5-1 1v13.5c0 .6.5 1 1 1H10v1.5c-.9.1-2 .4-3.3.9-.1 0-.1.1-.1.2v.3c0 .1.1.2.2.2h9.4c.1 0 .2-.1.2-.2V22c0-.1 0-.2-.1-.2-1.3-.5-2.4-.7-3.2-.9v-1.5h8.2c.6 0 1-.5 1-1V4.9c0-.6-.5-1-1.1-1zm-.5 14H2.3V5.4h18.5v12.5z" fill="#385767"/><path fill="#22B6AE" d="M4 6.9h15.2v9.4H4z"/><g fill="#385767"><path d="M14.5 4.9l-2.2-3.2c-.2-.3-.2-.8.2-1.1.3-.2.8-.2 1.1.2L15.7 4c.2.3.2.8-.2 1.1-.3.2-.8.1-1-.2z"/><path d="M16.2 4.9l2.2-3.2c.2-.3.2-.8-.2-1.1-.3-.2-.8-.2-1.1.2L15 4c-.2.3-.2.8.2 1.1.3.2.8.1 1-.2z"/></g></svg>