<svg xmlns="http://www.w3.org/2000/svg" width="23" height="23" viewBox="0 0 23 23"><path d="M21.5 5.3c-.7.3-1.5.5-2.4.6.8-.5 1.5-1.3 1.8-2.3-.8.5-1.7.8-2.6 1-2.8-3-7.9-.2-7 3.7-3.4-.1-6.4-1.7-8.4-4.2C1.8 6 2.4 8.4 4.2 9.6c-.7 0-1.3-.2-1.9-.5 0 1.9 1.4 3.7 3.3 4.1-.6.2-1.2.2-1.9.1.5 1.6 2 2.8 3.8 2.8-1.7 1.3-3.9 2-6.1 1.7 4 2.6 9.5 2.5 13.4-.5 3-2.3 4.8-6.1 4.6-9.9.9-.6 1.5-1.3 2.1-2.1-.7.3-.6.8 0 0z" fill="#22B8AF"/><g fill="#375667"><path d="M20.9 3.7c-.8.5-1.7.8-2.6 1 .2.2.6.8.8 1.3.9-.6 1.5-1.4 1.8-2.3-.7.4-.3.9 0 0z"/><path d="M19.1 5.9c.2.5.3 1 .3 1.5v-.1c.8-.6 1.5-1.3 2-2.1-.6.4-1.4.6-2.3.7.2.5.9-.1 0 0z"/></g></svg>