<svg xmlns="http://www.w3.org/2000/svg" width="23" height="23" viewBox="0 0 23 23"><linearGradient id="a" gradientUnits="userSpaceOnUse" x1="-.001" y1="11.5" x2="22.999" y2="11.5"><stop offset="0" stop-color="#0DC7B6"/><stop offset="1" stop-color="#0DE9C7"/></linearGradient><path fill="url(#a)" d="M0 0h23v23H0z"/><linearGradient id="b" gradientUnits="userSpaceOnUse" x1="6.777" y1="5.68" x2="23.548" y2="22.451"><stop offset=".005" stop-color="#00132A" stop-opacity=".9"/><stop offset="1" stop-color="#00132A" stop-opacity="0"/></linearGradient><path opacity=".35" fill="url(#b)" d="M23 23V10.7l-2.6-2.6-1.5 1.2-1.2 1.2-1-.3-2.6-2.1-1.2 2.6-2.6-2.6v4.4l-.9-4.3h-.9L7.1 11 4.3 8.2l1.4 5.6-.9 1.1 8.1 8.1"/><path d="M11.7 12.3c.1 0 .3-.1.3-.2l.6-.9v3.5c0 .1.1.2.2.2h3c.1 0 .3-.1.3-.2l1.2-1.8 1.2 1.8c.1.1.2.2.3.2h1.4c.1 0 .2-.1.1-.2l-2.1-3.3 2.1-3.3c.1-.1 0-.2-.1-.2h-1.4c-.1 0-.3.1-.3.2l-1.2 1.8-1.2-1.8c-.1-.1-.2-.2-.3-.2h-3c-.1 0-.2.1-.2.2v2.4h-2c-.1 0-.2-.1-.2-.2v-2c0-.1-.1-.2-.2-.2H7.3c-.1 0-.2.1-.3.2l-1.4 4.1-1.3-4.1c0-.1-.2-.2-.3-.2H2.7c-.1 0-.2.1-.1.2l2.2 6.5c0 .1.1.2.2.2h1.3c.1 0 .2-.1.3-.2l2.2-6.5v6.5c0 .1.1.2.2.2h1.2c.1 0 .2-.1.2-.2v-2.2c0-.1.1-.2.2-.2h1.1zm2.5 2.4V8.3l2.1 3.2-2.1 3.2z" fill="#FFF"/></svg>