<svg xmlns="http://www.w3.org/2000/svg" width="49.7" height="20.1" viewBox="0 0 49.7 20.1"><path d="M27.6 5.6h4v2h-4zM40.1 5.6l-.4.7-.5-.7h-5.1l1.3 2h8.2l1.4-2M31.5 4.1V1.8l1.6 2.3h5.2l-1.5-2.4c-.2-.2-.5-.4-.8-.4h-7.7c-.3 0-.6.1-.6.4V4h3.8zM27.6 9.2v2h3.9v-2H17.9v2h8.5M21.9 7.4V5.6h-4v2h4v-.2zM27.6 12.7h4v2h-4zM17.9 12.7h4v2h-4zM42.7 9.2h-6.3l.6.8-.8 1.2h6.6l-.7-1.1M32.9 16.2l-1.3 2v-2h-4v2c0 .3.3.7.6.7h7.7c.3 0 .7-.3.8-.5l1.4-2.2h-5.2zM17.9 16.2v2c0 .3.2.7.5.7h2.9c.3 0 .5-.5.5-.7v-2h-3.9zM46 16.2h-4.8l1.5 2.2c.2.2.5.5.8.5h3.7c.3 0 .4-.3.2-.6L46 16.2zM45.9 4.1l1.5-2.3c.2-.2 0-.4-.2-.4h-3.7c-.3 0-.7.1-.8.4l-1.6 2.4h4.8zM17.9 1.8v2.3h4V1.8c0-.3-.1-.4-.4-.4h-6.8M43.8 12.7h-8.6l-1.3 2h5.2l.6-.9.6.9h4.8"/><path d="M17.5 1.4h-3.3c-.3 0-.6.2-.7.5L10 12.3 6.6 1.8c-.1-.3-.4-.4-.7-.4H2.6c-.3 0-.5.2-.4.5l5.5 16.6c.1.2.4.5.7.5h3.3c.3 0 .6-.3.7-.6l5.5-16.5c.1-.4-.1-.5-.4-.5zm-2.8 2l.4-.9.4.9 1 .1-.7.7.2 1-.9-.5-.9.5.2-1-.7-.7 1-.1zM4.1 5.2l.2-1-.7-.7 1-.1.4-.9.4.9 1 .1-.7.7.2 1-.9-.5-.9.5zm3.7 5.1l.2 1-.9-.5-.9.5.2-1-.7-.7 1-.1.4-.9.4.9 1 .1-.7.7zm3.1 7l-.9-.4-.9.5.2-1-.7-.7 1-.1.4-.9.4.9 1 .1-.7.7.2.9zm1.3-6.1l.2-1-.7-.7 1-.1.4-.9.4.9 1 .1-.7.7.2 1-.9-.5-.9.5z"/></svg>