<svg xmlns="http://www.w3.org/2000/svg" width="49.7" height="20.1" viewBox="0 0 49.7 20.1"><path d="M25.4 12.2c.3 0 .7-.2.8-.5l1.5-2.4v9.3c0 .3.2.5.5.5h8c.3 0 .7-.2.8-.5l3.1-4.8 3.2 4.8c.2.2.5.5.8.5H48c.3 0 .4-.2.2-.5L42.6 10l5.6-8.6c.2-.2.1-.4-.2-.4h-3.8c-.3 0-.7.2-.8.5l-3.2 4.8-3.1-4.8c-.1-.3-.5-.5-.8-.5h-8c-.3 0-.5.2-.5.5V8h-5.3c-.3 0-.5-.2-.5-.5V1.6c0-.3-.2-.5-.5-.5H14c-.3 0-.6.2-.7.5L9.5 12.3 5.9 1.5c-.1-.3-.4-.5-.7-.5H1.8c-.3 0-.5.2-.4.5l5.7 17.1c.1.3.4.5.7.5h3.4c.3 0 .6-.2.7-.5l5.7-17.1v17c0 .3.2.5.5.5h3.1c.3 0 .5-.2.5-.5v-5.9c0-.3.2-.5.5-.5h3.2zm6.6 6.4v-17l5.7 8.5-5.7 8.5z" fill="#FFF"/></svg>