<svg xmlns="http://www.w3.org/2000/svg" width="23" height="23" viewBox="0 0 23 23"><g fill="#375667"><path d="M18 16.8l-2.8-4.7c0-.1-.1-.2.1-.2l.7-.1c.1 0 .2-.1.2-.2v-.1L14 7.6c0-.1 0-.2.1-.2l.4-.1c.1 0 .2-.1.1-.2V7L13 4.2c0-.1 0-.1.1-.1l.2-.1c.1 0 .1-.2.1-.3L11.9 1h-.4c-.1 0-.1 0-.2.1L9.8 3.8c0 .1 0 .2.1.3l.2.1c.1 0 .1.1.1.1L8.5 7.1v.1c0 .1 0 .2.1.2l.4.1c.1 0 .1.1.1.2l-2.2 3.9v.1c0 .1.1.2.2.2l.7.1c.2 0 .1.2.1.2L5 16.8v.1c0 .1.1.2.2.2H17.7c.1 0 .2-.1.2-.2.1 0 .1 0 .1-.1zM10.5 17.9V22h2v-4.1"/></g><circle cx="11.5" cy="4" r=".7" fill="#22B8AF"/><circle cx="10.8" cy="8.4" r=".7" fill="#22B8AF"/><circle cx="13.7" cy="11.3" r=".7" fill="#22B8AF"/><circle cx="8.6" cy="14.2" r=".7" fill="#22B8AF"/><circle cx="14.4" cy="15.7" r=".7" fill="#22B8AF"/></svg>