<?xml version="1.0" encoding="utf-8"?>
<!-- Generator: Adobe Illustrator 18.1.1, SVG Export Plug-In . SVG Version: 6.00 Build 0)  -->
<!DOCTYPE svg PUBLIC "-//W3C//DTD SVG 1.1//EN" "http://www.w3.org/Graphics/SVG/1.1/DTD/svg11.dtd">
<svg version="1.1" id="Layer_1" xmlns="http://www.w3.org/2000/svg" xmlns:xlink="http://www.w3.org/1999/xlink" x="0px" y="0px"
	 width="23px" height="23px" viewBox="0 0 23 23" style="enable-background:new 0 0 23 23;" xml:space="preserve">
<g>
	<path style="fill:#375667;" d="M11.5,3.2c0.5,0,0.8,0.4,0.8,0.8v1.7c1,0.2,1.9,0.5,2.7,1.1l1.2-1.2c0.2-0.2,0.4-0.2,0.6-0.2
		s0.4,0.1,0.6,0.2c0.3,0.3,0.3,0.8,0,1.2l0,0L16.2,8c0.6,0.8,1,1.7,1.1,2.7H19c0.5,0,0.8,0.4,0.8,0.8s-0.4,0.8-0.8,0.8h-1.7
		c-0.1,1-0.5,1.9-1.1,2.7l1.2,1.2c0.3,0.3,0.3,0.9,0,1.2c-0.2,0.2-0.4,0.2-0.6,0.2s-0.4-0.1-0.6-0.2L15,16.2c-0.8,0.6-1.7,1-2.7,1.1
		V19c0,0.5-0.4,0.8-0.8,0.8s-0.8-0.4-0.8-0.8v-1.7c-1-0.1-1.9-0.5-2.7-1.1l-1.2,1.2l0,0c-0.2,0.2-0.4,0.2-0.6,0.2
		c-0.2,0-0.4-0.1-0.6-0.2c-0.3-0.3-0.3-0.8,0-1.2l0,0L6.8,15c-0.6-0.8-1-1.7-1.1-2.7H4c-0.5,0-0.8-0.4-0.8-0.8s0.4-0.8,0.8-0.8h1.7
		c0.1-1,0.5-1.9,1.1-2.7L5.6,6.8c-0.3-0.3-0.3-0.9,0-1.2C5.8,5.4,6,5.4,6.2,5.4c0.2,0,0.4,0.1,0.6,0.2l0,0L8,6.8
		c0.8-0.6,1.7-1,2.7-1.1V4C10.7,3.5,11,3.2,11.5,3.2 M11.5,1.9c-1.2,0-2.1,0.9-2.1,2.1v0.7C9,4.9,8.6,5,8.2,5.2L7.7,4.8
		C7.3,4.3,6.8,4.1,6.2,4.1c-0.6,0-1.1,0.2-1.5,0.6C4.3,5.1,4.1,5.6,4.1,6.2s0.2,1.1,0.6,1.5l0.5,0.5C5,8.6,4.9,9,4.7,9.4H4
		c-1.2,0-2.1,0.9-2.1,2.1c0,1.1,0.9,2.1,2.1,2.1h0.7C4.9,14,5,14.4,5.2,14.8l-0.4,0.4c0,0-0.1,0.1-0.1,0.1c-0.8,0.8-0.8,2.1,0,2.9
		c0.4,0.4,0.9,0.6,1.5,0.6c0.6,0,1.1-0.2,1.5-0.6l0.5-0.5C8.6,18,9,18.1,9.4,18.3V19c0,1.1,0.9,2.1,2.1,2.1c1.1,0,2.1-0.9,2.1-2.1
		v-0.7c0.4-0.1,0.8-0.3,1.2-0.5l0.5,0.5c0.4,0.4,0.9,0.6,1.5,0.6s1.1-0.2,1.5-0.6c0.8-0.8,0.8-2.1,0-2.9l-0.5-0.5
		c0.2-0.4,0.4-0.8,0.5-1.2H19c1.1,0,2.1-0.9,2.1-2.1c0-1.1-0.9-2.1-2.1-2.1h-0.7C18.1,9,18,8.6,17.8,8.2l0.5-0.5
		c0,0,0.1-0.1,0.1-0.1c0.3-0.4,0.5-0.9,0.5-1.4c0-0.6-0.2-1.1-0.6-1.5c-0.4-0.4-0.9-0.6-1.5-0.6s-1.1,0.2-1.5,0.6l-0.5,0.5
		C14.4,5,14,4.9,13.6,4.7V4C13.6,2.9,12.7,1.9,11.5,1.9L11.5,1.9z"/>
</g>
<g>
	<g>
		<path style="fill:#22B8AF;" d="M11.5,9.8c0.9,0,1.7,0.8,1.7,1.7s-0.7,1.7-1.7,1.7s-1.7-0.8-1.7-1.7S10.6,9.8,11.5,9.8 M11.5,7.8
			c-2.1,0-3.7,1.7-3.7,3.7s1.7,3.7,3.7,3.7c2,0,3.7-1.7,3.7-3.7S13.6,7.8,11.5,7.8L11.5,7.8z"/>
	</g>
</g>
</svg>
