<svg xmlns="http://www.w3.org/2000/svg" width="71" height="43" viewBox="0 0 71 43"><path d="M51.9 17.9c-.2.5-.5 1.4-.5 1.4l-1.5 4h3.1c-.2-.7-.9-4.2-.9-4.2l-.2-1.2zm17.1-17.9h-67c-1.1 0-2 .9-2 2v39c0 1.1.9 2 2 2h67c1.1 0 2-.9 2-2v-39c0-1.1-.9-2-2-2zm-57.4 14h6c.8 0 1.5.3 1.7 1.2l1.3 6.6c-1.3-3.5-4.4-6.4-9.1-7.6l.1-.2zm7.1 14.4l-3-11.5c2.5 1.5 4.2 3.5 5 5.9l.2 1 3.7-9.8h3.9l-5.9 14.4h-3.9zm9 0l2.4-14.4h3.7l-2.3 14.4h-3.8zm10.2.2c-1.7 0-3.3-.4-4.2-.8l.5-3.2.5.2c1.2.5 2.4.8 3.8.8.9-.1 2.2-.6 1.9-1.7-.3-.9-1.6-1.3-2.3-1.7-1-.5-2-1.2-2.5-2.2-1-2 .2-4.2 1.9-5.3 2.2-1.3 5.1-1.3 7.4-.4l-.5 3.1-.3-.2c-1-.4-4.9-1.3-4.9.7 0 .8 1.2 1.3 1.8 1.6 1 .5 2.1 1 2.8 2 1.1 1.4.8 3.5-.2 4.8-1.4 1.8-3.6 2.3-5.7 2.3zm16.2-.2s-.3-1.7-.4-2.2h-4.8c-.1.4-.8 2.2-.8 2.2h-3.9l5.5-13.2c.4-.9 1.1-1.2 2-1.2h2.9l3 14.4h-3.5z" fill="#fff"/></svg>