<?xml version="1.0" encoding="utf-8"?>
<!-- Generator: Adobe Illustrator 18.1.1, SVG Export Plug-In . SVG Version: 6.00 Build 0)  -->
<!DOCTYPE svg PUBLIC "-//W3C//DTD SVG 1.1//EN" "http://www.w3.org/Graphics/SVG/1.1/DTD/svg11.dtd">
<svg version="1.1" id="Layer_1" xmlns="http://www.w3.org/2000/svg" xmlns:xlink="http://www.w3.org/1999/xlink" x="0px" y="0px"
	 width="23px" height="23px" viewBox="0 0 23 23" style="enable-background:new 0 0 23 23;" xml:space="preserve">
<g>
	<g>
		<path style="fill-rule:evenodd;clip-rule:evenodd;fill:#375667;" d="M17.2,12.6c-4.1,0-6.3-5-3.6-8C10.4,2.5,6,3,3.3,5.8
			c-2.4,2.5-3,6.4-1.4,9.5c1.6,3.1,5.2,4.8,8.6,4.2c3.5-0.6,6.3-3.5,6.7-7C17.3,12.6,17.3,12.6,17.2,12.6z M6.6,11
			C6.7,11,6.7,11,6.6,11C6.2,8.4,8.3,7.6,8.3,7.6c0.3-0.1,0.6-0.1,0.9-0.1c0.3,0,0.6,0,0.9,0.1c0,0,2.1,0.7,1.6,3.4
			c0.6-0.1,0.1,1.3-0.4,1.4c0,0,0,0.7-0.7,1.4c0,0,0,0,0,0c-0.9,0.9-2,0.9-2.9,0c0,0,0,0,0,0c-0.7-0.8-0.7-1.5-0.7-1.5
			C6.6,12.4,6.2,11,6.6,11z M11.9,17.7c-0.5,0.2-1,0.3-1.6,0.5c-2,0.3-4.1-0.3-5.6-1.6c0.8-0.7,3.1-0.4,3.1-1.7c0.9,0.7,2,0.7,2.8,0
			c0,1.4,2.3,1,3.1,1.7C13.2,17,12.6,17.4,11.9,17.7C11.9,17.7,12.6,17.4,11.9,17.7z"/>
	</g>
	<g>
		<g>
			<path style="fill-rule:evenodd;clip-rule:evenodd;fill:#22B8AF;" d="M17.2,3.8c-2.6,0-4.8,2.2-4.8,4.8c0,2.6,2.2,4.8,4.8,4.8
				S22,11.2,22,8.6C22,6,19.8,3.8,17.2,3.8z M15.7,8.3C15.7,8.3,15.8,8.3,15.7,8.3c-0.2-1.5,1-2,1-2c0.2-0.1,0.3-0.1,0.5-0.1
				c0.2,0,0.4,0,0.5,0.1c0,0,1.2,0.4,0.9,2c0.4,0,0,0.7-0.2,0.8c0,0,0,0.4-0.4,0.8c0,0,0,0,0,0c-0.5,0.5-1.2,0.6-1.7,0c0,0,0,0,0,0
				C16,9.5,16,9.1,16,9.1C15.8,9.1,15.4,8.3,15.7,8.3z M18.8,12.2c-0.3,0.1-0.6,0.2-0.9,0.3c-1.2,0.2-2.4-0.2-3.3-1
				c0.5-0.4,1.8-0.2,1.8-1c0.5,0.4,1.1,0.4,1.7,0c0,0.8,1.3,0.6,1.8,1C19.5,11.7,19.2,12,18.8,12.2C18.8,12.2,19.2,12,18.8,12.2z"/>
		</g>
	</g>
</g>
</svg>
