<?xml version="1.0" encoding="utf-8"?>
<!-- Generator: Adobe Illustrator 18.1.1, SVG Export Plug-In . SVG Version: 6.00 Build 0)  -->
<!DOCTYPE svg PUBLIC "-//W3C//DTD SVG 1.1//EN" "http://www.w3.org/Graphics/SVG/1.1/DTD/svg11.dtd">
<svg version="1.1" id="Layer_1" xmlns="http://www.w3.org/2000/svg" xmlns:xlink="http://www.w3.org/1999/xlink" x="0px" y="0px"
	 width="23px" height="23px" viewBox="0 0 23 23" style="enable-background:new 0 0 23 23;" xml:space="preserve">
<g>
	<path style="fill:#22B8AF;" d="M21.5,5.3c-0.7,0.3-1.5,0.5-2.4,0.6c0.8-0.5,1.5-1.3,1.8-2.3c-0.8,0.5-1.7,0.8-2.6,1
		c-2.8-3-7.9-0.2-7,3.7C7.9,8.2,4.9,6.6,2.9,4.1C1.8,6,2.4,8.4,4.2,9.6c-0.7,0-1.3-0.2-1.9-0.5c0,1.9,1.4,3.7,3.3,4.1
		c-0.6,0.2-1.2,0.2-1.9,0.1c0.5,1.6,2,2.8,3.8,2.8c-1.7,1.3-3.9,2-6.1,1.7c4,2.6,9.5,2.5,13.4-0.5c3-2.3,4.8-6.1,4.6-9.9
		C20.3,6.8,20.9,6.1,21.5,5.3C20.8,5.6,20.9,6.1,21.5,5.3z"/>
	<g>
		<path style="fill:#375667;" d="M20.9,3.7c-0.8,0.5-1.7,0.8-2.6,1c0.2,0.2,0.6,0.8,0.8,1.3C20,5.4,20.6,4.6,20.9,3.7
			C20.2,4.1,20.6,4.6,20.9,3.7z"/>
		<path style="fill:#375667;" d="M19.1,5.9c0.2,0.5,0.3,1,0.3,1.5l0-0.1c0.8-0.6,1.5-1.3,2-2.1C20.8,5.6,20,5.8,19.1,5.9
			C19.3,6.4,20,5.8,19.1,5.9z"/>
	</g>
</g>
</svg>
