<?xml version="1.0" encoding="utf-8"?>
<!-- Generator: Adobe Illustrator 18.1.1, SVG Export Plug-In . SVG Version: 6.00 Build 0)  -->
<!DOCTYPE svg PUBLIC "-//W3C//DTD SVG 1.1//EN" "http://www.w3.org/Graphics/SVG/1.1/DTD/svg11.dtd">
<svg version="1.1" id="Layer_1" xmlns="http://www.w3.org/2000/svg" xmlns:xlink="http://www.w3.org/1999/xlink" x="0px" y="0px"
	 width="23px" height="23px" viewBox="0 0 23 23" style="enable-background:new 0 0 23 23;" xml:space="preserve">
<g>
	<g>
		<path style="fill-rule:evenodd;clip-rule:evenodd;fill:#375667;" d="M11.5,0.5c-4.5,0-8.6,2.8-10.3,7c-1.6,4.2-0.4,9.2,3,12.2
			c3.4,3,8.5,3.6,12.5,1.5c4-2.1,6.3-6.6,5.7-11.1C21.8,4.7,17,0.5,11.5,0.5z M8.1,10.9c0.1,0,0.1,0,0.1,0c-0.7-3.6,2.1-4.6,2.1-4.6
			c0.4-0.1,0.8-0.2,1.2-0.1c0.4,0,0.8,0,1.2,0.1c0,0,2.8,1,2.1,4.6c0.7-0.2,0.2,1.9-0.5,1.9c0,0-0.1,0.9-0.9,1.9c0,0,0,0,0,0
			c-1.2,1.2-2.7,1.3-3.9,0c0,0,0,0,0,0c-0.9-1-0.9-2-0.9-2C8,12.7,7.5,10.9,8.1,10.9z M15.1,19.8c-0.7,0.2-1.4,0.4-2.1,0.6
			c-2.7,0.5-5.5-0.4-7.5-2.2c1.1-1,4.1-0.5,4.1-2.3c1.2,0.9,2.6,0.9,3.8,0c0,1.8,3.1,1.3,4.1,2.3C16.8,18.8,16,19.4,15.1,19.8
			C15.1,19.8,16,19.4,15.1,19.8z"/>
	</g>
	<g>
		<path style="fill:#22B8AF;" d="M11.5,2.5c5,0,9,4,9,9s-4,9-9,9c-5,0-9-4-9-9S6.5,2.5,11.5,2.5 M11.5,0.5c-6.1,0-11,4.9-11,11
			s4.9,11,11,11s11-4.9,11-11S17.6,0.5,11.5,0.5L11.5,0.5z"/>
	</g>
</g>
</svg>
