<?xml version="1.0" encoding="utf-8"?>
<!-- Generator: Adobe Illustrator 18.1.1, SVG Export Plug-In . SVG Version: 6.00 Build 0)  -->
<!DOCTYPE svg PUBLIC "-//W3C//DTD SVG 1.1//EN" "http://www.w3.org/Graphics/SVG/1.1/DTD/svg11.dtd">
<svg version="1.1" id="Layer_1" xmlns="http://www.w3.org/2000/svg" xmlns:xlink="http://www.w3.org/1999/xlink" x="0px" y="0px"
	 width="23px" height="23px" viewBox="0 0 23 23" style="enable-background:new 0 0 23 23;" xml:space="preserve">
<path style="fill-rule:evenodd;clip-rule:evenodd;fill:#22B8AF;" d="M19.3,8.2c-1.8,1.8-3.7,4.6-6.6,3.8c0.8-0.8,1.6-1.6,2.4-2.4
	c0.9-0.9,1.8-1.8,2.6-2.7c1.9-1.9-0.8-4.8-2.6-2.9c-0.5,0.5-0.9,0.9-1.4,1.4c-0.2,0.2-1.4,1.1-1.4,1.4l0,0c-0.8,0.8-1.6,1.6-2.4,2.4
	c-0.4-1.3,0-2.8,1-3.8c1.3-1.3,2.7-3.3,4.5-3.8C19.3,0.5,22.1,5.4,19.3,8.2"/>
<path style="fill-rule:evenodd;clip-rule:evenodd;fill:#375667;" d="M7.9,15.6C7,16.5,5.5,15,6.5,14.1c1.4-1.4,2.7-2.7,4.1-4.1
	c0.8-0.8,1.5-1.5,2.3-2.3c0.2-0.2,0.3-0.3,0.5-0.5c1-0.6,2,0.7,1.2,1.6C12.4,11.2,10.1,13.3,7.9,15.6z"/>
<path style="fill-rule:evenodd;clip-rule:evenodd;fill:#22B8AF;" d="M5.8,13.4c-0.9,0.9-1.8,1.8-2.6,2.7c-1.9,1.9,0.8,4.8,2.6,2.9
	c0.9-0.9,2-1.8,2.8-2.9c0.8-0.8,1.6-1.6,2.4-2.4c0.4,1.3,0,2.8-1,3.8c-1.3,1.3-2.7,3.3-4.5,3.8c-3.8,1.1-6.7-3.8-3.9-6.6
	C3.4,13,5.4,10.2,8.2,11C7.4,11.8,6.6,12.6,5.8,13.4"/>
</svg>
