<?xml version="1.0" encoding="utf-8"?>
<!-- Generator: Adobe Illustrator 18.1.1, SVG Export Plug-In . SVG Version: 6.00 Build 0)  -->
<!DOCTYPE svg PUBLIC "-//W3C//DTD SVG 1.1//EN" "http://www.w3.org/Graphics/SVG/1.1/DTD/svg11.dtd">
<svg version="1.1" id="Layer_1" xmlns="http://www.w3.org/2000/svg" xmlns:xlink="http://www.w3.org/1999/xlink" x="0px" y="0px"
	 width="23px" height="23px" viewBox="0 0 23 23" style="enable-background:new 0 0 23 23;" xml:space="preserve">
<g>
	<g>
		<path style="fill:#375667;" d="M7.1,11c1.8,0,1.8-2.8,0-2.8C5.3,8.2,5.3,11,7.1,11z"/>
		<path style="fill:#375667;" d="M15.9,11c1.8,0,1.8-2.8,0-2.8C14.1,8.2,14.1,11,15.9,11z"/>
		<path style="fill:#375667;" d="M4.2,12.9c0.3,0,0.5,0.2,0.5,0.5v1.4h13.6v-1.4c0-0.3,0.2-0.5,0.5-0.5h3.8V4.6
			c0-0.4-0.3-0.8-0.8-0.8H1.2c-0.4,0-0.8,0.4-0.8,0.8v8.3H4.2z M15.9,7.2c3.1,0,3.1,4.8,0,4.8C12.8,12,12.8,7.2,15.9,7.2z M7.1,7.2
			c3.1,0,3.1,4.8,0,4.8C4,12,4,7.2,7.1,7.2z"/>
		<path style="fill:#375667;" d="M19.3,13.9v1.4c0,0.3-0.2,0.5-0.5,0.5H4.2c-0.3,0-0.5-0.2-0.5-0.5v-1.4H0.4v4.5
			c0,0.4,0.3,0.8,0.8,0.8h20.7c0.4,0,0.8-0.4,0.8-0.8v-4.5H19.3z"/>
	</g>
	<path style="fill:#22B8AF;" d="M7.1,8.2c-1.8,0-1.8,2.8,0,2.8C8.9,11,8.9,8.2,7.1,8.2z"/>
	<path style="fill:#22B8AF;" d="M15.9,8.2c-1.8,0-1.8,2.8,0,2.8C17.7,11,17.7,8.2,15.9,8.2z"/>
</g>
</svg>
