<?xml version="1.0" encoding="utf-8"?>
<!-- Generator: Adobe Illustrator 18.1.1, SVG Export Plug-In . SVG Version: 6.00 Build 0)  -->
<!DOCTYPE svg PUBLIC "-//W3C//DTD SVG 1.1//EN" "http://www.w3.org/Graphics/SVG/1.1/DTD/svg11.dtd">
<svg version="1.1" id="Layer_1" xmlns="http://www.w3.org/2000/svg" xmlns:xlink="http://www.w3.org/1999/xlink" x="0px" y="0px"
	 width="23px" height="23px" viewBox="0 0 23 23" style="enable-background:new 0 0 23 23;" xml:space="preserve">
<g>
	<path style="fill:#22B8AF;" d="M7.1,8.2c-1.8,0-1.8,2.8,0,2.8C8.9,11,8.9,8.2,7.1,8.2z"/>
	<path style="fill:#22B8AF;" d="M15.9,8.2c-1.8,0-1.8,2.8,0,2.8C17.7,11,17.7,8.2,15.9,8.2z"/>
	<g>
		<path style="fill:#375667;" d="M0.8,14.1c0.2-0.2,0.5-0.2,0.7,0l1.1,1.1l1.1-1.1c0.2-0.2,0.5-0.2,0.7,0l1.1,1.1l1.1-1.1
			c0.2-0.2,0.5-0.2,0.7,0l1.1,1.1l1.1-1.1c0.2-0.2,0.5-0.2,0.7,0l1.1,1.1l1.1-1.1c0.2-0.2,0.5-0.2,0.7,0l1.1,1.1l1.1-1.1
			c0.2-0.2,0.5-0.2,0.7,0l1.1,1.1l1.1-1.1c0.2-0.2,0.5-0.2,0.7,0l1.1,1.1l1.1-1.1c0.2-0.2,0.5-0.2,0.7,0l0.4,0.4v-1.6v-0.5V4.6
			c0-0.4-0.3-0.8-0.8-0.8H1.2c-0.4,0-0.8,0.4-0.8,0.8v7.8v0.5v1.6L0.8,14.1z M15.9,7.2c3.1,0,3.1,4.8,0,4.8
			C12.8,12,12.8,7.2,15.9,7.2z M7.1,7.2c3.1,0,3.1,4.8,0,4.8C4,12,4,7.2,7.1,7.2z"/>
		<path style="fill:#375667;" d="M21.8,15.2l-1.1,1.1c-0.1,0.1-0.1,0.1-0.2,0.1c-0.2,0.1-0.4,0-0.5-0.1l-1.1-1.1l-1.1,1.1
			c-0.1,0.1-0.1,0.1-0.2,0.1c-0.2,0.1-0.4,0-0.5-0.1l-1.1-1.1l-1.1,1.1c-0.1,0.1-0.1,0.1-0.2,0.1c-0.2,0.1-0.4,0-0.5-0.1L13,15.2
			l-1.1,1.1c-0.1,0.1-0.1,0.1-0.2,0.1c-0.2,0.1-0.4,0-0.5-0.1L10,15.2l-1.1,1.1c-0.1,0.1-0.1,0.1-0.2,0.1c-0.2,0.1-0.4,0-0.5-0.1
			l-1.1-1.1L6,16.3c-0.1,0.1-0.1,0.1-0.2,0.1c-0.2,0.1-0.4,0-0.5-0.1l-1.1-1.1L3,16.3c-0.1,0.1-0.1,0.1-0.2,0.1
			c-0.2,0.1-0.4,0-0.5-0.1l-1.1-1.1L0.4,16v2.4c0,0.4,0.3,0.8,0.8,0.8h20.7c0.4,0,0.8-0.4,0.8-0.8V16L21.8,15.2z"/>
	</g>
</g>
</svg>
