<?xml version="1.0" encoding="utf-8"?>
<!-- Generator: Adobe Illustrator 17.1.0, SVG Export Plug-In . SVG Version: 6.00 Build 0)  -->
<!DOCTYPE svg PUBLIC "-//W3C//DTD SVG 1.1//EN" "http://www.w3.org/Graphics/SVG/1.1/DTD/svg11.dtd">
<svg version="1.1" id="Layer_1" xmlns="http://www.w3.org/2000/svg" xmlns:xlink="http://www.w3.org/1999/xlink" x="0px" y="0px"
	 viewBox="0 0 23 23" enable-background="new 0 0 23 23" xml:space="preserve">
<path fill="#FFFFFF" d="M11.7,12.5c0.1,0,0.3-0.1,0.4-0.2l0.7-1.2v4.5c0,0.1,0.1,0.2,0.2,0.2H17c0.1,0,0.3-0.1,0.4-0.2l1.5-2.3
	l1.6,2.3c0.1,0.1,0.2,0.2,0.4,0.2h1.9c0.1,0,0.2-0.1,0.1-0.2l-2.7-4.2l2.7-4.2c0.1-0.1,0-0.2-0.1-0.2h-1.9c-0.1,0-0.3,0.1-0.4,0.2
	l-1.6,2.3l-1.5-2.3c0-0.1-0.2-0.2-0.4-0.2h-3.9c-0.1,0-0.2,0.1-0.2,0.2v3.2h-2.6c-0.1,0-0.2-0.1-0.2-0.2V7.4c0-0.1-0.1-0.2-0.2-0.2
	H6.2C6,7.1,5.9,7.2,5.8,7.4L4,12.6L2.2,7.3c0-0.1-0.2-0.2-0.3-0.2H0.2C0.1,7.1,0,7.2,0,7.3l2.8,8.3c0,0.1,0.2,0.2,0.3,0.2h1.7
	c0.1,0,0.3-0.1,0.3-0.2l2.8-8.3l0,0v8.3c0,0.1,0.1,0.2,0.2,0.2h1.5c0.1,0,0.2-0.1,0.2-0.2v-2.9c0-0.1,0.1-0.2,0.2-0.2L11.7,12.5
	L11.7,12.5z M14.9,15.7V7.4l2.8,4.1L14.9,15.7z"/>
</svg>
