<?xml version="1.0" encoding="utf-8"?>
<!-- Generator: Adobe Illustrator 18.1.1, SVG Export Plug-In . SVG Version: 6.00 Build 0)  -->
<!DOCTYPE svg PUBLIC "-//W3C//DTD SVG 1.1//EN" "http://www.w3.org/Graphics/SVG/1.1/DTD/svg11.dtd">
<svg version="1.1" id="Layer_1" xmlns="http://www.w3.org/2000/svg" xmlns:xlink="http://www.w3.org/1999/xlink" x="0px" y="0px"
	 width="23px" height="23px" viewBox="0 0 23 23" style="enable-background:new 0 0 23 23;" xml:space="preserve">
<g>
	<path style="fill:#22B8AF;" d="M14.5,11.1L9.9,7.9c-0.3-0.2-0.7,0-0.7,0.4v6.4c0,0.4,0.4,0.6,0.7,0.4l4.5-3.2
		C14.7,11.6,14.7,11.3,14.5,11.1z"/>
	<path style="fill:#375667;" d="M18.5,3.7l-6.6,0L5,3.7c-2.2,0-4.5,1.5-4.5,3.7v8.4c0,2.2,2.4,3.6,4.5,3.6h13.5c2.3,0,4-1.5,4-3.6
		V7.4C22.5,5.3,20.8,3.7,18.5,3.7z M18.5,17.1H5c-1.2,0-2.2-0.6-2.2-1.3V7.4C2.8,6.7,3.9,6,5,6l6.9,0l6.6,0c0.8,0,1.7,0.4,1.7,1.4
		v8.4C20.2,16.7,19.3,17.1,18.5,17.1z"/>
</g>
</svg>
