<?xml version="1.0" encoding="utf-8"?>
<!-- Generator: Adobe Illustrator 18.1.1, SVG Export Plug-In . SVG Version: 6.00 Build 0)  -->
<!DOCTYPE svg PUBLIC "-//W3C//DTD SVG 1.1//EN" "http://www.w3.org/Graphics/SVG/1.1/DTD/svg11.dtd">
<svg version="1.1" id="Layer_1" xmlns="http://www.w3.org/2000/svg" xmlns:xlink="http://www.w3.org/1999/xlink" x="0px" y="0px"
	 width="23px" height="23px" viewBox="0 0 23 23" style="enable-background:new 0 0 23 23;" xml:space="preserve">
<g>
	<path style="fill:#149996;" d="M11.6,1.8c-2.7,0-5.8,0.1-8.1,1.6c-2.6,1.7-3.1,5-2.9,7.9c0.2,2.8,1.5,5.2,4.2,6.3
		c3,1.2,6.7,1.1,9.9,0.8l2.7,2.8v-3.3c2-0.6,3.6-1.9,4.4-3.8c0.9-2.3,0.9-5.3,0.1-7.7C20.3,2.2,15.4,1.8,11.6,1.8z M13.8,6
		c0-0.1,0.1-0.2,0.2-0.2h1c0.1,0,0.2,0.1,0.2,0.2V8L15,11.6c0,0.1-0.1,0.2-0.2,0.2h-0.3c-0.1,0-0.2-0.1-0.2-0.2l-0.4-3.5V6z
		 M9.2,14.7c-1.1,0-1.1-1.8,0-1.8C10.3,13,10.3,14.7,9.2,14.7z M9.8,10.4v1.1c0,0.2-0.1,0.3-0.3,0.3H8.9c-0.1,0-0.2-0.1-0.2-0.2
		v-1.2c0-1.3,1.6-1.4,1.8-2.5C10.6,7,9.7,6.6,9,6.7C8.7,6.8,7.7,7.6,7.4,7.5L7,7.1C6.9,7,7,6.8,7,6.7c1-1.3,3.4-1.6,4.4-0.2
		C12,7.3,11.8,8.3,11.2,9C10.8,9.4,9.8,9.8,9.8,10.4z M14.6,14.7c-1.1,0-1.1-1.8,0-1.8C15.7,13,15.7,14.7,14.6,14.7z"/>
	<path style="fill:#22B8AF;" d="M0.6,10.2h8.1c0.2-1.1,2.1-1.5,1.8-2.7c-0.2-0.7-1.1-0.9-1.7-0.7c-0.3,0.1-1,0.9-1.3,0.7L7,7.1
		C6.9,7,7,6.8,7,6.7c0.9-1.2,2.9-1.5,4.1-0.5c0.7,0.6,0.9,1.6,0.4,2.4c-0.4,0.7-1.3,0.9-1.6,1.6h4.2l-0.2-2.1V6
		c0-0.1,0.1-0.2,0.2-0.2h1c0.1,0,0.2,0.1,0.2,0.2V8l-0.2,2.1h7.3c0-2.7-0.7-5.5-3.2-6.9c-2.3-1.4-5.1-1.4-7.7-1.4
		C9,1.8,6.1,1.9,3.8,3.3C1.3,4.7,0.6,7.5,0.6,10.2z"/>
</g>
</svg>
