<?xml version="1.0" encoding="utf-8"?>
<!-- Generator: Adobe Illustrator 18.1.1, SVG Export Plug-In . SVG Version: 6.00 Build 0)  -->
<!DOCTYPE svg PUBLIC "-//W3C//DTD SVG 1.1//EN" "http://www.w3.org/Graphics/SVG/1.1/DTD/svg11.dtd">
<svg version="1.1" id="Layer_1" xmlns="http://www.w3.org/2000/svg" xmlns:xlink="http://www.w3.org/1999/xlink" x="0px" y="0px"
	 width="23px" height="23px" viewBox="0 0 23 23" style="enable-background:new 0 0 23 23;" xml:space="preserve">
<g>
	<path style="fill:#375667;" d="M17.5,3.1l-8.4,8.4l8.4,8.4c0.7,0.7-0.6,1.6-1.1,2c-0.7,0.7-1.7-0.8-2.2-1.2
		c-1.2-1.2-2.3-2.3-3.5-3.5C9,15.5,7.3,13.7,5.5,12c-0.7-0.7,0.8-1.8,1.2-2.2C7.9,8.6,9,7.5,10.2,6.3c1.8-1.8,3.5-3.5,5.2-5.3
		c0.7-0.7,1.6,0.6,2,1.1C17.8,2.4,17.8,2.8,17.5,3.1z"/>
</g>
</svg>
