<?xml version="1.0" encoding="utf-8"?>
<!-- Generator: Adobe Illustrator 18.1.1, SVG Export Plug-In . SVG Version: 6.00 Build 0)  -->
<!DOCTYPE svg PUBLIC "-//W3C//DTD SVG 1.1//EN" "http://www.w3.org/Graphics/SVG/1.1/DTD/svg11.dtd">
<svg version="1.1" id="Layer_1" xmlns="http://www.w3.org/2000/svg" xmlns:xlink="http://www.w3.org/1999/xlink" x="0px" y="0px"
	 width="23px" height="23px" viewBox="0 0 23 23" style="enable-background:new 0 0 23 23;" xml:space="preserve">
<path style="fill:#22B8AF;" d="M11.5,2.5c5,0,9,4,9,9s-4,9-9,9s-9-4-9-9S6.5,2.5,11.5,2.5 M11.5,1C5.7,1,1,5.7,1,11.5
	C1,17.3,5.7,22,11.5,22C17.3,22,22,17.3,22,11.5C22,5.7,17.3,1,11.5,1L11.5,1z"/>
<path style="fill:#375667;" d="M12.4,11c-0.4-0.2-1.8-0.4-1.8-1c0-0.5,0.5-0.6,0.9-0.6c0.3,0,0.6,0.1,0.8,0.3
	c0.1,0.1,0.2,0.2,0.2,0.3c0,0.1,0.1,0.3,0.3,0.3h1c0.2,0,0.3,0,0.3-0.3c0-1.1-0.8-1.7-1.8-1.9V7.2c0-0.2-0.1-0.3-0.3-0.3h-0.8
	c-0.2,0-0.3,0.1-0.3,0.3V8C9.8,8.2,9,8.8,9,10c0,1.3,0.9,1.7,1.9,2.1c0.8,0.3,1.7,0.3,1.7,0.9c0,0.6-0.4,0.7-1,0.7
	c-0.4,0-0.8-0.1-1-0.3c-0.1-0.2-0.2-0.3-0.2-0.4c0-0.3-0.1-0.3-0.4-0.3h-1c-0.2,0-0.3,0.1-0.3,0.3c0,1.2,0.9,1.9,2,2.1v0.8
	c0,0.2,0.1,0.3,0.3,0.3h0.8c0.2,0,0.3-0.1,0.3-0.3V15c1.2-0.2,2-0.9,2-2.1C14.1,11.5,13.1,11.2,12.4,11z"/>
</svg>
