<?xml version="1.0" encoding="utf-8"?>
<!-- Generator: Adobe Illustrator 18.1.1, SVG Export Plug-In . SVG Version: 6.00 Build 0)  -->
<!DOCTYPE svg PUBLIC "-//W3C//DTD SVG 1.1//EN" "http://www.w3.org/Graphics/SVG/1.1/DTD/svg11.dtd">
<svg version="1.1" id="Layer_1" xmlns="http://www.w3.org/2000/svg" xmlns:xlink="http://www.w3.org/1999/xlink" x="0px" y="0px"
	 width="23px" height="23px" viewBox="0 0 23 23" style="enable-background:new 0 0 23 23;" xml:space="preserve">
<path style="fill-rule:evenodd;clip-rule:evenodd;fill:#375667;" d="M11.5,0.4C7,0.4,2.8,3.3,1.2,7.5c-1.7,4.3-0.4,9.3,3,12.3
	c3.4,3,8.5,3.7,12.6,1.5c4-2.1,6.4-6.7,5.8-11.2C21.8,4.6,17,0.4,11.5,0.4z M11.2,16.9c-1.8,0-1.8-2.9,0-2.9
	C13.1,14.1,13.1,16.9,11.2,16.9z M12.4,12.6c0,0.2-0.1,0.4-0.3,0.4h-1.6c-0.2,0-0.4-0.4-0.4-0.6v-0.6c0-1.3,1.9-1.5,2.1-2.6
	c0.2-0.9-1-1.2-1.6-1c-0.3,0.1-0.9,0.8-1.2,0.5L8.5,7.8c-0.1-0.1-0.1-0.3,0-0.4c1.4-1.6,4.3-1.9,5.7-0.1c0.7,0.9,0.6,2.2-0.1,3
	C13.4,11,12.4,11.5,12.4,12.6z"/>
<g>
	<path style="fill:#22B8AF;" d="M11.5,2.4c4.5,0,8.5,3.5,9,8c0.5,3.7-1.4,7.4-4.7,9.2c-1.3,0.7-2.7,1-4.2,1c-2.3,0-4.4-0.8-6.1-2.3
		C2.7,15.8,1.7,11.7,3,8.2C4.4,4.7,7.8,2.4,11.5,2.4 M11.5,0.4C7,0.4,2.8,3.3,1.2,7.5c-1.7,4.3-0.4,9.3,3,12.3
		c2.1,1.8,4.7,2.8,7.4,2.8c1.8,0,3.6-0.4,5.2-1.3c4-2.1,6.4-6.7,5.8-11.2C21.8,4.6,17,0.4,11.5,0.4L11.5,0.4z"/>
</g>
</svg>
