<?xml version="1.0" encoding="utf-8"?>
<!-- Generator: Adobe Illustrator 18.1.1, SVG Export Plug-In . SVG Version: 6.00 Build 0)  -->
<!DOCTYPE svg PUBLIC "-//W3C//DTD SVG 1.1//EN" "http://www.w3.org/Graphics/SVG/1.1/DTD/svg11.dtd">
<svg version="1.1" id="Layer_1" xmlns="http://www.w3.org/2000/svg" xmlns:xlink="http://www.w3.org/1999/xlink" x="0px" y="0px"
	 width="23px" height="23px" viewBox="0 0 23 23" style="enable-background:new 0 0 23 23;" xml:space="preserve">
<g>
	<path style="fill-rule:evenodd;clip-rule:evenodd;fill:#375667;" d="M20.6,6.2H2.4c-0.5,0-0.9,0.4-0.9,0.9v8.8
		c0,0.5,0.4,0.9,0.9,0.9h3.1v-0.9v-0.3V14v-0.9v-0.9h11.9v0.9V14v1.6v0.3v0.9h3.1c0.5,0,0.9-0.4,0.9-0.9V7.1
		C21.5,6.6,21.1,6.2,20.6,6.2z M4.3,9.9c-1.2,0-1.2-1.9,0-1.9S5.5,9.9,4.3,9.9z"/>
	<path style="fill-rule:evenodd;clip-rule:evenodd;fill:#375667;" d="M16.5,5.2h-10V4.3c0-0.8-0.4-2.8,0.9-2.8c1.4,0,2.8,0,4.2,0
		c1.3,0,2.9-0.2,4.2,0c0.4,0.1,0.7,0.5,0.7,0.9C16.5,3.4,16.5,4.3,16.5,5.2z"/>
	<path style="fill-rule:evenodd;clip-rule:evenodd;fill:#22B8AF;" d="M6.5,13.1v1.9v4.7v0.3v0.6c0,0.5,0.4,0.9,0.9,0.9h8.1
		c0.5,0,0.9-0.4,0.9-0.9v-0.6v-0.3v-4.7v-1.9H6.5z M14.6,19.6H8.4v-0.9h6.2V19.6z M14.6,17.8H8.4v-0.9h6.2V17.8z M14.6,15.9H8.4
		v-0.9h6.2V15.9z"/>
</g>
</svg>
