<?xml version="1.0" encoding="utf-8"?>
<!-- Generator: Adobe Illustrator 18.1.1, SVG Export Plug-In . SVG Version: 6.00 Build 0)  -->
<!DOCTYPE svg PUBLIC "-//W3C//DTD SVG 1.1//EN" "http://www.w3.org/Graphics/SVG/1.1/DTD/svg11.dtd">
<svg version="1.1" id="Layer_1" xmlns="http://www.w3.org/2000/svg" xmlns:xlink="http://www.w3.org/1999/xlink" x="0px" y="0px"
	 width="23px" height="23px" viewBox="0 0 23 23" style="enable-background:new 0 0 23 23;" xml:space="preserve">
<g>
	<path style="fill:#22B8AF;" d="M11.5,8c-4.2,0-4.2,6.5,0,6.5C15.7,14.6,15.7,8,11.5,8z"/>
	<path style="fill:#375667;" d="M20.2,4.8h-2.6c-0.4,0-0.7-0.3-0.9-0.6l-0.7-2c-0.1-0.3-0.5-0.6-0.9-0.6H7.8c-0.4,0-0.7,0.3-0.9,0.6
		l-0.7,2C6.2,4.5,5.8,4.8,5.4,4.8H2.8c-1.2,0-2.2,1-2.2,2.2v9.8c0,1.2,1,2.2,2.2,2.2h17.4c1.2,0,2.2-1,2.2-2.2V6.9
		C22.4,5.7,21.4,4.8,20.2,4.8z M11.5,16.7c-3,0-5.4-2.5-5.4-5.4s2.5-5.4,5.4-5.4s5.4,2.5,5.4,5.4S14.5,16.7,11.5,16.7z M19.4,8.5
		c-1,0-1-1.5,0-1.5C20.4,6.9,20.4,8.5,19.4,8.5z"/>
</g>
</svg>
