<?xml version="1.0" encoding="utf-8"?>
<!-- Generator: Adobe Illustrator 18.1.1, SVG Export Plug-In . SVG Version: 6.00 Build 0)  -->
<!DOCTYPE svg PUBLIC "-//W3C//DTD SVG 1.1//EN" "http://www.w3.org/Graphics/SVG/1.1/DTD/svg11.dtd">
<svg version="1.1" id="Layer_1" xmlns="http://www.w3.org/2000/svg" xmlns:xlink="http://www.w3.org/1999/xlink" x="0px" y="0px"
	 width="23px" height="23px" viewBox="0 0 23 23" style="enable-background:new 0 0 23 23;" xml:space="preserve">
<g>
	<path style="fill:#22B8AF;stroke:#375667;stroke-width:2;stroke-miterlimit:10;" d="M4.2,7.6"/>
	<path style="fill:#22B8AF;stroke:#375667;stroke-width:2;stroke-miterlimit:10;" d="M8.4,2.5"/>
	<path style="fill-rule:evenodd;clip-rule:evenodd;fill:#22B8AF;" d="M7.5,4.3C7.5,4.3,7.5,4.3,7.5,4.3l3.1-3.4
		c0.4-0.4,1.1-0.5,1.5,0l0,0c0.5,0.6,1.1,1.2,1.6,1.8c0.2,0.2,1.2,1.6,1.5,1.6c0.9,1-0.7,2.4-1.5,1.4l-1.3-1.4c0,1.7,0,3.4,0,5.2
		c0,0.8,0,1.6,0,2.4c0,1.4-2.1,1.5-2.1,0.1l0-7.6c-0.5,0.5-1,1.4-1.7,1.7C7.7,6.3,6.8,5.1,7.5,4.3z"/>
	<path style="fill-rule:evenodd;clip-rule:evenodd;fill:#375667;" d="M20.4,2.5h-4.1l0.4,0.4c0.4,0.4,0.7,1,0.8,1.6h1.9v6.2v9.7
		l-9.8,0l0,0H3.4v-6.2V4.5h1.9C5.4,4,5.6,3.4,6,3c0,0,0,0,0,0l0.4-0.5H2.4h0c-0.5,0-1,0.4-1,0.9c0,0,0,0.1,0,0.1v12.8v5.1
		c0,0.6,0.5,1,1,1h5.1h12.9h0c0.5,0,1-0.4,1-1c0,0,0,0,0-0.1v0V8.6V3.5C21.4,2.9,20.9,2.5,20.4,2.5z"/>
</g>
</svg>
