<?xml version="1.0" encoding="utf-8"?>
<!-- Generator: Adobe Illustrator 18.1.1, SVG Export Plug-In . SVG Version: 6.00 Build 0)  -->
<!DOCTYPE svg PUBLIC "-//W3C//DTD SVG 1.1//EN" "http://www.w3.org/Graphics/SVG/1.1/DTD/svg11.dtd">
<svg version="1.1" id="Layer_1" xmlns="http://www.w3.org/2000/svg" xmlns:xlink="http://www.w3.org/1999/xlink" x="0px" y="0px"
	 width="23px" height="23px" viewBox="0 0 23 23" style="enable-background:new 0 0 23 23;" xml:space="preserve">
<g>
	<line style="fill:#375667;" x1="11.5" y1="1.5" x2="11.5" y2="11.5"/>
	<path style="fill:#375667;" d="M11.5,13c-0.8,0-1.5-0.7-1.5-1.5v-10C10,0.6,10.7,0,11.5,0S13,0.6,13,1.5v10
		C13,12.3,12.3,13,11.5,13z"/>
</g>
<path style="fill:#22B8AF;" d="M11.5,22.7c-5.6,0-10.2-4.6-10.2-10.2c0-3,1.3-5.8,3.6-7.8C5.5,4.2,6.5,4.3,7,4.9
	C7.5,5.5,7.5,6.5,6.8,7c-1.6,1.4-2.5,3.4-2.5,5.5c0,4,3.2,7.2,7.2,7.2s7.2-3.2,7.2-7.2c0-2.1-0.9-4.1-2.5-5.5
	c-0.6-0.5-0.7-1.5-0.2-2.1c0.5-0.6,1.5-0.7,2.1-0.2c2.3,1.9,3.6,4.8,3.6,7.8C21.7,18.1,17.1,22.7,11.5,22.7z"/>
</svg>
