<?xml version="1.0" encoding="utf-8"?>
<!-- Generator: Adobe Illustrator 18.1.1, SVG Export Plug-In . SVG Version: 6.00 Build 0)  -->
<!DOCTYPE svg PUBLIC "-//W3C//DTD SVG 1.1//EN" "http://www.w3.org/Graphics/SVG/1.1/DTD/svg11.dtd">
<svg version="1.1" id="Layer_1" xmlns="http://www.w3.org/2000/svg" xmlns:xlink="http://www.w3.org/1999/xlink" x="0px" y="0px"
	 width="23px" height="23px" viewBox="0 0 23 23" style="enable-background:new 0 0 23 23;" xml:space="preserve">
<g>
	<path style="fill-rule:evenodd;clip-rule:evenodd;fill:#22B8AF;" d="M13.2,0.2L13.2,0.2L13.2,0.2c-0.6-0.5-1.6,0-1.5,0.8
		c0,0,0,0,0,0c0,0,0,0,0,0c0,0,0,0,0,0c0,0,0,0,0,0c0,0,0,0,0,0c0,0,0,0,0,0c0,0,0,0,0,0c0,0.2,0.2,0.4,0.3,0.5l0.9,0.7
		C9.2,1.8,5.4,3.6,3.6,6.8c-1.8,3.1-1.6,7.1,0.5,10l1.9-1.9c-3-4.9,1.5-11.2,7.1-9.8l-0.8,0.8C12.1,6.1,12,6.3,12,6.5c0,0,0,0,0,0
		c0,0,0,0,0,0c0,0,0,0,0,0c0,0,0,0,0,0c0,0,0,0,0,0c0,0,0,0,0,0c0,0,0,0,0,0c0,0.8,1,1.2,1.6,0.6l0,0c0,0,0,0,0,0L15,5.9
		c0,0,0,0,0,0l0,0l1.6-1.6h0c0.4-0.4,0.4-1-0.1-1.4l0,0L13.2,0.2z"/>
	<path style="fill-rule:evenodd;clip-rule:evenodd;fill:#375667;" d="M17.1,8.1c3,4.9-1.6,11.1-7.1,9.8l0.8-0.8
		c0.1-0.1,0.2-0.3,0.3-0.6c0,0,0,0,0,0c0,0,0,0,0,0c0,0,0,0,0,0c0,0,0,0,0,0c0,0,0,0,0,0c0,0,0,0,0,0c0,0,0,0,0,0
		c0-0.8-1-1.2-1.6-0.6l0,0l0,0l-1.3,1.3l0,0v0l-1.6,1.6l0,0c-0.4,0.4-0.4,1,0.1,1.4l0,0l3.3,2.7c0,0,0,0,0,0l0,0
		c0.6,0.5,1.6,0,1.5-0.8c0,0,0,0,0,0c0,0,0,0,0,0c0,0,0,0,0,0c0,0,0,0,0,0c0,0,0,0,0,0c0,0,0,0,0,0c0,0,0,0,0,0
		c0-0.2-0.2-0.4-0.3-0.5l-0.9-0.8c3.7,0.6,7.5-1.2,9.4-4.4c1.8-3.1,1.6-7.1-0.5-10L17.1,8.1z"/>
</g>
</svg>
