<?xml version="1.0" encoding="utf-8"?>
<!-- Generator: Adobe Illustrator 18.1.1, SVG Export Plug-In . SVG Version: 6.00 Build 0)  -->
<!DOCTYPE svg PUBLIC "-//W3C//DTD SVG 1.1//EN" "http://www.w3.org/Graphics/SVG/1.1/DTD/svg11.dtd">
<svg version="1.1" id="Layer_1" xmlns="http://www.w3.org/2000/svg" xmlns:xlink="http://www.w3.org/1999/xlink" x="0px" y="0px"
	 width="23px" height="23px" viewBox="0 0 23 23" style="enable-background:new 0 0 23 23;" xml:space="preserve">
<g>
	<path style="fill:#375667;" d="M20.7,20c-0.1,0.3-0.3,0.7-0.4,0.9c-0.1,0.1-0.2,0.2-0.3,0.2c-0.2,0-0.4-0.2-0.4-0.4
		c0-0.2,0-0.4,0.1-0.6c0-0.5,0.1-1,0.1-1.5c0-5.7-3.4-6.7-8.6-6.7H8.4V15c0,0.4-0.3,0.8-0.8,0.8c-0.2,0-0.4-0.1-0.5-0.2L1,9.4
		C0.8,9.2,0.8,9,0.8,8.8c0-0.2,0.1-0.4,0.2-0.5l6.1-6.1C7.3,2,7.5,1.9,7.7,1.9c0.4,0,0.8,0.3,0.8,0.8v3.1h2.7
		c3.9,0,8.8,0.7,10.5,4.8c0.5,1.3,0.6,2.6,0.6,4C22.2,16.2,21.4,18.4,20.7,20z"/>
</g>
</svg>
