<?xml version="1.0" encoding="utf-8"?>
<!-- Generator: Adobe Illustrator 18.1.1, SVG Export Plug-In . SVG Version: 6.00 Build 0)  -->
<!DOCTYPE svg PUBLIC "-//W3C//DTD SVG 1.1//EN" "http://www.w3.org/Graphics/SVG/1.1/DTD/svg11.dtd">
<svg version="1.1" id="Layer_1" xmlns="http://www.w3.org/2000/svg" xmlns:xlink="http://www.w3.org/1999/xlink" x="0px" y="0px"
	 width="23px" height="23px" viewBox="0 0 23 23" style="enable-background:new 0 0 23 23;" xml:space="preserve">
<g>
	<path style="fill-rule:evenodd;clip-rule:evenodd;fill:#375667;" d="M19.4,17.3c-3.3,0-6.7,0-10,0c-1.7,0-3.5,0-5.2,0
		c-0.5,0-1,0.1-1.3-0.3c-0.7-0.5-0.5-1.6,0.2-2c0.7-0.4,1.7-0.2,1.7-1.3c0-3.3-0.7-7.4,2.5-9.6C7.8,3.9,8.4,3.6,9,3.5
		c0.3-0.1,0.5-0.1,0.8-0.1c0.6-0.1,0.4,0,0.7-0.5c0.3-0.6,1-0.8,1.6-0.5c0.3,0.2,0.6,0.5,0.6,0.8c0.1,0.4,0.4,0.3,0.8,0.3
		c2.7,0.4,4.7,2.8,4.7,5.5c0,1.4,0,2.9,0,4.3c0,0.7,0,1.5,0.9,1.7c0.6,0.1,1.2,0.2,1.4,0.9C20.7,16.6,20.2,17.3,19.4,17.3"/>
	<path style="fill-rule:evenodd;clip-rule:evenodd;fill:#22B8AF;" d="M11.5,20.9c-1.3,0-2.4-1.1-2.4-2.4c1.6,0,3.2,0,4.7,0
		C13.9,19.8,12.8,20.9,11.5,20.9"/>
</g>
</svg>
