<?xml version="1.0" encoding="utf-8"?>
<!-- Generator: Adobe Illustrator 18.1.1, SVG Export Plug-In . SVG Version: 6.00 Build 0)  -->
<!DOCTYPE svg PUBLIC "-//W3C//DTD SVG 1.1//EN" "http://www.w3.org/Graphics/SVG/1.1/DTD/svg11.dtd">
<svg version="1.1" id="Layer_1" xmlns="http://www.w3.org/2000/svg" xmlns:xlink="http://www.w3.org/1999/xlink" x="0px" y="0px"
	 width="23px" height="23px" viewBox="0 0 23 23" style="enable-background:new 0 0 23 23;" xml:space="preserve">
<g>
	<path style="fill-rule:evenodd;clip-rule:evenodd;fill:#22B8AF;" d="M20.2,11.8c-0.9,0-3.1,0.4-3.1-1c0-0.9,0-1.8,0-2.7
		c0-0.9-0.3-2.5,1-2.5c0.9,0,3.1-0.4,3.1,1c0,0.9,0,1.8,0,2.7C21.2,10.1,21.5,11.8,20.2,11.8"/>
	<path style="fill-rule:evenodd;clip-rule:evenodd;fill:#375667;" d="M18.1,1.4c0-1.3,2.1-1.3,2.1,0v3.1c-0.5,0-2.1,0.3-2.1-0.2
		C18.1,3.4,18.1,2.4,18.1,1.4z"/>
	<path style="fill-rule:evenodd;clip-rule:evenodd;fill:#22B8AF;" d="M12.5,17.4c-0.9,0-3.1,0.4-3.1-1c0-0.9,0-1.8,0-2.7
		c0-0.9-0.3-2.5,1-2.5c0.9,0,3.1-0.4,3.1,1c0,0.9,0,1.8,0,2.7C13.6,15.7,13.9,17.4,12.5,17.4"/>
	<path style="fill-rule:evenodd;clip-rule:evenodd;fill:#375667;" d="M10.5,1.4c0-1.3,2.1-1.3,2.1,0v8.7c-0.3,0-2.1,0.1-2.1-0.1
		c0-0.9,0-1.8,0-2.7C10.5,5.4,10.5,3.4,10.5,1.4z"/>
	<path style="fill-rule:evenodd;clip-rule:evenodd;fill:#22B8AF;" d="M4.9,14.6c-0.9,0-3.1,0.4-3.1-1c0-0.9,0-1.8,0-2.7
		c0-0.9-0.3-2.5,1-2.5c0.9,0,3.1-0.4,3.1,1c0,0.9,0,1.8,0,2.7C5.9,12.9,6.2,14.6,4.9,14.6"/>
	<path style="fill-rule:evenodd;clip-rule:evenodd;fill:#375667;" d="M2.8,1.4c0-1.3,2.1-1.3,2.1,0v5.9c-0.7,0-1.4,0-2.1,0
		c-0.1,0,0-1.3,0-1.4C2.8,4.5,2.8,2.9,2.8,1.4z"/>
	<path style="fill-rule:evenodd;clip-rule:evenodd;fill:#375667;" d="M4.9,21.6c0,1.3-2.1,1.3-2.1,0v-5.9c0.7,0,1.4,0,2.1,0
		c0.1,0,0,1.3,0,1.4C4.9,18.5,4.9,20.1,4.9,21.6z"/>
	<path style="fill-rule:evenodd;clip-rule:evenodd;fill:#375667;" d="M12.5,21.6c0,1.3-2.1,1.3-2.1,0v-3.1c0.5,0,2.1-0.3,2.1,0.2
		C12.5,19.6,12.5,20.6,12.5,21.6z"/>
	<path style="fill-rule:evenodd;clip-rule:evenodd;fill:#375667;" d="M20.2,21.6c0,1.3-2.1,1.3-2.1,0v-8.7c0.3,0,2.1-0.1,2.1,0.1
		c0,0.9,0,1.8,0,2.7C20.2,17.6,20.2,19.6,20.2,21.6z"/>
</g>
</svg>
