<?xml version="1.0" encoding="utf-8"?>
<!-- Generator: Adobe Illustrator 18.1.1, SVG Export Plug-In . SVG Version: 6.00 Build 0)  -->
<!DOCTYPE svg PUBLIC "-//W3C//DTD SVG 1.1//EN" "http://www.w3.org/Graphics/SVG/1.1/DTD/svg11.dtd">
<svg version="1.1" id="Layer_1" xmlns="http://www.w3.org/2000/svg" xmlns:xlink="http://www.w3.org/1999/xlink" x="0px" y="0px"
	 width="23px" height="23px" viewBox="0 0 23 23" style="enable-background:new 0 0 23 23;" xml:space="preserve">
<path style="fill:#375667;" d="M18.8,10.6h-0.5h-2.8H7.9H5.1H4.6c-0.8,0-1.4,0.6-1.4,1.4v8.5c0,0.8,0.6,1.4,1.4,1.4h14.2
	c0.8,0,1.4-0.6,1.4-1.4V12C20.2,11.2,19.6,10.6,18.8,10.6z"/>
<path style="fill:#22B8AF;" d="M7.9,7.7c0-2.1,1.7-3.8,3.8-3.8c2.1,0,3.8,1.7,3.8,3.8v2.8h2.8V7.7c0-3.6-3-6.6-6.6-6.6
	c-3.6,0-6.6,3-6.6,6.6v2.8h2.8V7.7z"/>
</svg>
