<?xml version="1.0" encoding="utf-8"?>
<!-- Generator: Adobe Illustrator 18.1.1, SVG Export Plug-In . SVG Version: 6.00 Build 0)  -->
<!DOCTYPE svg PUBLIC "-//W3C//DTD SVG 1.1//EN" "http://www.w3.org/Graphics/SVG/1.1/DTD/svg11.dtd">
<svg version="1.1" id="Layer_1" xmlns="http://www.w3.org/2000/svg" xmlns:xlink="http://www.w3.org/1999/xlink" x="0px" y="0px"
	 width="23px" height="23px" viewBox="0 0 23 23" style="enable-background:new 0 0 23 23;" xml:space="preserve">
<g>
	<path style="fill-rule:evenodd;clip-rule:evenodd;fill:#375667;" d="M22.3,3.8L20,6.1L16.9,3c0.7-0.7,2.7-3.5,3.8-2.3
		C21.4,1.4,23.4,2.7,22.3,3.8"/>
	<path style="fill-rule:evenodd;clip-rule:evenodd;fill:#375667;" d="M6.1,13.7l3.1,3.1c-1.4,0.3-2.7,0.7-4.1,1
		C5.5,16.5,5.8,15.1,6.1,13.7z"/>
	<path style="fill-rule:evenodd;clip-rule:evenodd;fill:#375667;" d="M19.2,6.8L10,16L6.9,13c2.3-2.3,4.5-4.5,6.8-6.8
		c0.6-0.6,1.1-1.1,1.7-1.7c0.1-0.1,0.6-0.7,0.7-0.7c0.3,0,1.2,1.2,1.5,1.5C18.1,5.8,18.7,6.3,19.2,6.8z"/>
	<path style="fill-rule:evenodd;clip-rule:evenodd;fill:#22B8AF;" d="M2.6,3.7v16.7h16.7V10.2L21.5,8c0,2.5,0,4.9,0,7.4
		c0,1.6,0,3.1,0,4.7c0,0.9,0.3,2.6-1.1,2.6c-3.4,0-6.8,0-10.2,0c-2.2,0-4.3,0-6.5,0c-0.9,0-3.4,0.4-3.4-1.1c0-3.4,0-6.7,0-10.1
		c0-2.2,0-4.4,0-6.6C0.4,4,0,1.5,1.5,1.5h13.6c-0.4,0.4-0.7,0.7-1.1,1.1c-0.2,0.2-0.9,1.1-1.1,1.1c-0.9,0-1.9,0-2.8,0
		C7.6,3.7,5.1,3.7,2.6,3.7z"/>
</g>
</svg>
