<?xml version="1.0" encoding="utf-8"?>
<!-- Generator: Adobe Illustrator 18.1.1, SVG Export Plug-In . SVG Version: 6.00 Build 0)  -->
<!DOCTYPE svg PUBLIC "-//W3C//DTD SVG 1.1//EN" "http://www.w3.org/Graphics/SVG/1.1/DTD/svg11.dtd">
<svg version="1.1" id="Layer_1" xmlns="http://www.w3.org/2000/svg" xmlns:xlink="http://www.w3.org/1999/xlink" x="0px" y="0px"
	 width="23px" height="23px" viewBox="0 0 23 23" style="enable-background:new 0 0 23 23;" xml:space="preserve">
<g>
	<g>
		<path style="fill-rule:evenodd;clip-rule:evenodd;fill:#375667;" d="M15.8,14.5v-0.4h-0.4c-1.2,0-2.1-0.9-2.1-2.1v-1
			c0-1.1,0.9-2.1,2.1-2.1h0.4V8.5c0-0.5,0.2-1,0.6-1.4c-2-3.2-6.1-4.7-9.7-3.5C3.3,4.7,1,8,1,11.5s2.3,6.8,5.6,7.9
			c3.6,1.2,7.7-0.2,9.7-3.5C16,15.5,15.8,15,15.8,14.5z M6.7,11C6.8,11,6.8,11,6.7,11C6.3,8.3,8.4,7.6,8.4,7.6
			C8.7,7.5,9,7.4,9.3,7.5c0.3,0,0.6,0,0.9,0.1c0,0,2.1,0.7,1.6,3.5c0.6-0.1,0.1,1.4-0.4,1.5c0,0,0,0.7-0.7,1.5c0,0,0,0,0,0
			c-0.9,0.9-2,1-2.9,0c0,0,0,0,0,0c-0.7-0.8-0.7-1.5-0.7-1.5C6.7,12.4,6.3,11,6.7,11z M12.1,17.8c-0.5,0.2-1.1,0.3-1.6,0.5
			c-2,0.3-4.2-0.3-5.7-1.7c0.8-0.7,3.1-0.4,3.1-1.7c0.9,0.7,2,0.7,2.9,0c0,1.4,2.3,1,3.1,1.7C13.4,17.1,12.7,17.5,12.1,17.8
			C12,17.8,12.7,17.5,12.1,17.8z"/>
	</g>
	<g>
		<path style="fill:#22B8AF;" d="M21.4,10.4h-1.9V8.5c0-0.3-0.3-0.6-0.6-0.6h-1c-0.3,0-0.6,0.3-0.6,0.6v1.9h-1.9
			c-0.3,0-0.6,0.3-0.6,0.6v1c0,0.3,0.3,0.6,0.6,0.6h1.9v1.9c0,0.3,0.3,0.6,0.6,0.6h1c0.3,0,0.6-0.3,0.6-0.6v-1.9h1.9
			c0.3,0,0.6-0.3,0.6-0.6v-1C22,10.7,21.7,10.4,21.4,10.4z"/>
	</g>
</g>
</svg>
