<?xml version="1.0" encoding="utf-8"?>
<!-- Generator: Adobe Illustrator 18.1.1, SVG Export Plug-In . SVG Version: 6.00 Build 0)  -->
<!DOCTYPE svg PUBLIC "-//W3C//DTD SVG 1.1//EN" "http://www.w3.org/Graphics/SVG/1.1/DTD/svg11.dtd">
<svg version="1.1" id="Layer_1" xmlns="http://www.w3.org/2000/svg" xmlns:xlink="http://www.w3.org/1999/xlink" x="0px" y="0px"
	 width="23px" height="23px" viewBox="0 0 23 23" style="enable-background:new 0 0 23 23;" xml:space="preserve">
<g>
	<path style="fill:#375667;" d="M21.8,19.5L17.4,15c-0.6,0.9-1.5,1.7-2.4,2.4l4.5,4.4C20.9,23.4,23.3,21,21.8,19.5z"/>
	<path style="fill:#22B8AF;" d="M15,17.4c4.4-3,5.2-9.4,1.8-13.4c-3-3.5-8.2-4.3-12.1-1.7C0.9,4.7-0.4,9.9,1.7,14
		c2.2,4.4,7.7,6.2,12.1,4.1C14.2,17.9,14.6,17.6,15,17.4L15,17.4z M9.8,15.7C6.7,15.7,4,13,4,9.8C4,6.7,6.7,4,9.8,4
		c3.2,0,5.8,2.7,5.8,5.8C15.7,13,13,15.7,9.8,15.7z"/>
	<g>
		<path style="fill:#375667;" d="M9.8,2.2c4.2,0,7.7,3.4,7.7,7.7c0,1.5-0.5,3.1-1.4,4.3c-0.5,0.7-1,1.3-1.7,1.8l-0.3,0.2
			c-1.2,0.9-2.8,1.3-4.3,1.3c-4.2,0-7.7-3.4-7.7-7.7C2.2,5.6,5.6,2.2,9.8,2.2 M9.8,0.7c-5.1,0-9.2,4.1-9.2,9.2
			c0,5.1,4.1,9.2,9.2,9.2c1.8,0,3.7-0.6,5.2-1.6l0,0c0.9-0.6,1.7-1.4,2.3-2.4c1.1-1.5,1.6-3.3,1.6-5.2C19,4.8,14.9,0.7,9.8,0.7
			L9.8,0.7z"/>
	</g>
</g>
</svg>
