<?xml version="1.0" encoding="utf-8"?>
<!-- Generator: Adobe Illustrator 18.1.1, SVG Export Plug-In . SVG Version: 6.00 Build 0)  -->
<!DOCTYPE svg PUBLIC "-//W3C//DTD SVG 1.1//EN" "http://www.w3.org/Graphics/SVG/1.1/DTD/svg11.dtd">
<svg version="1.1" id="Layer_1" xmlns="http://www.w3.org/2000/svg" xmlns:xlink="http://www.w3.org/1999/xlink" x="0px" y="0px"
	 width="23px" height="23px" viewBox="0 0 23 23" style="enable-background:new 0 0 23 23;" xml:space="preserve">
<path style="fill:#22B8AF;" d="M7.4,3.1l0,13.7c-0.7-0.2-1.6-0.1-2.5,0.2c-1.9,0.7-2.6,2.5-2.1,3.9c0.5,1.4,2,2,4,1.3
	c1.6-0.6,2.7-2,2.7-3.2c0,0,0-7.2,0-11.3l8.2-1.9v8.7c-0.7-0.2-1.6-0.1-2.5,0.2c-1.9,0.7-2.6,2.5-2.1,3.9c0.5,1.4,2,2,4,1.3
	c1.6-0.6,2.7-2,2.7-3.2V0.5L7.4,3.1z"/>
</svg>
