<?xml version="1.0" encoding="utf-8"?>
<!-- Generator: Adobe Illustrator 18.1.1, SVG Export Plug-In . SVG Version: 6.00 Build 0)  -->
<!DOCTYPE svg PUBLIC "-//W3C//DTD SVG 1.1//EN" "http://www.w3.org/Graphics/SVG/1.1/DTD/svg11.dtd">
<svg version="1.1" id="Layer_1" xmlns="http://www.w3.org/2000/svg" xmlns:xlink="http://www.w3.org/1999/xlink" x="0px" y="0px"
	 width="23px" height="23px" viewBox="0 0 23 23" style="enable-background:new 0 0 23 23;" xml:space="preserve">
<g>
	<path style="fill-rule:evenodd;clip-rule:evenodd;fill:#22B8AF;" d="M19.5,22.6c-2.9,0-5.7,0-8.6,0c-1.9,0-3.7,0-5.6,0
		c-0.9,0-2.8,0.3-2.8-1v-1h18.1C20.5,21.3,20.7,22.6,19.5,22.6"/>
	<path style="fill-rule:evenodd;clip-rule:evenodd;fill:#375667;" d="M19.5,5.6h-2.8c0-2.8-2.4-5.2-5.2-5.2c-2.8,0-5.2,2.4-5.2,5.2
		H3.5c-0.6,0-1,0.5-1,1v12.2h18.1V6.6C20.5,6.1,20.1,5.6,19.5,5.6z M8.4,5.6c0-4,6.3-4,6.3,0H8.4z"/>
</g>
</svg>
