<?xml version="1.0" encoding="utf-8"?>
<!-- Generator: Adobe Illustrator 18.1.1, SVG Export Plug-In . SVG Version: 6.00 Build 0)  -->
<!DOCTYPE svg PUBLIC "-//W3C//DTD SVG 1.1//EN" "http://www.w3.org/Graphics/SVG/1.1/DTD/svg11.dtd">
<svg version="1.1" id="Layer_1" xmlns="http://www.w3.org/2000/svg" xmlns:xlink="http://www.w3.org/1999/xlink" x="0px" y="0px"
	 width="23px" height="23px" viewBox="0 0 23 23" style="enable-background:new 0 0 23 23;" xml:space="preserve">
<g>
	<g>
		<g>
			<path style="fill:#5DB54F;" d="M11.5,16.4c-1,0-1.9-0.3-2.7-0.8c-0.8-0.5-1.4-1.2-1.8-2L3.1,6.7c-0.8,1.5-1.2,3.1-1.2,4.8
				c0,2.4,0.8,4.5,2.3,6.3s3.5,2.8,5.8,3.2l2.8-4.8C12.6,16.2,12.1,16.4,11.5,16.4z"/>
			<path style="fill:#E0423A;" d="M8.5,7.6c0.9-0.7,1.9-0.9,3-0.9c0.1,0,8.2,0,8.2,0c-0.8-1.4-2-2.7-3.5-3.5c-1.5-0.8-3-1.3-4.8-1.3
				c-1.5,0-2.9,0.3-4.2,1C6,3.5,4.8,4.4,3.9,5.6l2.8,4.7C7,9.2,7.6,8.3,8.5,7.6z"/>
			<path style="fill:#F8CC42;" d="M20.3,7.9h-5.6c1,1,1.6,2.2,1.6,3.6c0,1-0.3,2-0.9,2.8l-3.9,6.8c2.6,0,4.8-1,6.7-2.8
				c1.8-1.9,2.8-4.1,2.8-6.7C21.1,10.3,20.9,9,20.3,7.9z"/>
			<circle style="fill:#5D95CC;" cx="11.5" cy="11.5" r="3.6"/>
		</g>
	</g>
</g>
</svg>
