<?xml version="1.0" encoding="utf-8"?>
<!-- Generator: Adobe Illustrator 18.1.1, SVG Export Plug-In . SVG Version: 6.00 Build 0)  -->
<!DOCTYPE svg PUBLIC "-//W3C//DTD SVG 1.1//EN" "http://www.w3.org/Graphics/SVG/1.1/DTD/svg11.dtd">
<svg version="1.1" id="Layer_1" xmlns="http://www.w3.org/2000/svg" xmlns:xlink="http://www.w3.org/1999/xlink" x="0px" y="0px"
	 width="23px" height="23px" viewBox="0 0 23 23" style="enable-background:new 0 0 23 23;" xml:space="preserve">
<path style="fill:#D3104A;" d="M11.5,1.5C7,1.5,2.9,4.7,1.8,9.1c-1.1,4.4,1,9.2,5,11.3c4,2.1,9.2,1.2,12.2-2.3
	c3-3.4,3.3-8.6,0.6-12.4C17.8,3.1,14.7,1.5,11.5,1.5z M4.3,11.5c0-5.5,6.3-9,11-6l-9.9,9.9C4.8,14.2,4.3,12.9,4.3,11.5z M11.5,18.7
	c-1.5,0-2.9-0.5-4.1-1.3l10-10C20.6,12.1,17.2,18.7,11.5,18.7z"/>
</svg>
