<?xml version="1.0" encoding="utf-8"?>
<!-- Generator: Adobe Illustrator 18.1.1, SVG Export Plug-In . SVG Version: 6.00 Build 0)  -->
<!DOCTYPE svg PUBLIC "-//W3C//DTD SVG 1.1//EN" "http://www.w3.org/Graphics/SVG/1.1/DTD/svg11.dtd">
<svg version="1.1" id="Layer_1" xmlns="http://www.w3.org/2000/svg" xmlns:xlink="http://www.w3.org/1999/xlink" x="0px" y="0px"
	 width="23px" height="23px" viewBox="0 0 23 23" style="enable-background:new 0 0 23 23;" xml:space="preserve">
<g>
	<path style="fill:#375667;" d="M22.6,9c0-0.2-0.1-0.5-0.3-0.6L12,0.8c-0.3-0.2-0.6-0.2-0.9,0L0.7,8.4C0.5,8.5,0.4,8.8,0.4,9v12.6
		c0,0.4,0.3,0.8,0.8,0.8h20.7c0.4,0,0.8-0.4,0.8-0.8V9z M11.5,2.4l9.6,7v0.9l-6.6,4.7l5.2,3.3c0.8,0.5,0,1.8-0.8,1.3L11.5,15
		l-7.4,4.7c-0.8,0.5-1.7-0.8-0.8-1.3l5.2-3.3l-6.6-4.7V9.4L11.5,2.4z"/>
	<path style="fill:#375667;" d="M19.7,18.4"/>
	<polygon style="fill:#22B8AF;" points="11.5,13.1 13.4,14.3 19.5,9.9 11.5,4 3.5,9.9 9.6,14.3 	"/>
</g>
</svg>
