<?xml version="1.0" encoding="utf-8"?>
<!-- Generator: Adobe Illustrator 18.1.1, SVG Export Plug-In . SVG Version: 6.00 Build 0)  -->
<!DOCTYPE svg PUBLIC "-//W3C//DTD SVG 1.1//EN" "http://www.w3.org/Graphics/SVG/1.1/DTD/svg11.dtd">
<svg version="1.1" id="Layer_1" xmlns="http://www.w3.org/2000/svg" xmlns:xlink="http://www.w3.org/1999/xlink" x="0px" y="0px"
	 width="23px" height="23px" viewBox="0 0 23 23" style="enable-background:new 0 0 23 23;" xml:space="preserve">
<path style="fill:#22B8AF;" d="M17.5,11.5c0,3.5-3.1,6.3-6.6,6c-3.5-0.3-6.1-3.7-5.4-7.2H1.5v8c0,1.7,1.4,3.1,3.1,3.1h13.7
	c1.7,0,3.1-1.4,3.1-3.1v-8h-4.1C17.5,10.7,17.5,11.1,17.5,11.5z"/>
<path style="fill:#375667;" d="M18.4,1.5H4.6c-1.7,0-3.1,1.4-3.1,3.1V8h5.1c2.4-3.4,7.5-3.4,9.9,0h5.1V4.6
	C21.5,2.9,20.1,1.5,18.4,1.5z M19.9,5.4c0,0.3-0.3,0.6-0.6,0.6h-1.7c-0.3,0-0.6-0.3-0.6-0.6V3.7c0-0.3,0.3-0.6,0.6-0.6h1.7
	c0.3,0,0.6,0.2,0.6,0.6V5.4z"/>
<path style="fill:#375667;" d="M15.2,11.5c0-2-1.7-3.7-3.7-3.7c-2,0-3.7,1.7-3.7,3.7s1.7,3.7,3.7,3.7C13.5,15.2,15.2,13.5,15.2,11.5
	z"/>
</svg>
