<?xml version="1.0" encoding="utf-8"?>
<!-- Generator: Adobe Illustrator 18.1.1, SVG Export Plug-In . SVG Version: 6.00 Build 0)  -->
<!DOCTYPE svg PUBLIC "-//W3C//DTD SVG 1.1//EN" "http://www.w3.org/Graphics/SVG/1.1/DTD/svg11.dtd">
<svg version="1.1" id="Layer_1" xmlns="http://www.w3.org/2000/svg" xmlns:xlink="http://www.w3.org/1999/xlink" x="0px" y="0px"
	 width="23px" height="23px" viewBox="0 0 23 23" style="enable-background:new 0 0 23 23;" xml:space="preserve">
<g>
	<path style="fill-rule:evenodd;clip-rule:evenodd;fill:#375667;" d="M17.3,17.2c-1.1,0-1.4-1.5-0.5-2c0.4-0.2,1-0.1,1.5-0.3
		c0.6-0.2,1-0.6,1.4-1c1.3-1.6,0.5-4.1-1.4-4.8c-0.3-0.1-0.7-0.2-1.1-0.2c-0.2,0-0.3-0.8-0.4-1c-0.4-0.9-1-1.8-1.7-2.4
		C13.3,3.9,10.6,3.7,8.5,5C7.5,5.5,6.8,6.4,6.3,7.3C6.1,7.6,6,8,5.9,8.3C5.7,9,5.7,8.8,5.1,9c-1.9,0.4-3,2.5-2.2,4.3
		c0.4,0.9,1.3,1.6,2.3,1.8c0.5,0.1,1,0,1.3,0.4c0.4,0.4,0.3,1.1-0.2,1.4c-0.7,0.6-2.2,0.1-2.9-0.3c-1-0.5-1.8-1.3-2.3-2.3
		c-0.8-1.6-0.7-3.5,0.2-4.9C1.7,8.6,2.4,8,3.1,7.5c0.4-0.2,0.9-0.3,1.1-0.7C4.4,6.4,4.7,6,4.9,5.6c2.1-3.1,6.2-4.4,9.6-2.9
		c1.6,0.7,3,1.9,3.8,3.4c0.2,0.4,0.3,0.9,0.7,1.1c0.4,0.2,0.8,0.4,1.2,0.6C21,8.3,21.6,9,22,9.8C23.6,13.2,21,17.2,17.3,17.2"/>
	<path style="fill-rule:evenodd;clip-rule:evenodd;fill:#22B8AF;" d="M15.4,17.2C15.4,17.2,15.4,17.2,15.4,17.2l-3.1,3.4
		c-0.4,0.4-1.1,0.5-1.5,0l0,0c-0.5-0.6-1.1-1.2-1.6-1.8c-0.2-0.2-1.2-1.6-1.5-1.6c-0.9-1,0.7-2.4,1.5-1.4l1.3,1.4c0-1.3,0-2.6,0-3.9
		c0-0.4-0.1-0.9,0-1.3c0-1.3,2.1-1.3,2.1,0v5.2c0.5-0.5,1-1.4,1.7-1.7C15.1,15.1,16.1,16.4,15.4,17.2z"/>
</g>
</svg>
