<?xml version="1.0" encoding="utf-8"?>
<!-- Generator: Adobe Illustrator 18.1.1, SVG Export Plug-In . SVG Version: 6.00 Build 0)  -->
<!DOCTYPE svg PUBLIC "-//W3C//DTD SVG 1.1//EN" "http://www.w3.org/Graphics/SVG/1.1/DTD/svg11.dtd">
<svg version="1.1" id="Layer_1" xmlns="http://www.w3.org/2000/svg" xmlns:xlink="http://www.w3.org/1999/xlink" x="0px" y="0px"
	 width="23px" height="23px" viewBox="0 0 23 23" style="enable-background:new 0 0 23 23;" xml:space="preserve">
<path style="fill:#375667;" d="M21.8,11.1l-1-1c-0.3-0.3-0.7-0.3-1,0L13,16.9V1.7c0-0.4-0.4-0.8-0.8-0.8h-1.3
	c-0.4,0-0.8,0.4-0.8,0.8v15.2l-6.8-6.8c-0.3-0.3-0.7-0.3-1,0l-1,1c-0.3,0.3-0.3,0.7,0,1l9.8,9.8c0.3,0.3,0.7,0.3,1,0l9.8-9.8
	C22,11.8,22,11.4,21.8,11.1z"/>
</svg>
