<?xml version="1.0" encoding="utf-8"?>
<!-- Generator: Adobe Illustrator 18.1.1, SVG Export Plug-In . SVG Version: 6.00 Build 0)  -->
<!DOCTYPE svg PUBLIC "-//W3C//DTD SVG 1.1//EN" "http://www.w3.org/Graphics/SVG/1.1/DTD/svg11.dtd">
<svg version="1.1" id="Layer_1" xmlns="http://www.w3.org/2000/svg" xmlns:xlink="http://www.w3.org/1999/xlink" x="0px" y="0px"
	 width="23px" height="23px" viewBox="0 0 23 23" style="enable-background:new 0 0 23 23;" xml:space="preserve">
<path style="fill-rule:evenodd;clip-rule:evenodd;fill:#22B8AF;" d="M14.5,3C14.5,3,14.5,3,14.5,3l4.6-0.2c0.6,0,1.1,0.5,1.1,1.1h0
	c-0.1,1.5-0.2,3.1-0.2,4.6c-0.1,1.3-2.1,1.2-2.1-0.1L18,6.4c-1.1,1.1-2.1,2.1-3.2,3.2c-0.5,0.5-1,1-1.4,1.4c-1,1-2.5-0.4-1.5-1.4
	L16.6,5c-0.7,0-1.7,0.3-2.4,0C13.3,4.6,13.4,3.1,14.5,3z"/>
<path style="fill:#375667;" d="M19,11.4c-0.4,0-0.8-0.1-1.2-0.3v5.3c0,0.8-0.7,1.5-1.5,1.5H6.5C5.7,18,5,17.3,5,16.5V7.7
	c0,0,0,0,0,0v-1c0-0.8,0.7-1.5,1.5-1.5H8h3.8c-0.3-0.7-0.3-1.5-0.1-2.2H8H6.5C4.4,3,2.8,4.7,2.8,6.7v1v8.8c0,2.1,1.7,3.8,3.8,3.8
	h9.8c2.1,0,3.8-1.7,3.8-3.8v-5.2C19.7,11.4,19.3,11.4,19,11.4z"/>
</svg>
