<?xml version="1.0" encoding="utf-8"?>
<!-- Generator: Adobe Illustrator 18.1.1, SVG Export Plug-In . SVG Version: 6.00 Build 0)  -->
<!DOCTYPE svg PUBLIC "-//W3C//DTD SVG 1.1//EN" "http://www.w3.org/Graphics/SVG/1.1/DTD/svg11.dtd">
<svg version="1.1" id="Layer_1" xmlns="http://www.w3.org/2000/svg" xmlns:xlink="http://www.w3.org/1999/xlink" x="0px" y="0px"
	 width="23px" height="23px" viewBox="0 0 23 23" style="enable-background:new 0 0 23 23;" xml:space="preserve">
<g>
	<path style="fill:#22B8AF;" d="M6.2,6.9C5.3,6.1,4.9,4.7,5.8,3.5c1.4-1.9,4.6-0.9,4.6,1.5v1.9h2.4V5c0-2.1,2.6-3.3,4.2-1.9
		c1.2,1.1,1,2.8-0.1,3.8h2.7c0.3-0.6,0.4-1.2,0.4-1.9c0-2.6-2.1-4.7-4.7-4.7c-1.5,0-2.8,0.7-3.7,1.9C10.6,1,9.3,0.3,7.8,0.3
		C5.2,0.3,3.1,2.4,3.1,5c0,0.7,0.2,1.3,0.4,1.9H6.2z"/>
	<path style="fill:#375667;" d="M22.3,10.8v-3c0-0.5-0.4-0.9-0.9-0.9H1.6c-0.5,0-0.9,0.4-0.9,0.9v3H22.3z"/>
	<path style="fill:#375667;" d="M13.8,12.9v7.3l-2.3-2.3l-2.3,2.3v-7.3H0.7v8.9c0,0.5,0.4,0.9,0.9,0.9h19.8c0.5,0,0.9-0.4,0.9-0.9
		v-8.9H13.8z"/>
</g>
</svg>
