<?xml version="1.0" encoding="utf-8"?>
<!-- Generator: Adobe Illustrator 18.1.1, SVG Export Plug-In . SVG Version: 6.00 Build 0)  -->
<!DOCTYPE svg PUBLIC "-//W3C//DTD SVG 1.1//EN" "http://www.w3.org/Graphics/SVG/1.1/DTD/svg11.dtd">
<svg version="1.1" id="Layer_1" xmlns="http://www.w3.org/2000/svg" xmlns:xlink="http://www.w3.org/1999/xlink" x="0px" y="0px"
	 width="23px" height="23px" viewBox="0 0 23 23" style="enable-background:new 0 0 23 23;" xml:space="preserve">
<g>
	<path style="fill:#22B8AF;" d="M19,1.5H4C2.6,1.5,1.5,2.6,1.5,4v15c0,1.4,1.1,2.5,2.5,2.5h7.6v-7.2H9.2v-3.1h2.4V9.6
		c0-2.4,1.8-4.3,4.1-4.3h2.2v3.5h-2c-0.5,0-0.7,0.3-0.7,0.7v1.6h2.6v3.1h-2.6v7.2H19c1.4,0,2.5-1.1,2.5-2.5V4
		C21.5,2.6,20.4,1.5,19,1.5z"/>
	<g>
		<g>
			<path style="fill:#149996;" d="M4,21.5h7.6v-7.2H9.2v-2.8H1.5V19C1.5,20.4,2.6,21.5,4,21.5z"/>
			<path style="fill:#149996;" d="M17.8,11.5v2.8h-2.6v7.2H19c1.4,0,2.5-1.1,2.5-2.5v-7.5H17.8z"/>
		</g>
	</g>
</g>
</svg>
