<?xml version="1.0" encoding="utf-8"?>
<!-- Generator: Adobe Illustrator 18.1.1, SVG Export Plug-In . SVG Version: 6.00 Build 0)  -->
<!DOCTYPE svg PUBLIC "-//W3C//DTD SVG 1.1//EN" "http://www.w3.org/Graphics/SVG/1.1/DTD/svg11.dtd">
<svg version="1.1" id="Layer_1" xmlns="http://www.w3.org/2000/svg" xmlns:xlink="http://www.w3.org/1999/xlink" x="0px" y="0px"
	 width="23px" height="23px" viewBox="0 0 23 23" style="enable-background:new 0 0 23 23;" xml:space="preserve">
<g>
	<path style="fill:#375667;" d="M21.8,15.5c0.4,0,0.8-0.4,0.8-0.8v-1.3c0-0.4-0.4-0.8-0.8-0.8H7.4c-0.4,0-0.8,0.3-0.8,0.8v1.3
		c0,0.4,0.4,0.8,0.8,0.8H21.8z"/>
	<path style="fill:#22B8AF;" d="M21.8,20.6c0.4,0,0.8-0.4,0.8-0.8v-1.3c0-0.4-0.4-0.8-0.8-0.8H7.4c-0.4,0-0.8,0.3-0.8,0.8v1.3
		c0,0.4,0.4,0.8,0.8,0.8H21.8z"/>
	<path style="fill:#375667;" d="M21.8,5.3c0.4,0,0.8-0.3,0.8-0.8V3.2c0-0.4-0.4-0.8-0.8-0.8H7.4C7,2.4,6.6,2.8,6.6,3.2v1.3
		C6.6,5,7,5.3,7.4,5.3H21.8z"/>
	<path style="fill:#22B8AF;" d="M21.8,10.4c0.4,0,0.8-0.3,0.8-0.8V8.3c0-0.4-0.4-0.8-0.8-0.8H7.4C7,7.5,6.6,7.9,6.6,8.3v1.3
		c0,0.4,0.4,0.8,0.8,0.8H21.8z"/>
	<path style="fill:#375667;" d="M3.8,15.5c0.4,0,0.8-0.4,0.8-0.8v-1.3c0-0.4-0.4-0.8-0.8-0.8h-3c-0.4,0-0.8,0.3-0.8,0.8v1.3
		c0,0.4,0.4,0.8,0.8,0.8H3.8z"/>
	<path style="fill:#22B8AF;" d="M3.8,20.6c0.4,0,0.8-0.4,0.8-0.8v-1.3c0-0.4-0.4-0.8-0.8-0.8h-3C0.4,17.7,0,18,0,18.5v1.3
		c0,0.4,0.4,0.8,0.8,0.8H3.8z"/>
	<path style="fill:#375667;" d="M3.8,5.3c0.4,0,0.8-0.3,0.8-0.8V3.2c0-0.4-0.4-0.8-0.8-0.8h-3C0.4,2.4,0,2.8,0,3.2v1.3
		C0,5,0.4,5.3,0.8,5.3H3.8z"/>
	<path style="fill:#22B8AF;" d="M3.8,10.4c0.4,0,0.8-0.3,0.8-0.8V8.3c0-0.4-0.4-0.8-0.8-0.8h-3C0.4,7.5,0,7.9,0,8.3v1.3
		c0,0.4,0.4,0.8,0.8,0.8H3.8z"/>
</g>
</svg>
