<?xml version="1.0" encoding="utf-8"?>
<!-- Generator: Adobe Illustrator 18.1.1, SVG Export Plug-In . SVG Version: 6.00 Build 0)  -->
<!DOCTYPE svg PUBLIC "-//W3C//DTD SVG 1.1//EN" "http://www.w3.org/Graphics/SVG/1.1/DTD/svg11.dtd">
<svg version="1.1" id="Layer_1" xmlns="http://www.w3.org/2000/svg" xmlns:xlink="http://www.w3.org/1999/xlink" x="0px" y="0px"
	 width="23px" height="23px" viewBox="0 0 23 23" style="enable-background:new 0 0 23 23;" xml:space="preserve">
<g>
	<path style="fill:#22B8AF;" d="M19.4,7.2l-3.6-3.6c-0.7,0.5-1.7,0.5-2.4,0l-9.9,9.9c0.5,0.7,0.5,1.7,0,2.4l3.5,3.6
		c0.7-0.5,1.7-0.5,2.4,0l9.9-9.9C18.9,8.8,18.9,7.9,19.4,7.2z M13.8,13.8c-3,3-7.6-1.6-4.6-4.6C12.2,6.2,16.8,10.8,13.8,13.8
		C12.5,15.1,15.1,12.5,13.8,13.8z"/>
	<path style="fill:#375667;" d="M6.9,22c0.8,0.8,2.1,0.8,2.9,0L22,9.8c0.8-0.8,0.8-2.1,0-2.9L16.1,1c-0.8-0.8-2.1-0.8-2.9,0L1,13.2
		c-0.8,0.8-0.8,2.1,0,2.9L6.9,22z M2.4,15.8c1-0.5,1-1.9,0-2.3L13.5,2.4c0.5,1,1.9,1,2.3,0l4.8,4.8c-1,0.5-1,1.9,0,2.3L9.5,20.6
		c-0.5-1-1.9-1-2.3,0L2.4,15.8z"/>
</g>
</svg>
