<?xml version="1.0" encoding="utf-8"?>
<!-- Generator: Adobe Illustrator 18.1.1, SVG Export Plug-In . SVG Version: 6.00 Build 0)  -->
<!DOCTYPE svg PUBLIC "-//W3C//DTD SVG 1.1//EN" "http://www.w3.org/Graphics/SVG/1.1/DTD/svg11.dtd">
<svg version="1.1" id="Layer_1" xmlns="http://www.w3.org/2000/svg" xmlns:xlink="http://www.w3.org/1999/xlink" x="0px" y="0px"
	 width="23px" height="23px" viewBox="0 0 23 23" style="enable-background:new 0 0 23 23;" xml:space="preserve">
<g>
	<path style="fill:#22B8AF;" d="M9.7,4.9c0-0.2-0.1-0.3-0.2-0.4L8.8,3.7c-0.2-0.2-0.6-0.2-0.9,0l-7,7.3c-0.2,0.2-0.2,0.7,0,0.9
		l7,7.3c0.3,0.3,0.6,0.2,0.9,0l0.8-0.8c0.2-0.3,0.2-0.6,0-0.9l-5.8-6.1l5.8-6.1C9.7,5.3,9.7,5.1,9.7,4.9z"/>
	<path style="fill:#375667;" d="M22.1,11l-7-7.3c-0.2-0.3-0.6-0.3-0.9,0l-0.8,0.8c-0.2,0.3-0.2,0.6,0,0.9l5.8,6.1l-5.8,6.1
		c-0.2,0.3-0.2,0.6,0,0.9l0.8,0.8c0.2,0.3,0.6,0.3,0.9,0l7-7.3C22.3,11.7,22.3,11.3,22.1,11z"/>
</g>
</svg>
