<?xml version="1.0" encoding="utf-8"?>
<!-- Generator: Adobe Illustrator 18.1.1, SVG Export Plug-In . SVG Version: 6.00 Build 0)  -->
<!DOCTYPE svg PUBLIC "-//W3C//DTD SVG 1.1//EN" "http://www.w3.org/Graphics/SVG/1.1/DTD/svg11.dtd">
<svg version="1.1" id="Layer_1" xmlns="http://www.w3.org/2000/svg" xmlns:xlink="http://www.w3.org/1999/xlink" x="0px" y="0px"
	 width="23px" height="23px" viewBox="0 0 23 23" style="enable-background:new 0 0 23 23;" xml:space="preserve">
<path style="fill:#22B8AF;" d="M16.7,22.1c-0.5,0-1-0.1-1.4-0.4l-3.8-2.8l-3.8,2.8c-0.4,0.3-1,0.5-1.5,0.5c-0.5,0-1-0.1-1.4-0.4
	c-1-0.6-1.3-1.9-0.9-2.9l1.5-4.4l-3.8-2.7C0.8,11.1,0.4,10,0.7,9C0.9,7.9,1.9,7.1,3,7.1h4.7l1.4-4.5c0.3-1,1.3-1.7,2.3-1.7
	c1.1,0,2.1,0.7,2.4,1.8l1.4,4.4h4.7c1.1,0,2.1,0.7,2.4,1.8c0.3,1.1-0.1,2.2-0.9,2.8l-3.7,2.7l1.5,4.4c0.3,1.1-0.1,2.2-0.9,2.8
	C17.8,21.9,17.3,22.1,16.7,22.1z M11.5,16.4l5,3.7c0.1,0,0.1,0.1,0.3,0.1c0.1,0,0.2,0,0.4-0.1c0.2-0.1,0.2-0.4,0.2-0.6l-2-5.8l5-3.6
	c0.2-0.1,0.2-0.3,0.1-0.6c0-0.2-0.3-0.3-0.4-0.3h-6.1l-1.9-5.8c-0.1-0.2-0.2-0.4-0.4-0.4c-0.2,0-0.4,0.2-0.4,0.3L9.2,9.1H3
	c-0.3,0-0.3,0.1-0.3,0.3L2.6,9.6c-0.1,0.2,0,0.3,0.2,0.4l5,3.6l-2,5.8c-0.1,0.2,0,0.4,0.1,0.5c0.1,0.1,0.2,0.1,0.3,0.1
	c0.1,0,0.2,0,0.3-0.1L11.5,16.4z"/>
</svg>
