<?xml version="1.0" encoding="utf-8"?>
<!-- Generator: Adobe Illustrator 18.1.1, SVG Export Plug-In . SVG Version: 6.00 Build 0)  -->
<!DOCTYPE svg PUBLIC "-//W3C//DTD SVG 1.1//EN" "http://www.w3.org/Graphics/SVG/1.1/DTD/svg11.dtd">
<svg version="1.1" id="Layer_1" xmlns="http://www.w3.org/2000/svg" xmlns:xlink="http://www.w3.org/1999/xlink" x="0px" y="0px"
	 width="23px" height="23px" viewBox="0 0 23 23" style="enable-background:new 0 0 23 23;" xml:space="preserve">
<g>
	<path style="fill:#375667;" d="M3.7,1.6C2.3,1.6,1.2,2.7,1.2,4V19c0,1.4,1.1,2.5,2.5,2.5h15.6c1.4,0,2.5-1.1,2.5-2.5V4
		c0-1.4-1.1-2.5-2.5-2.5H3.7z M19.3,19H3.7V6.1h15.6V19z"/>
	<rect x="5.1" y="7.5" style="fill:#22B8AF;" width="3.3" height="2.4"/>
	<rect x="9.8" y="7.5" style="fill:#22B8AF;" width="3.3" height="2.4"/>
	<rect x="14.6" y="7.5" style="fill:#22B8AF;" width="3.3" height="2.4"/>
	<rect x="5.1" y="11.3" style="fill:#22B8AF;" width="3.3" height="2.4"/>
	<rect x="9.8" y="11.3" style="fill:#22B8AF;" width="3.3" height="2.4"/>
	<rect x="14.6" y="11.3" style="fill:#22B8AF;" width="3.3" height="2.4"/>
	<rect x="5.1" y="15.1" style="fill:#22B8AF;" width="3.3" height="2.4"/>
	<rect x="9.8" y="15.1" style="fill:#22B8AF;" width="3.3" height="2.4"/>
	<rect x="14.6" y="15.1" style="fill:#22B8AF;" width="3.3" height="2.4"/>
</g>
</svg>
