<?xml version="1.0" encoding="utf-8"?>
<!-- Generator: Adobe Illustrator 18.1.1, SVG Export Plug-In . SVG Version: 6.00 Build 0)  -->
<!DOCTYPE svg PUBLIC "-//W3C//DTD SVG 1.1//EN" "http://www.w3.org/Graphics/SVG/1.1/DTD/svg11.dtd">
<svg version="1.1" id="Layer_1" xmlns="http://www.w3.org/2000/svg" xmlns:xlink="http://www.w3.org/1999/xlink" x="0px" y="0px"
	 width="23px" height="23px" viewBox="0 0 23 23" style="enable-background:new 0 0 23 23;" xml:space="preserve">
<path style="fill:#375667;" d="M10.8,1.2l-1,1c-0.3,0.3-0.3,0.7,0,0.9l6.5,6.5H1.7C1.3,9.7,1,10,1,10.4v1.3c0,0.4,0.3,0.7,0.7,0.7
	h14.6L9.8,19c-0.3,0.3-0.3,0.7,0,0.9l1,1c0.3,0.3,0.7,0.3,0.9,0l9.4-9.4c0.3-0.3,0.3-0.7,0-0.9l-9.4-9.4C11.5,0.9,11.1,0.9,10.8,1.2
	z"/>
</svg>
