<?xml version="1.0" encoding="utf-8"?>
<!-- Generator: Adobe Illustrator 18.1.1, SVG Export Plug-In . SVG Version: 6.00 Build 0)  -->
<!DOCTYPE svg PUBLIC "-//W3C//DTD SVG 1.1//EN" "http://www.w3.org/Graphics/SVG/1.1/DTD/svg11.dtd">
<svg version="1.1" id="Layer_1" xmlns="http://www.w3.org/2000/svg" xmlns:xlink="http://www.w3.org/1999/xlink" x="0px" y="0px"
	 width="23px" height="23px" viewBox="0 0 23 23" style="enable-background:new 0 0 23 23;" xml:space="preserve">
<path style="fill-rule:evenodd;clip-rule:evenodd;fill:#22B8AF;" d="M22.2,11.8C22.2,11.8,22.2,11.8,22.2,11.8c0-0.1,0-0.1,0-0.1
	c0,0,0,0,0,0c-0.1-0.3-0.2-0.5-0.4-0.7L11.6,1.1c-0.2-0.2-0.6-0.4-1-0.4c0,0,0,0,0,0v0H2.1v0c-0.7,0-1.3,0.6-1.3,1.3v0v1.3v7.2h0
	c0,0.4,0.2,0.7,0.5,1l0,0l11.2,10.3v0c0.2,0.2,0.4,0.3,0.6,0.3c0,0,0,0,0,0c0,0,0.1,0,0.1,0c0.4,0.1,0.9-0.1,1.2-0.5v0l3.4-4
	l4.2-4.9C22.2,12.5,22.3,12.2,22.2,11.8C22.2,11.8,22.2,11.9,22.2,11.8z M3.1,5.6C1.3,3.9,4.3,1.3,5.8,3.3C7.1,5,4.6,7.1,3.1,5.6
	C2.4,4.9,3.8,6.3,3.1,5.6z"/>
<g>
	<path style="fill-rule:evenodd;clip-rule:evenodd;fill:#149996;" d="M3.1,3.1C4.7,1.4,7.2,4,5.6,5.6l12.1,12.1l4.2-4.9
		c0.2-0.3,0.3-0.6,0.3-1c0,0,0,0,0,0c0,0,0-0.1,0-0.1c0,0,0,0,0,0c-0.1-0.3-0.2-0.5-0.4-0.7L11.6,1.1c-0.2-0.2-0.6-0.4-1-0.4
		c0,0,0,0,0,0v0H2.1v0c-0.4,0-0.7,0.2-1,0.4L3.1,3.1z"/>
	<path style="fill-rule:evenodd;clip-rule:evenodd;fill:#22B8AF;" d="M17.7,17.7L5.6,5.6C4,7.2,1.4,4.7,3.1,3.1L1.1,1.1
		C0.9,1.4,0.8,1.7,0.8,2.1v0v1.3v7.2h0c0,0.4,0.2,0.7,0.5,1l0,0l11.2,10.3v0c0.2,0.2,0.4,0.3,0.6,0.3c0,0,0,0,0,0c0,0,0.1,0,0.1,0
		c0.4,0.1,0.9-0.1,1.2-0.5v0L17.7,17.7z"/>
</g>
</svg>
