<svg xmlns="http://www.w3.org/2000/svg" width="23" height="23" viewBox="0 0 23 23"><title>icons-payment-set copy</title><path d="M11.5,12.14H9.9l-0.64.7-0.61-.7h-2v2.11h2l0.64-.7,0.61,0.7h1v-0.7H11.5A0.72,0.72,0,1,0,11.5,12.14ZM8.34,13.8H7.09V13.39H8.21V12.94H7.09V12.55H8.37l0.54,0.61Zm2,0.26-0.77-.86,0.77-.83v1.69Zm1.15-1H10.86V12.55h0.67A0.27,0.27,0,1,1,11.5,13.1Zm3-2.49h0.58l0.19-.48h1.05l0.19,0.48h1V9l1,1.6h0.7V8.49H18.69V10L17.8,8.49H17v2l-0.86-2H15.4l-0.7,1.66H14.54a0.65,0.65,0,0,1-.35-1.09,0.47,0.47,0,0,1,.38-0.13H15V8.49H14.57a1,1,0,0,0-1,1.05A0.9,0.9,0,0,0,14.51,10.6Zm1.31-1.76,0.35,0.83h-0.7ZM11,9.84H11.5a0.46,0.46,0,0,1,.35.1,0.61,0.61,0,0,1,.06.42V10.6h0.51V10.19a0.46,0.46,0,0,0-.1-0.38,0.58,0.58,0,0,0-.26-0.19,0.59,0.59,0,0,0,.32-0.74,0.73,0.73,0,0,0-.83-0.38H10.41V10.6h0.51V9.84h0Zm0-.9h0.61a0.41,0.41,0,0,1,.22,0,0.22,0.22,0,0,1,0,.38,0.62,0.62,0,0,1-.26,0H10.92V8.94h0Zm-0.86,1.21H8.91V9.74h1.15V9.33H8.91V8.94h1.18V8.49H8.4V10.6h1.69V10.16ZM7.5,10.6H8V8.49H7.18L6.58,9.93,5.91,8.49H5.07v2l-0.86-2H3.48L2.58,10.6H3.12l0.19-.48H4.37L4.56,10.6h1V8.94L6.32,10.6H6.77L7.5,8.94V10.6Zm-4-.93,0.35-.83L4.21,9.68H3.51Zm11.38,4.57h1.69V13.8H15.4V13.39h1.15V12.94H15.4V12.55h1.18V12.14H14.89v2.11Zm5-1.31H19.65a0.34,0.34,0,0,1-.26-0.06,0.19,0.19,0,0,1,0-.22l0,0a0.35,0.35,0,0,1,.19,0h0.93V12.14h-1a0.73,0.73,0,0,0-.61.26l0,0,0,0.06a0.19,0.19,0,0,0,0,.13v0.22l0,0.19a0.06,0.06,0,0,0,0,.06,0.11,0.11,0,0,0,0,.06l0,0,0,0a0,0,0,0,1,0,0,0.12,0.12,0,0,0,.1,0,0,0,0,0,1,0,0,2.51,2.51,0,0,0,.7.06c0.32,0,.29.38,0,0.38h-1v0.45h1a0.68,0.68,0,0,0,.77-0.51C20.71,13.19,20.39,13,19.91,12.94Zm-5.27-.26a0.49,0.49,0,0,0-.26-0.48,1.16,1.16,0,0,0-.61-0.1H12.62v2.11h0.51V13.45h0.54c0.35,0,.45.16,0.45,0.51v0.26h0.51V13.8a0.54,0.54,0,0,0-.32-0.58A0.55,0.55,0,0,0,14.63,12.68ZM14,13a0.62,0.62,0,0,1-.26,0H13.1V12.55h0.61a0.62,0.62,0,0,1,.26,0A0.25,0.25,0,0,1,14,13C13.9,13,14,12.94,14,13Zm8.25-8.38H0.79a0.64,0.64,0,0,0-.64.64V17.73a0.64,0.64,0,0,0,.64.64H22.21a0.64,0.64,0,0,0,.64-0.64V5.27A0.64,0.64,0,0,0,22.21,4.63ZM6,10.67V11H4.27l-0.19-.48H3.64L3.44,11H1.91L3.19,8.08H4.5L4.66,8.43V8.08H6.23L6.58,8.85,6.9,8.08h4.89a0.87,0.87,0,0,1,.58.16V8.08h1.34V8.24a1.68,1.68,0,0,1,.83-0.16h2l0.19,0.35V8.08h1.44l0.19,0.35V8.08h1.41V11H18.31l-0.26-.45V11H16.3l-0.19-.48H15.66L15.4,11H14.47a1.62,1.62,0,0,1-.8-0.19V11H11.5V10.35c0-.1,0-0.1-0.06-0.1h-0.1V11H7.15V10.67L7,11H6.1Zm15,3.52a1.06,1.06,0,0,1-1.05.48H18.5V14.47a1.11,1.11,0,0,1-.67.19H13.67V14c0-.1,0-0.1-0.1-0.1H13.51v0.77H12.17v-0.8a1.78,1.78,0,0,1-.7.1H11.31v0.7H9.68l-0.42-.45-0.42.45H6.19V11.72H8.91l0.38,0.45,0.42-.45h1.82a1.27,1.27,0,0,1,.7.16V11.72h1.63a1.37,1.37,0,0,1,.67.16V11.72H17v0.16a0.91,0.91,0,0,1,.61-0.16H19v0.16a1,1,0,0,1,.58-0.16H21v1.05H20.71A1.12,1.12,0,0,1,21,14.19C20.84,14.41,21.06,14,21,14.19ZM12.75,8.49h0.51V10.6H12.75V8.49Zm5.18,4.44H17.67c-0.16,0-.48-0.16-0.22-0.32a0.35,0.35,0,0,1,.19,0h0.93V12.14h-1a0.65,0.65,0,0,0-.67.86,1,1,0,0,0,1,.42c0.32,0,.29.38,0,0.38h-1v0.45h1a0.68,0.68,0,0,0,.77-0.51A0.62,0.62,0,0,0,17.93,12.94Z" fill="#375667"/></svg>