<svg xmlns="http://www.w3.org/2000/svg" width="23" height="23" viewBox="0 0 23 23"><title>icons-payment-set copy</title><path d="M2.21,8.51v2.08a1.12,1.12,0,0,0,1.34-1v0A1.12,1.12,0,0,0,2.21,8.51Z" fill="#375667"/><path d="M22.21,4.63H0.79a0.64,0.64,0,0,0-.64.64V17.73a0.64,0.64,0,0,0,.64.64H22.21a0.64,0.64,0,0,0,.64-0.64V5.27A0.64,0.64,0,0,0,22.21,4.63ZM19.09,7.94h1a0.93,0.93,0,0,1,1,.94,0.92,0.92,0,0,1-.68.91l1,1.33H20.64L19.78,9.86H19.71v1.27H19.09V7.94Zm-2.17,0h1.76V8.5H17.55V9.2h1.08V9.76H17.55v0.8h1.13v0.56H16.92V7.94Zm-2.62,0L15.17,10,16,7.94h0.68l-1.34,3.26H14.95L13.61,7.94H14.3ZM4.2,9.54a1.61,1.61,0,0,1-1.54,1.58h-1V7.94h1A1.61,1.61,0,0,1,4.2,9.52h0Zm0.91,1.58H4.47V7.94H5.11v3.18ZM6.45,11.2a1.36,1.36,0,0,1-1.14-.6l0.4-.4a0.89,0.89,0,0,0,.69.42,0.41,0.41,0,0,0,.46-0.44A0.46,0.46,0,0,0,6.5,9.76a1.08,1.08,0,0,1-1-.91,0.93,0.93,0,0,1,1-1,1.55,1.55,0,0,1,.9.37l-0.34.41a0.74,0.74,0,0,0-.49-0.24,0.4,0.4,0,0,0-.44.32c0,0.14,0,.21.4,0.38a1.11,1.11,0,0,1,1,1A1,1,0,0,1,6.45,11.2ZM10.15,11a1.67,1.67,0,1,1,0-3V8.81a1.07,1.07,0,1,0-.77,1.81,1.1,1.1,0,0,0,.77-0.35V11ZM12.07,7.9a1.65,1.65,0,1,1-1.65,1.65A1.65,1.65,0,0,1,12.07,7.9Zm9.82,9.51H10.63a43.51,43.51,0,0,0,5.25-1.66,34.07,34.07,0,0,0,6-2.91v4.58Z" fill="#375667"/><path d="M20.48,9v0a0.44,0.44,0,0,0-.43-0.44H19.71V9.4h0.34A0.44,0.44,0,0,0,20.48,9Z" fill="#375667"/></svg>