<svg xmlns="http://www.w3.org/2000/svg" width="23" height="23" viewBox="0 0 23 23"><title>icons-payment-set copy</title><path d="M11.5,1.77A9.73,9.73,0,1,1,1.77,11.5,9.74,9.74,0,0,1,11.5,1.77m0-1.62A11.35,11.35,0,1,0,22.85,11.5,11.35,11.35,0,0,0,11.5.15h0Z" fill="#22b8af"/><path d="M12.45,10.91c-0.42-.18-2-0.42-2-1.11a0.82,0.82,0,0,1,.93-0.65,1.36,1.36,0,0,1,.9.3,0.77,0.77,0,0,1,.22.33,0.32,0.32,0,0,0,.29.3h1c0.24,0,.31,0,0.31-0.31a2.14,2.14,0,0,0-1.93-2V6.86a0.27,0.27,0,0,0-.31-0.32H11.09a0.27,0.27,0,0,0-.31.32V7.72a2.21,2.21,0,0,0-2,2.16c0,1.42,1,1.87,2.06,2.22,0.9,0.3,1.85.31,1.85,0.94s-0.47.76-1,.76a1.35,1.35,0,0,1-1-.37,0.79,0.79,0,0,1-.2-0.46c0-.28-0.14-0.31-0.38-0.31H9c-0.24,0-.31.06-0.31,0.31a2.44,2.44,0,0,0,2.12,2.29v0.87a0.27,0.27,0,0,0,.31.32h0.83a0.27,0.27,0,0,0,.31-0.32V15.29A2.22,2.22,0,0,0,14.34,13C14.34,11.48,13.21,11.15,12.45,10.91Z" fill="#375667"/></svg>