<svg xmlns="http://www.w3.org/2000/svg" width="23" height="23" viewBox="0 0 23 23"><title>icons-payment-set copy</title><path d="M13.63,10.17c-1-.4-4.44-0.95-4.44-2.48,0-1.13,1.31-1.45,2.09-1.45a3.06,3.06,0,0,1,2,.68,1.73,1.73,0,0,1,.5.75,0.71,0.71,0,0,0,.64.68h2.33c0.55,0,.69-0.1.69-0.7,0-2.58-2-4-4.32-4.53v-2A0.6,0.6,0,0,0,12.44.39H10.59a0.6,0.6,0,0,0-.69.73V3c-2.47.48-4.54,2-4.54,4.83,0,3.18,2.21,4.18,4.61,5,2,0.68,4.13.7,4.13,2.1s-1,1.7-2.33,1.7a3,3,0,0,1-2.33-.83,1.77,1.77,0,0,1-.45-1c0-.63-0.31-0.7-0.86-0.7H5.84c-0.55,0-.69.13-0.69,0.7,0,2.85,2.28,4.58,4.75,5.13v2a0.6,0.6,0,0,0,.69.73h1.85a0.6,0.6,0,0,0,.69-0.73V20c2.8-.43,4.73-2.13,4.73-5.13C17.85,11.45,15.34,10.72,13.63,10.17Z" fill="#375667"/></svg>