<svg xmlns="http://www.w3.org/2000/svg" width="23" height="23" viewBox="0 0 23 23"><title>icons-payment-set copy</title><path d="M18.36,17.16l-3-5a0.14,0.14,0,0,1,.09-0.23l0.74-.07a0.22,0.22,0,0,0,.19-0.23,0.23,0.23,0,0,0,0-.12L14,7.42a0.12,0.12,0,0,1,.08-0.2l0.43-.07a0.22,0.22,0,0,0,.15-0.26,0.24,0.24,0,0,0,0-.07l-1.72-3A0.11,0.11,0,0,1,13,3.67l0.23-.07a0.22,0.22,0,0,0,.12-0.28l0,0L11.67,0.43a0.19,0.19,0,0,0-.33,0L9.69,3.27l0,0a0.22,0.22,0,0,0,.12.28L10,3.67a0.11,0.11,0,0,1,.06.16l-1.72,3a0.23,0.23,0,0,0,0,.07,0.22,0.22,0,0,0,.15.26L8.92,7.22a0.12,0.12,0,0,1,.08.2L6.61,11.51a0.23,0.23,0,0,0,0,.11,0.22,0.22,0,0,0,.19.23l0.74,0.07a0.14,0.14,0,0,1,.1.23l-3,5a0.22,0.22,0,0,0,0,.11,0.22,0.22,0,0,0,.19.23H18.2A0.23,0.23,0,0,0,18.36,17.16Z" fill="#375667"/><polygon points="10.48 18.29 10.48 22.66 11.5 22.66 12.52 22.66 12.52 18.29 10.48 18.29" fill="#375667"/><circle cx="11.5" cy="3.48" r="0.78" fill="#22b8af"/><circle cx="10.72" cy="8.15" r="0.78" fill="#22b8af"/><circle cx="13.84" cy="11.27" r="0.78" fill="#22b8af"/><circle cx="8.38" cy="14.39" r="0.78" fill="#22b8af"/><circle cx="14.62" cy="15.95" r="0.78" fill="#22b8af"/></svg>