<svg xmlns="http://www.w3.org/2000/svg" width="23" height="23" viewBox="0 0 23 23"><title>icons</title><path d="M19.58,7.57A1.38,1.38,0,0,0,18.2,9v5.77a1.39,1.39,0,0,0,2.77,0V9A1.38,1.38,0,0,0,19.58,7.57Z" fill="#a4c639"/><path d="M3.42,7.57A1.38,1.38,0,0,0,2,9v5.77a1.39,1.39,0,0,0,2.77,0V9A1.38,1.38,0,0,0,3.42,7.57Z" fill="#a4c639"/><path d="M17.19,7.81H5.32v9a1.49,1.49,0,0,0,1.49,1.49h1v3.06a1.39,1.39,0,1,0,2.77,0V18.26h1.85v3.06a1.39,1.39,0,1,0,2.77,0V18.26h1a1.49,1.49,0,0,0,1.49-1.49v-9H17.19Z" fill="#a4c639"/><path d="M5.81,7.32H17.68a5.27,5.27,0,0,0-.2-1.42A5.75,5.75,0,0,0,15,2.6l-0.21-.12-0.22-.12,0.24-.43,0.74-1.34A0.2,0.2,0,1,0,15.16.4L14.41,1.75l-0.24.42-0.22-.1L13.71,2A6.71,6.71,0,0,0,9.28,2L9,2.08l-0.22.1L8.59,1.75,7.84,0.4a0.2,0.2,0,0,0-.35.19L8.23,1.92,8.47,2.35l-0.22.12L8,2.59A5.74,5.74,0,0,0,5.51,5.9a5.3,5.3,0,0,0-.2,1.42H5.81ZM9.16,4.6a0.49,0.49,0,1,1,0-.06,0.19,0.19,0,0,1,0,.06h0Zm5.2,0.46a0.52,0.52,0,1,1,.52-0.52,0.52,0.52,0,0,1-.52.52h0Z" fill="#a4c639"/></svg>