<svg xmlns="http://www.w3.org/2000/svg" width="23" height="23" viewBox="0 0 23 23"><title>icons-payment-set copy</title><path d="M19.4,7.16L15.85,3.6a2.17,2.17,0,0,1-2.39,0L3.61,13.46a2.17,2.17,0,0,1,0,2.39L7.15,19.4a2.17,2.17,0,0,1,2.39,0L19.4,9.54A2.17,2.17,0,0,1,19.4,7.16Zm-5.59,6.65c-3,3-7.6-1.64-4.62-4.62s7.6,1.64,4.62,4.62h0Z" fill="#22b8af"/><path d="M6.92,22a2,2,0,0,0,2.85,0L22,9.78a2,2,0,0,0,0-2.86L16.08,1a2,2,0,0,0-2.86,0L1,13.22a2,2,0,0,0,0,2.86Zm-4.56-6.2a1.3,1.3,0,0,0,0-2.34L13.48,2.35a1.3,1.3,0,0,0,2.34,0l4.82,4.82a1.3,1.3,0,0,0,0,2.34L9.52,20.64a1.3,1.3,0,0,0-2.34,0Z" fill="#375667"/></svg>