<svg xmlns="http://www.w3.org/2000/svg" width="23" height="23" viewBox="0 0 23 23"><title>icons-payment-set copy</title><path d="M22.21,4.63H0.79a0.64,0.64,0,0,0-.64.64V17.73a0.64,0.64,0,0,0,.64.64H22.21a0.64,0.64,0,0,0,.64-0.64V5.27A0.64,0.64,0,0,0,22.21,4.63ZM11.33,16a4.48,4.48,0,1,1,4.48-4.48A4.47,4.47,0,0,1,11.33,16Z" fill="#375667"/><path d="M11.33,7.66a3.84,3.84,0,1,0,3.84,3.84A3.84,3.84,0,0,0,11.33,7.66Zm1,5.36a1.2,1.2,0,0,1-.66.42V14H11.22V13.46a1.29,1.29,0,0,1-.73-0.33,1.57,1.57,0,0,1-.37-0.77l0.54-.11a1.25,1.25,0,0,0,.27.53,0.69,0.69,0,0,0,.89,0A0.59,0.59,0,0,0,12,12.31a0.52,0.52,0,0,0-.15-0.39,1.41,1.41,0,0,0-.22-0.16l-0.38-.19a1.82,1.82,0,0,1-.62-0.39,0.92,0.92,0,0,1-.24-0.64,1,1,0,0,1,.06-0.33,0.89,0.89,0,0,1,.16-0.27,1,1,0,0,1,.26-0.21,1.41,1.41,0,0,1,.35-0.14V9.11h0.43V9.59a1,1,0,0,1,.47.19,1.45,1.45,0,0,1,.35.44L12,10.48a0.64,0.64,0,0,0-.56-0.39,0.51,0.51,0,0,0-.36.13,0.41,0.41,0,0,0-.14.32,0.39,0.39,0,0,0,.11.29,1.67,1.67,0,0,0,.45.27,4.44,4.44,0,0,1,.49.25,1.33,1.33,0,0,1,.29.23,1,1,0,0,1,.28.72A1.15,1.15,0,0,1,12.3,13Z" fill="#375667"/></svg>