<svg xmlns="http://www.w3.org/2000/svg" width="23" height="23" viewBox="0 0 23 23"><title>icons-payment-set copy</title><path d="M22.36,5H0.64A0.64,0.64,0,0,0,0,5.64V18.36A0.64,0.64,0,0,0,.64,19H22.36A0.64,0.64,0,0,0,23,18.36V5.64A0.64,0.64,0,0,0,22.36,5ZM4.45,13H4c-0.09,0-.17-0.09-0.19,0l-0.15.89A0.15,0.15,0,0,1,3.5,14H2.84a0.14,0.14,0,0,1-.11-0.16l0.55-3.59A0.3,0.3,0,0,1,3.47,10H4.84a1.29,1.29,0,0,1,1,.43A1.55,1.55,0,0,1,6,11.51,1.56,1.56,0,0,1,4.45,13Zm4.22,0.82a0.21,0.21,0,0,1-.19.18H7.9a0.14,0.14,0,0,1-.11-0.15l0-.19a1.26,1.26,0,0,1-.9.37,1,1,0,0,1-.82-0.34,1.24,1.24,0,0,1-.24-1A1.5,1.5,0,0,1,7.3,11.36a0.93,0.93,0,0,1,.77.27l0,0.07,0-.4A0.58,0.58,0,0,1,8.26,11H8.91a0.49,0.49,0,0,1,.11.36ZM10.15,15H9.49a0.19,0.19,0,0,1-.09-0.26l0.68-1L9.35,11.38A0.46,0.46,0,0,1,9.46,11h0.65a0.58,0.58,0,0,1,.18.35l0.38,1.39,0.91-1.49A0.55,0.55,0,0,1,11.74,11h0.66a0.37,0.37,0,0,1,.09.39L10.3,14.73A0.67,0.67,0,0,1,10.15,15Zm4-2H13.75c-0.09,0-.17-0.09-0.19,0l-0.16.94c0,0.06-.07.06-0.13,0.06h-0.7a0.14,0.14,0,0,1-.11-0.16L13,10.25A0.3,0.3,0,0,1,13.2,10h1.36a1.29,1.29,0,0,1,1,.43,1.55,1.55,0,0,1,.17,1.08A1.56,1.56,0,0,1,14.18,13Zm4.22,0.82a0.21,0.21,0,0,1-.19.18H17.63a0.14,0.14,0,0,1-.11-0.15l0-.19a1.26,1.26,0,0,1-.9.37,1,1,0,0,1-.82-0.34,1.24,1.24,0,0,1-.24-1A1.5,1.5,0,0,1,17,11.36a0.93,0.93,0,0,1,.77.27l0,0.07,0-.4A0.58,0.58,0,0,1,18,11h0.65a0.49,0.49,0,0,1,.11.36Zm1.31,0a0.21,0.21,0,0,1-.19.18H19a0.13,0.13,0,0,1-.11-0.15l0.56-3.66A0.25,0.25,0,0,1,19.53,10h0.63a0.22,0.22,0,0,1,.11.22Z" fill="#375667"/><path d="M14.06,10.92H14a0.11,0.11,0,0,0-.11.1l-0.14.91h0.21c0.36,0,.74,0,0.81-0.49a0.46,0.46,0,0,0-.07-0.38A0.78,0.78,0,0,0,14.06,10.92Z" fill="#375667"/><path d="M17.19,12.06a0.73,0.73,0,0,0-.73.63,0.51,0.51,0,0,0,.54.64,0.73,0.73,0,0,0,.74-0.62,0.56,0.56,0,0,0-.11-0.46A0.55,0.55,0,0,0,17.19,12.06Z" fill="#375667"/><path d="M7.46,12.06a0.73,0.73,0,0,0-.73.63,0.51,0.51,0,0,0,.54.64A0.73,0.73,0,0,0,8,12.7a0.56,0.56,0,0,0-.11-0.46A0.55,0.55,0,0,0,7.46,12.06Z" fill="#375667"/><path d="M4.33,10.92H4.23a0.11,0.11,0,0,0-.11.1L4,11.93H4.18c0.36,0,.74,0,0.81-0.49a0.46,0.46,0,0,0-.07-0.38A0.79,0.79,0,0,0,4.33,10.92Z" fill="#375667"/></svg>