<svg xmlns="http://www.w3.org/2000/svg" width="23" height="23" viewBox="0 0 23 23"><title>icons-ui-set copy</title><path d="M22.46,20l-4.74-4.73a15.24,15.24,0,0,1-2.5,2.5L20,22.47C21.53,24.1,24.08,21.6,22.46,20Z" fill="#375667"/><path d="M15.25,17.73A9.83,9.83,0,0,0,17.17,3.46,9.82,9.82,0,0,0,4.36,1.62,9.82,9.82,0,0,0,1.08,14.14,9.81,9.81,0,0,0,14,18.46a9.44,9.44,0,0,0,1.26-.74h0ZM9.73,15.9A6.25,6.25,0,0,1,3.55,9.72,6.25,6.25,0,0,1,9.73,3.53a6.25,6.25,0,0,1,6.19,6.18A6.25,6.25,0,0,1,9.73,15.9Z" fill="#22b8af"/><path d="M9.73,1.59a8.13,8.13,0,0,1,4.9,14.61l-0.3.21A8.12,8.12,0,1,1,9.73,1.59M9.73,0a9.72,9.72,0,1,0,5.51,17.73h0A9.72,9.72,0,0,0,9.73,0h0Z" fill="#375667"/></svg>