<?xml version="1.0" encoding="utf-8"?>
<!-- Generator: Adobe Illustrator 18.1.1, SVG Export Plug-In . SVG Version: 6.00 Build 0)  -->
<!DOCTYPE svg PUBLIC "-//W3C//DTD SVG 1.1//EN" "http://www.w3.org/Graphics/SVG/1.1/DTD/svg11.dtd">
<svg version="1.1" id="Layer_1" xmlns="http://www.w3.org/2000/svg" xmlns:xlink="http://www.w3.org/1999/xlink" x="0px" y="0px"
	 width="23px" height="23px" viewBox="0 0 23 23" style="enable-background:new 0 0 23 23;" xml:space="preserve">
<g>
	<path style="fill:#375667;" d="M20.3,3H2.7c-1,0-1.8,0.8-1.8,1.8v13.4c0,1,0.8,1.8,1.8,1.8h17.6c1,0,1.8-0.8,1.8-1.8V4.8
		C22.1,3.8,21.3,3,20.3,3z M19.7,5.4v12.1H3.3V5.4H19.7z"/>
	<polygon style="fill:#22B8AF;" points="18.2,16.1 18.2,12.1 14.7,8.6 9,14.3 7.3,12.5 4.8,14.9 4.8,16.1 	"/>
	<path style="fill:#22B8AF;" d="M6.9,11.1c-2.7,0-2.7-4.2,0-4.2C9.6,6.9,9.6,11.1,6.9,11.1z"/>
</g>
</svg>
