<?xml version="1.0" encoding="utf-8"?>
<!-- Generator: Adobe Illustrator 18.1.1, SVG Export Plug-In . SVG Version: 6.00 Build 0)  -->
<!DOCTYPE svg PUBLIC "-//W3C//DTD SVG 1.1//EN" "http://www.w3.org/Graphics/SVG/1.1/DTD/svg11.dtd">
<svg version="1.1" id="Layer_1" xmlns="http://www.w3.org/2000/svg" xmlns:xlink="http://www.w3.org/1999/xlink" x="0px" y="0px"
	 width="23px" height="23px" viewBox="0 0 23 23" style="enable-background:new 0 0 23 23;" xml:space="preserve">
<g>
	<linearGradient id="SVGID_1_" gradientUnits="userSpaceOnUse" x1="-1.200000e-03" y1="11.5" x2="22.9988" y2="11.5">
		<stop  offset="0" style="stop-color:#0DC7B6"/>
		<stop  offset="1" style="stop-color:#0DE9C7"/>
	</linearGradient>
	<rect x="0" y="0" style="fill:url(#SVGID_1_);" width="23" height="23"/>
	<linearGradient id="SVGID_2_" gradientUnits="userSpaceOnUse" x1="6.7775" y1="5.6798" x2="23.5483" y2="22.4506">
		<stop  offset="5.102010e-03" style="stop-color:#00132A;stop-opacity:0.9"/>
		<stop  offset="1" style="stop-color:#00132A;stop-opacity:0"/>
	</linearGradient>
	<polygon style="opacity:0.35;fill:url(#SVGID_2_);" points="23,23 23,10.7 20.4,8.1 18.9,9.3 17.7,10.5 16.7,10.2 14.1,8.1 
		12.9,10.7 10.3,8.1 10.3,11.3 10.3,12.5 9.4,8.2 8.5,8.2 7.1,11 4.3,8.2 5.7,13.8 4.8,14.9 12.9,23 	"/>
	<path style="fill:#FFFFFF;" d="M11.7,12.3c0.1,0,0.3-0.1,0.3-0.2l0.6-0.9v3.5c0,0.1,0.1,0.2,0.2,0.2h3c0.1,0,0.3-0.1,0.3-0.2
		l1.2-1.8l1.2,1.8c0.1,0.1,0.2,0.2,0.3,0.2h1.4c0.1,0,0.2-0.1,0.1-0.2l-2.1-3.3l2.1-3.3c0.1-0.1,0-0.2-0.1-0.2h-1.4
		c-0.1,0-0.3,0.1-0.3,0.2l-1.2,1.8l-1.2-1.8c-0.1-0.1-0.2-0.2-0.3-0.2h-3c-0.1,0-0.2,0.1-0.2,0.2v2.4h-2c-0.1,0-0.2-0.1-0.2-0.2V8.3
		c0-0.1-0.1-0.2-0.2-0.2H7.3C7.2,8.1,7.1,8.2,7,8.3l-1.4,4.1L4.3,8.3c0-0.1-0.2-0.2-0.3-0.2H2.7c-0.1,0-0.2,0.1-0.1,0.2l2.2,6.5
		C4.8,14.9,4.9,15,5,15h1.3c0.1,0,0.2-0.1,0.3-0.2l2.2-6.5l0,0v6.5C8.8,14.9,8.9,15,9,15h1.2c0.1,0,0.2-0.1,0.2-0.2v-2.2
		c0-0.1,0.1-0.2,0.2-0.2H11.7z M14.2,14.7V8.3l2.1,3.2L14.2,14.7z"/>
</g>
</svg>
