<?xml version="1.0" encoding="utf-8"?>
<!-- Generator: Adobe Illustrator 17.1.0, SVG Export Plug-In . SVG Version: 6.00 Build 0)  -->
<!DOCTYPE svg PUBLIC "-//W3C//DTD SVG 1.1//EN" "http://www.w3.org/Graphics/SVG/1.1/DTD/svg11.dtd">
<svg version="1.1" id="Layer_1" xmlns="http://www.w3.org/2000/svg" xmlns:xlink="http://www.w3.org/1999/xlink" x="0px" y="0px"
	 width="49.7px" height="20.1px" viewBox="0 0 49.7 20.1" style="enable-background:new 0 0 49.7 20.1;" xml:space="preserve">
<g>
	<g>
		<g>
			<rect x="27.6" y="5.6" width="4" height="2"/>
			<polygon points="40.1,5.6 39.7,6.3 39.2,5.6 34.1,5.6 35.4,7.6 43.6,7.6 45,5.6 			"/>
			<path d="M31.5,4.1V1.8l1.6,2.3h5.2l-1.5-2.4c-0.2-0.2-0.5-0.4-0.8-0.4h-7.7c-0.3,0-0.6,0.1-0.6,0.4v2.3H31.5z"/>
			<polygon points="27.6,9.2 27.6,11.2 31.5,11.2 31.5,9.2 17.9,9.2 17.9,11.2 26.4,11.2 			"/>
			<path d="M21.9,7.4V5.6h-4v2h4C21.9,7.6,21.9,7.5,21.9,7.4z"/>
			<rect x="27.6" y="12.7" width="4" height="2"/>
			<rect x="17.9" y="12.7" width="4" height="2"/>
			<polygon points="42.7,9.2 36.4,9.2 37,10 36.2,11.2 42.8,11.2 42.1,10.1 			"/>
			<path d="M32.9,16.2l-1.3,2v-2h-4v2c0,0.3,0.3,0.7,0.6,0.7h7.7c0.3,0,0.7-0.3,0.8-0.5l1.4-2.2H32.9z"/>
			<path d="M17.9,16.2v2c0,0.3,0.2,0.7,0.5,0.7h2.9c0.3,0,0.5-0.5,0.5-0.7v-2H17.9z"/>
			<path d="M46,16.2h-4.8l1.5,2.2c0.2,0.2,0.5,0.5,0.8,0.5h3.7c0.3,0,0.4-0.3,0.2-0.6L46,16.2z"/>
			<path d="M45.9,4.1l1.5-2.3c0.2-0.2,0-0.4-0.2-0.4h-3.7c-0.3,0-0.7,0.1-0.8,0.4l-1.6,2.4H45.9z"/>
			<path d="M17.9,1.8v2.3h4V1.8c0-0.3-0.1-0.4-0.4-0.4h-6.8"/>
			<polygon points="43.8,12.7 35.2,12.7 33.9,14.7 39.1,14.7 39.7,13.8 40.3,14.7 45.1,14.7 			"/>
		</g>
	</g>
	<path d="M17.5,1.4h-3.3c-0.3,0-0.6,0.2-0.7,0.5l-3.5,10.4L6.6,1.8C6.5,1.5,6.2,1.4,5.9,1.4H2.6c-0.3,0-0.5,0.2-0.4,0.5l5.5,16.6
		C7.8,18.7,8.1,19,8.4,19h3.3c0.3,0,0.6-0.3,0.7-0.6l5.5-16.5l0,0l0,0C18,1.5,17.8,1.4,17.5,1.4z M14.7,3.4l0.4-0.9l0.4,0.9l1,0.1
		l-0.7,0.7l0.2,1l-0.9-0.5l-0.9,0.5l0.2-1l-0.7-0.7L14.7,3.4z M4.1,5.2l0.2-1L3.6,3.5l1-0.1L5,2.5l0.4,0.9l1,0.1L5.7,4.2l0.2,1
		L5,4.7L4.1,5.2z M7.8,10.3l0.2,1l-0.9-0.5l-0.9,0.5l0.2-1L5.7,9.6l1-0.1l0.4-0.9l0.4,0.9l1,0.1L7.8,10.3z M10.9,17.3L10,16.9
		l-0.9,0.5l0.2-1l-0.7-0.7l1-0.1l0.4-0.9l0.4,0.9l1,0.1l-0.7,0.7L10.9,17.3z M12.2,11.2l0.2-1l-0.7-0.7l1-0.1l0.4-0.9l0.4,0.9l1,0.1
		l-0.7,0.7l0.2,1l-0.9-0.5L12.2,11.2z"/>
</g>
</svg>
