<?xml version="1.0" encoding="utf-8"?>
<!-- Generator: Adobe Illustrator 18.1.1, SVG Export Plug-In . SVG Version: 6.00 Build 0)  -->
<!DOCTYPE svg PUBLIC "-//W3C//DTD SVG 1.1//EN" "http://www.w3.org/Graphics/SVG/1.1/DTD/svg11.dtd">
<svg version="1.1" id="Layer_1" xmlns="http://www.w3.org/2000/svg" xmlns:xlink="http://www.w3.org/1999/xlink" x="0px" y="0px"
	 width="23px" height="23px" viewBox="0 0 23 23" style="enable-background:new 0 0 23 23;" xml:space="preserve">
<g>
	<g>
		<path style="fill:#385767;" d="M11.5,22.5c-6.1,0-11-4.9-11-11s4.9-11,11-11s11,4.9,11,11S17.6,22.5,11.5,22.5z M11.5,2
			C6.3,2,2,6.3,2,11.5c0,5.2,4.2,9.5,9.5,9.5s9.5-4.2,9.5-9.5C21,6.3,16.7,2,11.5,2z"/>
		<path style="fill:#385767;" d="M11.5,22.7c-6.2,0-11.2-5-11.2-11.2c0-6.2,5-11.3,11.2-11.3s11.2,5,11.2,11.3
			C22.8,17.7,17.7,22.7,11.5,22.7z M11.5,0.8C5.6,0.8,0.8,5.6,0.8,11.5s4.8,10.7,10.7,10.7s10.7-4.8,10.7-10.7S17.4,0.8,11.5,0.8z
			 M11.5,21.2c-5.4,0-9.7-4.4-9.7-9.7c0-5.4,4.4-9.7,9.7-9.7s9.7,4.4,9.7,9.7C21.2,16.9,16.9,21.2,11.5,21.2z M11.5,2.3
			c-5.1,0-9.2,4.1-9.2,9.2s4.1,9.2,9.2,9.2s9.2-4.1,9.2-9.2S16.6,2.3,11.5,2.3z"/>
	</g>
</g>
<path style="fill:#22B6AE;" d="M14.6,8.6c-1.1-0.5-2.6,0-3.1,1.1c-0.5-1.1-2-1.6-3.1-1.1c-1.2,0.5-1.7,1.9-0.8,3.6
	c0.7,1.2,1.8,2.1,3.9,3.6c2-1.6,3.2-2.5,3.9-3.6C16.3,10.6,15.8,9.2,14.6,8.6z"/>
</svg>
