<?xml version="1.0" encoding="utf-8"?>
<!-- Generator: Adobe Illustrator 18.1.1, SVG Export Plug-In . SVG Version: 6.00 Build 0)  -->
<svg version="1.1" id="Layer_1" xmlns="http://www.w3.org/2000/svg" xmlns:xlink="http://www.w3.org/1999/xlink" x="0px" y="0px"
	 width="23px" height="23px" viewBox="195.5 385.5 23 23" style="enable-background:new 195.5 385.5 23 23;" xml:space="preserve">
<path d="M199.6,392.7l6.8,3.3c0.2,0.1,0.4,0.1,0.6,0.1c0.2,0,0.5,0,0.6-0.1l6.8-3.3c0.4-0.2,0.4-0.5,0-0.6l-6.8-3.3
	c-0.2-0.1-0.4-0.1-0.6-0.1c-0.2,0-0.5,0-0.6,0.1l-6.8,3.3C199.2,392.2,199.2,392.5,199.6,392.7z"/>
<path d="M214.4,396c0,0-1.2-0.6-1.4-0.7c-0.2-0.1-0.2-0.1-0.4,0c-0.2,0.1-5,2.4-5,2.4c-0.2,0.1-0.4,0.1-0.6,0.1s-0.5,0-0.6-0.1
	c0,0-4.7-2.3-4.9-2.4c-0.2-0.1-0.3-0.1-0.5,0c-0.2,0.1-1.3,0.6-1.3,0.6c-0.4,0.2-0.4,0.5,0,0.6l6.8,3.3c0.2,0.1,0.4,0.1,0.6,0.1
	c0.2,0,0.5,0,0.6-0.1l6.8-3.3C214.8,396.4,214.8,396.2,214.4,396z"/>
<path d="M214.4,400c0,0-1.2-0.6-1.4-0.7c-0.2-0.1-0.2-0.1-0.4,0c-0.2,0.1-5,2.4-5,2.4c-0.2,0.1-0.4,0.1-0.6,0.1
	c-0.2,0-0.5,0-0.6-0.1c0,0-4.7-2.3-4.9-2.4c-0.2-0.1-0.3-0.1-0.5,0c-0.2,0.1-1.3,0.6-1.3,0.6c-0.4,0.2-0.4,0.5,0,0.6l6.8,3.3
	c0.2,0.1,0.4,0.1,0.6,0.1s0.5,0,0.6-0.1l6.8-3.3C214.8,400.4,214.8,400.1,214.4,400z"/>
</svg>
