<?xml version="1.0" encoding="utf-8"?>
<!-- Generator: Adobe Illustrator 18.1.1, SVG Export Plug-In . SVG Version: 6.00 Build 0)  -->
<!DOCTYPE svg PUBLIC "-//W3C//DTD SVG 1.1//EN" "http://www.w3.org/Graphics/SVG/1.1/DTD/svg11.dtd">
<svg version="1.1" id="Layer_1" xmlns="http://www.w3.org/2000/svg" xmlns:xlink="http://www.w3.org/1999/xlink" x="0px" y="0px"
	 width="23px" height="23px" viewBox="0 0 23 23" style="enable-background:new 0 0 23 23;" xml:space="preserve">
<g>
	<path style="fill:#375667;" d="M17.2,2.9c-1.6-1.6-3.6-2.4-5.7-2.4v4.4c1.9,0,3.6,1.6,3.7,3.5c0.1,2-1.6,3.8-3.7,3.8v10.3
		c0,0,0.5-1.5,0.6-1.6c0.8-1.8,2.1-3.4,3.4-4.8c1.8-2.1,3.7-3.7,4-6.6C19.8,7.1,18.9,4.6,17.2,2.9C15.6,1.3,20.3,6,17.2,2.9z"/>
	<path style="fill:#22B8AF;" d="M8.9,11.1c-2.3-2.3-0.6-6.3,2.6-6.3V0.5c-6.6,0-10.4,7.9-6.3,13.1c1.8,2.2,4,4.1,5.4,6.7
		c0.1,0.1,0.9,2.3,0.9,2.3V12.2C10.6,12.2,9.6,11.8,8.9,11.1C7.5,9.7,9.6,11.8,8.9,11.1z"/>
</g>
</svg>
