<?xml version="1.0" encoding="utf-8"?>
<!-- Generator: Adobe Illustrator 18.1.1, SVG Export Plug-In . SVG Version: 6.00 Build 0)  -->
<!DOCTYPE svg PUBLIC "-//W3C//DTD SVG 1.1//EN" "http://www.w3.org/Graphics/SVG/1.1/DTD/svg11.dtd">
<svg version="1.1" id="Layer_1" xmlns="http://www.w3.org/2000/svg" xmlns:xlink="http://www.w3.org/1999/xlink" x="0px" y="0px"
	 width="23px" height="23px" viewBox="0 0 23 23" style="enable-background:new 0 0 23 23;" xml:space="preserve">
<path style="fill:#375667;" d="M11.5,20.9l1-1c0.3-0.3,0.3-0.7,0-0.9L6,12.5h14.6c0.4,0,0.7-0.3,0.7-0.7v-1.3c0-0.4-0.3-0.7-0.7-0.7
	H6l6.5-6.5c0.3-0.3,0.3-0.7,0-0.9l-1-1c-0.3-0.3-0.7-0.3-0.9,0l-9.4,9.4c-0.3,0.3-0.3,0.7,0,0.9l9.4,9.4
	C10.9,21.2,11.3,21.2,11.5,20.9z"/>
</svg>
