<?xml version="1.0" encoding="utf-8"?>
<!-- Generator: Adobe Illustrator 18.1.1, SVG Export Plug-In . SVG Version: 6.00 Build 0)  -->
<!DOCTYPE svg PUBLIC "-//W3C//DTD SVG 1.1//EN" "http://www.w3.org/Graphics/SVG/1.1/DTD/svg11.dtd">
<svg version="1.1" id="Layer_1" xmlns="http://www.w3.org/2000/svg" xmlns:xlink="http://www.w3.org/1999/xlink" x="0px" y="0px"
	 width="23px" height="23px" viewBox="0 0 23 23" style="enable-background:new 0 0 23 23;" xml:space="preserve">
<g>
	<g>
		<rect x="3.3" y="7.8" style="fill-rule:evenodd;clip-rule:evenodd;fill:#22B8AF;" width="2.6" height="10.6"/>
		<rect x="7.4" y="7.8" style="fill-rule:evenodd;clip-rule:evenodd;fill:#22B8AF;" width="12.3" height="10.6"/>
	</g>
	<path style="fill-rule:evenodd;clip-rule:evenodd;fill:#375667;" d="M21.6,1.8H1.4c-0.6,0-1,0.5-1,1v17.4c0,0.6,0.5,1,1,1h20.2
		c0.6,0,1-0.5,1-1V2.8C22.6,2.2,22.2,1.8,21.6,1.8z M8.7,2.8c1.3,0,1.3,2.1,0,2.1C7.4,4.9,7.4,2.8,8.7,2.8z M5.6,2.8
		c1.3,0,1.3,2.1,0,2.1C4.2,4.9,4.2,2.8,5.6,2.8z M2.5,2.8c1.3,0,1.3,2.1,0,2.1C1.1,4.9,1.1,2.8,2.5,2.8z M21.6,10.1v1v9H6.6h-1H1.4
		v-9v-1V5.9h1h18.1h1V10.1z"/>
</g>
</svg>
