<svg xmlns="http://www.w3.org/2000/svg" width="71" height="43" viewBox="0 0 71 43"><path d="M69 0h-67c-2.1 0-2 2.1-2 3.5v37.4c0 1.7 1.4 2.1 2.7 2.1h66c1.4 0 2.4-.8 2.4-2.3v-37.7c-.1-1.4-.3-3-2.1-3zm-40.7 30.8c0 2.4-1.9 4.4-4.3 4.6-2.1.3-4.3 0-6.5 0-.9 0-.8.1-.8-.8v-9c2.8.7 9.5 1.7 10.4-2.2.3-1.2.1-2.6.1-3.8v-2.1c0-.4.1-.5-.3-.5h-3.7v3.4c0 1.5.3 3.5-1.5 4.2-.8.3-1.7.2-2.5 0-.9-.2-1.8-.5-2.6-.9-.1-.1 0-.5 0-.6v-6.4c0-2.1-.4-4.7.5-6.7.5-1 1.3-1.6 2.2-2.1 1.4-.6 8.7-.5 8.7-.3v15.1c.3 2.7.3 5.4.3 8.1zm13 .1c0 2.4-2 4.4-4.4 4.6-.9.1-2 0-2.9 0h-4c-.4 0-.2-1.3-.2-1.6v-9.1c1.4 1.2 3.4 1.5 5.2 1.5 1.1 0 2.1 0 3.1-.2l1.2-.2c.1 0 .6-.1.7-.2.2-.3 0-1.5 0-1.9v-.1c-1.4.7-3.4 1.4-5 1-3-.4-3.4-4.8-.8-6.1 1.9-.7 4.1-.1 5.8.7v-1.8c0-.3-.3-.3-.5-.3-.4-.1-.8-.2-1.2-.2-.9-.1-1.9-.2-2.8-.2-1.8 0-3.7.2-5.3 1.2l-.5.3v-3.5c0-1.2-.2-2.6.1-3.8.3-1.3 1.2-2.2 2.2-2.9.7-.4 1.4-.6 2.2-.6 2.3-.1 4.6 0 6.8 0 .3 0 .3 21.2.3 23.4zm12.9 0c0 2.5-2.1 4.5-4.5 4.6-2.3.1-4.6 0-6.9 0-.2 0-.1-6.1-.1-6.7v-2.8h7c.4 0 .7 0 1.1-.1 1.3-.3 2.5-1.4 2-2.9-.3-.9-1.3-1.4-2.3-1.6h-.3l1.1-.4c.7-.4 1.1-1.2 1-2-.1-1.2-1.2-1.8-2.3-1.9-1.8-.2-3.8 0-5.6 0h-1.6c-.3 0-.2-.3-.2-.6v-4.1c0-2.5 1.8-4.6 4.3-4.8 2.2-.2 4.4 0 6.6 0 .6 0 .7-.1.7.5v22.8zm-6.5-8.8c1.5.2 1.6 2.5 0 2.5h-2.3c-.1 0-.4.1-.4-.1v-2.4000000000000004c0-.2.4-.1.5-.1.7.1 1.4.1 2.2.1zm-2.8-1.4v-2c0-.6.9-.3 1.3-.3.5 0 1.5-.2 1.9.3.7.5.4 1.7-.4 2-.8.2-1.9 0-2.8 0z" fill="#fff"/></svg>