<?xml version="1.0" encoding="utf-8"?>
<!-- Generator: Adobe Illustrator 18.1.1, SVG Export Plug-In . SVG Version: 6.00 Build 0)  -->
<!DOCTYPE svg PUBLIC "-//W3C//DTD SVG 1.1//EN" "http://www.w3.org/Graphics/SVG/1.1/DTD/svg11.dtd">
<svg version="1.1" id="Layer_1" xmlns="http://www.w3.org/2000/svg" xmlns:xlink="http://www.w3.org/1999/xlink" x="0px" y="0px"
	 width="23px" height="23px" viewBox="0 0 23 23" style="enable-background:new 0 0 23 23;" xml:space="preserve">
<g>
	<path style="fill:#22B8AF;" d="M16.4,16.9c-2.8,2.4-7.1,2.3-9.8-0.3l-2,2c3.8,3.8,9.9,3.9,13.9,0.3L16.4,16.9z"/>
	<path style="fill:#375667;" d="M15.3,5.3c0.3,0.2,0.6,0.4,0.9,0.6c3,2.6,3.7,7.2,0.9,10.3l2,2c2.3-2.5,3.1-6,2.3-9.3c0,0,0,0,0,0
		c-0.9-3.6-3.8-6.4-7.4-7.3C10.2,0.8,5.9,2.3,3.6,5.6l0.1-1.2c0-0.2,0-0.5-0.2-0.7c0,0,0,0,0,0c0,0,0,0,0,0c0,0,0,0,0,0c0,0,0,0,0,0
		c0,0,0,0,0,0c0,0,0,0,0,0c0,0,0,0,0,0C2.9,2.9,1.8,3.3,1.7,4.1v0c0,0,0,0,0,0L1.2,8.7l0,0c-0.1,0.6,0.4,1.1,1,1.1v0l2.5,0l0,0
		c0,0,0,0,0,0l2.1,0c0,0,0,0,0,0h0c0.9,0,1.3-1.1,0.8-1.7c0,0,0,0,0,0c0,0,0,0,0,0c0,0,0,0,0,0c0,0,0,0,0,0c0,0,0,0,0,0c0,0,0,0,0,0
		c0,0,0,0,0,0C7.3,7.9,7.1,7.8,6.8,7.8l-1.2,0c0,0,0,0,0,0C7.6,4.6,11.9,3.4,15.3,5.3C15.2,5.2,15.3,5.3,15.3,5.3
		C15.6,5.5,15.3,5.3,15.3,5.3z"/>
</g>
</svg>
