<svg xmlns="http://www.w3.org/2000/svg" width="71" height="43" viewBox="0 0 71 43"><path d="M69 0h-67c-1.1 0-2 .9-2 2v39c0 1.1.9 2 2 2h67c1.1 0 2-.9 2-2v-39c0-1.1-.9-2-2-2zm-34 35.5c-9.4 0-16.3-9.6-13.3-18.5s14.2-12.3 21.7-6.6c4.8 3.6 6.8 10 4.8 15.7-1.9 5.5-7.3 9.4-13.2 9.4zm0-26c-4.5 0-8.7 2.6-10.7 6.6-2.1 4-1.6 9 1.1 12.6 2.7 3.6 7.3 5.4 11.8 4.6 4.4-.8 8-4.1 9.3-8.3 2.3-7.6-3.6-15.5-11.5-15.5zm3 16.8c-.5.7-1.2 1.1-2.1 1.3v1.6h-1.3v-1.5c-2-.3-3-1.6-3.4-3.5l1.7-.4c.2.8.5 1.3.8 1.7 1.4 1.3 3.8-.1 3.3-2-.5-1.7-3.2-1.7-4.2-3-1.7-1.9-.3-4.4 1.9-5v-1.5h1.3v1.5c1.2.2 2 .9 2.6 2l-1.6.8c-.6-1-1.8-1.7-2.9-.8-1.2 1 0 2.1 1 2.6 1.1.5 2.4 1 3.1 2.1.9 1.2.7 2.9-.2 4.1-.5.6.5-.7 0 0z" fill="#fff"/></svg>