<?xml version="1.0" encoding="utf-8"?>
<!-- Generator: Adobe Illustrator 18.1.1, SVG Export Plug-In . SVG Version: 6.00 Build 0)  -->
<!DOCTYPE svg PUBLIC "-//W3C//DTD SVG 1.1//EN" "http://www.w3.org/Graphics/SVG/1.1/DTD/svg11.dtd">
<svg version="1.1" id="Layer_1" xmlns="http://www.w3.org/2000/svg" xmlns:xlink="http://www.w3.org/1999/xlink" x="0px" y="0px"
	 width="23px" height="23px" viewBox="0 0 23 23" style="enable-background:new 0 0 23 23;" xml:space="preserve">
<path style="fill:#22B8AF;" d="M17.4,22.3c-0.4,0-0.7-0.1-1-0.3l-4.9-3.6L6.6,22c-0.3,0.2-0.7,0.3-1,0.3c-0.4,0-0.7-0.1-1-0.3
	C4,21.6,3.7,20.8,4,20.1l2-5.8l-4.9-3.5c-0.6-0.4-0.9-1.2-0.6-1.9C0.6,8.2,1.2,7.7,2,7.7H8l1.9-5.8c0.2-0.7,0.9-1.2,1.6-1.2
	c0.8,0,1.4,0.5,1.6,1.2l1.9,5.8H21c0.7,0,1.4,0.5,1.6,1.2c0.2,0.7,0,1.5-0.6,1.9l-4.9,3.5l2,5.8c0.2,0.7,0,1.5-0.6,1.9
	C18,22.2,17.8,22.3,17.4,22.3z"/>
</svg>
