<svg xmlns="http://www.w3.org/2000/svg" width="23" height="23" viewBox="0 0 23 23"><title>icons-ui-set copy</title><rect x="14.84" y="6.11" width="3.12" height="2.57" fill="#22b8af"/><rect x="9.94" y="6.11" width="3.12" height="2.57" fill="#22b8af"/><rect x="5.04" y="6.11" width="3.12" height="2.57" fill="#22b8af"/><rect x="14.84" y="10.28" width="3.12" height="2.57" fill="#22b8af"/><rect x="9.94" y="10.28" width="3.12" height="2.57" fill="#22b8af"/><rect x="5.04" y="10.28" width="3.12" height="2.57" fill="#22b8af"/><rect x="14.84" y="14.32" width="3.12" height="2.57" fill="#22b8af"/><rect x="9.94" y="14.32" width="3.12" height="2.57" fill="#22b8af"/><rect x="5.04" y="14.32" width="3.12" height="2.57" fill="#22b8af"/><path d="M2.78,0.4A2.78,2.78,0,0,0,0,3.17V19.83A2.78,2.78,0,0,0,2.78,22.6H20.22A2.78,2.78,0,0,0,23,19.83V3.17A2.78,2.78,0,0,0,20.22.4H2.78ZM20.92,20.45H2.08v-17H20.92v17Z" fill="#375667"/></svg>