<svg xmlns="http://www.w3.org/2000/svg" width="23" height="23" viewBox="0 0 23 23"><title>icons-ui-set copy</title><path d="M17.7,17.51a1.1,1.1,0,0,1-.48-2.08,14.67,14.67,0,0,1,1.57-.3,3.28,3.28,0,0,0,0-6.18,3.25,3.25,0,0,0-1.12-.2,2.79,2.79,0,0,1-.4-1.08,6.32,6.32,0,0,0-1.84-2.59,6.19,6.19,0,0,0-9.88,3c-0.22.75-.18,0.6-0.9,0.74a3.28,3.28,0,0,0,.07,6.45,1.9,1.9,0,0,1,1.41.46A1.1,1.1,0,0,1,6,17.27c-0.78.63-2.34,0.06-3.12-.33a5.47,5.47,0,0,1-.22-9.67,2.2,2.2,0,0,0,1.18-.73A8.38,8.38,0,0,1,14.74,2.12,8.44,8.44,0,0,1,18.8,5.75a2.07,2.07,0,0,0,.78,1.16,5.48,5.48,0,0,1,3.09,2.84,5.52,5.52,0,0,1-5,7.77" fill="#375667" fill-rule="evenodd"/><path d="M15.6,17.52h0l-3.28,3.64a1.1,1.1,0,0,1-1.62,0h0L9,19.26C8.77,19,7.73,17.52,7.41,17.52A1.1,1.1,0,0,1,9,16.05l1.37,1.53V13.42a9.65,9.65,0,0,1,0-1.37,1.09,1.09,0,0,1,2.19,0v5.54a6.54,6.54,0,0,1,1.77-1.81A1.1,1.1,0,0,1,15.6,17.52Z" fill="#22b8af" fill-rule="evenodd"/></svg>