<svg xmlns="http://www.w3.org/2000/svg" width="23" height="23" viewBox="0 0 23 23"><title>icons-ui-set copy</title><path d="M22.68,3.47L20.3,5.84,17.12,2.67c0.75-.75,2.75-3.59,4-2.38C21.78,1,23.78,2.37,22.68,3.47" fill="#375667" fill-rule="evenodd"/><path d="M6,13.77l3.18,3.17L4.94,18Z" fill="#375667" fill-rule="evenodd"/><path d="M19.51,6.64L10,16.15,6.8,13l7-7,1.75-1.75a3.46,3.46,0,0,1,.76-0.76A6.7,6.7,0,0,1,17.84,5Z" fill="#375667" fill-rule="evenodd"/><path d="M2.31,3.39v17.3h17.3V10.09l2.26-2.25V20.28c0,0.91.27,2.67-1.12,2.67H3.54c-1,0-3.49.43-3.49-1.13V4.65c0-1-.43-3.52,1.13-3.52h14L14.1,2.26A4.94,4.94,0,0,1,13,3.39H2.31Z" fill="#22b8af" fill-rule="evenodd"/></svg>