<svg xmlns="http://www.w3.org/2000/svg" width="23" height="23" viewBox="0 0 23 23"><title>icons-ui-set copy</title><path d="M13.23,0.21h0A1,1,0,0,0,11.69,1v0.1h0a0.09,0.09,0,0,0,0,0h0a1,1,0,0,0,.33.53l0.88,0.72A9.2,9.2,0,0,0,4,16.85l1.91-1.91a6.6,6.6,0,0,1,7.14-9.82l-0.81.8a1,1,0,0,0-.27.56h0a0.4,0.4,0,0,0,0,0h0a0.11,0.11,0,0,0,0,0,0.15,0.15,0,0,0,0,0,0,0,0,0,0,0,0s0,0,0,0a1,1,0,0,0,1.61.62h0L15,5.91h0l1.63-1.63h0a0.94,0.94,0,0,0-.07-1.4h0Z" fill="#22b8af" fill-rule="evenodd"/><path d="M17.1,8.07A6.6,6.6,0,0,1,10,17.85l0.78-.78A1,1,0,0,0,11,16.51h0a0.1,0.1,0,0,0,0,0h0v0a0.07,0.07,0,0,1,0,0,0.06,0.06,0,0,0,0,0,0.07,0.07,0,0,0,0,0,1,1,0,0,0-1.61-.62h0L8.09,17.08h0L6.44,18.73h0a0.94,0.94,0,0,0,.07,1.4h0l3.28,2.66h0A1,1,0,0,0,11.34,22v0a0.08,0.08,0,0,0,0,0,0.06,0.06,0,0,0,0,0,0.1,0.1,0,0,0,0,0h0v0h0A1,1,0,0,0,11,21.33l-0.93-.76A9.19,9.19,0,0,0,19,6.15Z" fill="#375667" fill-rule="evenodd"/></svg>