<svg xmlns="http://www.w3.org/2000/svg" width="23" height="23" viewBox="0 0 23 23"><title>icons-ui-set copy</title><path d="M17.62,17.45a1.09,1.09,0,0,1-.47-2,14.34,14.34,0,0,1,1.55-.29,3.24,3.24,0,0,0-1.07-6.29,2.76,2.76,0,0,1-.39-1.07A6.22,6.22,0,0,0,15.4,5.19a6.1,6.1,0,0,0-9.75,3c-0.22.74-.17,0.59-0.89,0.73a3.24,3.24,0,0,0,.07,6.36,1.87,1.87,0,0,1,1.39.45,1.09,1.09,0,0,1-.17,1.52c-0.77.62-2.31,0.06-3.08-.33a5.39,5.39,0,0,1-.22-9.54,2.17,2.17,0,0,0,1.16-.72A8.27,8.27,0,0,1,14.7,2.27a8.33,8.33,0,0,1,4,3.58A2,2,0,0,0,19.47,7a5.37,5.37,0,0,1,1.26.66,5.39,5.39,0,0,1-3.11,9.8" fill="#375667" fill-rule="evenodd"/><path d="M7.46,14.93h0l3.23-3.59a1.09,1.09,0,0,1,1.6,0h0L14,13.2c0.21,0.24,1.23,1.72,1.55,1.72a1.08,1.08,0,0,1-1.6,1.45l-1.36-1.51V19a9.51,9.51,0,0,1,0,1.36,1.08,1.08,0,0,1-2.16,0V14.86a6.45,6.45,0,0,1-1.75,1.78A1.09,1.09,0,0,1,7.46,14.93Z" fill="#22b8af" fill-rule="evenodd"/></svg>